<svg xmlns="http://www.w3.org/2000/svg" shape-rendering="crispEdges" version="1.1" viewBox="0 0 36 36" width="360" height="360"><rect fill="#9c879eff" x="0" y="0" height="1" width="36"/><rect fill="#9c879eff" x="0" y="1" height="1" width="36"/><rect fill="#9c879eff" x="0" y="2" height="1" width="36"/><rect fill="#9c879eff" x="0" y="3" height="1" width="36"/><rect fill="#9c879eff" x="0" y="4" height="1" width="36"/><rect fill="#9c879eff" x="0" y="5" height="1" width="36"/><rect fill="#9c879eff" x="0" y="6" height="1" width="36"/><rect fill="#9c879eff" x="0" y="7" height="1" width="36"/><rect fill="#9c879eff" x="0" y="8" height="1" width="36"/><rect fill="#9c879eff" x="0" y="9" height="1" width="36"/><rect fill="#9c879eff" x="0" y="10" height="1" width="36"/><rect fill="#9c879eff" x="0" y="11" height="1" width="36"/><rect fill="#9c879eff" x="0" y="12" height="1" width="36"/><rect fill="#9c879eff" x="0" y="13" height="1" width="36"/><rect fill="#9c879eff" x="0" y="14" height="1" width="36"/><rect fill="#9c879eff" x="0" y="15" height="1" width="36"/><rect fill="#9c879eff" x="0" y="16" height="1" width="36"/><rect fill="#9c879eff" x="0" y="17" height="1" width="36"/><rect fill="#9c879eff" x="0" y="18" height="1" width="36"/><rect fill="#9c879eff" x="0" y="19" height="1" width="36"/><rect fill="#9c879eff" x="0" y="20" height="1" width="36"/><rect fill="#9c879eff" x="0" y="21" height="1" width="36"/><rect fill="#9c879eff" x="0" y="22" height="1" width="36"/><rect fill="#9c879eff" x="0" y="23" height="1" width="36"/><rect fill="#9c879eff" x="0" y="24" height="1" width="36"/><rect fill="#9c879eff" x="0" y="25" height="1" width="36"/><rect fill="#9c879eff" x="0" y="26" height="1" width="36"/><rect fill="#9c879eff" x="0" y="27" height="1" width="36"/><rect fill="#9c879eff" x="0" y="28" height="1" width="36"/><rect fill="#9c879eff" x="0" y="29" height="1" width="36"/><rect fill="#9c879eff" x="0" y="30" height="1" width="36"/><rect fill="#9c879eff" x="0" y="31" height="1" width="36"/><rect fill="#9c879eff" x="0" y="32" height="1" width="36"/><rect fill="#9c879eff" x="0" y="33" height="1" width="36"/><rect fill="#9c879eff" x="0" y="34" height="1" width="36"/><rect fill="#9c879eff" x="0" y="35" height="1" width="36"/></svg>