<svg xmlns="http://www.w3.org/2000/svg" shape-rendering="crispEdges" version="1.1" viewBox="0 0 36 36" width="360" height="360"><rect fill="#00e000ff" x="0" y="0" height="1" width="1"/><rect fill="#3d3e3dff" x="1" y="0" height="1" width="1"/><rect fill="#00e000ff" x="2" y="0" height="1" width="1"/><rect fill="#3d3e3dff" x="3" y="0" height="1" width="2"/><rect fill="#00e000ff" x="5" y="0" height="1" width="1"/><rect fill="#3d3e3dff" x="6" y="0" height="1" width="2"/><rect fill="#00e000ff" x="8" y="0" height="1" width="1"/><rect fill="#3d3e3dff" x="9" y="0" height="1" width="1"/><rect fill="#00e000ff" x="10" y="0" height="1" width="1"/><rect fill="#3d3e3dff" x="11" y="0" height="1" width="3"/><rect fill="#00e000ff" x="14" y="0" height="1" width="1"/><rect fill="#3d3e3dff" x="15" y="0" height="1" width="2"/><rect fill="#00e000ff" x="17" y="0" height="1" width="1"/><rect fill="#3d3e3dff" x="18" y="0" height="1" width="2"/><rect fill="#00e000ff" x="20" y="0" height="1" width="1"/><rect fill="#3d3e3dff" x="21" y="0" height="1" width="1"/><rect fill="#00e000ff" x="22" y="0" height="1" width="1"/><rect fill="#3d3e3dff" x="23" y="0" height="1" width="1"/><rect fill="#00e000ff" x="24" y="0" height="1" width="1"/><rect fill="#3d3e3dff" x="25" y="0" height="1" width="1"/><rect fill="#00e000ff" x="26" y="0" height="1" width="2"/><rect fill="#3d3e3dff" x="28" y="0" height="1" width="4"/><rect fill="#00e000ff" x="32" y="0" height="1" width="1"/><rect fill="#3d3e3dff" x="33" y="0" height="1" width="3"/><rect fill="#3d3e3dff" x="0" y="1" height="1" width="2"/><rect fill="#00e000ff" x="2" y="1" height="1" width="1"/><rect fill="#3d3e3dff" x="3" y="1" height="1" width="2"/><rect fill="#00e000ff" x="5" y="1" height="1" width="1"/><rect fill="#3d3e3dff" x="6" y="1" height="1" width="4"/><rect fill="#00e000ff" x="10" y="1" height="1" width="2"/><rect fill="#3d3e3dff" x="12" y="1" height="1" width="1"/><rect fill="#00e000ff" x="13" y="1" height="1" width="1"/><rect fill="#3d3e3dff" x="14" y="1" height="1" width="6"/><rect fill="#00e000ff" x="20" y="1" height="1" width="1"/><rect fill="#3d3e3dff" x="21" y="1" height="1" width="6"/><rect fill="#00e000ff" x="27" y="1" height="1" width="1"/><rect fill="#3d3e3dff" x="28" y="1" height="1" width="1"/><rect fill="#00e000ff" x="29" y="1" height="1" width="1"/><rect fill="#3d3e3dff" x="30" y="1" height="1" width="2"/><rect fill="#00e000ff" x="32" y="1" height="1" width="1"/><rect fill="#3d3e3dff" x="33" y="1" height="1" width="1"/><rect fill="#00e000ff" x="34" y="1" height="1" width="1"/><rect fill="#3d3e3dff" x="35" y="1" height="1" width="1"/><rect fill="#00e000ff" x="0" y="2" height="1" width="1"/><rect fill="#3d3e3dff" x="1" y="2" height="1" width="1"/><rect fill="#00e000ff" x="2" y="2" height="1" width="1"/><rect fill="#3d3e3dff" x="3" y="2" height="1" width="2"/><rect fill="#00e000ff" x="5" y="2" height="1" width="2"/><rect fill="#3d3e3dff" x="7" y="2" height="1" width="1"/><rect fill="#00e000ff" x="8" y="2" height="1" width="1"/><rect fill="#3d3e3dff" x="9" y="2" height="1" width="1"/><rect fill="#00e000ff" x="10" y="2" height="1" width="2"/><rect fill="#3d3e3dff" x="12" y="2" height="1" width="5"/><rect fill="#00e000ff" x="17" y="2" height="1" width="1"/><rect fill="#3d3e3dff" x="18" y="2" height="1" width="2"/><rect fill="#00e000ff" x="20" y="2" height="1" width="1"/><rect fill="#3d3e3dff" x="21" y="2" height="1" width="3"/><rect fill="#00e000ff" x="24" y="2" height="1" width="1"/><rect fill="#3d3e3dff" x="25" y="2" height="1" width="2"/><rect fill="#00e000ff" x="27" y="2" height="1" width="1"/><rect fill="#3d3e3dff" x="28" y="2" height="1" width="4"/><rect fill="#00e000ff" x="32" y="2" height="1" width="1"/><rect fill="#3d3e3dff" x="33" y="2" height="1" width="3"/><rect fill="#00e000ff" x="0" y="3" height="1" width="1"/><rect fill="#3d3e3dff" x="1" y="3" height="1" width="1"/><rect fill="#00e000ff" x="2" y="3" height="1" width="1"/><rect fill="#3d3e3dff" x="3" y="3" height="1" width="2"/><rect fill="#00e000ff" x="5" y="3" height="1" width="1"/><rect fill="#3d3e3dff" x="6" y="3" height="1" width="2"/><rect fill="#00e000ff" x="8" y="3" height="1" width="1"/><rect fill="#3d3e3dff" x="9" y="3" height="1" width="1"/><rect fill="#00e000ff" x="10" y="3" height="1" width="2"/><rect fill="#3d3e3dff" x="12" y="3" height="1" width="2"/><rect fill="#00e000ff" x="14" y="3" height="1" width="1"/><rect fill="#3d3e3dff" x="15" y="3" height="1" width="7"/><rect fill="#00e000ff" x="22" y="3" height="1" width="1"/><rect fill="#3d3e3dff" x="23" y="3" height="1" width="4"/><rect fill="#00e000ff" x="27" y="3" height="1" width="1"/><rect fill="#3d3e3dff" x="28" y="3" height="1" width="1"/><rect fill="#00e000ff" x="29" y="3" height="1" width="1"/><rect fill="#3d3e3dff" x="30" y="3" height="1" width="4"/><rect fill="#00e000ff" x="34" y="3" height="1" width="1"/><rect fill="#3d3e3dff" x="35" y="3" height="1" width="1"/><rect fill="#3d3e3dff" x="0" y="4" height="1" width="6"/><rect fill="#00e000ff" x="6" y="4" height="1" width="1"/><rect fill="#3d3e3dff" x="7" y="4" height="1" width="1"/><rect fill="#00e000ff" x="8" y="4" height="1" width="1"/><rect fill="#3d3e3dff" x="9" y="4" height="1" width="1"/><rect fill="#00e000ff" x="10" y="4" height="1" width="1"/><rect fill="#3d3e3dff" x="11" y="4" height="1" width="3"/><rect fill="#00e000ff" x="14" y="4" height="1" width="1"/><rect fill="#3d3e3dff" x="15" y="4" height="1" width="5"/><rect fill="#00e000ff" x="20" y="4" height="1" width="1"/><rect fill="#3d3e3dff" x="21" y="4" height="1" width="1"/><rect fill="#00e000ff" x="22" y="4" height="1" width="1"/><rect fill="#3d3e3dff" x="23" y="4" height="1" width="1"/><rect fill="#00e000ff" x="24" y="4" height="1" width="1"/><rect fill="#3d3e3dff" x="25" y="4" height="1" width="1"/><rect fill="#00e000ff" x="26" y="4" height="1" width="4"/><rect fill="#3d3e3dff" x="30" y="4" height="1" width="1"/><rect fill="#00e000ff" x="31" y="4" height="1" width="1"/><rect fill="#3d3e3dff" x="32" y="4" height="1" width="2"/><rect fill="#00e000ff" x="34" y="4" height="1" width="1"/><rect fill="#3d3e3dff" x="35" y="4" height="1" width="1"/><rect fill="#00e000ff" x="0" y="5" height="1" width="1"/><rect fill="#3d3e3dff" x="1" y="5" height="1" width="1"/><rect fill="#00e000ff" x="2" y="5" height="1" width="1"/><rect fill="#3d3e3dff" x="3" y="5" height="1" width="2"/><rect fill="#00e000ff" x="5" y="5" height="1" width="1"/><rect fill="#3d3e3dff" x="6" y="5" height="1" width="2"/><rect fill="#00e000ff" x="8" y="5" height="1" width="1"/><rect fill="#3d3e3dff" x="9" y="5" height="1" width="1"/><rect fill="#00e000ff" x="10" y="5" height="1" width="2"/><rect fill="#3d3e3dff" x="12" y="5" height="1" width="2"/><rect fill="#00e000ff" x="14" y="5" height="1" width="1"/><rect fill="#3d3e3dff" x="15" y="5" height="1" width="2"/><rect fill="#00e000ff" x="17" y="5" height="1" width="1"/><rect fill="#3d3e3dff" x="18" y="5" height="1" width="2"/><rect fill="#00e000ff" x="20" y="5" height="1" width="1"/><rect fill="#3d3e3dff" x="21" y="5" height="1" width="3"/><rect fill="#00e000ff" x="24" y="5" height="1" width="1"/><rect fill="#3d3e3dff" x="25" y="5" height="1" width="2"/><rect fill="#00e000ff" x="27" y="5" height="1" width="1"/><rect fill="#3d3e3dff" x="28" y="5" height="1" width="1"/><rect fill="#00e000ff" x="29" y="5" height="1" width="1"/><rect fill="#3d3e3dff" x="30" y="5" height="1" width="2"/><rect fill="#00e000ff" x="32" y="5" height="1" width="1"/><rect fill="#3d3e3dff" x="33" y="5" height="1" width="1"/><rect fill="#00e000ff" x="34" y="5" height="1" width="1"/><rect fill="#3d3e3dff" x="35" y="5" height="1" width="1"/><rect fill="#00e000ff" x="0" y="6" height="1" width="1"/><rect fill="#3d3e3dff" x="1" y="6" height="1" width="1"/><rect fill="#00e000ff" x="2" y="6" height="1" width="1"/><rect fill="#3d3e3dff" x="3" y="6" height="1" width="2"/><rect fill="#00e000ff" x="5" y="6" height="1" width="1"/><rect fill="#3d3e3dff" x="6" y="6" height="1" width="2"/><rect fill="#00e000ff" x="8" y="6" height="1" width="1"/><rect fill="#3d3e3dff" x="9" y="6" height="1" width="2"/><rect fill="#00e000ff" x="11" y="6" height="1" width="1"/><rect fill="#3d3e3dff" x="12" y="6" height="1" width="2"/><rect fill="#00e000ff" x="14" y="6" height="1" width="1"/><rect fill="#3d3e3dff" x="15" y="6" height="1" width="3"/><rect fill="#00e000ff" x="18" y="6" height="1" width="1"/><rect fill="#3d3e3dff" x="19" y="6" height="1" width="1"/><rect fill="#00e000ff" x="20" y="6" height="1" width="1"/><rect fill="#3d3e3dff" x="21" y="6" height="1" width="3"/><rect fill="#00e000ff" x="24" y="6" height="1" width="1"/><rect fill="#3d3e3dff" x="25" y="6" height="1" width="6"/><rect fill="#00e000ff" x="31" y="6" height="1" width="1"/><rect fill="#3d3e3dff" x="32" y="6" height="1" width="2"/><rect fill="#00e000ff" x="34" y="6" height="1" width="1"/><rect fill="#3d3e3dff" x="35" y="6" height="1" width="1"/><rect fill="#00e000ff" x="0" y="7" height="1" width="2"/><rect fill="#3d3e3dff" x="2" y="7" height="1" width="2"/><rect fill="#00e000ff" x="4" y="7" height="1" width="2"/><rect fill="#3d3e3dff" x="6" y="7" height="1" width="5"/><rect fill="#00e000ff" x="11" y="7" height="1" width="1"/><rect fill="#3d3e3dff" x="12" y="7" height="1" width="5"/><rect fill="#00e000ff" x="17" y="7" height="1" width="1"/><rect fill="#3d3e3dff" x="18" y="7" height="1" width="9"/><rect fill="#00e000ff" x="27" y="7" height="1" width="1"/><rect fill="#3d3e3dff" x="28" y="7" height="1" width="4"/><rect fill="#00e000ff" x="32" y="7" height="1" width="1"/><rect fill="#3d3e3dff" x="33" y="7" height="1" width="1"/><rect fill="#00e000ff" x="34" y="7" height="1" width="2"/><rect fill="#00e000ff" x="0" y="8" height="1" width="1"/><rect fill="#3d3e3dff" x="1" y="8" height="1" width="1"/><rect fill="#00e000ff" x="2" y="8" height="1" width="1"/><rect fill="#3d3e3dff" x="3" y="8" height="1" width="2"/><rect fill="#00e000ff" x="5" y="8" height="1" width="2"/><rect fill="#3d3e3dff" x="7" y="8" height="1" width="1"/><rect fill="#00e000ff" x="8" y="8" height="1" width="1"/><rect fill="#3d3e3dff" x="9" y="8" height="1" width="2"/><rect fill="#00e000ff" x="11" y="8" height="1" width="1"/><rect fill="#3d3e3dff" x="12" y="8" height="1" width="6"/><rect fill="#00e000ff" x="18" y="8" height="1" width="1"/><rect fill="#3d3e3dff" x="19" y="8" height="1" width="5"/><rect fill="#00e000ff" x="24" y="8" height="1" width="1"/><rect fill="#3d3e3dff" x="25" y="8" height="1" width="5"/><rect fill="#00e000ff" x="30" y="8" height="1" width="1"/><rect fill="#3d3e3dff" x="31" y="8" height="1" width="3"/><rect fill="#00e000ff" x="34" y="8" height="1" width="1"/><rect fill="#3d3e3dff" x="35" y="8" height="1" width="1"/><rect fill="#00e000ff" x="0" y="9" height="1" width="1"/><rect fill="#3d3e3dff" x="1" y="9" height="1" width="4"/><rect fill="#00e000ff" x="5" y="9" height="1" width="1"/><rect fill="#3d3e3dff" x="6" y="9" height="1" width="3"/><rect fill="#00e000ff" x="9" y="9" height="1" width="1"/><rect fill="#3d3e3dff" x="10" y="9" height="1" width="1"/><rect fill="#00e000ff" x="11" y="9" height="1" width="1"/><rect fill="#3d3e3dff" x="12" y="9" height="1" width="2"/><rect fill="#00e000ff" x="14" y="9" height="1" width="1"/><rect fill="#3d3e3dff" x="15" y="9" height="1" width="6"/><rect fill="#00e000ff" x="21" y="9" height="1" width="1"/><rect fill="#3d3e3dff" x="22" y="9" height="1" width="5"/><rect fill="#00e000ff" x="27" y="9" height="1" width="1"/><rect fill="#3d3e3dff" x="28" y="9" height="1" width="3"/><rect fill="#00e000ff" x="31" y="9" height="1" width="1"/><rect fill="#3d3e3dff" x="32" y="9" height="1" width="1"/><rect fill="#00e000ff" x="33" y="9" height="1" width="1"/><rect fill="#3d3e3dff" x="34" y="9" height="1" width="2"/><rect fill="#3d3e3dff" x="0" y="10" height="1" width="2"/><rect fill="#00e000ff" x="2" y="10" height="1" width="1"/><rect fill="#3d3e3dff" x="3" y="10" height="1" width="1"/><rect fill="#00e000ff" x="4" y="10" height="1" width="1"/><rect fill="#3d3e3dff" x="5" y="10" height="1" width="3"/><rect fill="#00e000ff" x="8" y="10" height="1" width="1"/><rect fill="#3d3e3dff" x="9" y="10" height="1" width="2"/><rect fill="#00e000ff" x="11" y="10" height="1" width="1"/><rect fill="#3d3e3dff" x="12" y="10" height="1" width="2"/><rect fill="#00e000ff" x="14" y="10" height="1" width="1"/><rect fill="#3d3e3dff" x="15" y="10" height="1" width="2"/><rect fill="#00e000ff" x="17" y="10" height="1" width="1"/><rect fill="#3d3e3dff" x="18" y="10" height="1" width="3"/><rect fill="#00e000ff" x="21" y="10" height="1" width="1"/><rect fill="#3d3e3dff" x="22" y="10" height="1" width="5"/><rect fill="#00e000ff" x="27" y="10" height="1" width="1"/><rect fill="#3d3e3dff" x="28" y="10" height="1" width="2"/><rect fill="#00e000ff" x="30" y="10" height="1" width="2"/><rect fill="#3d3e3dff" x="32" y="10" height="1" width="2"/><rect fill="#00e000ff" x="34" y="10" height="1" width="1"/><rect fill="#3d3e3dff" x="35" y="10" height="1" width="1"/><rect fill="#3d3e3dff" x="0" y="11" height="1" width="5"/><rect fill="#00e000ff" x="5" y="11" height="1" width="1"/><rect fill="#3d3e3dff" x="6" y="11" height="1" width="3"/><rect fill="#00e000ff" x="9" y="11" height="1" width="1"/><rect fill="#3d3e3dff" x="10" y="11" height="1" width="1"/><rect fill="#00e000ff" x="11" y="11" height="1" width="1"/><rect fill="#3d3e3dff" x="12" y="11" height="1" width="2"/><rect fill="#00e000ff" x="14" y="11" height="1" width="1"/><rect fill="#3d3e3dff" x="15" y="11" height="1" width="6"/><rect fill="#00e000ff" x="21" y="11" height="1" width="1"/><rect fill="#3d3e3dff" x="22" y="11" height="1" width="1"/><rect fill="#00e000ff" x="23" y="11" height="1" width="1"/><rect fill="#3d3e3dff" x="24" y="11" height="1" width="1"/><rect fill="#00e000ff" x="25" y="11" height="1" width="1"/><rect fill="#3d3e3dff" x="26" y="11" height="1" width="1"/><rect fill="#00e000ff" x="27" y="11" height="1" width="1"/><rect fill="#3d3e3dff" x="28" y="11" height="1" width="3"/><rect fill="#00e000ff" x="31" y="11" height="1" width="1"/><rect fill="#3d3e3dff" x="32" y="11" height="1" width="2"/><rect fill="#00e000ff" x="34" y="11" height="1" width="1"/><rect fill="#3d3e3dff" x="35" y="11" height="1" width="1"/><rect fill="#00e000ff" x="0" y="12" height="1" width="1"/><rect fill="#3d3e3dff" x="1" y="12" height="1" width="1"/><rect fill="#00e000ff" x="2" y="12" height="1" width="1"/><rect fill="#3d3e3dff" x="3" y="12" height="1" width="1"/><rect fill="#00e000ff" x="4" y="12" height="1" width="1"/><rect fill="#3d3e3dff" x="5" y="12" height="1" width="3"/><rect fill="#00e000ff" x="8" y="12" height="1" width="1"/><rect fill="#3d3e3dff" x="9" y="12" height="1" width="2"/><rect fill="#00e000ff" x="11" y="12" height="1" width="1"/><rect fill="#3d3e3dff" x="12" y="12" height="1" width="2"/><rect fill="#00e000ff" x="14" y="12" height="1" width="1"/><rect fill="#3d3e3dff" x="15" y="12" height="1" width="10"/><rect fill="#00e000ff" x="25" y="12" height="1" width="1"/><rect fill="#3d3e3dff" x="26" y="12" height="1" width="1"/><rect fill="#00e000ff" x="27" y="12" height="1" width="1"/><rect fill="#3d3e3dff" x="28" y="12" height="1" width="3"/><rect fill="#00e000ff" x="31" y="12" height="1" width="2"/><rect fill="#3d3e3dff" x="33" y="12" height="1" width="1"/><rect fill="#00e000ff" x="34" y="12" height="1" width="1"/><rect fill="#3d3e3dff" x="35" y="12" height="1" width="1"/><rect fill="#00e000ff" x="0" y="13" height="1" width="1"/><rect fill="#3d3e3dff" x="1" y="13" height="1" width="4"/><rect fill="#00e000ff" x="5" y="13" height="1" width="1"/><rect fill="#3d3e3dff" x="6" y="13" height="1" width="2"/><rect fill="#00e000ff" x="8" y="13" height="1" width="1"/><rect fill="#3d3e3dff" x="9" y="13" height="1" width="2"/><rect fill="#00e000ff" x="11" y="13" height="1" width="1"/><rect fill="#3d3e3dff" x="12" y="13" height="1" width="2"/><rect fill="#00e000ff" x="14" y="13" height="1" width="1"/><rect fill="#3d3e3dff" x="15" y="13" height="1" width="2"/><rect fill="#00e000ff" x="17" y="13" height="1" width="1"/><rect fill="#3d3e3dff" x="18" y="13" height="1" width="3"/><rect fill="#00e000ff" x="21" y="13" height="1" width="1"/><rect fill="#3d3e3dff" x="22" y="13" height="1" width="3"/><rect fill="#00e000ff" x="25" y="13" height="1" width="1"/><rect fill="#3d3e3dff" x="26" y="13" height="1" width="1"/><rect fill="#00e000ff" x="27" y="13" height="1" width="2"/><rect fill="#3d3e3dff" x="29" y="13" height="1" width="2"/><rect fill="#00e000ff" x="31" y="13" height="1" width="1"/><rect fill="#3d3e3dff" x="32" y="13" height="1" width="4"/><rect fill="#00e000ff" x="0" y="14" height="1" width="1"/><rect fill="#3d3e3dff" x="1" y="14" height="1" width="1"/><rect fill="#00e000ff" x="2" y="14" height="1" width="1"/><rect fill="#3d3e3dff" x="3" y="14" height="1" width="1"/><rect fill="#00e000ff" x="4" y="14" height="1" width="1"/><rect fill="#3d3e3dff" x="5" y="14" height="1" width="3"/><rect fill="#00e000ff" x="8" y="14" height="1" width="1"/><rect fill="#3d3e3dff" x="9" y="14" height="1" width="2"/><rect fill="#00e000ff" x="11" y="14" height="1" width="1"/><rect fill="#3d3e3dff" x="12" y="14" height="1" width="2"/><rect fill="#00e000ff" x="14" y="14" height="1" width="1"/><rect fill="#3d3e3dff" x="15" y="14" height="1" width="2"/><rect fill="#00e000ff" x="17" y="14" height="1" width="1"/><rect fill="#3d3e3dff" x="18" y="14" height="1" width="2"/><rect fill="#00e000ff" x="20" y="14" height="1" width="2"/><rect fill="#3d3e3dff" x="22" y="14" height="1" width="3"/><rect fill="#00e000ff" x="25" y="14" height="1" width="1"/><rect fill="#3d3e3dff" x="26" y="14" height="1" width="1"/><rect fill="#00e000ff" x="27" y="14" height="1" width="1"/><rect fill="#3d3e3dff" x="28" y="14" height="1" width="3"/><rect fill="#00e000ff" x="31" y="14" height="1" width="1"/><rect fill="#3d3e3dff" x="32" y="14" height="1" width="2"/><rect fill="#00e000ff" x="34" y="14" height="1" width="1"/><rect fill="#3d3e3dff" x="35" y="14" height="1" width="1"/><rect fill="#00e000ff" x="0" y="15" height="1" width="1"/><rect fill="#3d3e3dff" x="1" y="15" height="1" width="1"/><rect fill="#00e000ff" x="2" y="15" height="1" width="1"/><rect fill="#3d3e3dff" x="3" y="15" height="1" width="2"/><rect fill="#00e000ff" x="5" y="15" height="1" width="1"/><rect fill="#3d3e3dff" x="6" y="15" height="1" width="2"/><rect fill="#00e000ff" x="8" y="15" height="1" width="1"/><rect fill="#3d3e3dff" x="9" y="15" height="1" width="2"/><rect fill="#00e000ff" x="11" y="15" height="1" width="1"/><rect fill="#3d3e3dff" x="12" y="15" height="1" width="5"/><rect fill="#00e000ff" x="17" y="15" height="1" width="1"/><rect fill="#3d3e3dff" x="18" y="15" height="1" width="3"/><rect fill="#00e000ff" x="21" y="15" height="1" width="1"/><rect fill="#3d3e3dff" x="22" y="15" height="1" width="3"/><rect fill="#00e000ff" x="25" y="15" height="1" width="1"/><rect fill="#3d3e3dff" x="26" y="15" height="1" width="1"/><rect fill="#00e000ff" x="27" y="15" height="1" width="1"/><rect fill="#3d3e3dff" x="28" y="15" height="1" width="6"/><rect fill="#00e000ff" x="34" y="15" height="1" width="1"/><rect fill="#3d3e3dff" x="35" y="15" height="1" width="1"/><rect fill="#00e000ff" x="0" y="16" height="1" width="1"/><rect fill="#3d3e3dff" x="1" y="16" height="1" width="1"/><rect fill="#00e000ff" x="2" y="16" height="1" width="1"/><rect fill="#3d3e3dff" x="3" y="16" height="1" width="2"/><rect fill="#00e000ff" x="5" y="16" height="1" width="1"/><rect fill="#3d3e3dff" x="6" y="16" height="1" width="11"/><rect fill="#00e000ff" x="17" y="16" height="1" width="1"/><rect fill="#3d3e3dff" x="18" y="16" height="1" width="3"/><rect fill="#00e000ff" x="21" y="16" height="1" width="1"/><rect fill="#3d3e3dff" x="22" y="16" height="1" width="3"/><rect fill="#00e000ff" x="25" y="16" height="1" width="1"/><rect fill="#3d3e3dff" x="26" y="16" height="1" width="1"/><rect fill="#00e000ff" x="27" y="16" height="1" width="1"/><rect fill="#3d3e3dff" x="28" y="16" height="1" width="3"/><rect fill="#00e000ff" x="31" y="16" height="1" width="1"/><rect fill="#3d3e3dff" x="32" y="16" height="1" width="2"/><rect fill="#00e000ff" x="34" y="16" height="1" width="1"/><rect fill="#3d3e3dff" x="35" y="16" height="1" width="1"/><rect fill="#00e000ff" x="0" y="17" height="1" width="1"/><rect fill="#3d3e3dff" x="1" y="17" height="1" width="1"/><rect fill="#00e000ff" x="2" y="17" height="1" width="1"/><rect fill="#3d3e3dff" x="3" y="17" height="1" width="2"/><rect fill="#00e000ff" x="5" y="17" height="1" width="1"/><rect fill="#3d3e3dff" x="6" y="17" height="1" width="8"/><rect fill="#00e000ff" x="14" y="17" height="1" width="1"/><rect fill="#3d3e3dff" x="15" y="17" height="1" width="2"/><rect fill="#00e000ff" x="17" y="17" height="1" width="1"/><rect fill="#3d3e3dff" x="18" y="17" height="1" width="3"/><rect fill="#00e000ff" x="21" y="17" height="1" width="1"/><rect fill="#3d3e3dff" x="22" y="17" height="1" width="1"/><rect fill="#00e000ff" x="23" y="17" height="1" width="1"/><rect fill="#3d3e3dff" x="24" y="17" height="1" width="1"/><rect fill="#00e000ff" x="25" y="17" height="1" width="1"/><rect fill="#3d3e3dff" x="26" y="17" height="1" width="1"/><rect fill="#00e000ff" x="27" y="17" height="1" width="2"/><rect fill="#3d3e3dff" x="29" y="17" height="1" width="3"/><rect fill="#00e000ff" x="32" y="17" height="1" width="1"/><rect fill="#3d3e3dff" x="33" y="17" height="1" width="1"/><rect fill="#00e000ff" x="34" y="17" height="1" width="1"/><rect fill="#3d3e3dff" x="35" y="17" height="1" width="1"/><rect fill="#00e000ff" x="0" y="18" height="1" width="1"/><rect fill="#3d3e3dff" x="1" y="18" height="1" width="4"/><rect fill="#00e000ff" x="5" y="18" height="1" width="1"/><rect fill="#3d3e3dff" x="6" y="18" height="1" width="2"/><rect fill="#00e000ff" x="8" y="18" height="1" width="1"/><rect fill="#3d3e3dff" x="9" y="18" height="1" width="5"/><rect fill="#00e000ff" x="14" y="18" height="1" width="1"/><rect fill="#3d3e3dff" x="15" y="18" height="1" width="2"/><rect fill="#00e000ff" x="17" y="18" height="1" width="1"/><rect fill="#3d3e3dff" x="18" y="18" height="1" width="2"/><rect fill="#00e000ff" x="20" y="18" height="1" width="2"/><rect fill="#3d3e3dff" x="22" y="18" height="1" width="3"/><rect fill="#00e000ff" x="25" y="18" height="1" width="1"/><rect fill="#3d3e3dff" x="26" y="18" height="1" width="1"/><rect fill="#00e000ff" x="27" y="18" height="1" width="1"/><rect fill="#3d3e3dff" x="28" y="18" height="1" width="4"/><rect fill="#00e000ff" x="32" y="18" height="1" width="1"/><rect fill="#3d3e3dff" x="33" y="18" height="1" width="3"/><rect fill="#00e000ff" x="0" y="19" height="1" width="1"/><rect fill="#3d3e3dff" x="1" y="19" height="1" width="4"/><rect fill="#00e000ff" x="5" y="19" height="1" width="1"/><rect fill="#3d3e3dff" x="6" y="19" height="1" width="2"/><rect fill="#00e000ff" x="8" y="19" height="1" width="1"/><rect fill="#3d3e3dff" x="9" y="19" height="1" width="2"/><rect fill="#00e000ff" x="11" y="19" height="1" width="1"/><rect fill="#3d3e3dff" x="12" y="19" height="1" width="2"/><rect fill="#00e000ff" x="14" y="19" height="1" width="1"/><rect fill="#3d3e3dff" x="15" y="19" height="1" width="2"/><rect fill="#00e000ff" x="17" y="19" height="1" width="1"/><rect fill="#3d3e3dff" x="18" y="19" height="1" width="2"/><rect fill="#00e000ff" x="20" y="19" height="1" width="2"/><rect fill="#3d3e3dff" x="22" y="19" height="1" width="3"/><rect fill="#00e000ff" x="25" y="19" height="1" width="1"/><rect fill="#3d3e3dff" x="26" y="19" height="1" width="1"/><rect fill="#00e000ff" x="27" y="19" height="1" width="1"/><rect fill="#3d3e3dff" x="28" y="19" height="1" width="1"/><rect fill="#00e000ff" x="29" y="19" height="1" width="1"/><rect fill="#3d3e3dff" x="30" y="19" height="1" width="1"/><rect fill="#00e000ff" x="31" y="19" height="1" width="1"/><rect fill="#3d3e3dff" x="32" y="19" height="1" width="2"/><rect fill="#00e000ff" x="34" y="19" height="1" width="1"/><rect fill="#3d3e3dff" x="35" y="19" height="1" width="1"/><rect fill="#00e000ff" x="0" y="20" height="1" width="1"/><rect fill="#3d3e3dff" x="1" y="20" height="1" width="10"/><rect fill="#00e000ff" x="11" y="20" height="1" width="1"/><rect fill="#3d3e3dff" x="12" y="20" height="1" width="2"/><rect fill="#00e000ff" x="14" y="20" height="1" width="1"/><rect fill="#3d3e3dff" x="15" y="20" height="1" width="2"/><rect fill="#00e000ff" x="17" y="20" height="1" width="1"/><rect fill="#3d3e3dff" x="18" y="20" height="1" width="2"/><rect fill="#00e000ff" x="20" y="20" height="1" width="2"/><rect fill="#3d3e3dff" x="22" y="20" height="1" width="3"/><rect fill="#00e000ff" x="25" y="20" height="1" width="1"/><rect fill="#3d3e3dff" x="26" y="20" height="1" width="1"/><rect fill="#00e000ff" x="27" y="20" height="1" width="1"/><rect fill="#3d3e3dff" x="28" y="20" height="1" width="3"/><rect fill="#00e000ff" x="31" y="20" height="1" width="1"/><rect fill="#3d3e3dff" x="32" y="20" height="1" width="2"/><rect fill="#00e000ff" x="34" y="20" height="1" width="1"/><rect fill="#3d3e3dff" x="35" y="20" height="1" width="1"/><rect fill="#3d3e3dff" x="0" y="21" height="1" width="2"/><rect fill="#00e000ff" x="2" y="21" height="1" width="1"/><rect fill="#3d3e3dff" x="3" y="21" height="1" width="8"/><rect fill="#00e000ff" x="11" y="21" height="1" width="1"/><rect fill="#3d3e3dff" x="12" y="21" height="1" width="2"/><rect fill="#00e000ff" x="14" y="21" height="1" width="1"/><rect fill="#3d3e3dff" x="15" y="21" height="1" width="2"/><rect fill="#00e000ff" x="17" y="21" height="1" width="1"/><rect fill="#3d3e3dff" x="18" y="21" height="1" width="1"/><rect fill="#00e000ff" x="19" y="21" height="1" width="3"/><rect fill="#3d3e3dff" x="22" y="21" height="1" width="3"/><rect fill="#00e000ff" x="25" y="21" height="1" width="1"/><rect fill="#3d3e3dff" x="26" y="21" height="1" width="1"/><rect fill="#00e000ff" x="27" y="21" height="1" width="1"/><rect fill="#3d3e3dff" x="28" y="21" height="1" width="1"/><rect fill="#00e000ff" x="29" y="21" height="1" width="1"/><rect fill="#3d3e3dff" x="30" y="21" height="1" width="1"/><rect fill="#00e000ff" x="31" y="21" height="1" width="1"/><rect fill="#3d3e3dff" x="32" y="21" height="1" width="4"/><rect fill="#3d3e3dff" x="0" y="22" height="1" width="2"/><rect fill="#00e000ff" x="2" y="22" height="1" width="1"/><rect fill="#3d3e3dff" x="3" y="22" height="1" width="8"/><rect fill="#00e000ff" x="11" y="22" height="1" width="1"/><rect fill="#3d3e3dff" x="12" y="22" height="1" width="2"/><rect fill="#00e000ff" x="14" y="22" height="1" width="1"/><rect fill="#3d3e3dff" x="15" y="22" height="1" width="2"/><rect fill="#00e000ff" x="17" y="22" height="1" width="1"/><rect fill="#3d3e3dff" x="18" y="22" height="1" width="1"/><rect fill="#00e000ff" x="19" y="22" height="1" width="1"/><rect fill="#3d3e3dff" x="20" y="22" height="1" width="1"/><rect fill="#00e000ff" x="21" y="22" height="1" width="1"/><rect fill="#3d3e3dff" x="22" y="22" height="1" width="1"/><rect fill="#00e000ff" x="23" y="22" height="1" width="1"/><rect fill="#3d3e3dff" x="24" y="22" height="1" width="5"/><rect fill="#00e000ff" x="29" y="22" height="1" width="1"/><rect fill="#3d3e3dff" x="30" y="22" height="1" width="2"/><rect fill="#00e000ff" x="32" y="22" height="1" width="1"/><rect fill="#3d3e3dff" x="33" y="22" height="1" width="3"/><rect fill="#3d3e3dff" x="0" y="23" height="1" width="1"/><rect fill="#00e000ff" x="1" y="23" height="1" width="2"/><rect fill="#3d3e3dff" x="3" y="23" height="1" width="1"/><rect fill="#00e000ff" x="4" y="23" height="1" width="1"/><rect fill="#3d3e3dff" x="5" y="23" height="1" width="3"/><rect fill="#00e000ff" x="8" y="23" height="1" width="1"/><rect fill="#3d3e3dff" x="9" y="23" height="1" width="2"/><rect fill="#00e000ff" x="11" y="23" height="1" width="1"/><rect fill="#3d3e3dff" x="12" y="23" height="1" width="2"/><rect fill="#00e000ff" x="14" y="23" height="1" width="1"/><rect fill="#3d3e3dff" x="15" y="23" height="1" width="2"/><rect fill="#00e000ff" x="17" y="23" height="1" width="1"/><rect fill="#3d3e3dff" x="18" y="23" height="1" width="3"/><rect fill="#00e000ff" x="21" y="23" height="1" width="1"/><rect fill="#3d3e3dff" x="22" y="23" height="1" width="1"/><rect fill="#00e000ff" x="23" y="23" height="1" width="1"/><rect fill="#3d3e3dff" x="24" y="23" height="1" width="8"/><rect fill="#00e000ff" x="32" y="23" height="1" width="1"/><rect fill="#3d3e3dff" x="33" y="23" height="1" width="3"/><rect fill="#3d3e3dff" x="0" y="24" height="1" width="2"/><rect fill="#00e000ff" x="2" y="24" height="1" width="2"/><rect fill="#3d3e3dff" x="4" y="24" height="1" width="1"/><rect fill="#00e000ff" x="5" y="24" height="1" width="1"/><rect fill="#3d3e3dff" x="6" y="24" height="1" width="1"/><rect fill="#00e000ff" x="7" y="24" height="1" width="1"/><rect fill="#3d3e3dff" x="8" y="24" height="1" width="9"/><rect fill="#00e000ff" x="17" y="24" height="1" width="1"/><rect fill="#3d3e3dff" x="18" y="24" height="1" width="3"/><rect fill="#00e000ff" x="21" y="24" height="1" width="1"/><rect fill="#3d3e3dff" x="22" y="24" height="1" width="3"/><rect fill="#00e000ff" x="25" y="24" height="1" width="1"/><rect fill="#3d3e3dff" x="26" y="24" height="1" width="3"/><rect fill="#00e000ff" x="29" y="24" height="1" width="1"/><rect fill="#3d3e3dff" x="30" y="24" height="1" width="1"/><rect fill="#00e000ff" x="31" y="24" height="1" width="2"/><rect fill="#3d3e3dff" x="33" y="24" height="1" width="1"/><rect fill="#00e000ff" x="34" y="24" height="1" width="1"/><rect fill="#3d3e3dff" x="35" y="24" height="1" width="1"/><rect fill="#3d3e3dff" x="0" y="25" height="1" width="2"/><rect fill="#00e000ff" x="2" y="25" height="1" width="2"/><rect fill="#3d3e3dff" x="4" y="25" height="1" width="3"/><rect fill="#00e000ff" x="7" y="25" height="1" width="1"/><rect fill="#3d3e3dff" x="8" y="25" height="1" width="3"/><rect fill="#00e000ff" x="11" y="25" height="1" width="1"/><rect fill="#3d3e3dff" x="12" y="25" height="1" width="5"/><rect fill="#00e000ff" x="17" y="25" height="1" width="1"/><rect fill="#3d3e3dff" x="18" y="25" height="1" width="1"/><rect fill="#00e000ff" x="19" y="25" height="1" width="1"/><rect fill="#3d3e3dff" x="20" y="25" height="1" width="1"/><rect fill="#00e000ff" x="21" y="25" height="1" width="1"/><rect fill="#3d3e3dff" x="22" y="25" height="1" width="1"/><rect fill="#00e000ff" x="23" y="25" height="1" width="1"/><rect fill="#3d3e3dff" x="24" y="25" height="1" width="1"/><rect fill="#00e000ff" x="25" y="25" height="1" width="2"/><rect fill="#3d3e3dff" x="27" y="25" height="1" width="2"/><rect fill="#00e000ff" x="29" y="25" height="1" width="1"/><rect fill="#3d3e3dff" x="30" y="25" height="1" width="2"/><rect fill="#00e000ff" x="32" y="25" height="1" width="1"/><rect fill="#3d3e3dff" x="33" y="25" height="1" width="3"/><rect fill="#3d3e3dff" x="0" y="26" height="1" width="1"/><rect fill="#00e000ff" x="1" y="26" height="1" width="2"/><rect fill="#3d3e3dff" x="3" y="26" height="1" width="1"/><rect fill="#00e000ff" x="4" y="26" height="1" width="1"/><rect fill="#3d3e3dff" x="5" y="26" height="1" width="3"/><rect fill="#00e000ff" x="8" y="26" height="1" width="1"/><rect fill="#3d3e3dff" x="9" y="26" height="1" width="1"/><rect fill="#00e000ff" x="10" y="26" height="1" width="1"/><rect fill="#3d3e3dff" x="11" y="26" height="1" width="3"/><rect fill="#00e000ff" x="14" y="26" height="1" width="1"/><rect fill="#3d3e3dff" x="15" y="26" height="1" width="8"/><rect fill="#00e000ff" x="23" y="26" height="1" width="1"/><rect fill="#3d3e3dff" x="24" y="26" height="1" width="5"/><rect fill="#00e000ff" x="29" y="26" height="1" width="1"/><rect fill="#3d3e3dff" x="30" y="26" height="1" width="3"/><rect fill="#00e000ff" x="33" y="26" height="1" width="2"/><rect fill="#3d3e3dff" x="35" y="26" height="1" width="1"/><rect fill="#3d3e3dff" x="0" y="27" height="1" width="2"/><rect fill="#00e000ff" x="2" y="27" height="1" width="1"/><rect fill="#3d3e3dff" x="3" y="27" height="1" width="2"/><rect fill="#00e000ff" x="5" y="27" height="1" width="1"/><rect fill="#3d3e3dff" x="6" y="27" height="1" width="2"/><rect fill="#00e000ff" x="8" y="27" height="1" width="1"/><rect fill="#3d3e3dff" x="9" y="27" height="1" width="1"/><rect fill="#00e000ff" x="10" y="27" height="1" width="1"/><rect fill="#3d3e3dff" x="11" y="27" height="1" width="6"/><rect fill="#00e000ff" x="17" y="27" height="1" width="1"/><rect fill="#3d3e3dff" x="18" y="27" height="1" width="1"/><rect fill="#00e000ff" x="19" y="27" height="1" width="2"/><rect fill="#3d3e3dff" x="21" y="27" height="1" width="2"/><rect fill="#00e000ff" x="23" y="27" height="1" width="1"/><rect fill="#3d3e3dff" x="24" y="27" height="1" width="4"/><rect fill="#00e000ff" x="28" y="27" height="1" width="2"/><rect fill="#3d3e3dff" x="30" y="27" height="1" width="2"/><rect fill="#00e000ff" x="32" y="27" height="1" width="1"/><rect fill="#3d3e3dff" x="33" y="27" height="1" width="1"/><rect fill="#00e000ff" x="34" y="27" height="1" width="1"/><rect fill="#3d3e3dff" x="35" y="27" height="1" width="1"/><rect fill="#00e000ff" x="0" y="28" height="1" width="1"/><rect fill="#3d3e3dff" x="1" y="28" height="1" width="1"/><rect fill="#00e000ff" x="2" y="28" height="1" width="1"/><rect fill="#3d3e3dff" x="3" y="28" height="1" width="2"/><rect fill="#00e000ff" x="5" y="28" height="1" width="1"/><rect fill="#3d3e3dff" x="6" y="28" height="1" width="2"/><rect fill="#00e000ff" x="8" y="28" height="1" width="1"/><rect fill="#3d3e3dff" x="9" y="28" height="1" width="1"/><rect fill="#00e000ff" x="10" y="28" height="1" width="2"/><rect fill="#3d3e3dff" x="12" y="28" height="1" width="2"/><rect fill="#00e000ff" x="14" y="28" height="1" width="1"/><rect fill="#3d3e3dff" x="15" y="28" height="1" width="2"/><rect fill="#00e000ff" x="17" y="28" height="1" width="1"/><rect fill="#3d3e3dff" x="18" y="28" height="1" width="2"/><rect fill="#00e000ff" x="20" y="28" height="1" width="1"/><rect fill="#3d3e3dff" x="21" y="28" height="1" width="2"/><rect fill="#00e000ff" x="23" y="28" height="1" width="2"/><rect fill="#3d3e3dff" x="25" y="28" height="1" width="2"/><rect fill="#00e000ff" x="27" y="28" height="1" width="1"/><rect fill="#3d3e3dff" x="28" y="28" height="1" width="1"/><rect fill="#00e000ff" x="29" y="28" height="1" width="2"/><rect fill="#3d3e3dff" x="31" y="28" height="1" width="1"/><rect fill="#00e000ff" x="32" y="28" height="1" width="1"/><rect fill="#3d3e3dff" x="33" y="28" height="1" width="3"/><rect fill="#3d3e3dff" x="0" y="29" height="1" width="2"/><rect fill="#00e000ff" x="2" y="29" height="1" width="1"/><rect fill="#3d3e3dff" x="3" y="29" height="1" width="2"/><rect fill="#00e000ff" x="5" y="29" height="1" width="1"/><rect fill="#3d3e3dff" x="6" y="29" height="1" width="2"/><rect fill="#00e000ff" x="8" y="29" height="1" width="1"/><rect fill="#3d3e3dff" x="9" y="29" height="1" width="1"/><rect fill="#00e000ff" x="10" y="29" height="1" width="1"/><rect fill="#3d3e3dff" x="11" y="29" height="1" width="3"/><rect fill="#00e000ff" x="14" y="29" height="1" width="1"/><rect fill="#3d3e3dff" x="15" y="29" height="1" width="2"/><rect fill="#00e000ff" x="17" y="29" height="1" width="1"/><rect fill="#3d3e3dff" x="18" y="29" height="1" width="1"/><rect fill="#00e000ff" x="19" y="29" height="1" width="2"/><rect fill="#3d3e3dff" x="21" y="29" height="1" width="2"/><rect fill="#00e000ff" x="23" y="29" height="1" width="1"/><rect fill="#3d3e3dff" x="24" y="29" height="1" width="3"/><rect fill="#00e000ff" x="27" y="29" height="1" width="1"/><rect fill="#3d3e3dff" x="28" y="29" height="1" width="1"/><rect fill="#00e000ff" x="29" y="29" height="1" width="2"/><rect fill="#3d3e3dff" x="31" y="29" height="1" width="1"/><rect fill="#00e000ff" x="32" y="29" height="1" width="1"/><rect fill="#3d3e3dff" x="33" y="29" height="1" width="2"/><rect fill="#00e000ff" x="35" y="29" height="1" width="1"/><rect fill="#00e000ff" x="0" y="30" height="1" width="1"/><rect fill="#3d3e3dff" x="1" y="30" height="1" width="1"/><rect fill="#00e000ff" x="2" y="30" height="1" width="1"/><rect fill="#3d3e3dff" x="3" y="30" height="1" width="2"/><rect fill="#00e000ff" x="5" y="30" height="1" width="1"/><rect fill="#3d3e3dff" x="6" y="30" height="1" width="4"/><rect fill="#00e000ff" x="10" y="30" height="1" width="1"/><rect fill="#3d3e3dff" x="11" y="30" height="1" width="1"/><rect fill="#00e000ff" x="12" y="30" height="1" width="3"/><rect fill="#3d3e3dff" x="15" y="30" height="1" width="5"/><rect fill="#00e000ff" x="20" y="30" height="1" width="1"/><rect fill="#3d3e3dff" x="21" y="30" height="1" width="3"/><rect fill="#00e000ff" x="24" y="30" height="1" width="1"/><rect fill="#3d3e3dff" x="25" y="30" height="1" width="2"/><rect fill="#00e000ff" x="27" y="30" height="1" width="1"/><rect fill="#3d3e3dff" x="28" y="30" height="1" width="1"/><rect fill="#00e000ff" x="29" y="30" height="1" width="1"/><rect fill="#3d3e3dff" x="30" y="30" height="1" width="2"/><rect fill="#00e000ff" x="32" y="30" height="1" width="1"/><rect fill="#3d3e3dff" x="33" y="30" height="1" width="1"/><rect fill="#00e000ff" x="34" y="30" height="1" width="1"/><rect fill="#3d3e3dff" x="35" y="30" height="1" width="1"/><rect fill="#00e000ff" x="0" y="31" height="1" width="1"/><rect fill="#3d3e3dff" x="1" y="31" height="1" width="8"/><rect fill="#00e000ff" x="9" y="31" height="1" width="2"/><rect fill="#3d3e3dff" x="11" y="31" height="1" width="3"/><rect fill="#00e000ff" x="14" y="31" height="1" width="1"/><rect fill="#3d3e3dff" x="15" y="31" height="1" width="2"/><rect fill="#00e000ff" x="17" y="31" height="1" width="1"/><rect fill="#3d3e3dff" x="18" y="31" height="1" width="2"/><rect fill="#00e000ff" x="20" y="31" height="1" width="1"/><rect fill="#3d3e3dff" x="21" y="31" height="1" width="5"/><rect fill="#00e000ff" x="26" y="31" height="1" width="2"/><rect fill="#3d3e3dff" x="28" y="31" height="1" width="1"/><rect fill="#00e000ff" x="29" y="31" height="1" width="1"/><rect fill="#3d3e3dff" x="30" y="31" height="1" width="2"/><rect fill="#00e000ff" x="32" y="31" height="1" width="1"/><rect fill="#3d3e3dff" x="33" y="31" height="1" width="1"/><rect fill="#00e000ff" x="34" y="31" height="1" width="1"/><rect fill="#3d3e3dff" x="35" y="31" height="1" width="1"/><rect fill="#3d3e3dff" x="0" y="32" height="1" width="2"/><rect fill="#00e000ff" x="2" y="32" height="1" width="1"/><rect fill="#3d3e3dff" x="3" y="32" height="1" width="2"/><rect fill="#00e000ff" x="5" y="32" height="1" width="1"/><rect fill="#3d3e3dff" x="6" y="32" height="1" width="4"/><rect fill="#00e000ff" x="10" y="32" height="1" width="1"/><rect fill="#3d3e3dff" x="11" y="32" height="1" width="1"/><rect fill="#00e000ff" x="12" y="32" height="1" width="1"/><rect fill="#3d3e3dff" x="13" y="32" height="1" width="4"/><rect fill="#00e000ff" x="17" y="32" height="1" width="1"/><rect fill="#3d3e3dff" x="18" y="32" height="1" width="2"/><rect fill="#00e000ff" x="20" y="32" height="1" width="1"/><rect fill="#3d3e3dff" x="21" y="32" height="1" width="2"/><rect fill="#00e000ff" x="23" y="32" height="1" width="2"/><rect fill="#3d3e3dff" x="25" y="32" height="1" width="2"/><rect fill="#00e000ff" x="27" y="32" height="1" width="1"/><rect fill="#3d3e3dff" x="28" y="32" height="1" width="1"/><rect fill="#00e000ff" x="29" y="32" height="1" width="2"/><rect fill="#3d3e3dff" x="31" y="32" height="1" width="5"/><rect fill="#3d3e3dff" x="0" y="33" height="1" width="10"/><rect fill="#00e000ff" x="10" y="33" height="1" width="1"/><rect fill="#3d3e3dff" x="11" y="33" height="1" width="1"/><rect fill="#00e000ff" x="12" y="33" height="1" width="1"/><rect fill="#3d3e3dff" x="13" y="33" height="1" width="4"/><rect fill="#00e000ff" x="17" y="33" height="1" width="1"/><rect fill="#3d3e3dff" x="18" y="33" height="1" width="11"/><rect fill="#00e000ff" x="29" y="33" height="1" width="1"/><rect fill="#3d3e3dff" x="30" y="33" height="1" width="2"/><rect fill="#00e000ff" x="32" y="33" height="1" width="1"/><rect fill="#3d3e3dff" x="33" y="33" height="1" width="1"/><rect fill="#00e000ff" x="34" y="33" height="1" width="1"/><rect fill="#3d3e3dff" x="35" y="33" height="1" width="1"/><rect fill="#3d3e3dff" x="0" y="34" height="1" width="2"/><rect fill="#00e000ff" x="2" y="34" height="1" width="1"/><rect fill="#3d3e3dff" x="3" y="34" height="1" width="1"/><rect fill="#00e000ff" x="4" y="34" height="1" width="2"/><rect fill="#3d3e3dff" x="6" y="34" height="1" width="3"/><rect fill="#00e000ff" x="9" y="34" height="1" width="2"/><rect fill="#3d3e3dff" x="11" y="34" height="1" width="6"/><rect fill="#00e000ff" x="17" y="34" height="1" width="1"/><rect fill="#3d3e3dff" x="18" y="34" height="1" width="2"/><rect fill="#00e000ff" x="20" y="34" height="1" width="1"/><rect fill="#3d3e3dff" x="21" y="34" height="1" width="2"/><rect fill="#00e000ff" x="23" y="34" height="1" width="1"/><rect fill="#3d3e3dff" x="24" y="34" height="1" width="2"/><rect fill="#00e000ff" x="26" y="34" height="1" width="2"/><rect fill="#3d3e3dff" x="28" y="34" height="1" width="1"/><rect fill="#00e000ff" x="29" y="34" height="1" width="1"/><rect fill="#3d3e3dff" x="30" y="34" height="1" width="4"/><rect fill="#00e000ff" x="34" y="34" height="1" width="1"/><rect fill="#3d3e3dff" x="35" y="34" height="1" width="1"/><rect fill="#3d3e3dff" x="0" y="35" height="1" width="2"/><rect fill="#00e000ff" x="2" y="35" height="1" width="1"/><rect fill="#3d3e3dff" x="3" y="35" height="1" width="2"/><rect fill="#00e000ff" x="5" y="35" height="1" width="1"/><rect fill="#3d3e3dff" x="6" y="35" height="1" width="2"/><rect fill="#00e000ff" x="8" y="35" height="1" width="1"/><rect fill="#3d3e3dff" x="9" y="35" height="1" width="1"/><rect fill="#00e000ff" x="10" y="35" height="1" width="1"/><rect fill="#3d3e3dff" x="11" y="35" height="1" width="1"/><rect fill="#00e000ff" x="12" y="35" height="1" width="1"/><rect fill="#3d3e3dff" x="13" y="35" height="1" width="1"/><rect fill="#00e000ff" x="14" y="35" height="1" width="1"/><rect fill="#3d3e3dff" x="15" y="35" height="1" width="2"/><rect fill="#00e000ff" x="17" y="35" height="1" width="1"/><rect fill="#3d3e3dff" x="18" y="35" height="1" width="2"/><rect fill="#00e000ff" x="20" y="35" height="1" width="1"/><rect fill="#3d3e3dff" x="21" y="35" height="1" width="2"/><rect fill="#00e000ff" x="23" y="35" height="1" width="2"/><rect fill="#3d3e3dff" x="25" y="35" height="1" width="2"/><rect fill="#00e000ff" x="27" y="35" height="1" width="1"/><rect fill="#3d3e3dff" x="28" y="35" height="1" width="1"/><rect fill="#00e000ff" x="29" y="35" height="1" width="1"/><rect fill="#3d3e3dff" x="30" y="35" height="1" width="2"/><rect fill="#00e000ff" x="32" y="35" height="1" width="1"/><rect fill="#3d3e3dff" x="33" y="35" height="1" width="1"/><rect fill="#00e000ff" x="34" y="35" height="1" width="1"/><rect fill="#3d3e3dff" x="35" y="35" height="1" width="1"/></svg>