<svg xmlns="http://www.w3.org/2000/svg" shape-rendering="crispEdges" version="1.1" viewBox="0 0 36 36" width="360" height="360"><rect fill="#c2c2c2ff" x="0" y="0" height="1" width="1"/><rect fill="#ccccccff" x="1" y="0" height="1" width="1"/><rect fill="#c2c2c2ff" x="2" y="0" height="1" width="1"/><rect fill="#ccccccff" x="3" y="0" height="1" width="2"/><rect fill="#c2c2c2ff" x="5" y="0" height="1" width="1"/><rect fill="#ccccccff" x="6" y="0" height="1" width="1"/><rect fill="#b7b7b7ff" x="7" y="0" height="1" width="1"/><rect fill="#c2c2c2ff" x="8" y="0" height="1" width="1"/><rect fill="#ccccccff" x="9" y="0" height="1" width="2"/><rect fill="#b7b7b7ff" x="11" y="0" height="1" width="2"/><rect fill="#c2c2c2ff" x="13" y="0" height="1" width="2"/><rect fill="#ccccccff" x="15" y="0" height="1" width="1"/><rect fill="#b7b7b7ff" x="16" y="0" height="1" width="1"/><rect fill="#ccccccff" x="17" y="0" height="1" width="9"/><rect fill="#c2c2c2ff" x="26" y="0" height="1" width="2"/><rect fill="#ccccccff" x="28" y="0" height="1" width="1"/><rect fill="#b7b7b7ff" x="29" y="0" height="1" width="1"/><rect fill="#c2c2c2ff" x="30" y="0" height="1" width="1"/><rect fill="#b7b7b7ff" x="31" y="0" height="1" width="1"/><rect fill="#ccccccff" x="32" y="0" height="1" width="4"/><rect fill="#b7b7b7ff" x="0" y="1" height="1" width="1"/><rect fill="#ccccccff" x="1" y="1" height="1" width="2"/><rect fill="#c2c2c2ff" x="3" y="1" height="1" width="2"/><rect fill="#ccccccff" x="5" y="1" height="1" width="3"/><rect fill="#c2c2c2ff" x="8" y="1" height="1" width="1"/><rect fill="#ccccccff" x="9" y="1" height="1" width="1"/><rect fill="#b7b7b7ff" x="10" y="1" height="1" width="2"/><rect fill="#c2c2c2ff" x="12" y="1" height="1" width="1"/><rect fill="#b7b7b7ff" x="13" y="1" height="1" width="1"/><rect fill="#ccccccff" x="14" y="1" height="1" width="1"/><rect fill="#b7b7b7ff" x="15" y="1" height="1" width="3"/><rect fill="#c2c2c2ff" x="18" y="1" height="1" width="1"/><rect fill="#ccccccff" x="19" y="1" height="1" width="2"/><rect fill="#b7b7b7ff" x="21" y="1" height="1" width="1"/><rect fill="#ccccccff" x="22" y="1" height="1" width="1"/><rect fill="#b7b7b7ff" x="23" y="1" height="1" width="2"/><rect fill="#c2c2c2ff" x="25" y="1" height="1" width="1"/><rect fill="#ccccccff" x="26" y="1" height="1" width="1"/><rect fill="#c2c2c2ff" x="27" y="1" height="1" width="1"/><rect fill="#ccccccff" x="28" y="1" height="1" width="2"/><rect fill="#c2c2c2ff" x="30" y="1" height="1" width="1"/><rect fill="#ccccccff" x="31" y="1" height="1" width="3"/><rect fill="#c2c2c2ff" x="34" y="1" height="1" width="2"/><rect fill="#c2c2c2ff" x="0" y="2" height="1" width="1"/><rect fill="#b7b7b7ff" x="1" y="2" height="1" width="1"/><rect fill="#ccccccff" x="2" y="2" height="1" width="2"/><rect fill="#b7b7b7ff" x="4" y="2" height="1" width="1"/><rect fill="#ccccccff" x="5" y="2" height="1" width="2"/><rect fill="#b7b7b7ff" x="7" y="2" height="1" width="2"/><rect fill="#c2c2c2ff" x="9" y="2" height="1" width="2"/><rect fill="#ccccccff" x="11" y="2" height="1" width="1"/><rect fill="#c2c2c2ff" x="12" y="2" height="1" width="1"/><rect fill="#b7b7b7ff" x="13" y="2" height="1" width="1"/><rect fill="#ccccccff" x="14" y="2" height="1" width="1"/><rect fill="#b7b7b7ff" x="15" y="2" height="1" width="2"/><rect fill="#c2c2c2ff" x="17" y="2" height="1" width="2"/><rect fill="#ccccccff" x="19" y="2" height="1" width="1"/><rect fill="#b7b7b7ff" x="20" y="2" height="1" width="3"/><rect fill="#ccccccff" x="23" y="2" height="1" width="1"/><rect fill="#c2c2c2ff" x="24" y="2" height="1" width="1"/><rect fill="#ccccccff" x="25" y="2" height="1" width="1"/><rect fill="#b7b7b7ff" x="26" y="2" height="1" width="1"/><rect fill="#ccccccff" x="27" y="2" height="1" width="7"/><rect fill="#c2c2c2ff" x="34" y="2" height="1" width="1"/><rect fill="#ccccccff" x="35" y="2" height="1" width="1"/><rect fill="#ccccccff" x="0" y="3" height="1" width="1"/><rect fill="#c2c2c2ff" x="1" y="3" height="1" width="1"/><rect fill="#b7b7b7ff" x="2" y="3" height="1" width="1"/><rect fill="#ccccccff" x="3" y="3" height="1" width="2"/><rect fill="#c2c2c2ff" x="5" y="3" height="1" width="1"/><rect fill="#b7b7b7ff" x="6" y="3" height="1" width="1"/><rect fill="#ccccccff" x="7" y="3" height="1" width="6"/><rect fill="#c2c2c2ff" x="13" y="3" height="1" width="1"/><rect fill="#ccccccff" x="14" y="3" height="1" width="3"/><rect fill="#b7b7b7ff" x="17" y="3" height="1" width="2"/><rect fill="#c2c2c2ff" x="19" y="3" height="1" width="2"/><rect fill="#b7b7b7ff" x="21" y="3" height="1" width="2"/><rect fill="#ccccccff" x="23" y="3" height="1" width="1"/><rect fill="#c2c2c2ff" x="24" y="3" height="1" width="1"/><rect fill="#ccccccff" x="25" y="3" height="1" width="3"/><rect fill="#b7b7b7ff" x="28" y="3" height="1" width="1"/><rect fill="#ccccccff" x="29" y="3" height="1" width="2"/><rect fill="#b7b7b7ff" x="31" y="3" height="1" width="2"/><rect fill="#ccccccff" x="33" y="3" height="1" width="3"/><rect fill="#ccccccff" x="0" y="4" height="1" width="1"/><rect fill="#b7b7b7ff" x="1" y="4" height="1" width="1"/><rect fill="#ccccccff" x="2" y="4" height="1" width="3"/><rect fill="#c2c2c2ff" x="5" y="4" height="1" width="1"/><rect fill="#ccccccff" x="6" y="4" height="1" width="1"/><rect fill="#c2c2c2ff" x="7" y="4" height="1" width="1"/><rect fill="#ccccccff" x="8" y="4" height="1" width="1"/><rect fill="#c2c2c2ff" x="9" y="4" height="1" width="1"/><rect fill="#ccccccff" x="10" y="4" height="1" width="7"/><rect fill="#b7b7b7ff" x="17" y="4" height="1" width="1"/><rect fill="#c2c2c2ff" x="18" y="4" height="1" width="1"/><rect fill="#ccccccff" x="19" y="4" height="1" width="1"/><rect fill="#b7b7b7ff" x="20" y="4" height="1" width="1"/><rect fill="#c2c2c2ff" x="21" y="4" height="1" width="1"/><rect fill="#b7b7b7ff" x="22" y="4" height="1" width="1"/><rect fill="#ccccccff" x="23" y="4" height="1" width="2"/><rect fill="#c2c2c2ff" x="25" y="4" height="1" width="2"/><rect fill="#ccccccff" x="27" y="4" height="1" width="4"/><rect fill="#c2c2c2ff" x="31" y="4" height="1" width="1"/><rect fill="#b7b7b7ff" x="32" y="4" height="1" width="1"/><rect fill="#c2c2c2ff" x="33" y="4" height="1" width="1"/><rect fill="#ccccccff" x="34" y="4" height="1" width="2"/><rect fill="#ccccccff" x="0" y="5" height="1" width="3"/><rect fill="#c2c2c2ff" x="3" y="5" height="1" width="2"/><rect fill="#ccccccff" x="5" y="5" height="1" width="2"/><rect fill="#b7b7b7ff" x="7" y="5" height="1" width="1"/><rect fill="#ccccccff" x="8" y="5" height="1" width="2"/><rect fill="#c2c2c2ff" x="10" y="5" height="1" width="1"/><rect fill="#ccccccff" x="11" y="5" height="1" width="2"/><rect fill="#b7b7b7ff" x="13" y="5" height="1" width="1"/><rect fill="#ccccccff" x="14" y="5" height="1" width="1"/><rect fill="#b7b7b7ff" x="15" y="5" height="1" width="1"/><rect fill="#ccccccff" x="16" y="5" height="1" width="2"/><rect fill="#c2c2c2ff" x="18" y="5" height="1" width="1"/><rect fill="#ccccccff" x="19" y="5" height="1" width="1"/><rect fill="#c2c2c2ff" x="20" y="5" height="1" width="1"/><rect fill="#b7b7b7ff" x="21" y="5" height="1" width="1"/><rect fill="#ccccccff" x="22" y="5" height="1" width="1"/><rect fill="#b7b7b7ff" x="23" y="5" height="1" width="1"/><rect fill="#ccccccff" x="24" y="5" height="1" width="2"/><rect fill="#c2c2c2ff" x="26" y="5" height="1" width="1"/><rect fill="#ccccccff" x="27" y="5" height="1" width="1"/><rect fill="#b7b7b7ff" x="28" y="5" height="1" width="1"/><rect fill="#ccccccff" x="29" y="5" height="1" width="2"/><rect fill="#c2c2c2ff" x="31" y="5" height="1" width="1"/><rect fill="#ccccccff" x="32" y="5" height="1" width="2"/><rect fill="#b7b7b7ff" x="34" y="5" height="1" width="1"/><rect fill="#ccccccff" x="35" y="5" height="1" width="1"/><rect fill="#ccccccff" x="0" y="6" height="1" width="5"/><rect fill="#b7b7b7ff" x="5" y="6" height="1" width="1"/><rect fill="#c2c2c2ff" x="6" y="6" height="1" width="1"/><rect fill="#b7b7b7ff" x="7" y="6" height="1" width="2"/><rect fill="#ccccccff" x="9" y="6" height="1" width="4"/><rect fill="#b7b7b7ff" x="13" y="6" height="1" width="3"/><rect fill="#c2c2c2ff" x="16" y="6" height="1" width="1"/><rect fill="#ccccccff" x="17" y="6" height="1" width="1"/><rect fill="#b7b7b7ff" x="18" y="6" height="1" width="2"/><rect fill="#ccccccff" x="20" y="6" height="1" width="1"/><rect fill="#b7b7b7ff" x="21" y="6" height="1" width="1"/><rect fill="#ccccccff" x="22" y="6" height="1" width="1"/><rect fill="#b7b7b7ff" x="23" y="6" height="1" width="1"/><rect fill="#ccccccff" x="24" y="6" height="1" width="1"/><rect fill="#b7b7b7ff" x="25" y="6" height="1" width="2"/><rect fill="#ccccccff" x="27" y="6" height="1" width="2"/><rect fill="#b7b7b7ff" x="29" y="6" height="1" width="4"/><rect fill="#ccccccff" x="33" y="6" height="1" width="2"/><rect fill="#c2c2c2ff" x="35" y="6" height="1" width="1"/><rect fill="#c2c2c2ff" x="0" y="7" height="1" width="1"/><rect fill="#b7b7b7ff" x="1" y="7" height="1" width="1"/><rect fill="#ccccccff" x="2" y="7" height="1" width="2"/><rect fill="#b7b7b7ff" x="4" y="7" height="1" width="2"/><rect fill="#ccccccff" x="6" y="7" height="1" width="1"/><rect fill="#b7b7b7ff" x="7" y="7" height="1" width="1"/><rect fill="#c2c2c2ff" x="8" y="7" height="1" width="1"/><rect fill="#b7b7b7ff" x="9" y="7" height="1" width="1"/><rect fill="#ccccccff" x="10" y="7" height="1" width="1"/><rect fill="#c2c2c2ff" x="11" y="7" height="1" width="1"/><rect fill="#b7b7b7ff" x="12" y="7" height="1" width="2"/><rect fill="#c2c2c2ff" x="14" y="7" height="1" width="1"/><rect fill="#ccccccff" x="15" y="7" height="1" width="1"/><rect fill="#c2c2c2ff" x="16" y="7" height="1" width="1"/><rect fill="#b7b7b7ff" x="17" y="7" height="1" width="1"/><rect fill="#ccccccff" x="18" y="7" height="1" width="1"/><rect fill="#b7b7b7ff" x="19" y="7" height="1" width="1"/><rect fill="#c2c2c2ff" x="20" y="7" height="1" width="1"/><rect fill="#ccccccff" x="21" y="7" height="1" width="3"/><rect fill="#b7b7b7ff" x="24" y="7" height="1" width="3"/><rect fill="#ccccccff" x="27" y="7" height="1" width="1"/><rect fill="#b7b7b7ff" x="28" y="7" height="1" width="2"/><rect fill="#c2c2c2ff" x="30" y="7" height="1" width="2"/><rect fill="#b7b7b7ff" x="32" y="7" height="1" width="2"/><rect fill="#c2c2c2ff" x="34" y="7" height="1" width="1"/><rect fill="#ccccccff" x="35" y="7" height="1" width="1"/><rect fill="#ccccccff" x="0" y="8" height="1" width="2"/><rect fill="#c2c2c2ff" x="2" y="8" height="1" width="2"/><rect fill="#b7b7b7ff" x="4" y="8" height="1" width="1"/><rect fill="#ccccccff" x="5" y="8" height="1" width="1"/><rect fill="#b7b7b7ff" x="6" y="8" height="1" width="1"/><rect fill="#ccccccff" x="7" y="8" height="1" width="1"/><rect fill="#c2c2c2ff" x="8" y="8" height="1" width="1"/><rect fill="#ccccccff" x="9" y="8" height="1" width="2"/><rect fill="#c2c2c2ff" x="11" y="8" height="1" width="1"/><rect fill="#b7b7b7ff" x="12" y="8" height="1" width="1"/><rect fill="#c2c2c2ff" x="13" y="8" height="1" width="1"/><rect fill="#ccccccff" x="14" y="8" height="1" width="3"/><rect fill="#b7b7b7ff" x="17" y="8" height="1" width="1"/><rect fill="#ccccccff" x="18" y="8" height="1" width="3"/><rect fill="#b7b7b7ff" x="21" y="8" height="1" width="1"/><rect fill="#ccccccff" x="22" y="8" height="1" width="2"/><rect fill="#b7b7b7ff" x="24" y="8" height="1" width="1"/><rect fill="#ccccccff" x="25" y="8" height="1" width="3"/><rect fill="#b7b7b7ff" x="28" y="8" height="1" width="1"/><rect fill="#c2c2c2ff" x="29" y="8" height="1" width="1"/><rect fill="#ccccccff" x="30" y="8" height="1" width="2"/><rect fill="#c2c2c2ff" x="32" y="8" height="1" width="1"/><rect fill="#ccccccff" x="33" y="8" height="1" width="1"/><rect fill="#b7b7b7ff" x="34" y="8" height="1" width="2"/><rect fill="#b7b7b7ff" x="0" y="9" height="1" width="2"/><rect fill="#ccccccff" x="2" y="9" height="1" width="4"/><rect fill="#b7b7b7ff" x="6" y="9" height="1" width="1"/><rect fill="#ccccccff" x="7" y="9" height="1" width="2"/><rect fill="#c2c2c2ff" x="9" y="9" height="1" width="1"/><rect fill="#ccccccff" x="10" y="9" height="1" width="3"/><rect fill="#b7b7b7ff" x="13" y="9" height="1" width="2"/><rect fill="#ccccccff" x="15" y="9" height="1" width="1"/><rect fill="#b7b7b7ff" x="16" y="9" height="1" width="1"/><rect fill="#ccccccff" x="17" y="9" height="1" width="2"/><rect fill="#b7b7b7ff" x="19" y="9" height="1" width="1"/><rect fill="#c2c2c2ff" x="20" y="9" height="1" width="1"/><rect fill="#ccccccff" x="21" y="9" height="1" width="2"/><rect fill="#c2c2c2ff" x="23" y="9" height="1" width="1"/><rect fill="#ccccccff" x="24" y="9" height="1" width="1"/><rect fill="#b7b7b7ff" x="25" y="9" height="1" width="1"/><rect fill="#ccccccff" x="26" y="9" height="1" width="3"/><rect fill="#c2c2c2ff" x="29" y="9" height="1" width="1"/><rect fill="#ccccccff" x="30" y="9" height="1" width="2"/><rect fill="#c2c2c2ff" x="32" y="9" height="1" width="1"/><rect fill="#ccccccff" x="33" y="9" height="1" width="1"/><rect fill="#b7b7b7ff" x="34" y="9" height="1" width="1"/><rect fill="#c2c2c2ff" x="35" y="9" height="1" width="1"/><rect fill="#ccccccff" x="0" y="10" height="1" width="1"/><rect fill="#b7b7b7ff" x="1" y="10" height="1" width="2"/><rect fill="#ccccccff" x="3" y="10" height="1" width="1"/><rect fill="#b7b7b7ff" x="4" y="10" height="1" width="2"/><rect fill="#ccccccff" x="6" y="10" height="1" width="1"/><rect fill="#c2c2c2ff" x="7" y="10" height="1" width="1"/><rect fill="#ccccccff" x="8" y="10" height="1" width="4"/><rect fill="#b7b7b7ff" x="12" y="10" height="1" width="1"/><rect fill="#c2c2c2ff" x="13" y="10" height="1" width="1"/><rect fill="#b7b7b7ff" x="14" y="10" height="1" width="1"/><rect fill="#ccccccff" x="15" y="10" height="1" width="1"/><rect fill="#b7b7b7ff" x="16" y="10" height="1" width="2"/><rect fill="#c2c2c2ff" x="18" y="10" height="1" width="3"/><rect fill="#ccccccff" x="21" y="10" height="1" width="1"/><rect fill="#b7b7b7ff" x="22" y="10" height="1" width="3"/><rect fill="#c2c2c2ff" x="25" y="10" height="1" width="1"/><rect fill="#ccccccff" x="26" y="10" height="1" width="1"/><rect fill="#b7b7b7ff" x="27" y="10" height="1" width="1"/><rect fill="#ccccccff" x="28" y="10" height="1" width="2"/><rect fill="#c2c2c2ff" x="30" y="10" height="1" width="2"/><rect fill="#ccccccff" x="32" y="10" height="1" width="2"/><rect fill="#c2c2c2ff" x="34" y="10" height="1" width="1"/><rect fill="#ccccccff" x="35" y="10" height="1" width="1"/><rect fill="#b7b7b7ff" x="0" y="11" height="1" width="1"/><rect fill="#c2c2c2ff" x="1" y="11" height="1" width="1"/><rect fill="#b7b7b7ff" x="2" y="11" height="1" width="2"/><rect fill="#c2c2c2ff" x="4" y="11" height="1" width="1"/><rect fill="#b7b7b7ff" x="5" y="11" height="1" width="2"/><rect fill="#ccccccff" x="7" y="11" height="1" width="1"/><rect fill="#c2c2c2ff" x="8" y="11" height="1" width="1"/><rect fill="#ccccccff" x="9" y="11" height="1" width="7"/><rect fill="#c2c2c2ff" x="16" y="11" height="1" width="1"/><rect fill="#b7b7b7ff" x="17" y="11" height="1" width="1"/><rect fill="#ccccccff" x="18" y="11" height="1" width="3"/><rect fill="#b7b7b7ff" x="21" y="11" height="1" width="2"/><rect fill="#c2c2c2ff" x="23" y="11" height="1" width="2"/><rect fill="#ccccccff" x="25" y="11" height="1" width="1"/><rect fill="#b7b7b7ff" x="26" y="11" height="1" width="3"/><rect fill="#ccccccff" x="29" y="11" height="1" width="1"/><rect fill="#b7b7b7ff" x="30" y="11" height="1" width="4"/><rect fill="#c2c2c2ff" x="34" y="11" height="1" width="1"/><rect fill="#ccccccff" x="35" y="11" height="1" width="1"/><rect fill="#c2c2c2ff" x="0" y="12" height="1" width="2"/><rect fill="#ccccccff" x="2" y="12" height="1" width="1"/><rect fill="#c2c2c2ff" x="3" y="12" height="1" width="2"/><rect fill="#b7b7b7ff" x="5" y="12" height="1" width="2"/><rect fill="#ccccccff" x="7" y="12" height="1" width="2"/><rect fill="#b7b7b7ff" x="9" y="12" height="1" width="2"/><rect fill="#ccccccff" x="11" y="12" height="1" width="2"/><rect fill="#c2c2c2ff" x="13" y="12" height="1" width="1"/><rect fill="#ccccccff" x="14" y="12" height="1" width="1"/><rect fill="#b7b7b7ff" x="15" y="12" height="1" width="1"/><rect fill="#c2c2c2ff" x="16" y="12" height="1" width="1"/><rect fill="#ccccccff" x="17" y="12" height="1" width="1"/><rect fill="#b7b7b7ff" x="18" y="12" height="1" width="1"/><rect fill="#ccccccff" x="19" y="12" height="1" width="2"/><rect fill="#b7b7b7ff" x="21" y="12" height="1" width="1"/><rect fill="#c2c2c2ff" x="22" y="12" height="1" width="2"/><rect fill="#ccccccff" x="24" y="12" height="1" width="2"/><rect fill="#b7b7b7ff" x="26" y="12" height="1" width="1"/><rect fill="#c2c2c2ff" x="27" y="12" height="1" width="1"/><rect fill="#b7b7b7ff" x="28" y="12" height="1" width="3"/><rect fill="#c2c2c2ff" x="31" y="12" height="1" width="2"/><rect fill="#b7b7b7ff" x="33" y="12" height="1" width="2"/><rect fill="#c2c2c2ff" x="35" y="12" height="1" width="1"/><rect fill="#c2c2c2ff" x="0" y="13" height="1" width="1"/><rect fill="#ccccccff" x="1" y="13" height="1" width="4"/><rect fill="#c2c2c2ff" x="5" y="13" height="1" width="1"/><rect fill="#ccccccff" x="6" y="13" height="1" width="1"/><rect fill="#b7b7b7ff" x="7" y="13" height="1" width="3"/><rect fill="#c2c2c2ff" x="10" y="13" height="1" width="1"/><rect fill="#ccccccff" x="11" y="13" height="1" width="4"/><rect fill="#c2c2c2ff" x="15" y="13" height="1" width="1"/><rect fill="#ccccccff" x="16" y="13" height="1" width="1"/><rect fill="#c2c2c2ff" x="17" y="13" height="1" width="1"/><rect fill="#b7b7b7ff" x="18" y="13" height="1" width="1"/><rect fill="#ccccccff" x="19" y="13" height="1" width="1"/><rect fill="#b7b7b7ff" x="20" y="13" height="1" width="1"/><rect fill="#ccccccff" x="21" y="13" height="1" width="1"/><rect fill="#c2c2c2ff" x="22" y="13" height="1" width="4"/><rect fill="#ccccccff" x="26" y="13" height="1" width="1"/><rect fill="#b7b7b7ff" x="27" y="13" height="1" width="2"/><rect fill="#c2c2c2ff" x="29" y="13" height="1" width="2"/><rect fill="#ccccccff" x="31" y="13" height="1" width="2"/><rect fill="#c2c2c2ff" x="33" y="13" height="1" width="1"/><rect fill="#b7b7b7ff" x="34" y="13" height="1" width="1"/><rect fill="#ccccccff" x="35" y="13" height="1" width="1"/><rect fill="#ccccccff" x="0" y="14" height="1" width="2"/><rect fill="#c2c2c2ff" x="2" y="14" height="1" width="1"/><rect fill="#ccccccff" x="3" y="14" height="1" width="2"/><rect fill="#c2c2c2ff" x="5" y="14" height="1" width="1"/><rect fill="#ccccccff" x="6" y="14" height="1" width="2"/><rect fill="#b7b7b7ff" x="8" y="14" height="1" width="1"/><rect fill="#c2c2c2ff" x="9" y="14" height="1" width="1"/><rect fill="#ccccccff" x="10" y="14" height="1" width="7"/><rect fill="#b7b7b7ff" x="17" y="14" height="1" width="4"/><rect fill="#ccccccff" x="21" y="14" height="1" width="2"/><rect fill="#c2c2c2ff" x="23" y="14" height="1" width="1"/><rect fill="#b7b7b7ff" x="24" y="14" height="1" width="1"/><rect fill="#ccccccff" x="25" y="14" height="1" width="5"/><rect fill="#c2c2c2ff" x="30" y="14" height="1" width="1"/><rect fill="#ccccccff" x="31" y="14" height="1" width="2"/><rect fill="#c2c2c2ff" x="33" y="14" height="1" width="1"/><rect fill="#ccccccff" x="34" y="14" height="1" width="2"/><rect fill="#b7b7b7ff" x="0" y="15" height="1" width="1"/><rect fill="#ccccccff" x="1" y="15" height="1" width="2"/><rect fill="#c2c2c2ff" x="3" y="15" height="1" width="2"/><rect fill="#ccccccff" x="5" y="15" height="1" width="1"/><rect fill="#b7b7b7ff" x="6" y="15" height="1" width="1"/><rect fill="#ccccccff" x="7" y="15" height="1" width="2"/><rect fill="#c2c2c2ff" x="9" y="15" height="1" width="1"/><rect fill="#ccccccff" x="10" y="15" height="1" width="1"/><rect fill="#b7b7b7ff" x="11" y="15" height="1" width="1"/><rect fill="#ccccccff" x="12" y="15" height="1" width="2"/><rect fill="#b7b7b7ff" x="14" y="15" height="1" width="1"/><rect fill="#ccccccff" x="15" y="15" height="1" width="1"/><rect fill="#b7b7b7ff" x="16" y="15" height="1" width="2"/><rect fill="#c2c2c2ff" x="18" y="15" height="1" width="2"/><rect fill="#b7b7b7ff" x="20" y="15" height="1" width="2"/><rect fill="#ccccccff" x="22" y="15" height="1" width="2"/><rect fill="#b7b7b7ff" x="24" y="15" height="1" width="1"/><rect fill="#ccccccff" x="25" y="15" height="1" width="1"/><rect fill="#b7b7b7ff" x="26" y="15" height="1" width="1"/><rect fill="#ccccccff" x="27" y="15" height="1" width="1"/><rect fill="#b7b7b7ff" x="28" y="15" height="1" width="1"/><rect fill="#ccccccff" x="29" y="15" height="1" width="2"/><rect fill="#c2c2c2ff" x="31" y="15" height="1" width="2"/><rect fill="#ccccccff" x="33" y="15" height="1" width="2"/><rect fill="#c2c2c2ff" x="35" y="15" height="1" width="1"/><rect fill="#c2c2c2ff" x="0" y="16" height="1" width="1"/><rect fill="#ccccccff" x="1" y="16" height="1" width="1"/><rect fill="#b7b7b7ff" x="2" y="16" height="1" width="1"/><rect fill="#c2c2c2ff" x="3" y="16" height="1" width="1"/><rect fill="#ccccccff" x="4" y="16" height="1" width="3"/><rect fill="#b7b7b7ff" x="7" y="16" height="1" width="1"/><rect fill="#ccccccff" x="8" y="16" height="1" width="2"/><rect fill="#c2c2c2ff" x="10" y="16" height="1" width="2"/><rect fill="#ccccccff" x="12" y="16" height="1" width="1"/><rect fill="#b7b7b7ff" x="13" y="16" height="1" width="1"/><rect fill="#ccccccff" x="14" y="16" height="1" width="2"/><rect fill="#b7b7b7ff" x="16" y="16" height="1" width="1"/><rect fill="#ccccccff" x="17" y="16" height="1" width="2"/><rect fill="#c2c2c2ff" x="19" y="16" height="1" width="2"/><rect fill="#b7b7b7ff" x="21" y="16" height="1" width="1"/><rect fill="#ccccccff" x="22" y="16" height="1" width="2"/><rect fill="#b7b7b7ff" x="24" y="16" height="1" width="2"/><rect fill="#c2c2c2ff" x="26" y="16" height="1" width="1"/><rect fill="#ccccccff" x="27" y="16" height="1" width="1"/><rect fill="#b7b7b7ff" x="28" y="16" height="1" width="1"/><rect fill="#c2c2c2ff" x="29" y="16" height="1" width="2"/><rect fill="#ccccccff" x="31" y="16" height="1" width="3"/><rect fill="#c2c2c2ff" x="34" y="16" height="1" width="1"/><rect fill="#ccccccff" x="35" y="16" height="1" width="1"/><rect fill="#ccccccff" x="0" y="17" height="1" width="2"/><rect fill="#b7b7b7ff" x="2" y="17" height="1" width="4"/><rect fill="#c2c2c2ff" x="6" y="17" height="1" width="2"/><rect fill="#b7b7b7ff" x="8" y="17" height="1" width="2"/><rect fill="#ccccccff" x="10" y="17" height="1" width="4"/><rect fill="#b7b7b7ff" x="14" y="17" height="1" width="2"/><rect fill="#ccccccff" x="16" y="17" height="1" width="1"/><rect fill="#c2c2c2ff" x="17" y="17" height="1" width="1"/><rect fill="#ccccccff" x="18" y="17" height="1" width="2"/><rect fill="#c2c2c2ff" x="20" y="17" height="1" width="1"/><rect fill="#ccccccff" x="21" y="17" height="1" width="2"/><rect fill="#b7b7b7ff" x="23" y="17" height="1" width="2"/><rect fill="#c2c2c2ff" x="25" y="17" height="1" width="1"/><rect fill="#b7b7b7ff" x="26" y="17" height="1" width="1"/><rect fill="#ccccccff" x="27" y="17" height="1" width="2"/><rect fill="#c2c2c2ff" x="29" y="17" height="1" width="1"/><rect fill="#b7b7b7ff" x="30" y="17" height="1" width="2"/><rect fill="#ccccccff" x="32" y="17" height="1" width="2"/><rect fill="#c2c2c2ff" x="34" y="17" height="1" width="1"/><rect fill="#b7b7b7ff" x="35" y="17" height="1" width="1"/><rect fill="#ccccccff" x="0" y="18" height="1" width="4"/><rect fill="#b7b7b7ff" x="4" y="18" height="1" width="1"/><rect fill="#c2c2c2ff" x="5" y="18" height="1" width="1"/><rect fill="#ccccccff" x="6" y="18" height="1" width="2"/><rect fill="#b7b7b7ff" x="8" y="18" height="1" width="1"/><rect fill="#ccccccff" x="9" y="18" height="1" width="1"/><rect fill="#b7b7b7ff" x="10" y="18" height="1" width="1"/><rect fill="#ccccccff" x="11" y="18" height="1" width="1"/><rect fill="#b7b7b7ff" x="12" y="18" height="1" width="1"/><rect fill="#ccccccff" x="13" y="18" height="1" width="1"/><rect fill="#c2c2c2ff" x="14" y="18" height="1" width="2"/><rect fill="#ccccccff" x="16" y="18" height="1" width="2"/><rect fill="#c2c2c2ff" x="18" y="18" height="1" width="2"/><rect fill="#ccccccff" x="20" y="18" height="1" width="2"/><rect fill="#c2c2c2ff" x="22" y="18" height="1" width="1"/><rect fill="#b7b7b7ff" x="23" y="18" height="1" width="1"/><rect fill="#ccccccff" x="24" y="18" height="1" width="1"/><rect fill="#c2c2c2ff" x="25" y="18" height="1" width="1"/><rect fill="#b7b7b7ff" x="26" y="18" height="1" width="1"/><rect fill="#c2c2c2ff" x="27" y="18" height="1" width="1"/><rect fill="#ccccccff" x="28" y="18" height="1" width="2"/><rect fill="#c2c2c2ff" x="30" y="18" height="1" width="1"/><rect fill="#b7b7b7ff" x="31" y="18" height="1" width="1"/><rect fill="#ccccccff" x="32" y="18" height="1" width="1"/><rect fill="#c2c2c2ff" x="33" y="18" height="1" width="1"/><rect fill="#ccccccff" x="34" y="18" height="1" width="1"/><rect fill="#b7b7b7ff" x="35" y="18" height="1" width="1"/><rect fill="#ccccccff" x="0" y="19" height="1" width="5"/><rect fill="#c2c2c2ff" x="5" y="19" height="1" width="1"/><rect fill="#b7b7b7ff" x="6" y="19" height="1" width="1"/><rect fill="#ccccccff" x="7" y="19" height="1" width="1"/><rect fill="#b7b7b7ff" x="8" y="19" height="1" width="1"/><rect fill="#ccccccff" x="9" y="19" height="1" width="1"/><rect fill="#b7b7b7ff" x="10" y="19" height="1" width="3"/><rect fill="#c2c2c2ff" x="13" y="19" height="1" width="1"/><rect fill="#ccccccff" x="14" y="19" height="1" width="2"/><rect fill="#b7b7b7ff" x="16" y="19" height="1" width="1"/><rect fill="#c2c2c2ff" x="17" y="19" height="1" width="2"/><rect fill="#ccccccff" x="19" y="19" height="1" width="3"/><rect fill="#b7b7b7ff" x="22" y="19" height="1" width="1"/><rect fill="#c2c2c2ff" x="23" y="19" height="1" width="1"/><rect fill="#b7b7b7ff" x="24" y="19" height="1" width="1"/><rect fill="#ccccccff" x="25" y="19" height="1" width="5"/><rect fill="#c2c2c2ff" x="30" y="19" height="1" width="1"/><rect fill="#ccccccff" x="31" y="19" height="1" width="1"/><rect fill="#b7b7b7ff" x="32" y="19" height="1" width="4"/><rect fill="#b7b7b7ff" x="0" y="20" height="1" width="1"/><rect fill="#ccccccff" x="1" y="20" height="1" width="2"/><rect fill="#b7b7b7ff" x="3" y="20" height="1" width="2"/><rect fill="#ccccccff" x="5" y="20" height="1" width="1"/><rect fill="#c2c2c2ff" x="6" y="20" height="1" width="2"/><rect fill="#ccccccff" x="8" y="20" height="1" width="9"/><rect fill="#b7b7b7ff" x="17" y="20" height="1" width="1"/><rect fill="#ccccccff" x="18" y="20" height="1" width="2"/><rect fill="#b7b7b7ff" x="20" y="20" height="1" width="2"/><rect fill="#ccccccff" x="22" y="20" height="1" width="1"/><rect fill="#b7b7b7ff" x="23" y="20" height="1" width="1"/><rect fill="#ccccccff" x="24" y="20" height="1" width="1"/><rect fill="#b7b7b7ff" x="25" y="20" height="1" width="2"/><rect fill="#ccccccff" x="27" y="20" height="1" width="1"/><rect fill="#c2c2c2ff" x="28" y="20" height="1" width="2"/><rect fill="#ccccccff" x="30" y="20" height="1" width="2"/><rect fill="#b7b7b7ff" x="32" y="20" height="1" width="1"/><rect fill="#c2c2c2ff" x="33" y="20" height="1" width="2"/><rect fill="#ccccccff" x="35" y="20" height="1" width="1"/><rect fill="#b7b7b7ff" x="0" y="21" height="1" width="4"/><rect fill="#c2c2c2ff" x="4" y="21" height="1" width="1"/><rect fill="#ccccccff" x="5" y="21" height="1" width="4"/><rect fill="#b7b7b7ff" x="9" y="21" height="1" width="1"/><rect fill="#c2c2c2ff" x="10" y="21" height="1" width="1"/><rect fill="#ccccccff" x="11" y="21" height="1" width="3"/><rect fill="#c2c2c2ff" x="14" y="21" height="1" width="2"/><rect fill="#ccccccff" x="16" y="21" height="1" width="2"/><rect fill="#b7b7b7ff" x="18" y="21" height="1" width="1"/><rect fill="#ccccccff" x="19" y="21" height="1" width="2"/><rect fill="#c2c2c2ff" x="21" y="21" height="1" width="1"/><rect fill="#b7b7b7ff" x="22" y="21" height="1" width="1"/><rect fill="#ccccccff" x="23" y="21" height="1" width="2"/><rect fill="#c2c2c2ff" x="25" y="21" height="1" width="1"/><rect fill="#b7b7b7ff" x="26" y="21" height="1" width="1"/><rect fill="#ccccccff" x="27" y="21" height="1" width="1"/><rect fill="#b7b7b7ff" x="28" y="21" height="1" width="7"/><rect fill="#ccccccff" x="35" y="21" height="1" width="1"/><rect fill="#c2c2c2ff" x="0" y="22" height="1" width="2"/><rect fill="#ccccccff" x="2" y="22" height="1" width="2"/><rect fill="#b7b7b7ff" x="4" y="22" height="1" width="1"/><rect fill="#ccccccff" x="5" y="22" height="1" width="2"/><rect fill="#c2c2c2ff" x="7" y="22" height="1" width="1"/><rect fill="#ccccccff" x="8" y="22" height="1" width="5"/><rect fill="#b7b7b7ff" x="13" y="22" height="1" width="1"/><rect fill="#ccccccff" x="14" y="22" height="1" width="3"/><rect fill="#c2c2c2ff" x="17" y="22" height="1" width="1"/><rect fill="#b7b7b7ff" x="18" y="22" height="1" width="1"/><rect fill="#c2c2c2ff" x="19" y="22" height="1" width="1"/><rect fill="#ccccccff" x="20" y="22" height="1" width="1"/><rect fill="#c2c2c2ff" x="21" y="22" height="1" width="2"/><rect fill="#ccccccff" x="23" y="22" height="1" width="1"/><rect fill="#b7b7b7ff" x="24" y="22" height="1" width="1"/><rect fill="#ccccccff" x="25" y="22" height="1" width="1"/><rect fill="#b7b7b7ff" x="26" y="22" height="1" width="1"/><rect fill="#ccccccff" x="27" y="22" height="1" width="2"/><rect fill="#c2c2c2ff" x="29" y="22" height="1" width="2"/><rect fill="#b7b7b7ff" x="31" y="22" height="1" width="2"/><rect fill="#c2c2c2ff" x="33" y="22" height="1" width="1"/><rect fill="#b7b7b7ff" x="34" y="22" height="1" width="2"/><rect fill="#ccccccff" x="0" y="23" height="1" width="1"/><rect fill="#b7b7b7ff" x="1" y="23" height="1" width="1"/><rect fill="#c2c2c2ff" x="2" y="23" height="1" width="1"/><rect fill="#ccccccff" x="3" y="23" height="1" width="2"/><rect fill="#c2c2c2ff" x="5" y="23" height="1" width="2"/><rect fill="#ccccccff" x="7" y="23" height="1" width="3"/><rect fill="#b7b7b7ff" x="10" y="23" height="1" width="1"/><rect fill="#c2c2c2ff" x="11" y="23" height="1" width="1"/><rect fill="#b7b7b7ff" x="12" y="23" height="1" width="1"/><rect fill="#ccccccff" x="13" y="23" height="1" width="2"/><rect fill="#b7b7b7ff" x="15" y="23" height="1" width="3"/><rect fill="#ccccccff" x="18" y="23" height="1" width="1"/><rect fill="#c2c2c2ff" x="19" y="23" height="1" width="1"/><rect fill="#ccccccff" x="20" y="23" height="1" width="2"/><rect fill="#c2c2c2ff" x="22" y="23" height="1" width="2"/><rect fill="#b7b7b7ff" x="24" y="23" height="1" width="1"/><rect fill="#ccccccff" x="25" y="23" height="1" width="1"/><rect fill="#b7b7b7ff" x="26" y="23" height="1" width="2"/><rect fill="#c2c2c2ff" x="28" y="23" height="1" width="2"/><rect fill="#ccccccff" x="30" y="23" height="1" width="1"/><rect fill="#c2c2c2ff" x="31" y="23" height="1" width="1"/><rect fill="#b7b7b7ff" x="32" y="23" height="1" width="1"/><rect fill="#ccccccff" x="33" y="23" height="1" width="1"/><rect fill="#c2c2c2ff" x="34" y="23" height="1" width="1"/><rect fill="#b7b7b7ff" x="35" y="23" height="1" width="1"/><rect fill="#ccccccff" x="0" y="24" height="1" width="1"/><rect fill="#b7b7b7ff" x="1" y="24" height="1" width="1"/><rect fill="#c2c2c2ff" x="2" y="24" height="1" width="1"/><rect fill="#b7b7b7ff" x="3" y="24" height="1" width="1"/><rect fill="#ccccccff" x="4" y="24" height="1" width="4"/><rect fill="#c2c2c2ff" x="8" y="24" height="1" width="2"/><rect fill="#b7b7b7ff" x="10" y="24" height="1" width="1"/><rect fill="#ccccccff" x="11" y="24" height="1" width="3"/><rect fill="#b7b7b7ff" x="14" y="24" height="1" width="1"/><rect fill="#ccccccff" x="15" y="24" height="1" width="2"/><rect fill="#b7b7b7ff" x="17" y="24" height="1" width="1"/><rect fill="#c2c2c2ff" x="18" y="24" height="1" width="4"/><rect fill="#ccccccff" x="22" y="24" height="1" width="1"/><rect fill="#b7b7b7ff" x="23" y="24" height="1" width="1"/><rect fill="#c2c2c2ff" x="24" y="24" height="1" width="1"/><rect fill="#ccccccff" x="25" y="24" height="1" width="1"/><rect fill="#b7b7b7ff" x="26" y="24" height="1" width="3"/><rect fill="#ccccccff" x="29" y="24" height="1" width="1"/><rect fill="#b7b7b7ff" x="30" y="24" height="1" width="1"/><rect fill="#c2c2c2ff" x="31" y="24" height="1" width="1"/><rect fill="#ccccccff" x="32" y="24" height="1" width="2"/><rect fill="#c2c2c2ff" x="34" y="24" height="1" width="1"/><rect fill="#ccccccff" x="35" y="24" height="1" width="1"/><rect fill="#c2c2c2ff" x="0" y="25" height="1" width="2"/><rect fill="#ccccccff" x="2" y="25" height="1" width="2"/><rect fill="#b7b7b7ff" x="4" y="25" height="1" width="3"/><rect fill="#ccccccff" x="7" y="25" height="1" width="3"/><rect fill="#c2c2c2ff" x="10" y="25" height="1" width="1"/><rect fill="#b7b7b7ff" x="11" y="25" height="1" width="3"/><rect fill="#c2c2c2ff" x="14" y="25" height="1" width="1"/><rect fill="#b7b7b7ff" x="15" y="25" height="1" width="2"/><rect fill="#c2c2c2ff" x="17" y="25" height="1" width="1"/><rect fill="#b7b7b7ff" x="18" y="25" height="1" width="1"/><rect fill="#ccccccff" x="19" y="25" height="1" width="1"/><rect fill="#b7b7b7ff" x="20" y="25" height="1" width="1"/><rect fill="#ccccccff" x="21" y="25" height="1" width="1"/><rect fill="#b7b7b7ff" x="22" y="25" height="1" width="4"/><rect fill="#ccccccff" x="26" y="25" height="1" width="4"/><rect fill="#c2c2c2ff" x="30" y="25" height="1" width="1"/><rect fill="#ccccccff" x="31" y="25" height="1" width="2"/><rect fill="#c2c2c2ff" x="33" y="25" height="1" width="1"/><rect fill="#ccccccff" x="34" y="25" height="1" width="2"/><rect fill="#b7b7b7ff" x="0" y="26" height="1" width="2"/><rect fill="#ccccccff" x="2" y="26" height="1" width="2"/><rect fill="#c2c2c2ff" x="4" y="26" height="1" width="1"/><rect fill="#b7b7b7ff" x="5" y="26" height="1" width="1"/><rect fill="#c2c2c2ff" x="6" y="26" height="1" width="2"/><rect fill="#ccccccff" x="8" y="26" height="1" width="2"/><rect fill="#c2c2c2ff" x="10" y="26" height="1" width="1"/><rect fill="#ccccccff" x="11" y="26" height="1" width="1"/><rect fill="#b7b7b7ff" x="12" y="26" height="1" width="1"/><rect fill="#c2c2c2ff" x="13" y="26" height="1" width="1"/><rect fill="#ccccccff" x="14" y="26" height="1" width="4"/><rect fill="#b7b7b7ff" x="18" y="26" height="1" width="1"/><rect fill="#ccccccff" x="19" y="26" height="1" width="1"/><rect fill="#b7b7b7ff" x="20" y="26" height="1" width="1"/><rect fill="#c2c2c2ff" x="21" y="26" height="1" width="1"/><rect fill="#b7b7b7ff" x="22" y="26" height="1" width="1"/><rect fill="#c2c2c2ff" x="23" y="26" height="1" width="1"/><rect fill="#ccccccff" x="24" y="26" height="1" width="1"/><rect fill="#b7b7b7ff" x="25" y="26" height="1" width="1"/><rect fill="#ccccccff" x="26" y="26" height="1" width="6"/><rect fill="#b7b7b7ff" x="32" y="26" height="1" width="4"/><rect fill="#ccccccff" x="0" y="27" height="1" width="2"/><rect fill="#b7b7b7ff" x="2" y="27" height="1" width="4"/><rect fill="#c2c2c2ff" x="6" y="27" height="1" width="3"/><rect fill="#ccccccff" x="9" y="27" height="1" width="4"/><rect fill="#b7b7b7ff" x="13" y="27" height="1" width="1"/><rect fill="#ccccccff" x="14" y="27" height="1" width="2"/><rect fill="#c2c2c2ff" x="16" y="27" height="1" width="1"/><rect fill="#ccccccff" x="17" y="27" height="1" width="1"/><rect fill="#c2c2c2ff" x="18" y="27" height="1" width="1"/><rect fill="#b7b7b7ff" x="19" y="27" height="1" width="1"/><rect fill="#ccccccff" x="20" y="27" height="1" width="2"/><rect fill="#c2c2c2ff" x="22" y="27" height="1" width="1"/><rect fill="#ccccccff" x="23" y="27" height="1" width="2"/><rect fill="#c2c2c2ff" x="25" y="27" height="1" width="1"/><rect fill="#ccccccff" x="26" y="27" height="1" width="1"/><rect fill="#b7b7b7ff" x="27" y="27" height="1" width="6"/><rect fill="#c2c2c2ff" x="33" y="27" height="1" width="2"/><rect fill="#b7b7b7ff" x="35" y="27" height="1" width="1"/><rect fill="#ccccccff" x="0" y="28" height="1" width="1"/><rect fill="#b7b7b7ff" x="1" y="28" height="1" width="2"/><rect fill="#c2c2c2ff" x="3" y="28" height="1" width="1"/><rect fill="#ccccccff" x="4" y="28" height="1" width="1"/><rect fill="#b7b7b7ff" x="5" y="28" height="1" width="2"/><rect fill="#ccccccff" x="7" y="28" height="1" width="6"/><rect fill="#b7b7b7ff" x="13" y="28" height="1" width="2"/><rect fill="#c2c2c2ff" x="15" y="28" height="1" width="1"/><rect fill="#ccccccff" x="16" y="28" height="1" width="6"/><rect fill="#c2c2c2ff" x="22" y="28" height="1" width="1"/><rect fill="#ccccccff" x="23" y="28" height="1" width="2"/><rect fill="#c2c2c2ff" x="25" y="28" height="1" width="1"/><rect fill="#b7b7b7ff" x="26" y="28" height="1" width="2"/><rect fill="#c2c2c2ff" x="28" y="28" height="1" width="2"/><rect fill="#b7b7b7ff" x="30" y="28" height="1" width="2"/><rect fill="#c2c2c2ff" x="32" y="28" height="1" width="1"/><rect fill="#ccccccff" x="33" y="28" height="1" width="2"/><rect fill="#c2c2c2ff" x="35" y="28" height="1" width="1"/><rect fill="#b7b7b7ff" x="0" y="29" height="1" width="2"/><rect fill="#c2c2c2ff" x="2" y="29" height="1" width="1"/><rect fill="#ccccccff" x="3" y="29" height="1" width="3"/><rect fill="#b7b7b7ff" x="6" y="29" height="1" width="2"/><rect fill="#ccccccff" x="8" y="29" height="1" width="1"/><rect fill="#b7b7b7ff" x="9" y="29" height="1" width="3"/><rect fill="#c2c2c2ff" x="12" y="29" height="1" width="1"/><rect fill="#ccccccff" x="13" y="29" height="1" width="4"/><rect fill="#b7b7b7ff" x="17" y="29" height="1" width="2"/><rect fill="#ccccccff" x="19" y="29" height="1" width="1"/><rect fill="#b7b7b7ff" x="20" y="29" height="1" width="1"/><rect fill="#ccccccff" x="21" y="29" height="1" width="1"/><rect fill="#b7b7b7ff" x="22" y="29" height="1" width="2"/><rect fill="#ccccccff" x="24" y="29" height="1" width="6"/><rect fill="#c2c2c2ff" x="30" y="29" height="1" width="1"/><rect fill="#ccccccff" x="31" y="29" height="1" width="1"/><rect fill="#c2c2c2ff" x="32" y="29" height="1" width="1"/><rect fill="#ccccccff" x="33" y="29" height="1" width="2"/><rect fill="#c2c2c2ff" x="35" y="29" height="1" width="1"/><rect fill="#b7b7b7ff" x="0" y="30" height="1" width="1"/><rect fill="#ccccccff" x="1" y="30" height="1" width="1"/><rect fill="#c2c2c2ff" x="2" y="30" height="1" width="1"/><rect fill="#ccccccff" x="3" y="30" height="1" width="2"/><rect fill="#c2c2c2ff" x="5" y="30" height="1" width="1"/><rect fill="#ccccccff" x="6" y="30" height="1" width="1"/><rect fill="#b7b7b7ff" x="7" y="30" height="1" width="1"/><rect fill="#ccccccff" x="8" y="30" height="1" width="2"/><rect fill="#c2c2c2ff" x="10" y="30" height="1" width="1"/><rect fill="#b7b7b7ff" x="11" y="30" height="1" width="1"/><rect fill="#ccccccff" x="12" y="30" height="1" width="1"/><rect fill="#c2c2c2ff" x="13" y="30" height="1" width="1"/><rect fill="#ccccccff" x="14" y="30" height="1" width="2"/><rect fill="#b7b7b7ff" x="16" y="30" height="1" width="2"/><rect fill="#c2c2c2ff" x="18" y="30" height="1" width="2"/><rect fill="#b7b7b7ff" x="20" y="30" height="1" width="2"/><rect fill="#ccccccff" x="22" y="30" height="1" width="4"/><rect fill="#b7b7b7ff" x="26" y="30" height="1" width="1"/><rect fill="#c2c2c2ff" x="27" y="30" height="1" width="1"/><rect fill="#b7b7b7ff" x="28" y="30" height="1" width="1"/><rect fill="#ccccccff" x="29" y="30" height="1" width="1"/><rect fill="#c2c2c2ff" x="30" y="30" height="1" width="1"/><rect fill="#ccccccff" x="31" y="30" height="1" width="2"/><rect fill="#c2c2c2ff" x="33" y="30" height="1" width="2"/><rect fill="#ccccccff" x="35" y="30" height="1" width="1"/><rect fill="#ccccccff" x="0" y="31" height="1" width="3"/><rect fill="#c2c2c2ff" x="3" y="31" height="1" width="2"/><rect fill="#ccccccff" x="5" y="31" height="1" width="2"/><rect fill="#b7b7b7ff" x="7" y="31" height="1" width="1"/><rect fill="#ccccccff" x="8" y="31" height="1" width="2"/><rect fill="#c2c2c2ff" x="10" y="31" height="1" width="1"/><rect fill="#ccccccff" x="11" y="31" height="1" width="5"/><rect fill="#b7b7b7ff" x="16" y="31" height="1" width="1"/><rect fill="#c2c2c2ff" x="17" y="31" height="1" width="1"/><rect fill="#ccccccff" x="18" y="31" height="1" width="2"/><rect fill="#c2c2c2ff" x="20" y="31" height="1" width="1"/><rect fill="#b7b7b7ff" x="21" y="31" height="1" width="1"/><rect fill="#c2c2c2ff" x="22" y="31" height="1" width="2"/><rect fill="#ccccccff" x="24" y="31" height="1" width="2"/><rect fill="#b7b7b7ff" x="26" y="31" height="1" width="1"/><rect fill="#ccccccff" x="27" y="31" height="1" width="1"/><rect fill="#c2c2c2ff" x="28" y="31" height="1" width="2"/><rect fill="#ccccccff" x="30" y="31" height="1" width="1"/><rect fill="#b7b7b7ff" x="31" y="31" height="1" width="1"/><rect fill="#ccccccff" x="32" y="31" height="1" width="4"/><rect fill="#ccccccff" x="0" y="32" height="1" width="6"/><rect fill="#c2c2c2ff" x="6" y="32" height="1" width="1"/><rect fill="#ccccccff" x="7" y="32" height="1" width="1"/><rect fill="#c2c2c2ff" x="8" y="32" height="1" width="2"/><rect fill="#ccccccff" x="10" y="32" height="1" width="3"/><rect fill="#c2c2c2ff" x="13" y="32" height="1" width="1"/><rect fill="#ccccccff" x="14" y="32" height="1" width="1"/><rect fill="#b7b7b7ff" x="15" y="32" height="1" width="1"/><rect fill="#ccccccff" x="16" y="32" height="1" width="1"/><rect fill="#c2c2c2ff" x="17" y="32" height="1" width="1"/><rect fill="#ccccccff" x="18" y="32" height="1" width="2"/><rect fill="#c2c2c2ff" x="20" y="32" height="1" width="1"/><rect fill="#ccccccff" x="21" y="32" height="1" width="4"/><rect fill="#c2c2c2ff" x="25" y="32" height="1" width="1"/><rect fill="#ccccccff" x="26" y="32" height="1" width="5"/><rect fill="#b7b7b7ff" x="31" y="32" height="1" width="4"/><rect fill="#ccccccff" x="35" y="32" height="1" width="1"/><rect fill="#b7b7b7ff" x="0" y="33" height="1" width="2"/><rect fill="#ccccccff" x="2" y="33" height="1" width="2"/><rect fill="#c2c2c2ff" x="4" y="33" height="1" width="2"/><rect fill="#ccccccff" x="6" y="33" height="1" width="5"/><rect fill="#b7b7b7ff" x="11" y="33" height="1" width="1"/><rect fill="#ccccccff" x="12" y="33" height="1" width="2"/><rect fill="#c2c2c2ff" x="14" y="33" height="1" width="1"/><rect fill="#b7b7b7ff" x="15" y="33" height="1" width="1"/><rect fill="#ccccccff" x="16" y="33" height="1" width="2"/><rect fill="#c2c2c2ff" x="18" y="33" height="1" width="2"/><rect fill="#ccccccff" x="20" y="33" height="1" width="3"/><rect fill="#c2c2c2ff" x="23" y="33" height="1" width="2"/><rect fill="#ccccccff" x="25" y="33" height="1" width="4"/><rect fill="#c2c2c2ff" x="29" y="33" height="1" width="1"/><rect fill="#b7b7b7ff" x="30" y="33" height="1" width="2"/><rect fill="#c2c2c2ff" x="32" y="33" height="1" width="2"/><rect fill="#b7b7b7ff" x="34" y="33" height="1" width="2"/><rect fill="#c2c2c2ff" x="0" y="34" height="1" width="1"/><rect fill="#b7b7b7ff" x="1" y="34" height="1" width="2"/><rect fill="#ccccccff" x="3" y="34" height="1" width="4"/><rect fill="#b7b7b7ff" x="7" y="34" height="1" width="2"/><rect fill="#c2c2c2ff" x="9" y="34" height="1" width="2"/><rect fill="#b7b7b7ff" x="11" y="34" height="1" width="2"/><rect fill="#ccccccff" x="13" y="34" height="1" width="3"/><rect fill="#c2c2c2ff" x="16" y="34" height="1" width="1"/><rect fill="#ccccccff" x="17" y="34" height="1" width="4"/><rect fill="#b7b7b7ff" x="21" y="34" height="1" width="1"/><rect fill="#ccccccff" x="22" y="34" height="1" width="5"/><rect fill="#c2c2c2ff" x="27" y="34" height="1" width="2"/><rect fill="#ccccccff" x="29" y="34" height="1" width="1"/><rect fill="#b7b7b7ff" x="30" y="34" height="1" width="1"/><rect fill="#c2c2c2ff" x="31" y="34" height="1" width="1"/><rect fill="#ccccccff" x="32" y="34" height="1" width="2"/><rect fill="#c2c2c2ff" x="34" y="34" height="1" width="1"/><rect fill="#b7b7b7ff" x="35" y="34" height="1" width="1"/><rect fill="#ccccccff" x="0" y="35" height="1" width="1"/><rect fill="#c2c2c2ff" x="1" y="35" height="1" width="1"/><rect fill="#b7b7b7ff" x="2" y="35" height="1" width="1"/><rect fill="#ccccccff" x="3" y="35" height="1" width="2"/><rect fill="#c2c2c2ff" x="5" y="35" height="1" width="1"/><rect fill="#ccccccff" x="6" y="35" height="1" width="1"/><rect fill="#b7b7b7ff" x="7" y="35" height="1" width="1"/><rect fill="#c2c2c2ff" x="8" y="35" height="1" width="1"/><rect fill="#ccccccff" x="9" y="35" height="1" width="2"/><rect fill="#c2c2c2ff" x="11" y="35" height="1" width="1"/><rect fill="#b7b7b7ff" x="12" y="35" height="1" width="1"/><rect fill="#ccccccff" x="13" y="35" height="1" width="4"/><rect fill="#c2c2c2ff" x="17" y="35" height="1" width="2"/><rect fill="#ccccccff" x="19" y="35" height="1" width="2"/><rect fill="#b7b7b7ff" x="21" y="35" height="1" width="1"/><rect fill="#c2c2c2ff" x="22" y="35" height="1" width="2"/><rect fill="#b7b7b7ff" x="24" y="35" height="1" width="2"/><rect fill="#ccccccff" x="26" y="35" height="1" width="5"/><rect fill="#c2c2c2ff" x="31" y="35" height="1" width="1"/><rect fill="#ccccccff" x="32" y="35" height="1" width="2"/><rect fill="#c2c2c2ff" x="34" y="35" height="1" width="1"/><rect fill="#ccccccff" x="35" y="35" height="1" width="1"/></svg>