<svg xmlns="http://www.w3.org/2000/svg" shape-rendering="crispEdges" version="1.1" viewBox="0 0 36 36" width="360" height="360"><rect fill="#bbaaccff" x="0" y="0" height="1" width="1"/><rect fill="#aaaaccff" x="1" y="0" height="1" width="1"/><rect fill="#bbbbccff" x="2" y="0" height="1" width="2"/><rect fill="#aaaaccff" x="4" y="0" height="1" width="1"/><rect fill="#bbaaccff" x="5" y="0" height="1" width="1"/><rect fill="#aaaaccff" x="6" y="0" height="1" width="2"/><rect fill="#bbbbccff" x="8" y="0" height="1" width="2"/><rect fill="#bbaaccff" x="10" y="0" height="1" width="1"/><rect fill="#bbbbccff" x="11" y="0" height="1" width="1"/><rect fill="#ccbbccff" x="12" y="0" height="1" width="2"/><rect fill="#bbbbccff" x="14" y="0" height="1" width="1"/><rect fill="#bbaaccff" x="15" y="0" height="1" width="1"/><rect fill="#aaaaccff" x="16" y="0" height="1" width="5"/><rect fill="#bbbbccff" x="21" y="0" height="1" width="1"/><rect fill="#ccbbccff" x="22" y="0" height="1" width="2"/><rect fill="#bbaaccff" x="24" y="0" height="1" width="1"/><rect fill="#aaaaccff" x="25" y="0" height="1" width="2"/><rect fill="#bbbbccff" x="27" y="0" height="1" width="2"/><rect fill="#aaaaccff" x="29" y="0" height="1" width="3"/><rect fill="#bbbbccff" x="32" y="0" height="1" width="1"/><rect fill="#ccbbccff" x="33" y="0" height="1" width="2"/><rect fill="#bbbbccff" x="35" y="0" height="1" width="1"/><rect fill="#aaaaccff" x="0" y="1" height="1" width="1"/><rect fill="#bbbbccff" x="1" y="1" height="1" width="1"/><rect fill="#ccbbccff" x="2" y="1" height="1" width="1"/><rect fill="#bbaaccff" x="3" y="1" height="1" width="1"/><rect fill="#bbbbccff" x="4" y="1" height="1" width="1"/><rect fill="#bbaaccff" x="5" y="1" height="1" width="1"/><rect fill="#aaaaccff" x="6" y="1" height="1" width="1"/><rect fill="#ccbbccff" x="7" y="1" height="1" width="1"/><rect fill="#aaaaccff" x="8" y="1" height="1" width="2"/><rect fill="#bbaaccff" x="10" y="1" height="1" width="2"/><rect fill="#bbbbccff" x="12" y="1" height="1" width="2"/><rect fill="#bbaaccff" x="14" y="1" height="1" width="2"/><rect fill="#ccbbccff" x="16" y="1" height="1" width="2"/><rect fill="#bbbbccff" x="18" y="1" height="1" width="1"/><rect fill="#aaaaccff" x="19" y="1" height="1" width="1"/><rect fill="#bbaaccff" x="20" y="1" height="1" width="1"/><rect fill="#bbbbccff" x="21" y="1" height="1" width="1"/><rect fill="#ccbbccff" x="22" y="1" height="1" width="2"/><rect fill="#bbaaccff" x="24" y="1" height="1" width="1"/><rect fill="#aaaaccff" x="25" y="1" height="1" width="1"/><rect fill="#bbbbccff" x="26" y="1" height="1" width="1"/><rect fill="#ccbbccff" x="27" y="1" height="1" width="2"/><rect fill="#bbbbccff" x="29" y="1" height="1" width="1"/><rect fill="#aaaaccff" x="30" y="1" height="1" width="1"/><rect fill="#bbaaccff" x="31" y="1" height="1" width="1"/><rect fill="#bbbbccff" x="32" y="1" height="1" width="1"/><rect fill="#ccbbccff" x="33" y="1" height="1" width="1"/><rect fill="#aaaaccff" x="34" y="1" height="1" width="2"/><rect fill="#aaaaccff" x="0" y="2" height="1" width="1"/><rect fill="#bbbbccff" x="1" y="2" height="1" width="1"/><rect fill="#ccbbccff" x="2" y="2" height="1" width="3"/><rect fill="#aaaaccff" x="5" y="2" height="1" width="2"/><rect fill="#ccbbccff" x="7" y="2" height="1" width="1"/><rect fill="#bbaaccff" x="8" y="2" height="1" width="2"/><rect fill="#aaaaccff" x="10" y="2" height="1" width="1"/><rect fill="#bbaaccff" x="11" y="2" height="1" width="1"/><rect fill="#ccbbccff" x="12" y="2" height="1" width="1"/><rect fill="#bbaaccff" x="13" y="2" height="1" width="2"/><rect fill="#aaaaccff" x="15" y="2" height="1" width="4"/><rect fill="#bbbbccff" x="19" y="2" height="1" width="1"/><rect fill="#bbaaccff" x="20" y="2" height="1" width="3"/><rect fill="#aaaaccff" x="23" y="2" height="1" width="1"/><rect fill="#bbaaccff" x="24" y="2" height="1" width="2"/><rect fill="#aaaaccff" x="26" y="2" height="1" width="2"/><rect fill="#ccbbccff" x="28" y="2" height="1" width="1"/><rect fill="#bbbbccff" x="29" y="2" height="1" width="1"/><rect fill="#bbaaccff" x="30" y="2" height="1" width="2"/><rect fill="#aaaaccff" x="32" y="2" height="1" width="3"/><rect fill="#bbbbccff" x="35" y="2" height="1" width="1"/><rect fill="#bbaaccff" x="0" y="3" height="1" width="2"/><rect fill="#bbbbccff" x="2" y="3" height="1" width="2"/><rect fill="#bbaaccff" x="4" y="3" height="1" width="2"/><rect fill="#bbbbccff" x="6" y="3" height="1" width="1"/><rect fill="#ccbbccff" x="7" y="3" height="1" width="2"/><rect fill="#bbbbccff" x="9" y="3" height="1" width="1"/><rect fill="#aaaaccff" x="10" y="3" height="1" width="1"/><rect fill="#f3f298ff" x="11" y="3" height="1" width="1"/><rect fill="#ccbbccff" x="12" y="3" height="1" width="3"/><rect fill="#aaaaccff" x="15" y="3" height="1" width="1"/><rect fill="#bbbbccff" x="16" y="3" height="1" width="1"/><rect fill="#bbaaccff" x="17" y="3" height="1" width="1"/><rect fill="#bbe7ccff" x="18" y="3" height="1" width="1"/><rect fill="#aaaaccff" x="19" y="3" height="1" width="6"/><rect fill="#bbaaccff" x="25" y="3" height="1" width="2"/><rect fill="#aaaaccff" x="27" y="3" height="1" width="1"/><rect fill="#bbbbccff" x="28" y="3" height="1" width="1"/><rect fill="#bbaaccff" x="29" y="3" height="1" width="2"/><rect fill="#aaaaccff" x="31" y="3" height="1" width="1"/><rect fill="#bbaaccff" x="32" y="3" height="1" width="1"/><rect fill="#aaaaccff" x="33" y="3" height="1" width="1"/><rect fill="#bbbbccff" x="34" y="3" height="1" width="1"/><rect fill="#ccbbccff" x="35" y="3" height="1" width="1"/><rect fill="#bbaaccff" x="0" y="4" height="1" width="5"/><rect fill="#ccbbccff" x="5" y="4" height="1" width="1"/><rect fill="#bbbbccff" x="6" y="4" height="1" width="1"/><rect fill="#ccbbccff" x="7" y="4" height="1" width="1"/><rect fill="#aaaaccff" x="8" y="4" height="1" width="1"/><rect fill="#bbbbccff" x="9" y="4" height="1" width="1"/><rect fill="#ccbbccff" x="10" y="4" height="1" width="2"/><rect fill="#bbaaccff" x="12" y="4" height="1" width="1"/><rect fill="#bbbbccff" x="13" y="4" height="1" width="1"/><rect fill="#aaaaccff" x="14" y="4" height="1" width="1"/><rect fill="#bbbbccff" x="15" y="4" height="1" width="1"/><rect fill="#ccbbccff" x="16" y="4" height="1" width="1"/><rect fill="#bbaaccff" x="17" y="4" height="1" width="2"/><rect fill="#ccbbccff" x="19" y="4" height="1" width="1"/><rect fill="#aaaaccff" x="20" y="4" height="1" width="2"/><rect fill="#ccbbccff" x="22" y="4" height="1" width="1"/><rect fill="#bbbbccff" x="23" y="4" height="1" width="3"/><rect fill="#bbaaccff" x="26" y="4" height="1" width="4"/><rect fill="#aaaaccff" x="30" y="4" height="1" width="1"/><rect fill="#ccbbccff" x="31" y="4" height="1" width="2"/><rect fill="#bbaaccff" x="33" y="4" height="1" width="1"/><rect fill="#bbbbccff" x="34" y="4" height="1" width="1"/><rect fill="#ccbbccff" x="35" y="4" height="1" width="1"/><rect fill="#aaaaccff" x="0" y="5" height="1" width="6"/><rect fill="#bbaaccff" x="6" y="5" height="1" width="1"/><rect fill="#aaaaccff" x="7" y="5" height="1" width="1"/><rect fill="#bbbbccff" x="8" y="5" height="1" width="1"/><rect fill="#bbaaccff" x="9" y="5" height="1" width="1"/><rect fill="#bbbbccff" x="10" y="5" height="1" width="1"/><rect fill="#bbaaccff" x="11" y="5" height="1" width="1"/><rect fill="#aaaaccff" x="12" y="5" height="1" width="1"/><rect fill="#bbaaccff" x="13" y="5" height="1" width="1"/><rect fill="#aaaaccff" x="14" y="5" height="1" width="2"/><rect fill="#ccbbccff" x="16" y="5" height="1" width="2"/><rect fill="#bbbbccff" x="18" y="5" height="1" width="1"/><rect fill="#bbaaccff" x="19" y="5" height="1" width="1"/><rect fill="#aaaaccff" x="20" y="5" height="1" width="1"/><rect fill="#bbbbccff" x="21" y="5" height="1" width="1"/><rect fill="#ccbbccff" x="22" y="5" height="1" width="2"/><rect fill="#bbbbccff" x="24" y="5" height="1" width="2"/><rect fill="#bbaaccff" x="26" y="5" height="1" width="1"/><rect fill="#bbbbccff" x="27" y="5" height="1" width="1"/><rect fill="#ccbbccff" x="28" y="5" height="1" width="1"/><rect fill="#aaaaccff" x="29" y="5" height="1" width="1"/><rect fill="#bbaaccff" x="30" y="5" height="1" width="2"/><rect fill="#ccbbccff" x="32" y="5" height="1" width="1"/><rect fill="#bbaaccff" x="33" y="5" height="1" width="2"/><rect fill="#bbbbccff" x="35" y="5" height="1" width="1"/><rect fill="#aaaaccff" x="0" y="6" height="1" width="1"/><rect fill="#bbbbccff" x="1" y="6" height="1" width="1"/><rect fill="#ccbbccff" x="2" y="6" height="1" width="1"/><rect fill="#aaaaccff" x="3" y="6" height="1" width="2"/><rect fill="#ccbbccff" x="5" y="6" height="1" width="1"/><rect fill="#bbaaccff" x="6" y="6" height="1" width="4"/><rect fill="#bbe7ccff" x="10" y="6" height="1" width="1"/><rect fill="#bbaaccff" x="11" y="6" height="1" width="1"/><rect fill="#aaaaccff" x="12" y="6" height="1" width="1"/><rect fill="#bbaaccff" x="13" y="6" height="1" width="4"/><rect fill="#bbbbccff" x="17" y="6" height="1" width="1"/><rect fill="#bbaaccff" x="18" y="6" height="1" width="1"/><rect fill="#f3f298ff" x="19" y="6" height="1" width="1"/><rect fill="#bbaaccff" x="20" y="6" height="1" width="1"/><rect fill="#bbbbccff" x="21" y="6" height="1" width="1"/><rect fill="#ccbbccff" x="22" y="6" height="1" width="2"/><rect fill="#aaaaccff" x="24" y="6" height="1" width="1"/><rect fill="#bbaaccff" x="25" y="6" height="1" width="3"/><rect fill="#aaaaccff" x="28" y="6" height="1" width="2"/><rect fill="#bbbbccff" x="30" y="6" height="1" width="2"/><rect fill="#ccbbccff" x="32" y="6" height="1" width="1"/><rect fill="#aaaaccff" x="33" y="6" height="1" width="1"/><rect fill="#bbaaccff" x="34" y="6" height="1" width="2"/><rect fill="#bbbbccff" x="0" y="7" height="1" width="1"/><rect fill="#bbaaccff" x="1" y="7" height="1" width="1"/><rect fill="#ccbbccff" x="2" y="7" height="1" width="1"/><rect fill="#bbaaccff" x="3" y="7" height="1" width="3"/><rect fill="#aaaaccff" x="6" y="7" height="1" width="1"/><rect fill="#bbbbccff" x="7" y="7" height="1" width="1"/><rect fill="#bbaaccff" x="8" y="7" height="1" width="1"/><rect fill="#aaaaccff" x="9" y="7" height="1" width="1"/><rect fill="#bbbbccff" x="10" y="7" height="1" width="4"/><rect fill="#bbaaccff" x="14" y="7" height="1" width="1"/><rect fill="#ccbbccff" x="15" y="7" height="1" width="2"/><rect fill="#bbaaccff" x="17" y="7" height="1" width="1"/><rect fill="#f3f298ff" x="18" y="7" height="1" width="3"/><rect fill="#bbaaccff" x="21" y="7" height="1" width="1"/><rect fill="#bbbbccff" x="22" y="7" height="1" width="2"/><rect fill="#aaaaccff" x="24" y="7" height="1" width="4"/><rect fill="#bbaaccff" x="28" y="7" height="1" width="1"/><rect fill="#bbbbccff" x="29" y="7" height="1" width="1"/><rect fill="#bbaaccff" x="30" y="7" height="1" width="1"/><rect fill="#ccbbccff" x="31" y="7" height="1" width="1"/><rect fill="#bbaaccff" x="32" y="7" height="1" width="1"/><rect fill="#ccbbccff" x="33" y="7" height="1" width="1"/><rect fill="#aaaaccff" x="34" y="7" height="1" width="1"/><rect fill="#bbaaccff" x="35" y="7" height="1" width="1"/><rect fill="#bbbbccff" x="0" y="8" height="1" width="1"/><rect fill="#ccbbccff" x="1" y="8" height="1" width="1"/><rect fill="#bbbbccff" x="2" y="8" height="1" width="2"/><rect fill="#bbaaccff" x="4" y="8" height="1" width="2"/><rect fill="#aaaaccff" x="6" y="8" height="1" width="1"/><rect fill="#bbaaccff" x="7" y="8" height="1" width="1"/><rect fill="#bbbbccff" x="8" y="8" height="1" width="2"/><rect fill="#ccbbccff" x="10" y="8" height="1" width="2"/><rect fill="#bbbbccff" x="12" y="8" height="1" width="1"/><rect fill="#aaaaccff" x="13" y="8" height="1" width="1"/><rect fill="#bbaaccff" x="14" y="8" height="1" width="3"/><rect fill="#aaaaccff" x="17" y="8" height="1" width="2"/><rect fill="#f3f298ff" x="19" y="8" height="1" width="1"/><rect fill="#bbbbccff" x="20" y="8" height="1" width="1"/><rect fill="#bbaaccff" x="21" y="8" height="1" width="1"/><rect fill="#ccbbccff" x="22" y="8" height="1" width="1"/><rect fill="#aaaaccff" x="23" y="8" height="1" width="2"/><rect fill="#bbbbccff" x="25" y="8" height="1" width="2"/><rect fill="#aaaaccff" x="27" y="8" height="1" width="2"/><rect fill="#bbbbccff" x="29" y="8" height="1" width="1"/><rect fill="#bbaaccff" x="30" y="8" height="1" width="1"/><rect fill="#ccbbccff" x="31" y="8" height="1" width="3"/><rect fill="#bbaaccff" x="34" y="8" height="1" width="1"/><rect fill="#aaaaccff" x="35" y="8" height="1" width="1"/><rect fill="#bbaaccff" x="0" y="9" height="1" width="1"/><rect fill="#bbbbccff" x="1" y="9" height="1" width="2"/><rect fill="#aaaaccff" x="3" y="9" height="1" width="2"/><rect fill="#bbaaccff" x="5" y="9" height="1" width="1"/><rect fill="#aaaaccff" x="6" y="9" height="1" width="1"/><rect fill="#bbaaccff" x="7" y="9" height="1" width="1"/><rect fill="#aaaaccff" x="8" y="9" height="1" width="1"/><rect fill="#bbbbccff" x="9" y="9" height="1" width="2"/><rect fill="#aaaaccff" x="11" y="9" height="1" width="1"/><rect fill="#bbbbccff" x="12" y="9" height="1" width="1"/><rect fill="#bbaaccff" x="13" y="9" height="1" width="1"/><rect fill="#bbbbccff" x="14" y="9" height="1" width="1"/><rect fill="#aaaaccff" x="15" y="9" height="1" width="3"/><rect fill="#bbaaccff" x="18" y="9" height="1" width="1"/><rect fill="#ccbbccff" x="19" y="9" height="1" width="3"/><rect fill="#aaaaccff" x="22" y="9" height="1" width="2"/><rect fill="#bbbbccff" x="24" y="9" height="1" width="1"/><rect fill="#ccbbccff" x="25" y="9" height="1" width="2"/><rect fill="#f3f298ff" x="27" y="9" height="1" width="1"/><rect fill="#aaaaccff" x="28" y="9" height="1" width="2"/><rect fill="#bbbbccff" x="30" y="9" height="1" width="2"/><rect fill="#bbaaccff" x="32" y="9" height="1" width="2"/><rect fill="#aaaaccff" x="34" y="9" height="1" width="2"/><rect fill="#bbaaccff" x="0" y="10" height="1" width="4"/><rect fill="#aaaaccff" x="4" y="10" height="1" width="1"/><rect fill="#bbaaccff" x="5" y="10" height="1" width="2"/><rect fill="#f3f298ff" x="7" y="10" height="1" width="1"/><rect fill="#aaaaccff" x="8" y="10" height="1" width="1"/><rect fill="#bbaaccff" x="9" y="10" height="1" width="1"/><rect fill="#bbbbccff" x="10" y="10" height="1" width="1"/><rect fill="#aaaaccff" x="11" y="10" height="1" width="2"/><rect fill="#bbaaccff" x="13" y="10" height="1" width="1"/><rect fill="#aaaaccff" x="14" y="10" height="1" width="2"/><rect fill="#bbbbccff" x="16" y="10" height="1" width="2"/><rect fill="#aaaaccff" x="18" y="10" height="1" width="2"/><rect fill="#ccbbccff" x="20" y="10" height="1" width="1"/><rect fill="#bbbbccff" x="21" y="10" height="1" width="1"/><rect fill="#bbaaccff" x="22" y="10" height="1" width="1"/><rect fill="#aaaaccff" x="23" y="10" height="1" width="4"/><rect fill="#bbbbccff" x="27" y="10" height="1" width="1"/><rect fill="#bbaaccff" x="28" y="10" height="1" width="5"/><rect fill="#aaaaccff" x="33" y="10" height="1" width="2"/><rect fill="#bbbbccff" x="35" y="10" height="1" width="1"/><rect fill="#aaaaccff" x="0" y="11" height="1" width="2"/><rect fill="#bbbbccff" x="2" y="11" height="1" width="2"/><rect fill="#aaaaccff" x="4" y="11" height="1" width="1"/><rect fill="#bbaaccff" x="5" y="11" height="1" width="1"/><rect fill="#f3f298ff" x="6" y="11" height="1" width="3"/><rect fill="#ccbbccff" x="9" y="11" height="1" width="1"/><rect fill="#bbaaccff" x="10" y="11" height="1" width="2"/><rect fill="#ccbbccff" x="12" y="11" height="1" width="1"/><rect fill="#aaaaccff" x="13" y="11" height="1" width="1"/><rect fill="#bbaaccff" x="14" y="11" height="1" width="1"/><rect fill="#ccbbccff" x="15" y="11" height="1" width="3"/><rect fill="#aaaaccff" x="18" y="11" height="1" width="4"/><rect fill="#ccbbccff" x="22" y="11" height="1" width="2"/><rect fill="#bbbbccff" x="24" y="11" height="1" width="2"/><rect fill="#ccbbccff" x="26" y="11" height="1" width="1"/><rect fill="#bbaaccff" x="27" y="11" height="1" width="2"/><rect fill="#aaaaccff" x="29" y="11" height="1" width="1"/><rect fill="#bbe7ccff" x="30" y="11" height="1" width="1"/><rect fill="#bbaaccff" x="31" y="11" height="1" width="1"/><rect fill="#ccbbccff" x="32" y="11" height="1" width="1"/><rect fill="#bbbbccff" x="33" y="11" height="1" width="2"/><rect fill="#ccbbccff" x="35" y="11" height="1" width="1"/><rect fill="#aaaaccff" x="0" y="12" height="1" width="1"/><rect fill="#bbbbccff" x="1" y="12" height="1" width="1"/><rect fill="#ccbbccff" x="2" y="12" height="1" width="2"/><rect fill="#bbe7ccff" x="4" y="12" height="1" width="1"/><rect fill="#ccbbccff" x="5" y="12" height="1" width="1"/><rect fill="#aaaaccff" x="6" y="12" height="1" width="1"/><rect fill="#f3f298ff" x="7" y="12" height="1" width="1"/><rect fill="#bbbbccff" x="8" y="12" height="1" width="1"/><rect fill="#bbaaccff" x="9" y="12" height="1" width="1"/><rect fill="#ccbbccff" x="10" y="12" height="1" width="1"/><rect fill="#aaaaccff" x="11" y="12" height="1" width="2"/><rect fill="#bbbbccff" x="13" y="12" height="1" width="2"/><rect fill="#bbaaccff" x="15" y="12" height="1" width="1"/><rect fill="#ccbbccff" x="16" y="12" height="1" width="2"/><rect fill="#bbbbccff" x="18" y="12" height="1" width="1"/><rect fill="#bbaaccff" x="19" y="12" height="1" width="3"/><rect fill="#aaaaccff" x="22" y="12" height="1" width="1"/><rect fill="#bbaaccff" x="23" y="12" height="1" width="1"/><rect fill="#ccbbccff" x="24" y="12" height="1" width="1"/><rect fill="#bbaaccff" x="25" y="12" height="1" width="1"/><rect fill="#bbbbccff" x="26" y="12" height="1" width="1"/><rect fill="#aaaaccff" x="27" y="12" height="1" width="5"/><rect fill="#bbbbccff" x="32" y="12" height="1" width="2"/><rect fill="#bbaaccff" x="34" y="12" height="1" width="1"/><rect fill="#ccbbccff" x="35" y="12" height="1" width="1"/><rect fill="#bbaaccff" x="0" y="13" height="1" width="1"/><rect fill="#bbbbccff" x="1" y="13" height="1" width="1"/><rect fill="#ccbbccff" x="2" y="13" height="1" width="2"/><rect fill="#bbbbccff" x="4" y="13" height="1" width="1"/><rect fill="#bbaaccff" x="5" y="13" height="1" width="1"/><rect fill="#bbbbccff" x="6" y="13" height="1" width="1"/><rect fill="#aaaaccff" x="7" y="13" height="1" width="1"/><rect fill="#bbaaccff" x="8" y="13" height="1" width="1"/><rect fill="#bbbbccff" x="9" y="13" height="1" width="1"/><rect fill="#aaaaccff" x="10" y="13" height="1" width="2"/><rect fill="#bbbbccff" x="12" y="13" height="1" width="2"/><rect fill="#aaaaccff" x="14" y="13" height="1" width="2"/><rect fill="#bbbbccff" x="16" y="13" height="1" width="2"/><rect fill="#ccbbccff" x="18" y="13" height="1" width="1"/><rect fill="#bbaaccff" x="19" y="13" height="1" width="1"/><rect fill="#ccbbccff" x="20" y="13" height="1" width="1"/><rect fill="#bbaaccff" x="21" y="13" height="1" width="1"/><rect fill="#aaaaccff" x="22" y="13" height="1" width="1"/><rect fill="#bbaaccff" x="23" y="13" height="1" width="1"/><rect fill="#ccbbccff" x="24" y="13" height="1" width="2"/><rect fill="#bbbbccff" x="26" y="13" height="1" width="1"/><rect fill="#bbaaccff" x="27" y="13" height="1" width="1"/><rect fill="#aaaaccff" x="28" y="13" height="1" width="4"/><rect fill="#ccbbccff" x="32" y="13" height="1" width="1"/><rect fill="#bbbbccff" x="33" y="13" height="1" width="1"/><rect fill="#ccbbccff" x="34" y="13" height="1" width="1"/><rect fill="#aaaaccff" x="35" y="13" height="1" width="1"/><rect fill="#bbaaccff" x="0" y="14" height="1" width="2"/><rect fill="#bbbbccff" x="2" y="14" height="1" width="1"/><rect fill="#aaaaccff" x="3" y="14" height="1" width="1"/><rect fill="#ccbbccff" x="4" y="14" height="1" width="1"/><rect fill="#bbaaccff" x="5" y="14" height="1" width="1"/><rect fill="#bbbbccff" x="6" y="14" height="1" width="1"/><rect fill="#bbaaccff" x="7" y="14" height="1" width="2"/><rect fill="#aaaaccff" x="9" y="14" height="1" width="2"/><rect fill="#bbbbccff" x="11" y="14" height="1" width="1"/><rect fill="#ccbbccff" x="12" y="14" height="1" width="2"/><rect fill="#bbbbccff" x="14" y="14" height="1" width="1"/><rect fill="#aaaaccff" x="15" y="14" height="1" width="1"/><rect fill="#bbaaccff" x="16" y="14" height="1" width="2"/><rect fill="#ccbbccff" x="18" y="14" height="1" width="1"/><rect fill="#aaaaccff" x="19" y="14" height="1" width="3"/><rect fill="#bbaaccff" x="22" y="14" height="1" width="2"/><rect fill="#bbbbccff" x="24" y="14" height="1" width="2"/><rect fill="#bbaaccff" x="26" y="14" height="1" width="2"/><rect fill="#bbe7ccff" x="28" y="14" height="1" width="1"/><rect fill="#bbaaccff" x="29" y="14" height="1" width="1"/><rect fill="#aaaaccff" x="30" y="14" height="1" width="1"/><rect fill="#ccbbccff" x="31" y="14" height="1" width="2"/><rect fill="#aaaaccff" x="33" y="14" height="1" width="3"/><rect fill="#aaaaccff" x="0" y="15" height="1" width="1"/><rect fill="#bbbbccff" x="1" y="15" height="1" width="2"/><rect fill="#bbaaccff" x="3" y="15" height="1" width="1"/><rect fill="#ccbbccff" x="4" y="15" height="1" width="1"/><rect fill="#bbbbccff" x="5" y="15" height="1" width="1"/><rect fill="#bbaaccff" x="6" y="15" height="1" width="2"/><rect fill="#ccbbccff" x="8" y="15" height="1" width="1"/><rect fill="#aaaaccff" x="9" y="15" height="1" width="1"/><rect fill="#bbaaccff" x="10" y="15" height="1" width="1"/><rect fill="#bbbbccff" x="11" y="15" height="1" width="2"/><rect fill="#ccbbccff" x="13" y="15" height="1" width="1"/><rect fill="#bbbbccff" x="14" y="15" height="1" width="1"/><rect fill="#bbaaccff" x="15" y="15" height="1" width="1"/><rect fill="#aaaaccff" x="16" y="15" height="1" width="2"/><rect fill="#bbaaccff" x="18" y="15" height="1" width="1"/><rect fill="#aaaaccff" x="19" y="15" height="1" width="1"/><rect fill="#bbbbccff" x="20" y="15" height="1" width="2"/><rect fill="#aaaaccff" x="22" y="15" height="1" width="2"/><rect fill="#bbaaccff" x="24" y="15" height="1" width="1"/><rect fill="#aaaaccff" x="25" y="15" height="1" width="3"/><rect fill="#bbbbccff" x="28" y="15" height="1" width="1"/><rect fill="#bbaaccff" x="29" y="15" height="1" width="1"/><rect fill="#aaaaccff" x="30" y="15" height="1" width="1"/><rect fill="#bbbbccff" x="31" y="15" height="1" width="3"/><rect fill="#aaaaccff" x="34" y="15" height="1" width="1"/><rect fill="#bbbbccff" x="35" y="15" height="1" width="1"/><rect fill="#bbbbccff" x="0" y="16" height="1" width="1"/><rect fill="#aaaaccff" x="1" y="16" height="1" width="2"/><rect fill="#bbaaccff" x="3" y="16" height="1" width="1"/><rect fill="#ccbbccff" x="4" y="16" height="1" width="1"/><rect fill="#bbaaccff" x="5" y="16" height="1" width="1"/><rect fill="#aaaaccff" x="6" y="16" height="1" width="1"/><rect fill="#bbe7ccff" x="7" y="16" height="1" width="1"/><rect fill="#aaaaccff" x="8" y="16" height="1" width="2"/><rect fill="#bbaaccff" x="10" y="16" height="1" width="2"/><rect fill="#bbbbccff" x="12" y="16" height="1" width="2"/><rect fill="#bbaaccff" x="14" y="16" height="1" width="2"/><rect fill="#aaaaccff" x="16" y="16" height="1" width="1"/><rect fill="#bbaaccff" x="17" y="16" height="1" width="1"/><rect fill="#aaaaccff" x="18" y="16" height="1" width="1"/><rect fill="#ccbbccff" x="19" y="16" height="1" width="1"/><rect fill="#bbaaccff" x="20" y="16" height="1" width="1"/><rect fill="#ccbbccff" x="21" y="16" height="1" width="1"/><rect fill="#bbbbccff" x="22" y="16" height="1" width="1"/><rect fill="#aaaaccff" x="23" y="16" height="1" width="2"/><rect fill="#bbaaccff" x="25" y="16" height="1" width="1"/><rect fill="#aaaaccff" x="26" y="16" height="1" width="1"/><rect fill="#bbbbccff" x="27" y="16" height="1" width="2"/><rect fill="#aaaaccff" x="29" y="16" height="1" width="2"/><rect fill="#bbe7ccff" x="31" y="16" height="1" width="1"/><rect fill="#bbaaccff" x="32" y="16" height="1" width="3"/><rect fill="#bbbbccff" x="35" y="16" height="1" width="1"/><rect fill="#ccbbccff" x="0" y="17" height="1" width="1"/><rect fill="#bbbbccff" x="1" y="17" height="1" width="1"/><rect fill="#aaaaccff" x="2" y="17" height="1" width="1"/><rect fill="#ccbbccff" x="3" y="17" height="1" width="1"/><rect fill="#aaaaccff" x="4" y="17" height="1" width="3"/><rect fill="#bbaaccff" x="7" y="17" height="1" width="1"/><rect fill="#bbbbccff" x="8" y="17" height="1" width="1"/><rect fill="#aaaaccff" x="9" y="17" height="1" width="2"/><rect fill="#bbaaccff" x="11" y="17" height="1" width="4"/><rect fill="#aaaaccff" x="15" y="17" height="1" width="4"/><rect fill="#ccbbccff" x="19" y="17" height="1" width="1"/><rect fill="#aaaaccff" x="20" y="17" height="1" width="1"/><rect fill="#ccbbccff" x="21" y="17" height="1" width="1"/><rect fill="#bbbbccff" x="22" y="17" height="1" width="1"/><rect fill="#bbaaccff" x="23" y="17" height="1" width="1"/><rect fill="#aaaaccff" x="24" y="17" height="1" width="2"/><rect fill="#bbbbccff" x="26" y="17" height="1" width="1"/><rect fill="#ccbbccff" x="27" y="17" height="1" width="1"/><rect fill="#aaaaccff" x="28" y="17" height="1" width="1"/><rect fill="#bbbbccff" x="29" y="17" height="1" width="1"/><rect fill="#aaaaccff" x="30" y="17" height="1" width="4"/><rect fill="#bbaaccff" x="34" y="17" height="1" width="2"/><rect fill="#ccbbccff" x="0" y="18" height="1" width="1"/><rect fill="#bbbbccff" x="1" y="18" height="1" width="2"/><rect fill="#f3f298ff" x="3" y="18" height="1" width="1"/><rect fill="#bbaaccff" x="4" y="18" height="1" width="1"/><rect fill="#aaaaccff" x="5" y="18" height="1" width="1"/><rect fill="#bbbbccff" x="6" y="18" height="1" width="4"/><rect fill="#aaaaccff" x="10" y="18" height="1" width="1"/><rect fill="#bbaaccff" x="11" y="18" height="1" width="1"/><rect fill="#ccbbccff" x="12" y="18" height="1" width="1"/><rect fill="#bbaaccff" x="13" y="18" height="1" width="2"/><rect fill="#aaaaccff" x="15" y="18" height="1" width="1"/><rect fill="#bbbbccff" x="16" y="18" height="1" width="1"/><rect fill="#ccbbccff" x="17" y="18" height="1" width="1"/><rect fill="#aaaaccff" x="18" y="18" height="1" width="3"/><rect fill="#bbbbccff" x="21" y="18" height="1" width="1"/><rect fill="#bbaaccff" x="22" y="18" height="1" width="3"/><rect fill="#ccbbccff" x="25" y="18" height="1" width="1"/><rect fill="#bbbbccff" x="26" y="18" height="1" width="1"/><rect fill="#ccbbccff" x="27" y="18" height="1" width="3"/><rect fill="#aaaaccff" x="30" y="18" height="1" width="1"/><rect fill="#bbbbccff" x="31" y="18" height="1" width="1"/><rect fill="#ccbbccff" x="32" y="18" height="1" width="1"/><rect fill="#aaaaccff" x="33" y="18" height="1" width="2"/><rect fill="#bbaaccff" x="35" y="18" height="1" width="1"/><rect fill="#bbbbccff" x="0" y="19" height="1" width="1"/><rect fill="#bbaaccff" x="1" y="19" height="1" width="5"/><rect fill="#aaaaccff" x="6" y="19" height="1" width="1"/><rect fill="#ccbbccff" x="7" y="19" height="1" width="1"/><rect fill="#bbbbccff" x="8" y="19" height="1" width="2"/><rect fill="#bbaaccff" x="10" y="19" height="1" width="1"/><rect fill="#aaaaccff" x="11" y="19" height="1" width="1"/><rect fill="#ccbbccff" x="12" y="19" height="1" width="1"/><rect fill="#bbaaccff" x="13" y="19" height="1" width="1"/><rect fill="#aaaaccff" x="14" y="19" height="1" width="1"/><rect fill="#bbbbccff" x="15" y="19" height="1" width="1"/><rect fill="#bbaaccff" x="16" y="19" height="1" width="1"/><rect fill="#aaaaccff" x="17" y="19" height="1" width="1"/><rect fill="#bbbbccff" x="18" y="19" height="1" width="1"/><rect fill="#aaaaccff" x="19" y="19" height="1" width="1"/><rect fill="#ccbbccff" x="20" y="19" height="1" width="1"/><rect fill="#bbaaccff" x="21" y="19" height="1" width="2"/><rect fill="#aaaaccff" x="23" y="19" height="1" width="2"/><rect fill="#bbaaccff" x="25" y="19" height="1" width="2"/><rect fill="#bbbbccff" x="27" y="19" height="1" width="2"/><rect fill="#aaaaccff" x="29" y="19" height="1" width="1"/><rect fill="#bbbbccff" x="30" y="19" height="1" width="2"/><rect fill="#f3f298ff" x="32" y="19" height="1" width="1"/><rect fill="#bbbbccff" x="33" y="19" height="1" width="1"/><rect fill="#aaaaccff" x="34" y="19" height="1" width="1"/><rect fill="#ccbbccff" x="35" y="19" height="1" width="1"/><rect fill="#bbaaccff" x="0" y="20" height="1" width="2"/><rect fill="#aaaaccff" x="2" y="20" height="1" width="1"/><rect fill="#bbaaccff" x="3" y="20" height="1" width="3"/><rect fill="#aaaaccff" x="6" y="20" height="1" width="1"/><rect fill="#bbbbccff" x="7" y="20" height="1" width="2"/><rect fill="#bbaaccff" x="9" y="20" height="1" width="2"/><rect fill="#aaaaccff" x="11" y="20" height="1" width="3"/><rect fill="#bbaaccff" x="14" y="20" height="1" width="1"/><rect fill="#bbbbccff" x="15" y="20" height="1" width="1"/><rect fill="#aaaaccff" x="16" y="20" height="1" width="7"/><rect fill="#bbbbccff" x="23" y="20" height="1" width="1"/><rect fill="#aaaaccff" x="24" y="20" height="1" width="1"/><rect fill="#bbaaccff" x="25" y="20" height="1" width="5"/><rect fill="#bbbbccff" x="30" y="20" height="1" width="1"/><rect fill="#bbaaccff" x="31" y="20" height="1" width="1"/><rect fill="#ccbbccff" x="32" y="20" height="1" width="1"/><rect fill="#bbbbccff" x="33" y="20" height="1" width="1"/><rect fill="#bbaaccff" x="34" y="20" height="1" width="1"/><rect fill="#bbbbccff" x="35" y="20" height="1" width="1"/><rect fill="#bbbbccff" x="0" y="21" height="1" width="2"/><rect fill="#aaaaccff" x="2" y="21" height="1" width="2"/><rect fill="#bbaaccff" x="4" y="21" height="1" width="1"/><rect fill="#ccbbccff" x="5" y="21" height="1" width="1"/><rect fill="#bbbbccff" x="6" y="21" height="1" width="1"/><rect fill="#bbaaccff" x="7" y="21" height="1" width="3"/><rect fill="#aaaaccff" x="10" y="21" height="1" width="1"/><rect fill="#bbbbccff" x="11" y="21" height="1" width="3"/><rect fill="#bbaaccff" x="14" y="21" height="1" width="2"/><rect fill="#aaaaccff" x="16" y="21" height="1" width="1"/><rect fill="#bbaaccff" x="17" y="21" height="1" width="3"/><rect fill="#ccbbccff" x="20" y="21" height="1" width="1"/><rect fill="#aaaaccff" x="21" y="21" height="1" width="3"/><rect fill="#bbbbccff" x="24" y="21" height="1" width="1"/><rect fill="#aaaaccff" x="25" y="21" height="1" width="1"/><rect fill="#bbaaccff" x="26" y="21" height="1" width="2"/><rect fill="#aaaaccff" x="28" y="21" height="1" width="1"/><rect fill="#bbaaccff" x="29" y="21" height="1" width="2"/><rect fill="#ccbbccff" x="31" y="21" height="1" width="1"/><rect fill="#bbbbccff" x="32" y="21" height="1" width="1"/><rect fill="#bbaaccff" x="33" y="21" height="1" width="3"/><rect fill="#ccbbccff" x="0" y="22" height="1" width="2"/><rect fill="#bbbbccff" x="2" y="22" height="1" width="1"/><rect fill="#aaaaccff" x="3" y="22" height="1" width="1"/><rect fill="#ccbbccff" x="4" y="22" height="1" width="2"/><rect fill="#bbaaccff" x="6" y="22" height="1" width="1"/><rect fill="#ccbbccff" x="7" y="22" height="1" width="1"/><rect fill="#bbbbccff" x="8" y="22" height="1" width="1"/><rect fill="#ccbbccff" x="9" y="22" height="1" width="1"/><rect fill="#aaaaccff" x="10" y="22" height="1" width="1"/><rect fill="#bbbbccff" x="11" y="22" height="1" width="1"/><rect fill="#bbaaccff" x="12" y="22" height="1" width="1"/><rect fill="#ccbbccff" x="13" y="22" height="1" width="1"/><rect fill="#aaaaccff" x="14" y="22" height="1" width="1"/><rect fill="#bbaaccff" x="15" y="22" height="1" width="1"/><rect fill="#aaaaccff" x="16" y="22" height="1" width="1"/><rect fill="#bbaaccff" x="17" y="22" height="1" width="2"/><rect fill="#aaaaccff" x="19" y="22" height="1" width="3"/><rect fill="#bbbbccff" x="22" y="22" height="1" width="1"/><rect fill="#aaaaccff" x="23" y="22" height="1" width="2"/><rect fill="#bbaaccff" x="25" y="22" height="1" width="1"/><rect fill="#aaaaccff" x="26" y="22" height="1" width="4"/><rect fill="#bbaaccff" x="30" y="22" height="1" width="4"/><rect fill="#aaaaccff" x="34" y="22" height="1" width="2"/><rect fill="#ccbbccff" x="0" y="23" height="1" width="2"/><rect fill="#bbbbccff" x="2" y="23" height="1" width="1"/><rect fill="#bbaaccff" x="3" y="23" height="1" width="1"/><rect fill="#ccbbccff" x="4" y="23" height="1" width="3"/><rect fill="#bbaaccff" x="7" y="23" height="1" width="1"/><rect fill="#ccbbccff" x="8" y="23" height="1" width="2"/><rect fill="#bbaaccff" x="10" y="23" height="1" width="1"/><rect fill="#ccbbccff" x="11" y="23" height="1" width="3"/><rect fill="#bbaaccff" x="14" y="23" height="1" width="1"/><rect fill="#aaaaccff" x="15" y="23" height="1" width="2"/><rect fill="#ccbbccff" x="17" y="23" height="1" width="1"/><rect fill="#bbbbccff" x="18" y="23" height="1" width="1"/><rect fill="#bbaaccff" x="19" y="23" height="1" width="1"/><rect fill="#bbbbccff" x="20" y="23" height="1" width="1"/><rect fill="#ccbbccff" x="21" y="23" height="1" width="2"/><rect fill="#bbbbccff" x="23" y="23" height="1" width="1"/><rect fill="#aaaaccff" x="24" y="23" height="1" width="1"/><rect fill="#bbaaccff" x="25" y="23" height="1" width="1"/><rect fill="#aaaaccff" x="26" y="23" height="1" width="1"/><rect fill="#bbaaccff" x="27" y="23" height="1" width="1"/><rect fill="#bbbbccff" x="28" y="23" height="1" width="2"/><rect fill="#aaaaccff" x="30" y="23" height="1" width="1"/><rect fill="#ccbbccff" x="31" y="23" height="1" width="3"/><rect fill="#bbbbccff" x="34" y="23" height="1" width="1"/><rect fill="#aaaaccff" x="35" y="23" height="1" width="1"/><rect fill="#bbbbccff" x="0" y="24" height="1" width="2"/><rect fill="#bbaaccff" x="2" y="24" height="1" width="2"/><rect fill="#aaaaccff" x="4" y="24" height="1" width="1"/><rect fill="#bbaaccff" x="5" y="24" height="1" width="3"/><rect fill="#ccbbccff" x="8" y="24" height="1" width="2"/><rect fill="#aaaaccff" x="10" y="24" height="1" width="1"/><rect fill="#bbbbccff" x="11" y="24" height="1" width="1"/><rect fill="#bbaaccff" x="12" y="24" height="1" width="1"/><rect fill="#aaaaccff" x="13" y="24" height="1" width="1"/><rect fill="#bbaaccff" x="14" y="24" height="1" width="1"/><rect fill="#bbbbccff" x="15" y="24" height="1" width="1"/><rect fill="#aaaaccff" x="16" y="24" height="1" width="1"/><rect fill="#bbbbccff" x="17" y="24" height="1" width="1"/><rect fill="#bbaaccff" x="18" y="24" height="1" width="2"/><rect fill="#bbbbccff" x="20" y="24" height="1" width="1"/><rect fill="#ccbbccff" x="21" y="24" height="1" width="1"/><rect fill="#bbaaccff" x="22" y="24" height="1" width="1"/><rect fill="#bbbbccff" x="23" y="24" height="1" width="1"/><rect fill="#bbaaccff" x="24" y="24" height="1" width="1"/><rect fill="#aaaaccff" x="25" y="24" height="1" width="1"/><rect fill="#bbaaccff" x="26" y="24" height="1" width="2"/><rect fill="#ccbbccff" x="28" y="24" height="1" width="2"/><rect fill="#bbaaccff" x="30" y="24" height="1" width="1"/><rect fill="#bbbbccff" x="31" y="24" height="1" width="1"/><rect fill="#bbaaccff" x="32" y="24" height="1" width="1"/><rect fill="#ccbbccff" x="33" y="24" height="1" width="1"/><rect fill="#bbbbccff" x="34" y="24" height="1" width="1"/><rect fill="#bbaaccff" x="35" y="24" height="1" width="1"/><rect fill="#bbaaccff" x="0" y="25" height="1" width="3"/><rect fill="#aaaaccff" x="3" y="25" height="1" width="2"/><rect fill="#bbaaccff" x="5" y="25" height="1" width="2"/><rect fill="#ccbbccff" x="7" y="25" height="1" width="1"/><rect fill="#bbaaccff" x="8" y="25" height="1" width="1"/><rect fill="#aaaaccff" x="9" y="25" height="1" width="1"/><rect fill="#bbaaccff" x="10" y="25" height="1" width="1"/><rect fill="#ccbbccff" x="11" y="25" height="1" width="1"/><rect fill="#bbaaccff" x="12" y="25" height="1" width="2"/><rect fill="#aaaaccff" x="14" y="25" height="1" width="1"/><rect fill="#bbbbccff" x="15" y="25" height="1" width="1"/><rect fill="#bbaaccff" x="16" y="25" height="1" width="3"/><rect fill="#aaaaccff" x="19" y="25" height="1" width="4"/><rect fill="#bbaaccff" x="23" y="25" height="1" width="2"/><rect fill="#bbbbccff" x="25" y="25" height="1" width="1"/><rect fill="#bbaaccff" x="26" y="25" height="1" width="1"/><rect fill="#aaaaccff" x="27" y="25" height="1" width="4"/><rect fill="#ccbbccff" x="31" y="25" height="1" width="1"/><rect fill="#aaaaccff" x="32" y="25" height="1" width="2"/><rect fill="#bbaaccff" x="34" y="25" height="1" width="2"/><rect fill="#bbbbccff" x="0" y="26" height="1" width="1"/><rect fill="#ccbbccff" x="1" y="26" height="1" width="2"/><rect fill="#bbaaccff" x="3" y="26" height="1" width="1"/><rect fill="#aaaaccff" x="4" y="26" height="1" width="1"/><rect fill="#bbbbccff" x="5" y="26" height="1" width="1"/><rect fill="#aaaaccff" x="6" y="26" height="1" width="1"/><rect fill="#ccbbccff" x="7" y="26" height="1" width="1"/><rect fill="#bbaaccff" x="8" y="26" height="1" width="1"/><rect fill="#aaaaccff" x="9" y="26" height="1" width="1"/><rect fill="#bbaaccff" x="10" y="26" height="1" width="1"/><rect fill="#bbbbccff" x="11" y="26" height="1" width="1"/><rect fill="#ccbbccff" x="12" y="26" height="1" width="1"/><rect fill="#bbbbccff" x="13" y="26" height="1" width="1"/><rect fill="#aaaaccff" x="14" y="26" height="1" width="1"/><rect fill="#ccbbccff" x="15" y="26" height="1" width="1"/><rect fill="#bbaaccff" x="16" y="26" height="1" width="1"/><rect fill="#aaaaccff" x="17" y="26" height="1" width="1"/><rect fill="#bbaaccff" x="18" y="26" height="1" width="1"/><rect fill="#aaaaccff" x="19" y="26" height="1" width="2"/><rect fill="#bbbbccff" x="21" y="26" height="1" width="1"/><rect fill="#aaaaccff" x="22" y="26" height="1" width="2"/><rect fill="#bbaaccff" x="24" y="26" height="1" width="1"/><rect fill="#aaaaccff" x="25" y="26" height="1" width="2"/><rect fill="#bbbbccff" x="27" y="26" height="1" width="2"/><rect fill="#aaaaccff" x="29" y="26" height="1" width="3"/><rect fill="#bbbbccff" x="32" y="26" height="1" width="2"/><rect fill="#aaaaccff" x="34" y="26" height="1" width="2"/><rect fill="#bbbbccff" x="0" y="27" height="1" width="1"/><rect fill="#ccbbccff" x="1" y="27" height="1" width="2"/><rect fill="#aaaaccff" x="3" y="27" height="1" width="2"/><rect fill="#bbbbccff" x="5" y="27" height="1" width="2"/><rect fill="#aaaaccff" x="7" y="27" height="1" width="1"/><rect fill="#ccbbccff" x="8" y="27" height="1" width="1"/><rect fill="#bbaaccff" x="9" y="27" height="1" width="1"/><rect fill="#bbbbccff" x="10" y="27" height="1" width="1"/><rect fill="#bbaaccff" x="11" y="27" height="1" width="1"/><rect fill="#ccbbccff" x="12" y="27" height="1" width="1"/><rect fill="#bbbbccff" x="13" y="27" height="1" width="1"/><rect fill="#bbaaccff" x="14" y="27" height="1" width="1"/><rect fill="#aaaaccff" x="15" y="27" height="1" width="5"/><rect fill="#ccbbccff" x="20" y="27" height="1" width="2"/><rect fill="#bbbbccff" x="22" y="27" height="1" width="1"/><rect fill="#aaaaccff" x="23" y="27" height="1" width="1"/><rect fill="#bbaaccff" x="24" y="27" height="1" width="1"/><rect fill="#aaaaccff" x="25" y="27" height="1" width="1"/><rect fill="#bbbbccff" x="26" y="27" height="1" width="1"/><rect fill="#ccbbccff" x="27" y="27" height="1" width="2"/><rect fill="#aaaaccff" x="29" y="27" height="1" width="1"/><rect fill="#bbaaccff" x="30" y="27" height="1" width="1"/><rect fill="#aaaaccff" x="31" y="27" height="1" width="2"/><rect fill="#bbbbccff" x="33" y="27" height="1" width="1"/><rect fill="#aaaaccff" x="34" y="27" height="1" width="2"/><rect fill="#bbaaccff" x="0" y="28" height="1" width="1"/><rect fill="#aaaaccff" x="1" y="28" height="1" width="2"/><rect fill="#bbaaccff" x="3" y="28" height="1" width="1"/><rect fill="#aaaaccff" x="4" y="28" height="1" width="1"/><rect fill="#ccbbccff" x="5" y="28" height="1" width="2"/><rect fill="#bbbbccff" x="7" y="28" height="1" width="1"/><rect fill="#aaaaccff" x="8" y="28" height="1" width="1"/><rect fill="#bbaaccff" x="9" y="28" height="1" width="2"/><rect fill="#bbbbccff" x="11" y="28" height="1" width="2"/><rect fill="#bbaaccff" x="13" y="28" height="1" width="2"/><rect fill="#aaaaccff" x="15" y="28" height="1" width="2"/><rect fill="#ccbbccff" x="17" y="28" height="1" width="1"/><rect fill="#bbbbccff" x="18" y="28" height="1" width="1"/><rect fill="#aaaaccff" x="19" y="28" height="1" width="5"/><rect fill="#bbaaccff" x="24" y="28" height="1" width="2"/><rect fill="#bbbbccff" x="26" y="28" height="1" width="1"/><rect fill="#ccbbccff" x="27" y="28" height="1" width="2"/><rect fill="#bbaaccff" x="29" y="28" height="1" width="1"/><rect fill="#bbbbccff" x="30" y="28" height="1" width="1"/><rect fill="#ccbbccff" x="31" y="28" height="1" width="2"/><rect fill="#bbbbccff" x="33" y="28" height="1" width="3"/><rect fill="#aaaaccff" x="0" y="29" height="1" width="3"/><rect fill="#ccbbccff" x="3" y="29" height="1" width="1"/><rect fill="#aaaaccff" x="4" y="29" height="1" width="1"/><rect fill="#bbaaccff" x="5" y="29" height="1" width="1"/><rect fill="#ccbbccff" x="6" y="29" height="1" width="1"/><rect fill="#bbbbccff" x="7" y="29" height="1" width="1"/><rect fill="#ccbbccff" x="8" y="29" height="1" width="1"/><rect fill="#bbaaccff" x="9" y="29" height="1" width="3"/><rect fill="#ccbbccff" x="12" y="29" height="1" width="1"/><rect fill="#bbbbccff" x="13" y="29" height="1" width="2"/><rect fill="#bbaaccff" x="15" y="29" height="1" width="2"/><rect fill="#ccbbccff" x="17" y="29" height="1" width="1"/><rect fill="#bbaaccff" x="18" y="29" height="1" width="1"/><rect fill="#bbbbccff" x="19" y="29" height="1" width="1"/><rect fill="#aaaaccff" x="20" y="29" height="1" width="1"/><rect fill="#bbbbccff" x="21" y="29" height="1" width="2"/><rect fill="#bbaaccff" x="23" y="29" height="1" width="2"/><rect fill="#aaaaccff" x="25" y="29" height="1" width="2"/><rect fill="#bbaaccff" x="27" y="29" height="1" width="1"/><rect fill="#aaaaccff" x="28" y="29" height="1" width="2"/><rect fill="#bbaaccff" x="30" y="29" height="1" width="1"/><rect fill="#bbbbccff" x="31" y="29" height="1" width="2"/><rect fill="#aaaaccff" x="33" y="29" height="1" width="1"/><rect fill="#bbbbccff" x="34" y="29" height="1" width="1"/><rect fill="#aaaaccff" x="35" y="29" height="1" width="1"/><rect fill="#aaaaccff" x="0" y="30" height="1" width="1"/><rect fill="#bbbbccff" x="1" y="30" height="1" width="1"/><rect fill="#ccbbccff" x="2" y="30" height="1" width="2"/><rect fill="#bbbbccff" x="4" y="30" height="1" width="1"/><rect fill="#aaaaccff" x="5" y="30" height="1" width="1"/><rect fill="#bbbbccff" x="6" y="30" height="1" width="1"/><rect fill="#bbaaccff" x="7" y="30" height="1" width="2"/><rect fill="#aaaaccff" x="9" y="30" height="1" width="1"/><rect fill="#bbaaccff" x="10" y="30" height="1" width="1"/><rect fill="#aaaaccff" x="11" y="30" height="1" width="2"/><rect fill="#bbbbccff" x="13" y="30" height="1" width="1"/><rect fill="#bbaaccff" x="14" y="30" height="1" width="3"/><rect fill="#ccbbccff" x="17" y="30" height="1" width="1"/><rect fill="#bbaaccff" x="18" y="30" height="1" width="1"/><rect fill="#bbbbccff" x="19" y="30" height="1" width="1"/><rect fill="#bbaaccff" x="20" y="30" height="1" width="2"/><rect fill="#ccbbccff" x="22" y="30" height="1" width="1"/><rect fill="#bbbbccff" x="23" y="30" height="1" width="1"/><rect fill="#aaaaccff" x="24" y="30" height="1" width="3"/><rect fill="#bbbbccff" x="27" y="30" height="1" width="2"/><rect fill="#aaaaccff" x="29" y="30" height="1" width="2"/><rect fill="#bbaaccff" x="31" y="30" height="1" width="2"/><rect fill="#ccbbccff" x="33" y="30" height="1" width="1"/><rect fill="#bbbbccff" x="34" y="30" height="1" width="2"/><rect fill="#bbaaccff" x="0" y="31" height="1" width="1"/><rect fill="#bbbbccff" x="1" y="31" height="1" width="1"/><rect fill="#bbaaccff" x="2" y="31" height="1" width="1"/><rect fill="#ccbbccff" x="3" y="31" height="1" width="1"/><rect fill="#bbbbccff" x="4" y="31" height="1" width="2"/><rect fill="#aaaaccff" x="6" y="31" height="1" width="1"/><rect fill="#ccbbccff" x="7" y="31" height="1" width="1"/><rect fill="#aaaaccff" x="8" y="31" height="1" width="7"/><rect fill="#bbaaccff" x="15" y="31" height="1" width="1"/><rect fill="#aaaaccff" x="16" y="31" height="1" width="1"/><rect fill="#bbbbccff" x="17" y="31" height="1" width="2"/><rect fill="#bbaaccff" x="19" y="31" height="1" width="2"/><rect fill="#ccbbccff" x="21" y="31" height="1" width="2"/><rect fill="#bbbbccff" x="23" y="31" height="1" width="1"/><rect fill="#bbaaccff" x="24" y="31" height="1" width="1"/><rect fill="#aaaaccff" x="25" y="31" height="1" width="1"/><rect fill="#bbbbccff" x="26" y="31" height="1" width="1"/><rect fill="#ccbbccff" x="27" y="31" height="1" width="2"/><rect fill="#bbbbccff" x="29" y="31" height="1" width="1"/><rect fill="#aaaaccff" x="30" y="31" height="1" width="1"/><rect fill="#bbbbccff" x="31" y="31" height="1" width="1"/><rect fill="#bbaaccff" x="32" y="31" height="1" width="2"/><rect fill="#ccbbccff" x="34" y="31" height="1" width="2"/><rect fill="#bbaaccff" x="0" y="32" height="1" width="2"/><rect fill="#bbbbccff" x="2" y="32" height="1" width="2"/><rect fill="#bbaaccff" x="4" y="32" height="1" width="3"/><rect fill="#ccbbccff" x="7" y="32" height="1" width="1"/><rect fill="#bbaaccff" x="8" y="32" height="1" width="2"/><rect fill="#bbbbccff" x="10" y="32" height="1" width="1"/><rect fill="#aaaaccff" x="11" y="32" height="1" width="1"/><rect fill="#bbbbccff" x="12" y="32" height="1" width="2"/><rect fill="#bbaaccff" x="14" y="32" height="1" width="6"/><rect fill="#aaaaccff" x="20" y="32" height="1" width="4"/><rect fill="#bbaaccff" x="24" y="32" height="1" width="2"/><rect fill="#bbbbccff" x="26" y="32" height="1" width="1"/><rect fill="#ccbbccff" x="27" y="32" height="1" width="2"/><rect fill="#bbbbccff" x="29" y="32" height="1" width="1"/><rect fill="#bbaaccff" x="30" y="32" height="1" width="1"/><rect fill="#aaaaccff" x="31" y="32" height="1" width="2"/><rect fill="#bbaaccff" x="33" y="32" height="1" width="1"/><rect fill="#ccbbccff" x="34" y="32" height="1" width="2"/><rect fill="#aaaaccff" x="0" y="33" height="1" width="1"/><rect fill="#bbaaccff" x="1" y="33" height="1" width="2"/><rect fill="#ccbbccff" x="3" y="33" height="1" width="2"/><rect fill="#aaaaccff" x="5" y="33" height="1" width="4"/><rect fill="#bbaaccff" x="9" y="33" height="1" width="1"/><rect fill="#aaaaccff" x="10" y="33" height="1" width="1"/><rect fill="#bbbbccff" x="11" y="33" height="1" width="1"/><rect fill="#ccbbccff" x="12" y="33" height="1" width="1"/><rect fill="#bbaaccff" x="13" y="33" height="1" width="1"/><rect fill="#bbbbccff" x="14" y="33" height="1" width="1"/><rect fill="#aaaaccff" x="15" y="33" height="1" width="1"/><rect fill="#bbbbccff" x="16" y="33" height="1" width="2"/><rect fill="#aaaaccff" x="18" y="33" height="1" width="3"/><rect fill="#bbbbccff" x="21" y="33" height="1" width="2"/><rect fill="#aaaaccff" x="23" y="33" height="1" width="5"/><rect fill="#bbbbccff" x="28" y="33" height="1" width="1"/><rect fill="#bbaaccff" x="29" y="33" height="1" width="2"/><rect fill="#aaaaccff" x="31" y="33" height="1" width="1"/><rect fill="#bbaaccff" x="32" y="33" height="1" width="2"/><rect fill="#bbbbccff" x="34" y="33" height="1" width="2"/><rect fill="#bbaaccff" x="0" y="34" height="1" width="1"/><rect fill="#ccbbccff" x="1" y="34" height="1" width="1"/><rect fill="#bbaaccff" x="2" y="34" height="1" width="2"/><rect fill="#aaaaccff" x="4" y="34" height="1" width="2"/><rect fill="#bbbbccff" x="6" y="34" height="1" width="2"/><rect fill="#ccbbccff" x="8" y="34" height="1" width="1"/><rect fill="#aaaaccff" x="9" y="34" height="1" width="1"/><rect fill="#bbaaccff" x="10" y="34" height="1" width="1"/><rect fill="#bbbbccff" x="11" y="34" height="1" width="1"/><rect fill="#ccbbccff" x="12" y="34" height="1" width="2"/><rect fill="#bbbbccff" x="14" y="34" height="1" width="1"/><rect fill="#bbaaccff" x="15" y="34" height="1" width="1"/><rect fill="#ccbbccff" x="16" y="34" height="1" width="2"/><rect fill="#bbbbccff" x="18" y="34" height="1" width="1"/><rect fill="#aaaaccff" x="19" y="34" height="1" width="2"/><rect fill="#ccbbccff" x="21" y="34" height="1" width="2"/><rect fill="#bbbbccff" x="23" y="34" height="1" width="1"/><rect fill="#aaaaccff" x="24" y="34" height="1" width="1"/><rect fill="#bbbbccff" x="25" y="34" height="1" width="2"/><rect fill="#aaaaccff" x="27" y="34" height="1" width="2"/><rect fill="#bbaaccff" x="29" y="34" height="1" width="1"/><rect fill="#aaaaccff" x="30" y="34" height="1" width="4"/><rect fill="#bbaaccff" x="34" y="34" height="1" width="2"/><rect fill="#aaaaccff" x="0" y="35" height="1" width="1"/><rect fill="#bbaaccff" x="1" y="35" height="1" width="3"/><rect fill="#aaaaccff" x="4" y="35" height="1" width="1"/><rect fill="#bbbbccff" x="5" y="35" height="1" width="1"/><rect fill="#ccbbccff" x="6" y="35" height="1" width="2"/><rect fill="#bbbbccff" x="8" y="35" height="1" width="1"/><rect fill="#aaaaccff" x="9" y="35" height="1" width="1"/><rect fill="#bbaaccff" x="10" y="35" height="1" width="2"/><rect fill="#bbbbccff" x="12" y="35" height="1" width="2"/><rect fill="#bbaaccff" x="14" y="35" height="1" width="2"/><rect fill="#ccbbccff" x="16" y="35" height="1" width="2"/><rect fill="#bbbbccff" x="18" y="35" height="1" width="1"/><rect fill="#bbaaccff" x="19" y="35" height="1" width="1"/><rect fill="#aaaaccff" x="20" y="35" height="1" width="1"/><rect fill="#ccbbccff" x="21" y="35" height="1" width="2"/><rect fill="#bbbbccff" x="23" y="35" height="1" width="1"/><rect fill="#bbaaccff" x="24" y="35" height="1" width="1"/><rect fill="#ccbbccff" x="25" y="35" height="1" width="1"/><rect fill="#aaaaccff" x="26" y="35" height="1" width="1"/><rect fill="#bbbbccff" x="27" y="35" height="1" width="1"/><rect fill="#aaaaccff" x="28" y="35" height="1" width="3"/><rect fill="#bbbbccff" x="31" y="35" height="1" width="2"/><rect fill="#aaaaccff" x="33" y="35" height="1" width="2"/><rect fill="#ccbbccff" x="35" y="35" height="1" width="1"/></svg>