<svg xmlns="http://www.w3.org/2000/svg" shape-rendering="crispEdges" version="1.1" viewBox="0 0 36 36" width="360" height="360"><rect fill="#586049ff" x="0" y="0" height="1" width="36"/><rect fill="#586049ff" x="0" y="1" height="1" width="36"/><rect fill="#586049ff" x="0" y="2" height="1" width="8"/><rect fill="#4b5441ff" x="8" y="2" height="1" width="1"/><rect fill="#586049ff" x="9" y="2" height="1" width="5"/><rect fill="#666f5cff" x="14" y="2" height="1" width="1"/><rect fill="#586049ff" x="15" y="2" height="1" width="2"/><rect fill="#666f5cff" x="17" y="2" height="1" width="1"/><rect fill="#586049ff" x="18" y="2" height="1" width="3"/><rect fill="#4b5441ff" x="21" y="2" height="1" width="1"/><rect fill="#586049ff" x="22" y="2" height="1" width="2"/><rect fill="#666f5cff" x="24" y="2" height="1" width="1"/><rect fill="#586049ff" x="25" y="2" height="1" width="11"/><rect fill="#586049ff" x="0" y="3" height="1" width="4"/><rect fill="#666f5cff" x="4" y="3" height="1" width="1"/><rect fill="#586049ff" x="5" y="3" height="1" width="6"/><rect fill="#666f5cff" x="11" y="3" height="1" width="1"/><rect fill="#586049ff" x="12" y="3" height="1" width="1"/><rect fill="#666f5cff" x="13" y="3" height="1" width="2"/><rect fill="#586049ff" x="15" y="3" height="1" width="4"/><rect fill="#4b5441ff" x="19" y="3" height="1" width="1"/><rect fill="#666f5cff" x="20" y="3" height="1" width="1"/><rect fill="#4b5441ff" x="21" y="3" height="1" width="1"/><rect fill="#666f5cff" x="22" y="3" height="1" width="1"/><rect fill="#586049ff" x="23" y="3" height="1" width="4"/><rect fill="#666f5cff" x="27" y="3" height="1" width="1"/><rect fill="#586049ff" x="28" y="3" height="1" width="8"/><rect fill="#586049ff" x="0" y="4" height="1" width="13"/><rect fill="#666f5cff" x="13" y="4" height="1" width="1"/><rect fill="#586049ff" x="14" y="4" height="1" width="7"/><rect fill="#4b5441ff" x="21" y="4" height="1" width="1"/><rect fill="#666f5cff" x="22" y="4" height="1" width="1"/><rect fill="#4b5441ff" x="23" y="4" height="1" width="1"/><rect fill="#586049ff" x="24" y="4" height="1" width="1"/><rect fill="#666f5cff" x="25" y="4" height="1" width="1"/><rect fill="#586049ff" x="26" y="4" height="1" width="10"/><rect fill="#586049ff" x="0" y="5" height="1" width="12"/><rect fill="#666f5cff" x="12" y="5" height="1" width="2"/><rect fill="#586049ff" x="14" y="5" height="1" width="3"/><rect fill="#666f5cff" x="17" y="5" height="1" width="1"/><rect fill="#586049ff" x="18" y="5" height="1" width="6"/><rect fill="#666f5cff" x="24" y="5" height="1" width="4"/><rect fill="#586049ff" x="28" y="5" height="1" width="4"/><rect fill="#4b5441ff" x="32" y="5" height="1" width="1"/><rect fill="#586049ff" x="33" y="5" height="1" width="3"/><rect fill="#586049ff" x="0" y="6" height="1" width="4"/><rect fill="#4b5441ff" x="4" y="6" height="1" width="1"/><rect fill="#586049ff" x="5" y="6" height="1" width="2"/><rect fill="#666f5cff" x="7" y="6" height="1" width="1"/><rect fill="#586049ff" x="8" y="6" height="1" width="3"/><rect fill="#4b5441ff" x="11" y="6" height="1" width="1"/><rect fill="#666f5cff" x="12" y="6" height="1" width="2"/><rect fill="#586049ff" x="14" y="6" height="1" width="6"/><rect fill="#4b5441ff" x="20" y="6" height="1" width="1"/><rect fill="#586049ff" x="21" y="6" height="1" width="1"/><rect fill="#666f5cff" x="22" y="6" height="1" width="1"/><rect fill="#586049ff" x="23" y="6" height="1" width="2"/><rect fill="#666f5cff" x="25" y="6" height="1" width="1"/><rect fill="#586049ff" x="26" y="6" height="1" width="1"/><rect fill="#666f5cff" x="27" y="6" height="1" width="1"/><rect fill="#586049ff" x="28" y="6" height="1" width="8"/><rect fill="#586049ff" x="0" y="7" height="1" width="9"/><rect fill="#4b5441ff" x="9" y="7" height="1" width="1"/><rect fill="#586049ff" x="10" y="7" height="1" width="1"/><rect fill="#4b5441ff" x="11" y="7" height="1" width="1"/><rect fill="#666f5cff" x="12" y="7" height="1" width="2"/><rect fill="#586049ff" x="14" y="7" height="1" width="1"/><rect fill="#666f5cff" x="15" y="7" height="1" width="1"/><rect fill="#586049ff" x="16" y="7" height="1" width="1"/><rect fill="#666f5cff" x="17" y="7" height="1" width="1"/><rect fill="#586049ff" x="18" y="7" height="1" width="1"/><rect fill="#666f5cff" x="19" y="7" height="1" width="1"/><rect fill="#586049ff" x="20" y="7" height="1" width="4"/><rect fill="#666f5cff" x="24" y="7" height="1" width="2"/><rect fill="#586049ff" x="26" y="7" height="1" width="10"/><rect fill="#586049ff" x="0" y="8" height="1" width="3"/><rect fill="#4b5441ff" x="3" y="8" height="1" width="1"/><rect fill="#586049ff" x="4" y="8" height="1" width="2"/><rect fill="#666f5cff" x="6" y="8" height="1" width="1"/><rect fill="#586049ff" x="7" y="8" height="1" width="5"/><rect fill="#666f5cff" x="12" y="8" height="1" width="2"/><rect fill="#586049ff" x="14" y="8" height="1" width="1"/><rect fill="#666f5cff" x="15" y="8" height="1" width="1"/><rect fill="#586049ff" x="16" y="8" height="1" width="2"/><rect fill="#666f5cff" x="18" y="8" height="1" width="4"/><rect fill="#586049ff" x="22" y="8" height="1" width="1"/><rect fill="#666f5cff" x="23" y="8" height="1" width="4"/><rect fill="#586049ff" x="27" y="8" height="1" width="1"/><rect fill="#666f5cff" x="28" y="8" height="1" width="1"/><rect fill="#586049ff" x="29" y="8" height="1" width="2"/><rect fill="#4b5441ff" x="31" y="8" height="1" width="1"/><rect fill="#586049ff" x="32" y="8" height="1" width="4"/><rect fill="#586049ff" x="0" y="9" height="1" width="3"/><rect fill="#4b5441ff" x="3" y="9" height="1" width="1"/><rect fill="#586049ff" x="4" y="9" height="1" width="5"/><rect fill="#666f5cff" x="9" y="9" height="1" width="1"/><rect fill="#586049ff" x="10" y="9" height="1" width="1"/><rect fill="#666f5cff" x="11" y="9" height="1" width="1"/><rect fill="#586049ff" x="12" y="9" height="1" width="1"/><rect fill="#666f5cff" x="13" y="9" height="1" width="9"/><rect fill="#4b5441ff" x="22" y="9" height="1" width="1"/><rect fill="#586049ff" x="23" y="9" height="1" width="1"/><rect fill="#666f5cff" x="24" y="9" height="1" width="3"/><rect fill="#586049ff" x="27" y="9" height="1" width="9"/><rect fill="#586049ff" x="0" y="10" height="1" width="5"/><rect fill="#666f5cff" x="5" y="10" height="1" width="1"/><rect fill="#586049ff" x="6" y="10" height="1" width="3"/><rect fill="#666f5cff" x="9" y="10" height="1" width="1"/><rect fill="#586049ff" x="10" y="10" height="1" width="2"/><rect fill="#666f5cff" x="12" y="10" height="1" width="15"/><rect fill="#586049ff" x="27" y="10" height="1" width="1"/><rect fill="#4b5441ff" x="28" y="10" height="1" width="1"/><rect fill="#586049ff" x="29" y="10" height="1" width="3"/><rect fill="#4b5441ff" x="32" y="10" height="1" width="1"/><rect fill="#586049ff" x="33" y="10" height="1" width="3"/><rect fill="#586049ff" x="0" y="11" height="1" width="5"/><rect fill="#666f5cff" x="5" y="11" height="1" width="1"/><rect fill="#586049ff" x="6" y="11" height="1" width="1"/><rect fill="#666f5cff" x="7" y="11" height="1" width="1"/><rect fill="#586049ff" x="8" y="11" height="1" width="1"/><rect fill="#666f5cff" x="9" y="11" height="1" width="16"/><rect fill="#586049ff" x="25" y="11" height="1" width="1"/><rect fill="#666f5cff" x="26" y="11" height="1" width="4"/><rect fill="#586049ff" x="30" y="11" height="1" width="6"/><rect fill="#586049ff" x="0" y="12" height="1" width="3"/><rect fill="#666f5cff" x="3" y="12" height="1" width="1"/><rect fill="#586049ff" x="4" y="12" height="1" width="1"/><rect fill="#666f5cff" x="5" y="12" height="1" width="2"/><rect fill="#586049ff" x="7" y="12" height="1" width="1"/><rect fill="#666f5cff" x="8" y="12" height="1" width="22"/><rect fill="#586049ff" x="30" y="12" height="1" width="1"/><rect fill="#666f5cff" x="31" y="12" height="1" width="1"/><rect fill="#586049ff" x="32" y="12" height="1" width="4"/><rect fill="#586049ff" x="0" y="13" height="1" width="6"/><rect fill="#666f5cff" x="6" y="13" height="1" width="1"/><rect fill="#586049ff" x="7" y="13" height="1" width="1"/><rect fill="#4b5441ff" x="8" y="13" height="1" width="1"/><rect fill="#666f5cff" x="9" y="13" height="1" width="18"/><rect fill="#586049ff" x="27" y="13" height="1" width="1"/><rect fill="#666f5cff" x="28" y="13" height="1" width="2"/><rect fill="#586049ff" x="30" y="13" height="1" width="6"/><rect fill="#586049ff" x="0" y="14" height="1" width="5"/><rect fill="#4b5441ff" x="5" y="14" height="1" width="1"/><rect fill="#586049ff" x="6" y="14" height="1" width="1"/><rect fill="#666f5cff" x="7" y="14" height="1" width="23"/><rect fill="#586049ff" x="30" y="14" height="1" width="1"/><rect fill="#666f5cff" x="31" y="14" height="1" width="1"/><rect fill="#586049ff" x="32" y="14" height="1" width="4"/><rect fill="#586049ff" x="0" y="15" height="1" width="7"/><rect fill="#666f5cff" x="7" y="15" height="1" width="22"/><rect fill="#586049ff" x="29" y="15" height="1" width="1"/><rect fill="#666f5cff" x="30" y="15" height="1" width="2"/><rect fill="#586049ff" x="32" y="15" height="1" width="1"/><rect fill="#666f5cff" x="33" y="15" height="1" width="1"/><rect fill="#586049ff" x="34" y="15" height="1" width="2"/><rect fill="#586049ff" x="0" y="16" height="1" width="3"/><rect fill="#666f5cff" x="3" y="16" height="1" width="1"/><rect fill="#586049ff" x="4" y="16" height="1" width="2"/><rect fill="#666f5cff" x="6" y="16" height="1" width="24"/><rect fill="#586049ff" x="30" y="16" height="1" width="6"/><rect fill="#586049ff" x="0" y="17" height="1" width="5"/><rect fill="#666f5cff" x="5" y="17" height="1" width="2"/><rect fill="#586049ff" x="7" y="17" height="1" width="1"/><rect fill="#666f5cff" x="8" y="17" height="1" width="22"/><rect fill="#586049ff" x="30" y="17" height="1" width="1"/><rect fill="#666f5cff" x="31" y="17" height="1" width="1"/><rect fill="#586049ff" x="32" y="17" height="1" width="4"/><rect fill="#586049ff" x="0" y="18" height="1" width="6"/><rect fill="#666f5cff" x="6" y="18" height="1" width="22"/><rect fill="#586049ff" x="28" y="18" height="1" width="1"/><rect fill="#666f5cff" x="29" y="18" height="1" width="2"/><rect fill="#586049ff" x="31" y="18" height="1" width="1"/><rect fill="#666f5cff" x="32" y="18" height="1" width="1"/><rect fill="#586049ff" x="33" y="18" height="1" width="3"/><rect fill="#586049ff" x="0" y="19" height="1" width="2"/><rect fill="#4b5441ff" x="2" y="19" height="1" width="1"/><rect fill="#586049ff" x="3" y="19" height="1" width="1"/><rect fill="#666f5cff" x="4" y="19" height="1" width="28"/><rect fill="#586049ff" x="32" y="19" height="1" width="4"/><rect fill="#586049ff" x="0" y="20" height="1" width="4"/><rect fill="#666f5cff" x="4" y="20" height="1" width="28"/><rect fill="#586049ff" x="32" y="20" height="1" width="4"/><rect fill="#586049ff" x="0" y="21" height="1" width="2"/><rect fill="#666f5cff" x="2" y="21" height="1" width="1"/><rect fill="#586049ff" x="3" y="21" height="1" width="2"/><rect fill="#666f5cff" x="5" y="21" height="1" width="25"/><rect fill="#586049ff" x="30" y="21" height="1" width="1"/><rect fill="#666f5cff" x="31" y="21" height="1" width="1"/><rect fill="#586049ff" x="32" y="21" height="1" width="1"/><rect fill="#666f5cff" x="33" y="21" height="1" width="1"/><rect fill="#586049ff" x="34" y="21" height="1" width="2"/><rect fill="#586049ff" x="0" y="22" height="1" width="2"/><rect fill="#666f5cff" x="2" y="22" height="1" width="1"/><rect fill="#586049ff" x="3" y="22" height="1" width="1"/><rect fill="#666f5cff" x="4" y="22" height="1" width="2"/><rect fill="#586049ff" x="6" y="22" height="1" width="1"/><rect fill="#666f5cff" x="7" y="22" height="1" width="23"/><rect fill="#586049ff" x="30" y="22" height="1" width="1"/><rect fill="#666f5cff" x="31" y="22" height="1" width="3"/><rect fill="#586049ff" x="34" y="22" height="1" width="2"/><rect fill="#586049ff" x="0" y="23" height="1" width="4"/><rect fill="#666f5cff" x="4" y="23" height="1" width="29"/><rect fill="#586049ff" x="33" y="23" height="1" width="3"/><rect fill="#586049ff" x="0" y="24" height="1" width="2"/><rect fill="#666f5cff" x="2" y="24" height="1" width="1"/><rect fill="#586049ff" x="3" y="24" height="1" width="2"/><rect fill="#666f5cff" x="5" y="24" height="1" width="1"/><rect fill="#586049ff" x="6" y="24" height="1" width="1"/><rect fill="#666f5cff" x="7" y="24" height="1" width="22"/><rect fill="#586049ff" x="29" y="24" height="1" width="1"/><rect fill="#666f5cff" x="30" y="24" height="1" width="1"/><rect fill="#586049ff" x="31" y="24" height="1" width="1"/><rect fill="#666f5cff" x="32" y="24" height="1" width="2"/><rect fill="#586049ff" x="34" y="24" height="1" width="2"/><rect fill="#586049ff" x="0" y="25" height="1" width="4"/><rect fill="#666f5cff" x="4" y="25" height="1" width="28"/><rect fill="#586049ff" x="32" y="25" height="1" width="4"/><rect fill="#586049ff" x="0" y="26" height="1" width="5"/><rect fill="#666f5cff" x="5" y="26" height="1" width="28"/><rect fill="#586049ff" x="33" y="26" height="1" width="3"/><rect fill="#586049ff" x="0" y="27" height="1" width="4"/><rect fill="#666f5cff" x="4" y="27" height="1" width="2"/><rect fill="#4b5441ff" x="6" y="27" height="1" width="1"/><rect fill="#666f5cff" x="7" y="27" height="1" width="18"/><rect fill="#586049ff" x="25" y="27" height="1" width="1"/><rect fill="#666f5cff" x="26" y="27" height="1" width="3"/><rect fill="#586049ff" x="29" y="27" height="1" width="1"/><rect fill="#666f5cff" x="30" y="27" height="1" width="1"/><rect fill="#586049ff" x="31" y="27" height="1" width="5"/><rect fill="#586049ff" x="0" y="28" height="1" width="2"/><rect fill="#4b5441ff" x="2" y="28" height="1" width="1"/><rect fill="#586049ff" x="3" y="28" height="1" width="2"/><rect fill="#666f5cff" x="5" y="28" height="1" width="3"/><rect fill="#586049ff" x="8" y="28" height="1" width="1"/><rect fill="#666f5cff" x="9" y="28" height="1" width="15"/><rect fill="#586049ff" x="24" y="28" height="1" width="1"/><rect fill="#4b5441ff" x="25" y="28" height="1" width="1"/><rect fill="#586049ff" x="26" y="28" height="1" width="1"/><rect fill="#666f5cff" x="27" y="28" height="1" width="3"/><rect fill="#586049ff" x="30" y="28" height="1" width="3"/><rect fill="#666f5cff" x="33" y="28" height="1" width="1"/><rect fill="#586049ff" x="34" y="28" height="1" width="2"/><rect fill="#586049ff" x="0" y="29" height="1" width="7"/><rect fill="#666f5cff" x="7" y="29" height="1" width="18"/><rect fill="#586049ff" x="25" y="29" height="1" width="2"/><rect fill="#666f5cff" x="27" y="29" height="1" width="1"/><rect fill="#586049ff" x="28" y="29" height="1" width="8"/><rect fill="#586049ff" x="0" y="30" height="1" width="5"/><rect fill="#666f5cff" x="5" y="30" height="1" width="1"/><rect fill="#586049ff" x="6" y="30" height="1" width="3"/><rect fill="#666f5cff" x="9" y="30" height="1" width="2"/><rect fill="#586049ff" x="11" y="30" height="1" width="1"/><rect fill="#4b5441ff" x="12" y="30" height="1" width="1"/><rect fill="#666f5cff" x="13" y="30" height="1" width="1"/><rect fill="#586049ff" x="14" y="30" height="1" width="1"/><rect fill="#666f5cff" x="15" y="30" height="1" width="2"/><rect fill="#586049ff" x="17" y="30" height="1" width="1"/><rect fill="#666f5cff" x="18" y="30" height="1" width="3"/><rect fill="#586049ff" x="21" y="30" height="1" width="1"/><rect fill="#666f5cff" x="22" y="30" height="1" width="3"/><rect fill="#586049ff" x="25" y="30" height="1" width="5"/><rect fill="#666f5cff" x="30" y="30" height="1" width="1"/><rect fill="#586049ff" x="31" y="30" height="1" width="5"/><rect fill="#586049ff" x="0" y="31" height="1" width="7"/><rect fill="#4b5441ff" x="7" y="31" height="1" width="1"/><rect fill="#586049ff" x="8" y="31" height="1" width="2"/><rect fill="#666f5cff" x="10" y="31" height="1" width="1"/><rect fill="#586049ff" x="11" y="31" height="1" width="8"/><rect fill="#4b5441ff" x="19" y="31" height="1" width="1"/><rect fill="#586049ff" x="20" y="31" height="1" width="4"/><rect fill="#666f5cff" x="24" y="31" height="1" width="1"/><rect fill="#586049ff" x="25" y="31" height="1" width="1"/><rect fill="#666f5cff" x="26" y="31" height="1" width="2"/><rect fill="#586049ff" x="28" y="31" height="1" width="4"/><rect fill="#4b5441ff" x="32" y="31" height="1" width="1"/><rect fill="#586049ff" x="33" y="31" height="1" width="3"/><rect fill="#586049ff" x="0" y="32" height="1" width="5"/><rect fill="#666f5cff" x="5" y="32" height="1" width="1"/><rect fill="#586049ff" x="6" y="32" height="1" width="6"/><rect fill="#666f5cff" x="12" y="32" height="1" width="1"/><rect fill="#586049ff" x="13" y="32" height="1" width="1"/><rect fill="#666f5cff" x="14" y="32" height="1" width="1"/><rect fill="#586049ff" x="15" y="32" height="1" width="3"/><rect fill="#666f5cff" x="18" y="32" height="1" width="1"/><rect fill="#586049ff" x="19" y="32" height="1" width="17"/><rect fill="#586049ff" x="0" y="33" height="1" width="3"/><rect fill="#4b5441ff" x="3" y="33" height="1" width="1"/><rect fill="#586049ff" x="4" y="33" height="1" width="5"/><rect fill="#666f5cff" x="9" y="33" height="1" width="1"/><rect fill="#586049ff" x="10" y="33" height="1" width="6"/><rect fill="#4b5441ff" x="16" y="33" height="1" width="1"/><rect fill="#586049ff" x="17" y="33" height="1" width="4"/><rect fill="#666f5cff" x="21" y="33" height="1" width="3"/><rect fill="#586049ff" x="24" y="33" height="1" width="2"/><rect fill="#666f5cff" x="26" y="33" height="1" width="1"/><rect fill="#586049ff" x="27" y="33" height="1" width="3"/><rect fill="#4b5441ff" x="30" y="33" height="1" width="1"/><rect fill="#586049ff" x="31" y="33" height="1" width="5"/><rect fill="#586049ff" x="0" y="34" height="1" width="36"/><rect fill="#586049ff" x="0" y="35" height="1" width="36"/></svg>