<svg xmlns="http://www.w3.org/2000/svg" shape-rendering="crispEdges" version="1.1" viewBox="0 0 36 36" width="360" height="360"><rect fill="#1929f4ff" x="12" y="14" height="1" width="12"/><rect fill="#1929f4ff" x="11" y="15" height="1" width="1"/><rect fill="#323c7dff" x="12" y="15" height="1" width="1"/><rect fill="#2c327dff" x="13" y="15" height="1" width="1"/><rect fill="#323c7dff" x="14" y="15" height="1" width="4"/><rect fill="#2c327dff" x="18" y="15" height="1" width="1"/><rect fill="#323c7dff" x="19" y="15" height="1" width="2"/><rect fill="#2c327dff" x="21" y="15" height="1" width="1"/><rect fill="#323c7dff" x="22" y="15" height="1" width="2"/><rect fill="#1929f4ff" x="24" y="15" height="1" width="1"/><rect fill="#1929f4ff" x="10" y="16" height="1" width="1"/><rect fill="#323c7dff" x="11" y="16" height="1" width="14"/><rect fill="#1929f4ff" x="25" y="16" height="1" width="1"/><rect fill="#1929f4ff" x="10" y="17" height="1" width="1"/><rect fill="#2c327dff" x="11" y="17" height="1" width="5"/><rect fill="#323c7dff" x="16" y="17" height="1" width="1"/><rect fill="#2c327dff" x="17" y="17" height="1" width="5"/><rect fill="#323c7dff" x="22" y="17" height="1" width="1"/><rect fill="#2c327dff" x="23" y="17" height="1" width="1"/><rect fill="#323c7dff" x="24" y="17" height="1" width="1"/><rect fill="#1929f4ff" x="25" y="17" height="1" width="1"/><rect fill="#1929f4ff" x="9" y="18" height="1" width="1"/><rect fill="#323c7dff" x="10" y="18" height="1" width="1"/><rect fill="#fff0eeff" x="11" y="18" height="1" width="3"/><rect fill="#1929f4ff" x="14" y="18" height="1" width="2"/><rect fill="#323c7dff" x="16" y="18" height="1" width="1"/><rect fill="#fff0eeff" x="17" y="18" height="1" width="3"/><rect fill="#1929f4ff" x="20" y="18" height="1" width="2"/><rect fill="#323c7dff" x="22" y="18" height="1" width="4"/><rect fill="#1929f4ff" x="26" y="18" height="1" width="1"/><rect fill="#1929f4ff" x="8" y="19" height="1" width="1"/><rect fill="#323c7dff" x="9" y="19" height="1" width="16"/><rect fill="#2c327dff" x="25" y="19" height="1" width="1"/><rect fill="#1929f4ff" x="26" y="19" height="1" width="1"/><rect fill="#0d1892ff" x="27" y="19" height="1" width="1"/><rect fill="#0d1892ff" x="7" y="20" height="1" width="1"/><rect fill="#1929f4ff" x="8" y="20" height="1" width="1"/><rect fill="#2c327dff" x="9" y="20" height="1" width="16"/><rect fill="#323c7dff" x="25" y="20" height="1" width="1"/><rect fill="#1929f4ff" x="26" y="20" height="1" width="1"/><rect fill="#1f254bff" x="27" y="20" height="1" width="1"/><rect fill="#0d1892ff" x="28" y="20" height="1" width="1"/><rect fill="#0d1892ff" x="6" y="21" height="1" width="1"/><rect fill="#1f254bff" x="7" y="21" height="1" width="1"/><rect fill="#1929f4ff" x="8" y="21" height="1" width="1"/><rect fill="#2c327dff" x="9" y="21" height="1" width="1"/><rect fill="#1929f4ff" x="10" y="21" height="1" width="14"/><rect fill="#2c327dff" x="24" y="21" height="1" width="1"/><rect fill="#323c7dff" x="25" y="21" height="1" width="1"/><rect fill="#1929f4ff" x="26" y="21" height="1" width="1"/><rect fill="#1f254bff" x="27" y="21" height="1" width="2"/><rect fill="#0d1892ff" x="29" y="21" height="1" width="1"/><rect fill="#0d1892ff" x="5" y="22" height="1" width="1"/><rect fill="#1f254bff" x="6" y="22" height="1" width="2"/><rect fill="#1929f4ff" x="8" y="22" height="1" width="1"/><rect fill="#2c327dff" x="9" y="22" height="1" width="16"/><rect fill="#323c7dff" x="25" y="22" height="1" width="1"/><rect fill="#1929f4ff" x="26" y="22" height="1" width="1"/><rect fill="#1b1e4bff" x="27" y="22" height="1" width="1"/><rect fill="#1f254bff" x="28" y="22" height="1" width="1"/><rect fill="#1b1e4bff" x="29" y="22" height="1" width="1"/><rect fill="#0d1892ff" x="30" y="22" height="1" width="1"/><rect fill="#0d1892ff" x="5" y="23" height="1" width="1"/><rect fill="#1f254bff" x="6" y="23" height="1" width="3"/><rect fill="#1929f4ff" x="9" y="23" height="1" width="1"/><rect fill="#323c7dff" x="10" y="23" height="1" width="2"/><rect fill="#2c327dff" x="12" y="23" height="1" width="1"/><rect fill="#323c7dff" x="13" y="23" height="1" width="13"/><rect fill="#1929f4ff" x="26" y="23" height="1" width="1"/><rect fill="#1f254bff" x="27" y="23" height="1" width="3"/><rect fill="#0d1892ff" x="30" y="23" height="1" width="1"/><rect fill="#0d1892ff" x="5" y="24" height="1" width="1"/><rect fill="#1f254bff" x="6" y="24" height="1" width="1"/><rect fill="#1b1e4bff" x="7" y="24" height="1" width="1"/><rect fill="#1f254bff" x="8" y="24" height="1" width="2"/><rect fill="#1929f4ff" x="10" y="24" height="1" width="1"/><rect fill="#323c7dff" x="11" y="24" height="1" width="3"/><rect fill="#1929f4ff" x="14" y="24" height="1" width="1"/><rect fill="#2c327dff" x="15" y="24" height="1" width="1"/><rect fill="#323c7dff" x="16" y="24" height="1" width="1"/><rect fill="#1929f4ff" x="17" y="24" height="1" width="1"/><rect fill="#323c7dff" x="18" y="24" height="1" width="2"/><rect fill="#1929f4ff" x="20" y="24" height="1" width="1"/><rect fill="#323c7dff" x="21" y="24" height="1" width="4"/><rect fill="#1929f4ff" x="25" y="24" height="1" width="1"/><rect fill="#1f254bff" x="26" y="24" height="1" width="2"/><rect fill="#1b1e4bff" x="28" y="24" height="1" width="1"/><rect fill="#1f254bff" x="29" y="24" height="1" width="1"/><rect fill="#0d1892ff" x="30" y="24" height="1" width="1"/><rect fill="#0d1892ff" x="6" y="25" height="1" width="1"/><rect fill="#1f254bff" x="7" y="25" height="1" width="4"/><rect fill="#1929f4ff" x="11" y="25" height="1" width="1"/><rect fill="#323c7dff" x="12" y="25" height="1" width="1"/><rect fill="#2c327dff" x="13" y="25" height="1" width="1"/><rect fill="#323c7dff" x="14" y="25" height="1" width="1"/><rect fill="#1929f4ff" x="15" y="25" height="1" width="1"/><rect fill="#323c7dff" x="16" y="25" height="1" width="1"/><rect fill="#1929f4ff" x="17" y="25" height="1" width="1"/><rect fill="#323c7dff" x="18" y="25" height="1" width="1"/><rect fill="#1929f4ff" x="19" y="25" height="1" width="1"/><rect fill="#323c7dff" x="20" y="25" height="1" width="2"/><rect fill="#2c327dff" x="22" y="25" height="1" width="1"/><rect fill="#323c7dff" x="23" y="25" height="1" width="1"/><rect fill="#1929f4ff" x="24" y="25" height="1" width="1"/><rect fill="#1f254bff" x="25" y="25" height="1" width="5"/><rect fill="#0d1892ff" x="30" y="25" height="1" width="1"/><rect fill="#0d1892ff" x="7" y="26" height="1" width="3"/><rect fill="#1f254bff" x="10" y="26" height="1" width="2"/><rect fill="#1929f4ff" x="12" y="26" height="1" width="4"/><rect fill="#323c7dff" x="16" y="26" height="1" width="1"/><rect fill="#1929f4ff" x="17" y="26" height="1" width="1"/><rect fill="#323c7dff" x="18" y="26" height="1" width="1"/><rect fill="#1929f4ff" x="19" y="26" height="1" width="5"/><rect fill="#1f254bff" x="24" y="26" height="1" width="1"/><rect fill="#0d1892ff" x="25" y="26" height="1" width="3"/><rect fill="#1f254bff" x="28" y="26" height="1" width="1"/><rect fill="#0d1892ff" x="29" y="26" height="1" width="1"/><rect fill="#0d1892ff" x="6" y="27" height="1" width="1"/><rect fill="#1f254bff" x="7" y="27" height="1" width="7"/><rect fill="#1929f4ff" x="14" y="27" height="1" width="1"/><rect fill="#323c7dff" x="15" y="27" height="1" width="2"/><rect fill="#1929f4ff" x="17" y="27" height="1" width="1"/><rect fill="#323c7dff" x="18" y="27" height="1" width="2"/><rect fill="#1929f4ff" x="20" y="27" height="1" width="1"/><rect fill="#1f254bff" x="21" y="27" height="1" width="7"/><rect fill="#0d1892ff" x="28" y="27" height="1" width="1"/><rect fill="#0d1892ff" x="7" y="28" height="1" width="7"/><rect fill="#1929f4ff" x="14" y="28" height="1" width="7"/><rect fill="#0d1892ff" x="21" y="28" height="1" width="7"/></svg>