<svg xmlns="http://www.w3.org/2000/svg" shape-rendering="crispEdges" version="1.1" viewBox="0 0 36 36" width="360" height="360"><rect fill="#1929f4ff" x="10" y="14" height="1" width="15"/><rect fill="#1929f4ff" x="9" y="15" height="1" width="1"/><rect fill="#323c7dff" x="10" y="15" height="1" width="3"/><rect fill="#2c327dff" x="13" y="15" height="1" width="1"/><rect fill="#323c7dff" x="14" y="15" height="1" width="2"/><rect fill="#2c327dff" x="16" y="15" height="1" width="1"/><rect fill="#323c7dff" x="17" y="15" height="1" width="2"/><rect fill="#2c327dff" x="19" y="15" height="1" width="1"/><rect fill="#323c7dff" x="20" y="15" height="1" width="5"/><rect fill="#1929f4ff" x="25" y="15" height="1" width="1"/><rect fill="#1929f4ff" x="8" y="16" height="1" width="1"/><rect fill="#2c327dff" x="9" y="16" height="1" width="1"/><rect fill="#323c7dff" x="10" y="16" height="1" width="1"/><rect fill="#434b80ff" x="11" y="16" height="1" width="1"/><rect fill="#323c7dff" x="12" y="16" height="1" width="11"/><rect fill="#2c327dff" x="23" y="16" height="1" width="1"/><rect fill="#323c7dff" x="24" y="16" height="1" width="2"/><rect fill="#1929f4ff" x="26" y="16" height="1" width="1"/><rect fill="#1929f4ff" x="8" y="17" height="1" width="1"/><rect fill="#323c7dff" x="9" y="17" height="1" width="2"/><rect fill="#2c327dff" x="11" y="17" height="1" width="5"/><rect fill="#323c7dff" x="16" y="17" height="1" width="1"/><rect fill="#2c327dff" x="17" y="17" height="1" width="5"/><rect fill="#323c7dff" x="22" y="17" height="1" width="4"/><rect fill="#1929f4ff" x="26" y="17" height="1" width="1"/><rect fill="#0d1892ff" x="6" y="18" height="1" width="2"/><rect fill="#1929f4ff" x="8" y="18" height="1" width="1"/><rect fill="#323c7dff" x="9" y="18" height="1" width="2"/><rect fill="#fff0eeff" x="11" y="18" height="1" width="2"/><rect fill="#1929f4ff" x="13" y="18" height="1" width="3"/><rect fill="#323c7dff" x="16" y="18" height="1" width="1"/><rect fill="#fff0eeff" x="17" y="18" height="1" width="2"/><rect fill="#1929f4ff" x="19" y="18" height="1" width="3"/><rect fill="#323c7dff" x="22" y="18" height="1" width="2"/><rect fill="#2c327dff" x="24" y="18" height="1" width="1"/><rect fill="#323c7dff" x="25" y="18" height="1" width="1"/><rect fill="#1929f4ff" x="26" y="18" height="1" width="2"/><rect fill="#0d1892ff" x="28" y="18" height="1" width="2"/><rect fill="#0d1892ff" x="5" y="19" height="1" width="1"/><rect fill="#1f254bff" x="6" y="19" height="1" width="1"/><rect fill="#1929f4ff" x="7" y="19" height="1" width="1"/><rect fill="#323c7dff" x="8" y="19" height="1" width="19"/><rect fill="#1929f4ff" x="27" y="19" height="1" width="1"/><rect fill="#1f254bff" x="28" y="19" height="1" width="2"/><rect fill="#0d1892ff" x="30" y="19" height="1" width="1"/><rect fill="#0d1892ff" x="5" y="20" height="1" width="1"/><rect fill="#1b1e4bff" x="6" y="20" height="1" width="1"/><rect fill="#1929f4ff" x="7" y="20" height="1" width="1"/><rect fill="#2c327dff" x="8" y="20" height="1" width="1"/><rect fill="#323c7dff" x="9" y="20" height="1" width="1"/><rect fill="#434b80ff" x="10" y="20" height="1" width="2"/><rect fill="#323c7dff" x="12" y="20" height="1" width="2"/><rect fill="#434b80ff" x="14" y="20" height="1" width="2"/><rect fill="#1929f4ff" x="16" y="20" height="1" width="1"/><rect fill="#323c7dff" x="17" y="20" height="1" width="3"/><rect fill="#434b80ff" x="20" y="20" height="1" width="2"/><rect fill="#323c7dff" x="22" y="20" height="1" width="1"/><rect fill="#2c327dff" x="23" y="20" height="1" width="1"/><rect fill="#323c7dff" x="24" y="20" height="1" width="1"/><rect fill="#2c327dff" x="25" y="20" height="1" width="1"/><rect fill="#323c7dff" x="26" y="20" height="1" width="1"/><rect fill="#1929f4ff" x="27" y="20" height="1" width="1"/><rect fill="#1b1e4bff" x="28" y="20" height="1" width="1"/><rect fill="#1f254bff" x="29" y="20" height="1" width="2"/><rect fill="#0d1892ff" x="31" y="20" height="1" width="1"/><rect fill="#0d1892ff" x="4" y="21" height="1" width="1"/><rect fill="#282d4dff" x="5" y="21" height="1" width="1"/><rect fill="#1f254bff" x="6" y="21" height="1" width="1"/><rect fill="#1929f4ff" x="7" y="21" height="1" width="1"/><rect fill="#323c7dff" x="8" y="21" height="1" width="6"/><rect fill="#1929f4ff" x="14" y="21" height="1" width="3"/><rect fill="#323c7dff" x="17" y="21" height="1" width="10"/><rect fill="#1929f4ff" x="27" y="21" height="1" width="1"/><rect fill="#1f254bff" x="28" y="21" height="1" width="1"/><rect fill="#282d4dff" x="29" y="21" height="1" width="1"/><rect fill="#1b1e4bff" x="30" y="21" height="1" width="1"/><rect fill="#0d1892ff" x="31" y="21" height="1" width="1"/><rect fill="#0d1892ff" x="4" y="22" height="1" width="1"/><rect fill="#282d4dff" x="5" y="22" height="1" width="1"/><rect fill="#1f254bff" x="6" y="22" height="1" width="1"/><rect fill="#1929f4ff" x="7" y="22" height="1" width="1"/><rect fill="#323c7dff" x="8" y="22" height="1" width="2"/><rect fill="#2c327dff" x="10" y="22" height="1" width="1"/><rect fill="#323c7dff" x="11" y="22" height="1" width="3"/><rect fill="#434b80ff" x="14" y="22" height="1" width="2"/><rect fill="#1929f4ff" x="16" y="22" height="1" width="1"/><rect fill="#323c7dff" x="17" y="22" height="1" width="4"/><rect fill="#2c327dff" x="21" y="22" height="1" width="1"/><rect fill="#323c7dff" x="22" y="22" height="1" width="2"/><rect fill="#2c327dff" x="24" y="22" height="1" width="1"/><rect fill="#323c7dff" x="25" y="22" height="1" width="2"/><rect fill="#1929f4ff" x="27" y="22" height="1" width="1"/><rect fill="#1f254bff" x="28" y="22" height="1" width="3"/><rect fill="#0d1892ff" x="31" y="22" height="1" width="1"/><rect fill="#0d1892ff" x="4" y="23" height="1" width="1"/><rect fill="#1b1e4bff" x="5" y="23" height="1" width="1"/><rect fill="#1f254bff" x="6" y="23" height="1" width="2"/><rect fill="#1929f4ff" x="8" y="23" height="1" width="1"/><rect fill="#323c7dff" x="9" y="23" height="1" width="17"/><rect fill="#1929f4ff" x="26" y="23" height="1" width="1"/><rect fill="#1f254bff" x="27" y="23" height="1" width="2"/><rect fill="#282d4dff" x="29" y="23" height="1" width="1"/><rect fill="#1f254bff" x="30" y="23" height="1" width="1"/><rect fill="#0d1892ff" x="31" y="23" height="1" width="1"/><rect fill="#0d1892ff" x="4" y="24" height="1" width="1"/><rect fill="#1f254bff" x="5" y="24" height="1" width="2"/><rect fill="#1b1e4bff" x="7" y="24" height="1" width="1"/><rect fill="#1929f4ff" x="8" y="24" height="1" width="1"/><rect fill="#323c7dff" x="9" y="24" height="1" width="3"/><rect fill="#1929f4ff" x="12" y="24" height="1" width="1"/><rect fill="#323c7dff" x="13" y="24" height="1" width="3"/><rect fill="#1929f4ff" x="16" y="24" height="1" width="1"/><rect fill="#323c7dff" x="17" y="24" height="1" width="4"/><rect fill="#1929f4ff" x="21" y="24" height="1" width="1"/><rect fill="#2c327dff" x="22" y="24" height="1" width="1"/><rect fill="#323c7dff" x="23" y="24" height="1" width="3"/><rect fill="#1929f4ff" x="26" y="24" height="1" width="1"/><rect fill="#1f254bff" x="27" y="24" height="1" width="1"/><rect fill="#1b1e4bff" x="28" y="24" height="1" width="1"/><rect fill="#1f254bff" x="29" y="24" height="1" width="2"/><rect fill="#0d1892ff" x="31" y="24" height="1" width="1"/><rect fill="#0d1892ff" x="5" y="25" height="1" width="1"/><rect fill="#1f254bff" x="6" y="25" height="1" width="3"/><rect fill="#1929f4ff" x="9" y="25" height="1" width="1"/><rect fill="#323c7dff" x="10" y="25" height="1" width="3"/><rect fill="#1929f4ff" x="13" y="25" height="1" width="1"/><rect fill="#434b80ff" x="14" y="25" height="1" width="1"/><rect fill="#323c7dff" x="15" y="25" height="1" width="2"/><rect fill="#1929f4ff" x="17" y="25" height="1" width="1"/><rect fill="#434b80ff" x="18" y="25" height="1" width="1"/><rect fill="#323c7dff" x="19" y="25" height="1" width="2"/><rect fill="#1929f4ff" x="21" y="25" height="1" width="1"/><rect fill="#323c7dff" x="22" y="25" height="1" width="3"/><rect fill="#1929f4ff" x="25" y="25" height="1" width="1"/><rect fill="#1f254bff" x="26" y="25" height="1" width="4"/><rect fill="#0d1892ff" x="30" y="25" height="1" width="1"/><rect fill="#0d1892ff" x="5" y="26" height="1" width="1"/><rect fill="#1f254bff" x="6" y="26" height="1" width="2"/><rect fill="#0d1892ff" x="8" y="26" height="1" width="5"/><rect fill="#1929f4ff" x="13" y="26" height="1" width="1"/><rect fill="#434b80ff" x="14" y="26" height="1" width="1"/><rect fill="#323c7dff" x="15" y="26" height="1" width="2"/><rect fill="#1929f4ff" x="17" y="26" height="1" width="1"/><rect fill="#434b80ff" x="18" y="26" height="1" width="1"/><rect fill="#323c7dff" x="19" y="26" height="1" width="2"/><rect fill="#1929f4ff" x="21" y="26" height="1" width="1"/><rect fill="#0d1892ff" x="22" y="26" height="1" width="5"/><rect fill="#1f254bff" x="27" y="26" height="1" width="3"/><rect fill="#0d1892ff" x="30" y="26" height="1" width="1"/><rect fill="#0d1892ff" x="6" y="27" height="1" width="1"/><rect fill="#1f254bff" x="7" y="27" height="1" width="1"/><rect fill="#0d1892ff" x="8" y="27" height="1" width="1"/><rect fill="#1f254bff" x="9" y="27" height="1" width="4"/><rect fill="#1929f4ff" x="13" y="27" height="1" width="1"/><rect fill="#323c7dff" x="14" y="27" height="1" width="3"/><rect fill="#1929f4ff" x="17" y="27" height="1" width="1"/><rect fill="#323c7dff" x="18" y="27" height="1" width="3"/><rect fill="#1929f4ff" x="21" y="27" height="1" width="1"/><rect fill="#1f254bff" x="22" y="27" height="1" width="4"/><rect fill="#0d1892ff" x="26" y="27" height="1" width="1"/><rect fill="#1f254bff" x="27" y="27" height="1" width="2"/><rect fill="#0d1892ff" x="29" y="27" height="1" width="1"/><rect fill="#0d1892ff" x="7" y="28" height="1" width="6"/><rect fill="#1929f4ff" x="13" y="28" height="1" width="9"/><rect fill="#0d1892ff" x="22" y="28" height="1" width="7"/></svg>