<svg xmlns="http://www.w3.org/2000/svg" shape-rendering="crispEdges" version="1.1" viewBox="0 0 36 36" width="360" height="360"><rect fill="#000000ff" x="15" y="4" height="1" width="6"/><rect fill="#000000ff" x="12" y="5" height="1" width="6"/><rect fill="#43c58cff" x="18" y="5" height="1" width="3"/><rect fill="#000000ff" x="21" y="5" height="1" width="1"/><rect fill="#000000ff" x="11" y="6" height="1" width="1"/><rect fill="#ffb310ff" x="12" y="6" height="1" width="6"/><rect fill="#000000ff" x="18" y="6" height="1" width="1"/><rect fill="#43c58cff" x="19" y="6" height="1" width="3"/><rect fill="#000000ff" x="22" y="6" height="1" width="1"/><rect fill="#000000ff" x="10" y="7" height="1" width="1"/><rect fill="#ffb310ff" x="11" y="7" height="1" width="8"/><rect fill="#000000ff" x="19" y="7" height="1" width="1"/><rect fill="#43c58cff" x="20" y="7" height="1" width="3"/><rect fill="#000000ff" x="23" y="7" height="1" width="1"/><rect fill="#000000ff" x="10" y="8" height="1" width="1"/><rect fill="#ffb310ff" x="11" y="8" height="1" width="8"/><rect fill="#000000ff" x="19" y="8" height="1" width="1"/><rect fill="#43c58cff" x="20" y="8" height="1" width="3"/><rect fill="#000000ff" x="23" y="8" height="1" width="1"/><rect fill="#000000ff" x="10" y="9" height="1" width="14"/></svg>