<svg xmlns="http://www.w3.org/2000/svg" shape-rendering="crispEdges" version="1.1" viewBox="0 0 36 36" width="360" height="360"><rect fill="#000000ff" x="12" y="5" height="1" width="1"/><rect fill="#000000ff" x="20" y="5" height="1" width="1"/><rect fill="#000000ff" x="24" y="5" height="1" width="1"/><rect fill="#000000ff" x="13" y="6" height="1" width="1"/><rect fill="#000000ff" x="18" y="6" height="1" width="2"/><rect fill="#000000ff" x="23" y="6" height="1" width="1"/><rect fill="#000000ff" x="25" y="6" height="1" width="1"/><rect fill="#000000ff" x="8" y="7" height="1" width="1"/><rect fill="#000000ff" x="12" y="7" height="1" width="1"/><rect fill="#000000ff" x="17" y="7" height="1" width="1"/><rect fill="#000000ff" x="23" y="7" height="1" width="1"/><rect fill="#000000ff" x="8" y="8" height="1" width="1"/><rect fill="#000000ff" x="13" y="8" height="1" width="1"/><rect fill="#000000ff" x="17" y="8" height="1" width="1"/><rect fill="#000000ff" x="22" y="8" height="1" width="1"/><rect fill="#000000ff" x="9" y="9" height="1" width="1"/><rect fill="#000000ff" x="13" y="9" height="1" width="1"/><rect fill="#000000ff" x="17" y="9" height="1" width="1"/><rect fill="#000000ff" x="22" y="9" height="1" width="1"/><rect fill="#000000ff" x="28" y="9" height="1" width="1"/><rect fill="#000000ff" x="5" y="10" height="1" width="1"/><rect fill="#000000ff" x="10" y="10" height="1" width="1"/><rect fill="#000000ff" x="13" y="10" height="1" width="1"/><rect fill="#000000ff" x="22" y="10" height="1" width="1"/><rect fill="#000000ff" x="28" y="10" height="1" width="1"/><rect fill="#000000ff" x="6" y="11" height="1" width="1"/><rect fill="#000000ff" x="27" y="11" height="1" width="1"/><rect fill="#000000ff" x="6" y="12" height="1" width="1"/><rect fill="#000000ff" x="25" y="12" height="1" width="2"/><rect fill="#000000ff" x="31" y="12" height="1" width="1"/><rect fill="#000000ff" x="7" y="13" height="1" width="1"/><rect fill="#000000ff" x="31" y="13" height="1" width="1"/><rect fill="#000000ff" x="7" y="14" height="1" width="1"/><rect fill="#000000ff" x="28" y="14" height="1" width="1"/><rect fill="#000000ff" x="30" y="14" height="1" width="1"/><rect fill="#000000ff" x="3" y="15" height="1" width="1"/><rect fill="#000000ff" x="25" y="15" height="1" width="3"/><rect fill="#000000ff" x="29" y="15" height="1" width="1"/><rect fill="#000000ff" x="4" y="16" height="1" width="1"/><rect fill="#000000ff" x="4" y="17" height="1" width="3"/><rect fill="#000000ff" x="24" y="18" height="1" width="3"/><rect fill="#000000ff" x="29" y="18" height="1" width="3"/><rect fill="#000000ff" x="28" y="19" height="1" width="1"/><rect fill="#000000ff" x="32" y="19" height="1" width="1"/><rect fill="#000000ff" x="5" y="20" height="1" width="2"/><rect fill="#000000ff" x="4" y="21" height="1" width="1"/><rect fill="#000000ff" x="28" y="21" height="1" width="1"/><rect fill="#000000ff" x="29" y="22" height="1" width="1"/></svg>