<svg xmlns="http://www.w3.org/2000/svg" shape-rendering="crispEdges" version="1.1" viewBox="0 0 36 36" width="360" height="360"><rect fill="#000000ff" x="26" y="2" height="1" width="2"/><rect fill="#000000ff" x="24" y="3" height="1" width="2"/><rect fill="#ff0e0eff" x="26" y="3" height="1" width="1"/><rect fill="#000000ff" x="27" y="3" height="1" width="1"/><rect fill="#000000ff" x="22" y="4" height="1" width="2"/><rect fill="#ff0e0eff" x="24" y="4" height="1" width="3"/><rect fill="#000000ff" x="27" y="4" height="1" width="1"/><rect fill="#000000ff" x="20" y="5" height="1" width="2"/><rect fill="#ff0e0eff" x="22" y="5" height="1" width="5"/><rect fill="#000000ff" x="27" y="5" height="1" width="1"/><rect fill="#000000ff" x="17" y="6" height="1" width="3"/><rect fill="#ff0e0eff" x="20" y="6" height="1" width="7"/><rect fill="#000000ff" x="27" y="6" height="1" width="1"/><rect fill="#000000ff" x="15" y="7" height="1" width="2"/><rect fill="#ff0e0eff" x="17" y="7" height="1" width="10"/><rect fill="#000000ff" x="27" y="7" height="1" width="1"/><rect fill="#000000ff" x="13" y="8" height="1" width="2"/><rect fill="#ff0e0eff" x="15" y="8" height="1" width="11"/><rect fill="#000000ff" x="26" y="8" height="1" width="1"/><rect fill="#000000ff" x="11" y="9" height="1" width="2"/><rect fill="#ff0e0eff" x="13" y="9" height="1" width="13"/><rect fill="#000000ff" x="26" y="9" height="1" width="1"/><rect fill="#000000ff" x="10" y="10" height="1" width="2"/><rect fill="#ff0e0eff" x="12" y="10" height="1" width="14"/><rect fill="#000000ff" x="26" y="10" height="1" width="1"/><rect fill="#000000ff" x="12" y="11" height="1" width="4"/><rect fill="#ff0e0eff" x="16" y="11" height="1" width="10"/><rect fill="#000000ff" x="26" y="11" height="1" width="1"/><rect fill="#000000ff" x="16" y="12" height="1" width="4"/><rect fill="#ff0e0eff" x="20" y="12" height="1" width="6"/><rect fill="#000000ff" x="26" y="12" height="1" width="1"/><rect fill="#000000ff" x="20" y="13" height="1" width="4"/><rect fill="#ff0e0eff" x="24" y="13" height="1" width="2"/><rect fill="#000000ff" x="26" y="13" height="1" width="1"/><rect fill="#000000ff" x="24" y="14" height="1" width="3"/></svg>