<svg xmlns="http://www.w3.org/2000/svg" shape-rendering="crispEdges" version="1.1" viewBox="0 0 36 36" width="360" height="360"><rect fill="#43c58cff" x="11" y="4" height="1" width="1"/><rect fill="#000000ff" x="12" y="4" height="1" width="1"/><rect fill="#43c58cff" x="13" y="4" height="1" width="2"/><rect fill="#000000ff" x="15" y="4" height="1" width="1"/><rect fill="#000000ff" x="8" y="5" height="1" width="1"/><rect fill="#43c58cff" x="9" y="5" height="1" width="3"/><rect fill="#000000ff" x="12" y="5" height="1" width="1"/><rect fill="#43c58cff" x="13" y="5" height="1" width="2"/><rect fill="#000000ff" x="15" y="5" height="1" width="1"/><rect fill="#43c58cff" x="16" y="5" height="1" width="1"/><rect fill="#000000ff" x="17" y="5" height="1" width="1"/><rect fill="#000000ff" x="9" y="6" height="1" width="1"/><rect fill="#43c58cff" x="10" y="6" height="1" width="2"/><rect fill="#000000ff" x="12" y="6" height="1" width="1"/><rect fill="#43c58cff" x="13" y="6" height="1" width="2"/><rect fill="#000000ff" x="15" y="6" height="1" width="1"/><rect fill="#43c58cff" x="16" y="6" height="1" width="1"/><rect fill="#000000ff" x="17" y="6" height="1" width="1"/><rect fill="#43c58cff" x="18" y="6" height="1" width="1"/><rect fill="#000000ff" x="19" y="6" height="1" width="1"/><rect fill="#000000ff" x="10" y="7" height="1" width="1"/><rect fill="#43c58cff" x="11" y="7" height="1" width="2"/><rect fill="#000000ff" x="13" y="7" height="1" width="1"/><rect fill="#43c58cff" x="14" y="7" height="1" width="1"/><rect fill="#000000ff" x="15" y="7" height="1" width="1"/><rect fill="#43c58cff" x="16" y="7" height="1" width="1"/><rect fill="#000000ff" x="17" y="7" height="1" width="1"/><rect fill="#43c58cff" x="18" y="7" height="1" width="1"/><rect fill="#000000ff" x="19" y="7" height="1" width="1"/><rect fill="#43c58cff" x="20" y="7" height="1" width="1"/><rect fill="#000000ff" x="21" y="7" height="1" width="1"/><rect fill="#000000ff" x="11" y="8" height="1" width="1"/><rect fill="#43c58cff" x="12" y="8" height="1" width="1"/><rect fill="#000000ff" x="13" y="8" height="1" width="1"/><rect fill="#43c58cff" x="14" y="8" height="1" width="1"/><rect fill="#000000ff" x="15" y="8" height="1" width="1"/><rect fill="#43c58cff" x="16" y="8" height="1" width="1"/><rect fill="#000000ff" x="17" y="8" height="1" width="1"/><rect fill="#43c58cff" x="18" y="8" height="1" width="1"/><rect fill="#000000ff" x="19" y="8" height="1" width="1"/><rect fill="#43c58cff" x="20" y="8" height="1" width="1"/><rect fill="#000000ff" x="21" y="8" height="1" width="1"/><rect fill="#43c58cff" x="22" y="8" height="1" width="1"/></svg>