<svg xmlns="http://www.w3.org/2000/svg" shape-rendering="crispEdges" version="1.1" viewBox="0 0 36 36" width="360" height="360"><rect fill="#000000ff" x="15" y="4" height="1" width="3"/><rect fill="#000000ff" x="21" y="4" height="1" width="3"/><rect fill="#000000ff" x="14" y="5" height="1" width="1"/><rect fill="#d89537ff" x="15" y="5" height="1" width="3"/><rect fill="#000000ff" x="18" y="5" height="1" width="1"/><rect fill="#000000ff" x="20" y="5" height="1" width="1"/><rect fill="#d89537ff" x="21" y="5" height="1" width="3"/><rect fill="#000000ff" x="24" y="5" height="1" width="1"/><rect fill="#000000ff" x="14" y="6" height="1" width="1"/><rect fill="#d89537ff" x="15" y="6" height="1" width="3"/><rect fill="#000000ff" x="18" y="6" height="1" width="1"/><rect fill="#000000ff" x="20" y="6" height="1" width="1"/><rect fill="#d89537ff" x="21" y="6" height="1" width="3"/><rect fill="#000000ff" x="24" y="6" height="1" width="1"/><rect fill="#000000ff" x="15" y="7" height="1" width="3"/><rect fill="#000000ff" x="21" y="7" height="1" width="3"/><rect fill="#000000ff" x="15" y="8" height="1" width="1"/><rect fill="#f4e299ff" x="16" y="8" height="1" width="1"/><rect fill="#000000ff" x="17" y="8" height="1" width="1"/><rect fill="#000000ff" x="21" y="8" height="1" width="1"/><rect fill="#f4e299ff" x="22" y="8" height="1" width="1"/><rect fill="#000000ff" x="23" y="8" height="1" width="1"/></svg>