<svg xmlns="http://www.w3.org/2000/svg" shape-rendering="crispEdges" version="1.1" viewBox="0 0 36 36" width="360" height="360"><rect fill="#ff7216ff" x="15" y="3" height="1" width="10"/><rect fill="#ff7216ff" x="15" y="4" height="1" width="10"/><rect fill="#ff7216ff" x="13" y="5" height="1" width="12"/><rect fill="#ff7216ff" x="13" y="6" height="1" width="12"/><rect fill="#ff7216ff" x="11" y="7" height="1" width="14"/><rect fill="#ff7216ff" x="11" y="8" height="1" width="14"/><rect fill="#d32a09ff" x="10" y="9" height="1" width="16"/><rect fill="#d32a09ff" x="10" y="10" height="1" width="1"/><rect fill="#ff7216ff" x="11" y="10" height="1" width="2"/><rect fill="#d32a09ff" x="13" y="10" height="1" width="1"/><rect fill="#ff7216ff" x="14" y="10" height="1" width="2"/><rect fill="#d32a09ff" x="16" y="10" height="1" width="1"/><rect fill="#ff7216ff" x="17" y="10" height="1" width="2"/><rect fill="#d32a09ff" x="19" y="10" height="1" width="1"/><rect fill="#ff7216ff" x="20" y="10" height="1" width="2"/><rect fill="#d32a09ff" x="22" y="10" height="1" width="1"/><rect fill="#ff7216ff" x="23" y="10" height="1" width="2"/><rect fill="#d32a09ff" x="25" y="10" height="1" width="1"/></svg>