<svg xmlns="http://www.w3.org/2000/svg" shape-rendering="crispEdges" version="1.1" viewBox="0 0 36 36" width="360" height="360"><rect fill="#f38b7cff" x="13" y="7" height="1" width="2"/><rect fill="#f38b7cff" x="16" y="7" height="1" width="2"/><rect fill="#f38b7cff" x="19" y="7" height="1" width="2"/><rect fill="#f38b7cff" x="22" y="7" height="1" width="2"/><rect fill="#f38b7cff" x="12" y="8" height="1" width="2"/><rect fill="#b03937ff" x="14" y="8" height="1" width="1"/><rect fill="#f38b7cff" x="15" y="8" height="1" width="2"/><rect fill="#b03937ff" x="17" y="8" height="1" width="1"/><rect fill="#f38b7cff" x="18" y="8" height="1" width="1"/><rect fill="#b03937ff" x="19" y="8" height="1" width="1"/><rect fill="#f38b7cff" x="20" y="8" height="1" width="1"/><rect fill="#b03937ff" x="21" y="8" height="1" width="2"/><rect fill="#f38b7cff" x="23" y="8" height="1" width="2"/><rect fill="#f38b7cff" x="11" y="9" height="1" width="1"/><rect fill="#b03937ff" x="12" y="9" height="1" width="1"/><rect fill="#f38b7cff" x="13" y="9" height="1" width="2"/><rect fill="#b03937ff" x="15" y="9" height="1" width="1"/><rect fill="#f38b7cff" x="16" y="9" height="1" width="3"/><rect fill="#b03937ff" x="19" y="9" height="1" width="1"/><rect fill="#f38b7cff" x="20" y="9" height="1" width="2"/><rect fill="#b03937ff" x="22" y="9" height="1" width="1"/><rect fill="#f38b7cff" x="23" y="9" height="1" width="1"/><rect fill="#b03937ff" x="24" y="9" height="1" width="1"/><rect fill="#f38b7cff" x="25" y="9" height="1" width="1"/><rect fill="#000000ff" x="11" y="10" height="1" width="15"/></svg>