<svg xmlns="http://www.w3.org/2000/svg" shape-rendering="crispEdges" version="1.1" viewBox="0 0 36 36" width="360" height="360"><rect fill="#fbf0dfff" x="11" y="2" height="1" width="1"/><rect fill="#fbf0dfff" x="10" y="3" height="1" width="1"/><rect fill="#fbf0dfff" x="17" y="3" height="1" width="1"/><rect fill="#fbf0dfff" x="22" y="3" height="1" width="1"/><rect fill="#fbf0dfff" x="11" y="4" height="1" width="2"/><rect fill="#fbf0dfff" x="16" y="4" height="1" width="1"/><rect fill="#fbf0dfff" x="22" y="4" height="1" width="1"/><rect fill="#fbf0dfff" x="7" y="5" height="1" width="1"/><rect fill="#fbf0dfff" x="11" y="5" height="1" width="6"/><rect fill="#fbf0dfff" x="23" y="5" height="1" width="2"/><rect fill="#fbf0dfff" x="7" y="6" height="1" width="2"/><rect fill="#fbf0dfff" x="13" y="6" height="1" width="5"/><rect fill="#fbf0dfff" x="19" y="6" height="1" width="1"/><rect fill="#fbf0dfff" x="21" y="6" height="1" width="4"/><rect fill="#fbf0dfff" x="8" y="7" height="1" width="19"/><rect fill="#fbf0dfff" x="7" y="8" height="1" width="21"/><rect fill="#fbf0dfff" x="6" y="9" height="1" width="24"/><rect fill="#fbf0dfff" x="8" y="10" height="1" width="20"/><rect fill="#fbf0dfff" x="5" y="11" height="1" width="1"/><rect fill="#fbf0dfff" x="8" y="11" height="1" width="3"/><rect fill="#fbf0dfff" x="16" y="11" height="1" width="1"/><rect fill="#fbf0dfff" x="24" y="11" height="1" width="5"/><rect fill="#fbf0dfff" x="31" y="11" height="1" width="1"/><rect fill="#fbf0dfff" x="6" y="12" height="1" width="1"/><rect fill="#fbf0dfff" x="8" y="12" height="1" width="2"/><rect fill="#fbf0dfff" x="15" y="12" height="1" width="2"/><rect fill="#fbf0dfff" x="26" y="12" height="1" width="5"/><rect fill="#fbf0dfff" x="7" y="13" height="1" width="2"/><rect fill="#fbf0dfff" x="27" y="13" height="1" width="3"/><rect fill="#fbf0dfff" x="28" y="14" height="1" width="1"/><rect fill="#fbf0dfff" x="29" y="15" height="1" width="1"/></svg>