<svg xmlns="http://www.w3.org/2000/svg" shape-rendering="crispEdges" version="1.1" viewBox="0 0 36 36" width="360" height="360"><rect fill="#a65238ff" x="27" y="2" height="1" width="1"/><rect fill="#a65238ff" x="26" y="3" height="1" width="1"/><rect fill="#a65238ff" x="10" y="4" height="1" width="16"/><rect fill="#a65238ff" x="9" y="5" height="1" width="19"/><rect fill="#a65238ff" x="8" y="6" height="1" width="21"/><rect fill="#f58f79ff" x="8" y="7" height="1" width="1"/><rect fill="#a65238ff" x="9" y="7" height="1" width="3"/><rect fill="#f58f79ff" x="12" y="7" height="1" width="1"/><rect fill="#a65238ff" x="13" y="7" height="1" width="2"/><rect fill="#000000ff" x="15" y="7" height="1" width="1"/><rect fill="#a65238ff" x="16" y="7" height="1" width="2"/><rect fill="#000000ff" x="18" y="7" height="1" width="1"/><rect fill="#f58f79ff" x="19" y="7" height="1" width="1"/><rect fill="#a65238ff" x="20" y="7" height="1" width="2"/><rect fill="#000000ff" x="22" y="7" height="1" width="1"/><rect fill="#a65238ff" x="23" y="7" height="1" width="1"/><rect fill="#f58f79ff" x="24" y="7" height="1" width="1"/><rect fill="#a65238ff" x="25" y="7" height="1" width="4"/><rect fill="#f58f79ff" x="7" y="8" height="1" width="2"/><rect fill="#a65238ff" x="9" y="8" height="1" width="1"/><rect fill="#f58f79ff" x="10" y="8" height="1" width="3"/><rect fill="#a65238ff" x="13" y="8" height="1" width="1"/><rect fill="#000000ff" x="14" y="8" height="1" width="1"/><rect fill="#a65238ff" x="15" y="8" height="1" width="2"/><rect fill="#000000ff" x="17" y="8" height="1" width="1"/><rect fill="#f58f79ff" x="18" y="8" height="1" width="2"/><rect fill="#a65238ff" x="20" y="8" height="1" width="1"/><rect fill="#000000ff" x="21" y="8" height="1" width="1"/><rect fill="#f58f79ff" x="22" y="8" height="1" width="3"/><rect fill="#a65238ff" x="25" y="8" height="1" width="1"/><rect fill="#000000ff" x="26" y="8" height="1" width="1"/><rect fill="#a65238ff" x="27" y="8" height="1" width="1"/><rect fill="#f58f79ff" x="28" y="8" height="1" width="2"/><rect fill="#a65238ff" x="7" y="9" height="1" width="2"/><rect fill="#000000ff" x="9" y="9" height="1" width="1"/><rect fill="#a65238ff" x="10" y="9" height="1" width="4"/><rect fill="#000000ff" x="14" y="9" height="1" width="1"/><rect fill="#a65238ff" x="15" y="9" height="1" width="1"/><rect fill="#000000ff" x="17" y="9" height="1" width="1"/><rect fill="#a65238ff" x="18" y="9" height="1" width="3"/><rect fill="#000000ff" x="21" y="9" height="1" width="1"/><rect fill="#a65238ff" x="22" y="9" height="1" width="4"/><rect fill="#000000ff" x="26" y="9" height="1" width="1"/><rect fill="#a65238ff" x="27" y="9" height="1" width="3"/><rect fill="#a65238ff" x="8" y="10" height="1" width="1"/><rect fill="#000000ff" x="9" y="10" height="1" width="1"/><rect fill="#a65238ff" x="10" y="10" height="1" width="4"/><rect fill="#000000ff" x="14" y="10" height="1" width="1"/><rect fill="#a65238ff" x="15" y="10" height="1" width="1"/><rect fill="#000000ff" x="17" y="10" height="1" width="1"/><rect fill="#a65238ff" x="18" y="10" height="1" width="3"/><rect fill="#a65238ff" x="22" y="10" height="1" width="2"/><rect fill="#a65238ff" x="25" y="10" height="1" width="1"/><rect fill="#000000ff" x="26" y="10" height="1" width="1"/><rect fill="#a65238ff" x="27" y="10" height="1" width="3"/><rect fill="#000000ff" x="26" y="11" height="1" width="1"/><rect fill="#a65238ff" x="27" y="11" height="1" width="2"/></svg>