<svg xmlns="http://www.w3.org/2000/svg" shape-rendering="crispEdges" version="1.1" viewBox="0 0 36 36" width="360" height="360"><rect fill="#fff0eeff" x="13" y="1" height="1" width="4"/><rect fill="#c54e38ff" x="17" y="1" height="1" width="3"/><rect fill="#c54e38ff" x="11" y="2" height="1" width="1"/><rect fill="#fff0eeff" x="12" y="2" height="1" width="5"/><rect fill="#c54e38ff" x="17" y="2" height="1" width="6"/><rect fill="#c54e38ff" x="9" y="3" height="1" width="3"/><rect fill="#fff0eeff" x="12" y="3" height="1" width="5"/><rect fill="#c54e38ff" x="17" y="3" height="1" width="6"/><rect fill="#fff0eeff" x="23" y="3" height="1" width="2"/><rect fill="#fff0eeff" x="8" y="4" height="1" width="2"/><rect fill="#c54e38ff" x="10" y="4" height="1" width="3"/><rect fill="#fff0eeff" x="13" y="4" height="1" width="3"/><rect fill="#c54e38ff" x="16" y="4" height="1" width="3"/><rect fill="#fff0eeff" x="19" y="4" height="1" width="1"/><rect fill="#c54e38ff" x="20" y="4" height="1" width="4"/><rect fill="#fff0eeff" x="24" y="4" height="1" width="1"/><rect fill="#c54e38ff" x="25" y="4" height="1" width="2"/><rect fill="#fff0eeff" x="8" y="5" height="1" width="2"/><rect fill="#c54e38ff" x="10" y="5" height="1" width="18"/><rect fill="#c54e38ff" x="8" y="6" height="1" width="21"/><rect fill="#c54e38ff" x="8" y="7" height="1" width="12"/><rect fill="#fff0eeff" x="20" y="7" height="1" width="4"/><rect fill="#c54e38ff" x="24" y="7" height="1" width="4"/><rect fill="#fff0eeff" x="28" y="7" height="1" width="1"/><rect fill="#c54e38ff" x="9" y="8" height="1" width="3"/><rect fill="#fff0eeff" x="12" y="8" height="1" width="2"/><rect fill="#c54e38ff" x="14" y="8" height="1" width="5"/><rect fill="#fff0eeff" x="19" y="8" height="1" width="6"/><rect fill="#c54e38ff" x="25" y="8" height="1" width="3"/><rect fill="#fff0eeff" x="28" y="8" height="1" width="1"/><rect fill="#000000ff" x="10" y="9" height="1" width="14"/><rect fill="#fff0eeff" x="24" y="9" height="1" width="1"/><rect fill="#c54e38ff" x="25" y="9" height="1" width="3"/><rect fill="#fff0eeff" x="28" y="9" height="1" width="1"/><rect fill="#c54e38ff" x="25" y="10" height="1" width="4"/><rect fill="#c54e38ff" x="26" y="11" height="1" width="2"/></svg>