<svg xmlns="http://www.w3.org/2000/svg" shape-rendering="crispEdges" version="1.1" viewBox="0 0 36 36" width="360" height="360"><rect fill="#000000ff" x="12" y="2" height="1" width="1"/><rect fill="#000000ff" x="17" y="2" height="1" width="1"/><rect fill="#000000ff" x="19" y="2" height="1" width="1"/><rect fill="#000000ff" x="21" y="2" height="1" width="1"/><rect fill="#000000ff" x="9" y="3" height="1" width="1"/><rect fill="#000000ff" x="12" y="3" height="1" width="1"/><rect fill="#000000ff" x="17" y="3" height="1" width="1"/><rect fill="#f4e299ff" x="18" y="3" height="1" width="1"/><rect fill="#000000ff" x="19" y="3" height="1" width="1"/><rect fill="#f4e299ff" x="20" y="3" height="1" width="1"/><rect fill="#000000ff" x="21" y="3" height="1" width="1"/><rect fill="#000000ff" x="9" y="4" height="1" width="1"/><rect fill="#000000ff" x="12" y="4" height="1" width="1"/><rect fill="#000000ff" x="17" y="4" height="1" width="1"/><rect fill="#f4e299ff" x="18" y="4" height="1" width="1"/><rect fill="#000000ff" x="19" y="4" height="1" width="1"/><rect fill="#f4e299ff" x="20" y="4" height="1" width="1"/><rect fill="#000000ff" x="21" y="4" height="1" width="1"/><rect fill="#000000ff" x="26" y="4" height="1" width="1"/><rect fill="#f4e299ff" x="27" y="4" height="1" width="1"/><rect fill="#000000ff" x="10" y="5" height="1" width="1"/><rect fill="#000000ff" x="13" y="5" height="1" width="1"/><rect fill="#000000ff" x="17" y="5" height="1" width="1"/><rect fill="#f4e299ff" x="18" y="5" height="1" width="3"/><rect fill="#000000ff" x="21" y="5" height="1" width="1"/><rect fill="#000000ff" x="25" y="5" height="1" width="1"/><rect fill="#f4e299ff" x="26" y="5" height="1" width="3"/><rect fill="#000000ff" x="7" y="6" height="1" width="1"/><rect fill="#000000ff" x="10" y="6" height="1" width="1"/><rect fill="#000000ff" x="13" y="6" height="1" width="1"/><rect fill="#000000ff" x="17" y="6" height="1" width="1"/><rect fill="#f4e299ff" x="18" y="6" height="1" width="2"/><rect fill="#000000ff" x="20" y="6" height="1" width="1"/><rect fill="#000000ff" x="24" y="6" height="1" width="1"/><rect fill="#f4e299ff" x="25" y="6" height="1" width="3"/><rect fill="#000000ff" x="28" y="6" height="1" width="1"/><rect fill="#f4e299ff" x="7" y="7" height="1" width="1"/><rect fill="#000000ff" x="8" y="7" height="1" width="1"/><rect fill="#000000ff" x="11" y="7" height="1" width="1"/><rect fill="#000000ff" x="14" y="7" height="1" width="1"/><rect fill="#000000ff" x="16" y="7" height="1" width="1"/><rect fill="#f4e299ff" x="17" y="7" height="1" width="2"/><rect fill="#000000ff" x="19" y="7" height="1" width="1"/><rect fill="#000000ff" x="23" y="7" height="1" width="1"/><rect fill="#f4e299ff" x="24" y="7" height="1" width="3"/><rect fill="#000000ff" x="27" y="7" height="1" width="1"/><rect fill="#f4e299ff" x="28" y="7" height="1" width="2"/><rect fill="#000000ff" x="6" y="8" height="1" width="1"/><rect fill="#f4e299ff" x="7" y="8" height="1" width="2"/><rect fill="#000000ff" x="9" y="8" height="1" width="1"/><rect fill="#000000ff" x="12" y="8" height="1" width="1"/><rect fill="#000000ff" x="14" y="8" height="1" width="1"/><rect fill="#000000ff" x="16" y="8" height="1" width="1"/><rect fill="#f4e299ff" x="17" y="8" height="1" width="2"/><rect fill="#000000ff" x="19" y="8" height="1" width="1"/><rect fill="#000000ff" x="22" y="8" height="1" width="1"/><rect fill="#f4e299ff" x="23" y="8" height="1" width="3"/><rect fill="#000000ff" x="26" y="8" height="1" width="1"/><rect fill="#f4e299ff" x="27" y="8" height="1" width="3"/><rect fill="#000000ff" x="7" y="9" height="1" width="1"/><rect fill="#f4e299ff" x="8" y="9" height="1" width="2"/><rect fill="#000000ff" x="10" y="9" height="1" width="1"/><rect fill="#000000ff" x="17" y="9" height="1" width="2"/><rect fill="#000000ff" x="23" y="9" height="1" width="1"/><rect fill="#f4e299ff" x="24" y="9" height="1" width="1"/><rect fill="#000000ff" x="25" y="9" height="1" width="1"/><rect fill="#f4e299ff" x="26" y="9" height="1" width="5"/><rect fill="#f4e299ff" x="8" y="10" height="1" width="3"/><rect fill="#000000ff" x="11" y="10" height="1" width="1"/><rect fill="#000000ff" x="24" y="10" height="1" width="1"/><rect fill="#f4e299ff" x="25" y="10" height="1" width="3"/><rect fill="#000000ff" x="28" y="10" height="1" width="3"/><rect fill="#000000ff" x="7" y="11" height="1" width="4"/><rect fill="#000000ff" x="25" y="11" height="1" width="3"/></svg>