<svg xmlns="http://www.w3.org/2000/svg" shape-rendering="crispEdges" version="1.1" viewBox="0 0 36 36" width="360" height="360"><rect fill="#1d2952ff" x="14" y="3" height="1" width="1"/><rect fill="#2b162aff" x="15" y="3" height="1" width="1"/><rect fill="#1d2952ff" x="16" y="3" height="1" width="1"/><rect fill="#2b162aff" x="17" y="3" height="1" width="1"/><rect fill="#1d2952ff" x="18" y="3" height="1" width="1"/><rect fill="#2b162aff" x="19" y="3" height="1" width="1"/><rect fill="#1d2952ff" x="20" y="3" height="1" width="1"/><rect fill="#2b162aff" x="21" y="3" height="1" width="1"/><rect fill="#1d2952ff" x="14" y="4" height="1" width="1"/><rect fill="#2b162aff" x="15" y="4" height="1" width="1"/><rect fill="#1d2952ff" x="16" y="4" height="1" width="1"/><rect fill="#2b162aff" x="17" y="4" height="1" width="1"/><rect fill="#1d2952ff" x="18" y="4" height="1" width="1"/><rect fill="#2b162aff" x="19" y="4" height="1" width="1"/><rect fill="#1d2952ff" x="20" y="4" height="1" width="1"/><rect fill="#2b162aff" x="21" y="4" height="1" width="1"/><rect fill="#2b162aff" x="14" y="5" height="1" width="8"/><rect fill="#2b162aff" x="13" y="6" height="1" width="10"/><rect fill="#1d2952ff" x="12" y="7" height="1" width="12"/><rect fill="#2b162aff" x="11" y="8" height="1" width="14"/><rect fill="#2b162aff" x="11" y="9" height="1" width="14"/></svg>