<svg xmlns="http://www.w3.org/2000/svg" shape-rendering="crispEdges" version="1.1" viewBox="0 0 36 36" width="360" height="360"><rect fill="#008080ff" x="13" y="3" height="1" width="7"/><rect fill="#008080ff" x="12" y="4" height="1" width="2"/><rect fill="#3fbdacff" x="14" y="4" height="1" width="2"/><rect fill="#008080ff" x="16" y="4" height="1" width="5"/><rect fill="#008080ff" x="11" y="5" height="1" width="3"/><rect fill="#3fbdacff" x="14" y="5" height="1" width="2"/><rect fill="#008080ff" x="16" y="5" height="1" width="6"/><rect fill="#008080ff" x="11" y="6" height="1" width="1"/><rect fill="#3fbdacff" x="12" y="6" height="1" width="2"/><rect fill="#008080ff" x="14" y="6" height="1" width="9"/><rect fill="#008080ff" x="11" y="7" height="1" width="1"/><rect fill="#3fbdacff" x="12" y="7" height="1" width="2"/><rect fill="#008080ff" x="14" y="7" height="1" width="9"/><rect fill="#008080ff" x="11" y="8" height="1" width="18"/><rect fill="#008080ff" x="11" y="9" height="1" width="16"/></svg>