<svg xmlns="http://www.w3.org/2000/svg" shape-rendering="crispEdges" version="1.1" viewBox="0 0 36 36" width="360" height="360"><rect fill="#000000ff" x="9" y="12" height="1" width="5"/><rect fill="#ff0e0eff" x="14" y="12" height="1" width="1"/><rect fill="#000000ff" x="15" y="12" height="1" width="5"/><rect fill="#ff0e0eff" x="20" y="12" height="1" width="1"/><rect fill="#000000ff" x="21" y="12" height="1" width="5"/><rect fill="#000000ff" x="11" y="13" height="1" width="2"/><rect fill="#ffe330ff" x="13" y="13" height="1" width="1"/><rect fill="#000000ff" x="14" y="13" height="1" width="2"/><rect fill="#000000ff" x="17" y="13" height="1" width="2"/><rect fill="#ffe330ff" x="19" y="13" height="1" width="1"/><rect fill="#000000ff" x="20" y="13" height="1" width="2"/><rect fill="#70cce4ff" x="12" y="14" height="1" width="1"/><rect fill="#000000ff" x="13" y="14" height="1" width="2"/><rect fill="#70cce4ff" x="18" y="14" height="1" width="1"/><rect fill="#000000ff" x="19" y="14" height="1" width="2"/></svg>