<svg xmlns="http://www.w3.org/2000/svg" shape-rendering="crispEdges" version="1.1" viewBox="0 0 36 36" width="360" height="360"><rect fill="#08030dff" x="8" y="11" height="1" width="20"/><rect fill="#08030dff" x="8" y="12" height="1" width="3"/><rect fill="#fff0eeff" x="11" y="12" height="1" width="3"/><rect fill="#949ddaff" x="14" y="12" height="1" width="2"/><rect fill="#08030dff" x="16" y="12" height="1" width="1"/><rect fill="#fff0eeff" x="17" y="12" height="1" width="3"/><rect fill="#949ddaff" x="20" y="12" height="1" width="2"/><rect fill="#08030dff" x="22" y="12" height="1" width="6"/><rect fill="#08030dff" x="7" y="13" height="1" width="4"/><rect fill="#fff0eeff" x="11" y="13" height="1" width="3"/><rect fill="#949ddaff" x="14" y="13" height="1" width="2"/><rect fill="#08030dff" x="16" y="13" height="1" width="1"/><rect fill="#fff0eeff" x="17" y="13" height="1" width="3"/><rect fill="#949ddaff" x="20" y="13" height="1" width="2"/><rect fill="#08030dff" x="22" y="13" height="1" width="6"/><rect fill="#08030dff" x="7" y="14" height="1" width="21"/></svg>