<svg xmlns="http://www.w3.org/2000/svg" shape-rendering="crispEdges" version="1.1" viewBox="0 0 36 36" width="360" height="360"><rect fill="#000000ff" x="11" y="10" height="1" width="4"/><rect fill="#000000ff" x="18" y="10" height="1" width="4"/><rect fill="#000000ff" x="10" y="11" height="1" width="1"/><rect fill="#ffffffff" x="11" y="11" height="1" width="4"/><rect fill="#000000ff" x="15" y="11" height="1" width="1"/><rect fill="#000000ff" x="17" y="11" height="1" width="1"/><rect fill="#ffffffff" x="18" y="11" height="1" width="4"/><rect fill="#000000ff" x="22" y="11" height="1" width="1"/><rect fill="#000000ff" x="10" y="12" height="1" width="1"/><rect fill="#ffffffff" x="11" y="12" height="1" width="1"/><rect fill="#000000ff" x="12" y="12" height="1" width="2"/><rect fill="#ffffffff" x="14" y="12" height="1" width="1"/><rect fill="#000000ff" x="15" y="12" height="1" width="1"/><rect fill="#000000ff" x="17" y="12" height="1" width="1"/><rect fill="#ffffffff" x="18" y="12" height="1" width="1"/><rect fill="#000000ff" x="19" y="12" height="1" width="2"/><rect fill="#ffffffff" x="21" y="12" height="1" width="1"/><rect fill="#000000ff" x="22" y="12" height="1" width="1"/><rect fill="#000000ff" x="10" y="13" height="1" width="1"/><rect fill="#688679ff" x="11" y="13" height="1" width="4"/><rect fill="#000000ff" x="15" y="13" height="1" width="1"/><rect fill="#000000ff" x="17" y="13" height="1" width="1"/><rect fill="#688679ff" x="18" y="13" height="1" width="4"/><rect fill="#000000ff" x="22" y="13" height="1" width="1"/><rect fill="#000000ff" x="11" y="14" height="1" width="4"/><rect fill="#000000ff" x="18" y="14" height="1" width="4"/></svg>