<svg xmlns="http://www.w3.org/2000/svg" shape-rendering="crispEdges" version="1.1" viewBox="0 0 36 36" width="360" height="360"><rect fill="#000000ff" x="10" y="10" height="1" width="6"/><rect fill="#000000ff" x="17" y="10" height="1" width="6"/><rect fill="#000000ff" x="10" y="11" height="1" width="1"/><rect fill="#d8d9e6ff" x="11" y="11" height="1" width="1"/><rect fill="#6c5c9cff" x="12" y="11" height="1" width="1"/><rect fill="#322850ff" x="13" y="11" height="1" width="2"/><rect fill="#000000ff" x="15" y="11" height="1" width="1"/><rect fill="#000000ff" x="17" y="11" height="1" width="1"/><rect fill="#d8d9e6ff" x="18" y="11" height="1" width="1"/><rect fill="#322850ff" x="19" y="11" height="1" width="2"/><rect fill="#a7a0f3ff" x="21" y="11" height="1" width="1"/><rect fill="#000000ff" x="22" y="11" height="1" width="1"/><rect fill="#000000ff" x="9" y="12" height="1" width="2"/><rect fill="#a7a0f3ff" x="11" y="12" height="1" width="1"/><rect fill="#6c5c9cff" x="12" y="12" height="1" width="1"/><rect fill="#322850ff" x="13" y="12" height="1" width="2"/><rect fill="#000000ff" x="15" y="12" height="1" width="3"/><rect fill="#6c5c9cff" x="18" y="12" height="1" width="1"/><rect fill="#322850ff" x="19" y="12" height="1" width="2"/><rect fill="#a7a0f3ff" x="21" y="12" height="1" width="1"/><rect fill="#000000ff" x="22" y="12" height="1" width="5"/><rect fill="#000000ff" x="10" y="13" height="1" width="1"/><rect fill="#a7a0f3ff" x="11" y="13" height="1" width="1"/><rect fill="#9675c2ff" x="12" y="13" height="1" width="2"/><rect fill="#d8d9e6ff" x="14" y="13" height="1" width="1"/><rect fill="#000000ff" x="15" y="13" height="1" width="1"/><rect fill="#000000ff" x="17" y="13" height="1" width="1"/><rect fill="#9675c2ff" x="18" y="13" height="1" width="3"/><rect fill="#d8d9e6ff" x="21" y="13" height="1" width="1"/><rect fill="#000000ff" x="22" y="13" height="1" width="1"/><rect fill="#000000ff" x="10" y="14" height="1" width="6"/><rect fill="#000000ff" x="17" y="14" height="1" width="6"/></svg>