<svg xmlns="http://www.w3.org/2000/svg" shape-rendering="crispEdges" version="1.1" viewBox="0 0 36 36" width="360" height="360"><rect fill="#000000ff" x="23" y="2" height="1" width="2"/><rect fill="#000000ff" x="22" y="3" height="1" width="1"/><rect fill="#464646ff" x="23" y="3" height="1" width="2"/><rect fill="#000000ff" x="25" y="3" height="1" width="1"/><rect fill="#000000ff" x="22" y="4" height="1" width="1"/><rect fill="#464646ff" x="23" y="4" height="1" width="2"/><rect fill="#000000ff" x="25" y="4" height="1" width="1"/><rect fill="#000000ff" x="17" y="5" height="1" width="5"/><rect fill="#464646ff" x="22" y="5" height="1" width="3"/><rect fill="#000000ff" x="25" y="5" height="1" width="1"/><rect fill="#000000ff" x="11" y="6" height="1" width="6"/><rect fill="#464646ff" x="17" y="6" height="1" width="7"/><rect fill="#000000ff" x="24" y="6" height="1" width="2"/><rect fill="#000000ff" x="9" y="7" height="1" width="2"/><rect fill="#464646ff" x="11" y="7" height="1" width="15"/><rect fill="#000000ff" x="26" y="7" height="1" width="1"/><rect fill="#000000ff" x="7" y="8" height="1" width="2"/><rect fill="#464646ff" x="9" y="8" height="1" width="18"/><rect fill="#000000ff" x="27" y="8" height="1" width="1"/><rect fill="#000000ff" x="6" y="9" height="1" width="1"/><rect fill="#464646ff" x="7" y="9" height="1" width="21"/><rect fill="#000000ff" x="28" y="9" height="1" width="1"/><rect fill="#000000ff" x="5" y="10" height="1" width="1"/><rect fill="#464646ff" x="6" y="10" height="1" width="2"/><rect fill="#000000ff" x="8" y="10" height="1" width="1"/><rect fill="#464646ff" x="9" y="10" height="1" width="16"/><rect fill="#000000ff" x="25" y="10" height="1" width="1"/><rect fill="#464646ff" x="26" y="10" height="1" width="3"/><rect fill="#000000ff" x="29" y="10" height="1" width="1"/><rect fill="#000000ff" x="4" y="11" height="1" width="1"/><rect fill="#464646ff" x="5" y="11" height="1" width="19"/><rect fill="#000000ff" x="24" y="11" height="1" width="1"/><rect fill="#464646ff" x="25" y="11" height="1" width="5"/><rect fill="#000000ff" x="30" y="11" height="1" width="1"/><rect fill="#000000ff" x="4" y="12" height="1" width="1"/><rect fill="#464646ff" x="5" y="12" height="1" width="3"/><rect fill="#000000ff" x="8" y="12" height="1" width="15"/><rect fill="#464646ff" x="23" y="12" height="1" width="3"/><rect fill="#000000ff" x="26" y="12" height="1" width="1"/><rect fill="#464646ff" x="27" y="12" height="1" width="3"/><rect fill="#000000ff" x="30" y="12" height="1" width="1"/><rect fill="#7d7d7dff" x="31" y="12" height="1" width="2"/><rect fill="#000000ff" x="4" y="13" height="1" width="1"/><rect fill="#464646ff" x="5" y="13" height="1" width="2"/><rect fill="#000000ff" x="7" y="13" height="1" width="4"/><rect fill="#000000ff" x="16" y="13" height="1" width="1"/><rect fill="#000000ff" x="22" y="13" height="1" width="2"/><rect fill="#464646ff" x="24" y="13" height="1" width="7"/><rect fill="#000000ff" x="31" y="13" height="1" width="1"/><rect fill="#000000ff" x="5" y="14" height="1" width="21"/><rect fill="#464646ff" x="26" y="14" height="1" width="4"/><rect fill="#000000ff" x="30" y="14" height="1" width="1"/><rect fill="#000000ff" x="4" y="15" height="1" width="1"/><rect fill="#464646ff" x="5" y="15" height="1" width="1"/><rect fill="#000000ff" x="6" y="15" height="1" width="22"/><rect fill="#464646ff" x="28" y="15" height="1" width="3"/><rect fill="#000000ff" x="31" y="15" height="1" width="1"/><rect fill="#000000ff" x="5" y="16" height="1" width="1"/><rect fill="#464646ff" x="6" y="16" height="1" width="1"/><rect fill="#000000ff" x="7" y="16" height="1" width="2"/><rect fill="#000000ff" x="24" y="16" height="1" width="5"/><rect fill="#464646ff" x="29" y="16" height="1" width="1"/><rect fill="#000000ff" x="30" y="16" height="1" width="1"/><rect fill="#000000ff" x="4" y="17" height="1" width="1"/><rect fill="#464646ff" x="5" y="17" height="1" width="3"/><rect fill="#000000ff" x="8" y="17" height="1" width="2"/><rect fill="#000000ff" x="23" y="17" height="1" width="5"/><rect fill="#464646ff" x="28" y="17" height="1" width="3"/><rect fill="#000000ff" x="31" y="17" height="1" width="1"/><rect fill="#000000ff" x="4" y="18" height="1" width="1"/><rect fill="#464646ff" x="5" y="18" height="1" width="4"/><rect fill="#000000ff" x="9" y="18" height="1" width="15"/><rect fill="#464646ff" x="24" y="18" height="1" width="7"/><rect fill="#000000ff" x="31" y="18" height="1" width="1"/><rect fill="#7d7d7dff" x="32" y="18" height="1" width="2"/><rect fill="#7d7d7dff" x="2" y="19" height="1" width="2"/><rect fill="#000000ff" x="4" y="19" height="1" width="1"/><rect fill="#464646ff" x="5" y="19" height="1" width="10"/><rect fill="#000000ff" x="15" y="19" height="1" width="5"/><rect fill="#464646ff" x="20" y="19" height="1" width="7"/><rect fill="#000000ff" x="27" y="19" height="1" width="1"/><rect fill="#464646ff" x="28" y="19" height="1" width="3"/><rect fill="#000000ff" x="31" y="19" height="1" width="1"/><rect fill="#7d7d7dff" x="32" y="19" height="1" width="2"/><rect fill="#7d7d7dff" x="2" y="20" height="1" width="2"/><rect fill="#000000ff" x="4" y="20" height="1" width="1"/><rect fill="#464646ff" x="5" y="20" height="1" width="3"/><rect fill="#000000ff" x="8" y="20" height="1" width="1"/><rect fill="#464646ff" x="9" y="20" height="1" width="8"/><rect fill="#000000ff" x="17" y="20" height="1" width="1"/><rect fill="#464646ff" x="18" y="20" height="1" width="8"/><rect fill="#000000ff" x="26" y="20" height="1" width="1"/><rect fill="#464646ff" x="27" y="20" height="1" width="4"/><rect fill="#000000ff" x="31" y="20" height="1" width="1"/><rect fill="#7d7d7dff" x="32" y="20" height="1" width="2"/><rect fill="#7d7d7dff" x="1" y="21" height="1" width="3"/><rect fill="#000000ff" x="4" y="21" height="1" width="1"/><rect fill="#464646ff" x="5" y="21" height="1" width="4"/><rect fill="#000000ff" x="9" y="21" height="1" width="1"/><rect fill="#464646ff" x="10" y="21" height="1" width="4"/><rect fill="#000000ff" x="14" y="21" height="1" width="1"/><rect fill="#464646ff" x="15" y="21" height="1" width="5"/><rect fill="#000000ff" x="20" y="21" height="1" width="1"/><rect fill="#464646ff" x="21" y="21" height="1" width="5"/><rect fill="#000000ff" x="26" y="21" height="1" width="1"/><rect fill="#464646ff" x="27" y="21" height="1" width="3"/><rect fill="#000000ff" x="30" y="21" height="1" width="2"/><rect fill="#7d7d7dff" x="32" y="21" height="1" width="1"/><rect fill="#7d7d7dff" x="1" y="22" height="1" width="3"/><rect fill="#000000ff" x="4" y="22" height="1" width="1"/><rect fill="#464646ff" x="5" y="22" height="1" width="4"/><rect fill="#000000ff" x="9" y="22" height="1" width="1"/><rect fill="#464646ff" x="10" y="22" height="1" width="5"/><rect fill="#000000ff" x="15" y="22" height="1" width="1"/><rect fill="#464646ff" x="16" y="22" height="1" width="1"/><rect fill="#000000ff" x="17" y="22" height="1" width="1"/><rect fill="#464646ff" x="18" y="22" height="1" width="1"/><rect fill="#000000ff" x="19" y="22" height="1" width="1"/><rect fill="#464646ff" x="20" y="22" height="1" width="6"/><rect fill="#000000ff" x="26" y="22" height="1" width="1"/><rect fill="#464646ff" x="27" y="22" height="1" width="3"/><rect fill="#707070ff" x="30" y="22" height="1" width="1"/><rect fill="#464646ff" x="31" y="22" height="1" width="1"/><rect fill="#959595ff" x="32" y="22" height="1" width="2"/><rect fill="#7d7d7dff" x="1" y="23" height="1" width="3"/><rect fill="#000000ff" x="4" y="23" height="1" width="1"/><rect fill="#464646ff" x="5" y="23" height="1" width="5"/><rect fill="#000000ff" x="10" y="23" height="1" width="1"/><rect fill="#464646ff" x="11" y="23" height="1" width="3"/><rect fill="#000000ff" x="14" y="23" height="1" width="1"/><rect fill="#464646ff" x="15" y="23" height="1" width="2"/><rect fill="#000000ff" x="17" y="23" height="1" width="1"/><rect fill="#464646ff" x="18" y="23" height="1" width="2"/><rect fill="#000000ff" x="20" y="23" height="1" width="1"/><rect fill="#464646ff" x="21" y="23" height="1" width="4"/><rect fill="#000000ff" x="25" y="23" height="1" width="1"/><rect fill="#464646ff" x="26" y="23" height="1" width="3"/><rect fill="#707070ff" x="29" y="23" height="1" width="2"/><rect fill="#464646ff" x="31" y="23" height="1" width="1"/><rect fill="#959595ff" x="32" y="23" height="1" width="3"/><rect fill="#7d7d7dff" x="2" y="24" height="1" width="1"/><rect fill="#959595ff" x="3" y="24" height="1" width="1"/><rect fill="#464646ff" x="4" y="24" height="1" width="1"/><rect fill="#707070ff" x="5" y="24" height="1" width="2"/><rect fill="#464646ff" x="7" y="24" height="1" width="3"/><rect fill="#000000ff" x="10" y="24" height="1" width="1"/><rect fill="#464646ff" x="11" y="24" height="1" width="4"/><rect fill="#000000ff" x="15" y="24" height="1" width="1"/><rect fill="#464646ff" x="16" y="24" height="1" width="1"/><rect fill="#000000ff" x="17" y="24" height="1" width="1"/><rect fill="#464646ff" x="18" y="24" height="1" width="1"/><rect fill="#000000ff" x="19" y="24" height="1" width="1"/><rect fill="#464646ff" x="20" y="24" height="1" width="5"/><rect fill="#000000ff" x="25" y="24" height="1" width="1"/><rect fill="#464646ff" x="26" y="24" height="1" width="2"/><rect fill="#707070ff" x="28" y="24" height="1" width="3"/><rect fill="#464646ff" x="31" y="24" height="1" width="1"/><rect fill="#959595ff" x="32" y="24" height="1" width="3"/><rect fill="#959595ff" x="2" y="25" height="1" width="3"/><rect fill="#464646ff" x="5" y="25" height="1" width="1"/><rect fill="#707070ff" x="6" y="25" height="1" width="2"/><rect fill="#464646ff" x="8" y="25" height="1" width="3"/><rect fill="#000000ff" x="11" y="25" height="1" width="1"/><rect fill="#464646ff" x="12" y="25" height="1" width="2"/><rect fill="#000000ff" x="14" y="25" height="1" width="1"/><rect fill="#464646ff" x="15" y="25" height="1" width="2"/><rect fill="#000000ff" x="17" y="25" height="1" width="1"/><rect fill="#464646ff" x="18" y="25" height="1" width="2"/><rect fill="#000000ff" x="20" y="25" height="1" width="1"/><rect fill="#464646ff" x="21" y="25" height="1" width="3"/><rect fill="#000000ff" x="24" y="25" height="1" width="1"/><rect fill="#464646ff" x="25" y="25" height="1" width="2"/><rect fill="#707070ff" x="27" y="25" height="1" width="3"/><rect fill="#464646ff" x="30" y="25" height="1" width="1"/><rect fill="#959595ff" x="31" y="25" height="1" width="4"/><rect fill="#959595ff" x="1" y="26" height="1" width="4"/><rect fill="#464646ff" x="5" y="26" height="1" width="1"/><rect fill="#707070ff" x="6" y="26" height="1" width="1"/><rect fill="#464646ff" x="7" y="26" height="1" width="3"/><rect fill="#000000ff" x="10" y="26" height="1" width="16"/><rect fill="#464646ff" x="26" y="26" height="1" width="3"/><rect fill="#707070ff" x="29" y="26" height="1" width="1"/><rect fill="#464646ff" x="30" y="26" height="1" width="1"/><rect fill="#959595ff" x="31" y="26" height="1" width="4"/><rect fill="#959595ff" x="1" y="27" height="1" width="5"/><rect fill="#464646ff" x="6" y="27" height="1" width="1"/><rect fill="#c2c2c2ff" x="7" y="27" height="1" width="7"/><rect fill="#000000ff" x="14" y="27" height="1" width="1"/><rect fill="#000000ff" x="17" y="27" height="1" width="1"/><rect fill="#000000ff" x="20" y="27" height="1" width="1"/><rect fill="#c2c2c2ff" x="21" y="27" height="1" width="7"/><rect fill="#464646ff" x="28" y="27" height="1" width="2"/><rect fill="#959595ff" x="30" y="27" height="1" width="5"/><rect fill="#959595ff" x="2" y="28" height="1" width="4"/><rect fill="#c2c2c2ff" x="6" y="28" height="1" width="1"/><rect fill="#a1a1a1ff" x="7" y="28" height="1" width="4"/><rect fill="#c2c2c2ff" x="11" y="28" height="1" width="1"/><rect fill="#a1a1a1ff" x="12" y="28" height="1" width="1"/><rect fill="#c2c2c2ff" x="13" y="28" height="1" width="2"/><rect fill="#a1a1a1ff" x="15" y="28" height="1" width="5"/><rect fill="#c2c2c2ff" x="20" y="28" height="1" width="1"/><rect fill="#a1a1a1ff" x="21" y="28" height="1" width="2"/><rect fill="#c2c2c2ff" x="23" y="28" height="1" width="1"/><rect fill="#a1a1a1ff" x="24" y="28" height="1" width="2"/><rect fill="#c2c2c2ff" x="26" y="28" height="1" width="1"/><rect fill="#a1a1a1ff" x="27" y="28" height="1" width="1"/><rect fill="#c2c2c2ff" x="28" y="28" height="1" width="1"/><rect fill="#959595ff" x="29" y="28" height="1" width="5"/><rect fill="#c2c2c2ff" x="5" y="29" height="1" width="26"/><rect fill="#c2c2c2ff" x="8" y="30" height="1" width="8"/><rect fill="#c2c2c2ff" x="19" y="30" height="1" width="5"/><rect fill="#c2c2c2ff" x="25" y="30" height="1" width="4"/></svg>