<svg xmlns="http://www.w3.org/2000/svg" shape-rendering="crispEdges" version="1.1" viewBox="0 0 36 36" width="360" height="360"><rect fill="#9d4911ff" x="10" y="15" height="1" width="2"/><rect fill="#9d4911ff" x="13" y="15" height="1" width="1"/><rect fill="#9d4911ff" x="15" y="15" height="1" width="3"/><rect fill="#9d4911ff" x="20" y="15" height="1" width="3"/><rect fill="#000000ff" x="10" y="16" height="1" width="13"/><rect fill="#9d4911ff" x="11" y="17" height="1" width="12"/><rect fill="#9d4911ff" x="12" y="18" height="1" width="7"/><rect fill="#9d4911ff" x="21" y="18" height="1" width="2"/><rect fill="#9d4911ff" x="13" y="19" height="1" width="1"/><rect fill="#9d4911ff" x="16" y="19" height="1" width="1"/><rect fill="#9d4911ff" x="22" y="19" height="1" width="1"/><rect fill="#9d4911ff" x="13" y="20" height="1" width="1"/><rect fill="#9d4911ff" x="16" y="20" height="1" width="1"/><rect fill="#9d4911ff" x="22" y="20" height="1" width="1"/><rect fill="#9d4911ff" x="13" y="21" height="1" width="1"/><rect fill="#9d4911ff" x="22" y="21" height="1" width="1"/><rect fill="#9d4911ff" x="13" y="22" height="1" width="1"/><rect fill="#9d4911ff" x="13" y="23" height="1" width="1"/><rect fill="#9d4911ff" x="22" y="23" height="1" width="1"/><rect fill="#9d4911ff" x="13" y="24" height="1" width="1"/><rect fill="#9d4911ff" x="13" y="25" height="1" width="1"/><rect fill="#9d4911ff" x="13" y="26" height="1" width="1"/><rect fill="#9d4911ff" x="13" y="27" height="1" width="1"/><rect fill="#9d4911ff" x="13" y="28" height="1" width="1"/><rect fill="#9d4911ff" x="12" y="29" height="1" width="3"/><rect fill="#9d4911ff" x="17" y="30" height="1" width="1"/><rect fill="#e5e5deff" x="18" y="30" height="1" width="1"/><rect fill="#ff0e0eff" x="19" y="30" height="1" width="4"/><rect fill="#9d4911ff" x="16" y="31" height="1" width="2"/><rect fill="#e5e5deff" x="18" y="31" height="1" width="1"/><rect fill="#ff0e0eff" x="19" y="31" height="1" width="4"/></svg>