<svg xmlns="http://www.w3.org/2000/svg" shape-rendering="crispEdges" version="1.1" viewBox="0 0 36 36" width="360" height="360"><rect fill="#ff0e0eff" x="10" y="7" height="1" width="10"/><rect fill="#ff0e0eff" x="10" y="8" height="1" width="2"/><rect fill="#ffe330ff" x="12" y="8" height="1" width="1"/><rect fill="#ff0e0eff" x="13" y="8" height="1" width="1"/><rect fill="#ffe330ff" x="14" y="8" height="1" width="1"/><rect fill="#ff0e0eff" x="15" y="8" height="1" width="5"/><rect fill="#ff0e0eff" x="9" y="9" height="1" width="2"/><rect fill="#ffe330ff" x="11" y="9" height="1" width="1"/><rect fill="#f3322cff" x="12" y="9" height="1" width="1"/><rect fill="#ffe330ff" x="13" y="9" height="1" width="1"/><rect fill="#f3322cff" x="14" y="9" height="1" width="1"/><rect fill="#ffe330ff" x="15" y="9" height="1" width="1"/><rect fill="#ff0e0eff" x="16" y="9" height="1" width="5"/><rect fill="#8c242cff" x="9" y="10" height="1" width="2"/><rect fill="#ffe330ff" x="11" y="10" height="1" width="5"/><rect fill="#8c242cff" x="16" y="10" height="1" width="6"/><rect fill="#000000ff" x="22" y="10" height="1" width="5"/><rect fill="#ff0e0eff" x="6" y="11" height="1" width="16"/><rect fill="#000000ff" x="22" y="11" height="1" width="5"/></svg>