<svg xmlns="http://www.w3.org/2000/svg" shape-rendering="crispEdges" version="1.1" viewBox="0 0 36 36" width="360" height="360"><rect fill="#ffffffff" x="9" y="4" height="1" width="1"/><rect fill="#ffffffff" x="12" y="4" height="1" width="1"/><rect fill="#000000ff" x="10" y="5" height="1" width="2"/><rect fill="#000000ff" x="10" y="6" height="1" width="2"/><rect fill="#ffffffff" x="26" y="6" height="1" width="1"/><rect fill="#ffffffff" x="28" y="6" height="1" width="1"/><rect fill="#000000ff" x="27" y="7" height="1" width="2"/><rect fill="#000000ff" x="27" y="8" height="1" width="2"/><rect fill="#ffffffff" x="2" y="12" height="1" width="1"/><rect fill="#ffffffff" x="4" y="12" height="1" width="1"/><rect fill="#000000ff" x="2" y="13" height="1" width="2"/><rect fill="#000000ff" x="2" y="14" height="1" width="2"/><rect fill="#ffffffff" x="33" y="16" height="1" width="1"/><rect fill="#ffffffff" x="32" y="17" height="1" width="1"/><rect fill="#000000ff" x="33" y="17" height="1" width="2"/><rect fill="#000000ff" x="33" y="18" height="1" width="2"/></svg>