<svg xmlns="http://www.w3.org/2000/svg" shape-rendering="crispEdges" version="1.1" viewBox="0 0 36 36" width="360" height="360"><rect fill="#0c9cf3ff" x="8" y="19" height="1" width="17"/><rect fill="#0c9cf3ff" x="8" y="20" height="1" width="1"/><rect fill="#000000ff" x="9" y="20" height="1" width="15"/><rect fill="#0c9cf3ff" x="24" y="20" height="1" width="1"/><rect fill="#0c9cf3ff" x="8" y="21" height="1" width="2"/><rect fill="#000000ff" x="10" y="21" height="1" width="4"/><rect fill="#ff82adff" x="14" y="21" height="1" width="4"/><rect fill="#000000ff" x="18" y="21" height="1" width="5"/><rect fill="#0c9cf3ff" x="23" y="21" height="1" width="2"/><rect fill="#0c9cf3ff" x="9" y="22" height="1" width="2"/><rect fill="#000000ff" x="11" y="22" height="1" width="4"/><rect fill="#ff82adff" x="15" y="22" height="1" width="4"/><rect fill="#000000ff" x="19" y="22" height="1" width="3"/><rect fill="#0c9cf3ff" x="22" y="22" height="1" width="2"/><rect fill="#0c9cf3ff" x="10" y="23" height="1" width="13"/></svg>