<svg xmlns="http://www.w3.org/2000/svg" shape-rendering="crispEdges" version="1.1" viewBox="0 0 36 36" width="360" height="360"><rect fill="#ba7881ff" x="8" y="19" height="1" width="3"/><rect fill="#ba7881ff" x="22" y="19" height="1" width="3"/><rect fill="#ba7881ff" x="8" y="20" height="1" width="1"/><rect fill="#000000ff" x="9" y="20" height="1" width="1"/><rect fill="#ba7881ff" x="10" y="20" height="1" width="13"/><rect fill="#000000ff" x="23" y="20" height="1" width="1"/><rect fill="#ba7881ff" x="24" y="20" height="1" width="1"/><rect fill="#ba7881ff" x="8" y="21" height="1" width="2"/><rect fill="#000000ff" x="10" y="21" height="1" width="1"/><rect fill="#f9f4f2ff" x="11" y="21" height="1" width="8"/><rect fill="#eed811ff" x="19" y="21" height="1" width="2"/><rect fill="#f9f4f2ff" x="21" y="21" height="1" width="1"/><rect fill="#000000ff" x="22" y="21" height="1" width="1"/><rect fill="#ba7881ff" x="23" y="21" height="1" width="2"/><rect fill="#ba7881ff" x="9" y="22" height="1" width="15"/></svg>