<svg xmlns="http://www.w3.org/2000/svg" shape-rendering="crispEdges" version="1.1" viewBox="0 0 36 36" width="360" height="360"><rect fill="#000000ff" x="15" y="9" height="1" width="6"/><rect fill="#000000ff" x="12" y="10" height="1" width="6"/><rect fill="#43c58cff" x="18" y="10" height="1" width="3"/><rect fill="#000000ff" x="21" y="10" height="1" width="1"/><rect fill="#000000ff" x="11" y="11" height="1" width="1"/><rect fill="#ffb310ff" x="12" y="11" height="1" width="6"/><rect fill="#000000ff" x="18" y="11" height="1" width="1"/><rect fill="#43c58cff" x="19" y="11" height="1" width="3"/><rect fill="#000000ff" x="22" y="11" height="1" width="1"/><rect fill="#000000ff" x="10" y="12" height="1" width="1"/><rect fill="#ffb310ff" x="11" y="12" height="1" width="8"/><rect fill="#000000ff" x="19" y="12" height="1" width="1"/><rect fill="#43c58cff" x="20" y="12" height="1" width="3"/><rect fill="#000000ff" x="23" y="12" height="1" width="1"/><rect fill="#000000ff" x="10" y="13" height="1" width="1"/><rect fill="#ffb310ff" x="11" y="13" height="1" width="8"/><rect fill="#000000ff" x="19" y="13" height="1" width="1"/><rect fill="#43c58cff" x="20" y="13" height="1" width="3"/><rect fill="#000000ff" x="23" y="13" height="1" width="1"/><rect fill="#000000ff" x="10" y="14" height="1" width="14"/></svg>