<svg xmlns="http://www.w3.org/2000/svg" shape-rendering="crispEdges" version="1.1" viewBox="0 0 36 36" width="360" height="360"><rect fill="#000000ff" x="13" y="12" height="1" width="1"/><rect fill="#666d42ff" x="14" y="12" height="1" width="1"/><rect fill="#000000ff" x="15" y="12" height="1" width="1"/><rect fill="#666d42ff" x="16" y="12" height="1" width="1"/><rect fill="#000000ff" x="17" y="12" height="1" width="1"/><rect fill="#666d42ff" x="18" y="12" height="1" width="1"/><rect fill="#000000ff" x="19" y="12" height="1" width="1"/><rect fill="#666d42ff" x="20" y="12" height="1" width="1"/><rect fill="#000000ff" x="21" y="12" height="1" width="1"/><rect fill="#666d42ff" x="22" y="12" height="1" width="1"/><rect fill="#000000ff" x="23" y="12" height="1" width="1"/><rect fill="#000000ff" x="13" y="13" height="1" width="1"/><rect fill="#666d42ff" x="14" y="13" height="1" width="1"/><rect fill="#000000ff" x="15" y="13" height="1" width="1"/><rect fill="#666d42ff" x="16" y="13" height="1" width="1"/><rect fill="#000000ff" x="17" y="13" height="1" width="1"/><rect fill="#666d42ff" x="18" y="13" height="1" width="1"/><rect fill="#000000ff" x="19" y="13" height="1" width="1"/><rect fill="#666d42ff" x="20" y="13" height="1" width="1"/><rect fill="#000000ff" x="21" y="13" height="1" width="1"/><rect fill="#666d42ff" x="22" y="13" height="1" width="1"/><rect fill="#000000ff" x="23" y="13" height="1" width="1"/></svg>