<svg xmlns="http://www.w3.org/2000/svg" shape-rendering="crispEdges" version="1.1" viewBox="0 0 36 36" width="360" height="360"><rect fill="#c54e38ff" x="13" y="8" height="1" width="7"/><rect fill="#c54e38ff" x="12" y="9" height="1" width="2"/><rect fill="#f38b7cff" x="14" y="9" height="1" width="2"/><rect fill="#c54e38ff" x="16" y="9" height="1" width="5"/><rect fill="#c54e38ff" x="11" y="10" height="1" width="3"/><rect fill="#f38b7cff" x="14" y="10" height="1" width="2"/><rect fill="#c54e38ff" x="16" y="10" height="1" width="6"/><rect fill="#c54e38ff" x="11" y="11" height="1" width="1"/><rect fill="#f38b7cff" x="12" y="11" height="1" width="2"/><rect fill="#c54e38ff" x="14" y="11" height="1" width="9"/><rect fill="#c54e38ff" x="11" y="12" height="1" width="1"/><rect fill="#f38b7cff" x="12" y="12" height="1" width="2"/><rect fill="#c54e38ff" x="14" y="12" height="1" width="9"/><rect fill="#c54e38ff" x="11" y="13" height="1" width="18"/><rect fill="#c54e38ff" x="11" y="14" height="1" width="16"/></svg>