<svg xmlns="http://www.w3.org/2000/svg" shape-rendering="crispEdges" version="1.1" viewBox="0 0 36 36" width="360" height="360"><rect fill="#000000ff" x="27" y="5" height="1" width="2"/><rect fill="#000000ff" x="25" y="6" height="1" width="4"/><rect fill="#000000ff" x="23" y="7" height="1" width="6"/><rect fill="#000000ff" x="21" y="8" height="1" width="8"/><rect fill="#000000ff" x="18" y="9" height="1" width="2"/><rect fill="#ffe330ff" x="20" y="9" height="1" width="2"/><rect fill="#000000ff" x="22" y="9" height="1" width="7"/><rect fill="#000000ff" x="16" y="10" height="1" width="6"/><rect fill="#ffe330ff" x="22" y="10" height="1" width="1"/><rect fill="#000000ff" x="23" y="10" height="1" width="6"/><rect fill="#000000ff" x="14" y="11" height="1" width="8"/><rect fill="#ffe330ff" x="22" y="11" height="1" width="1"/><rect fill="#000000ff" x="23" y="11" height="1" width="5"/><rect fill="#000000ff" x="12" y="12" height="1" width="5"/><rect fill="#ffe330ff" x="17" y="12" height="1" width="1"/><rect fill="#000000ff" x="18" y="12" height="1" width="2"/><rect fill="#ffe330ff" x="20" y="12" height="1" width="2"/><rect fill="#000000ff" x="22" y="12" height="1" width="6"/><rect fill="#000000ff" x="11" y="13" height="1" width="7"/><rect fill="#ffe330ff" x="18" y="13" height="1" width="2"/><rect fill="#000000ff" x="20" y="13" height="1" width="8"/><rect fill="#000000ff" x="13" y="14" height="1" width="15"/><rect fill="#000000ff" x="17" y="15" height="1" width="11"/><rect fill="#000000ff" x="21" y="16" height="1" width="7"/><rect fill="#000000ff" x="25" y="17" height="1" width="3"/></svg>