<svg xmlns="http://www.w3.org/2000/svg" shape-rendering="crispEdges" version="1.1" viewBox="0 0 36 36" width="360" height="360"><rect fill="#666d42ff" x="10" y="10" height="1" width="1"/><rect fill="#666d42ff" x="12" y="10" height="1" width="11"/><rect fill="#666d42ff" x="10" y="11" height="1" width="1"/><rect fill="#666d42ff" x="12" y="11" height="1" width="12"/><rect fill="#666d42ff" x="8" y="12" height="1" width="17"/><rect fill="#666d42ff" x="8" y="13" height="1" width="9"/><rect fill="#575e33ff" x="17" y="13" height="1" width="1"/><rect fill="#666d42ff" x="18" y="13" height="1" width="2"/><rect fill="#575e33ff" x="20" y="13" height="1" width="1"/><rect fill="#666d42ff" x="21" y="13" height="1" width="6"/><rect fill="#666d42ff" x="10" y="14" height="1" width="8"/><rect fill="#575e33ff" x="18" y="14" height="1" width="1"/><rect fill="#666d42ff" x="19" y="14" height="1" width="2"/><rect fill="#575e33ff" x="21" y="14" height="1" width="1"/><rect fill="#666d42ff" x="22" y="14" height="1" width="4"/><rect fill="#666d42ff" x="10" y="15" height="1" width="3"/><rect fill="#666d42ff" x="15" y="15" height="1" width="4"/><rect fill="#575e33ff" x="19" y="15" height="1" width="1"/><rect fill="#666d42ff" x="20" y="15" height="1" width="2"/><rect fill="#575e33ff" x="22" y="15" height="1" width="1"/><rect fill="#666d42ff" x="23" y="15" height="1" width="4"/><rect fill="#666d42ff" x="25" y="16" height="1" width="1"/></svg>