<svg xmlns="http://www.w3.org/2000/svg" shape-rendering="crispEdges" version="1.1" viewBox="0 0 36 36" width="360" height="360"><rect fill="#000000ff" x="16" y="9" height="1" width="3"/><rect fill="#000000ff" x="15" y="10" height="1" width="1"/><rect fill="#f38b7cff" x="16" y="10" height="1" width="3"/><rect fill="#000000ff" x="19" y="10" height="1" width="1"/><rect fill="#000000ff" x="15" y="11" height="1" width="1"/><rect fill="#f38b7cff" x="16" y="11" height="1" width="4"/><rect fill="#000000ff" x="20" y="11" height="1" width="1"/><rect fill="#000000ff" x="14" y="12" height="1" width="1"/><rect fill="#f38b7cff" x="15" y="12" height="1" width="6"/><rect fill="#000000ff" x="21" y="12" height="1" width="1"/><rect fill="#000000ff" x="14" y="13" height="1" width="1"/><rect fill="#f38b7cff" x="15" y="13" height="1" width="1"/><rect fill="#000000ff" x="16" y="13" height="1" width="1"/><rect fill="#f38b7cff" x="17" y="13" height="1" width="1"/><rect fill="#000000ff" x="18" y="13" height="1" width="1"/><rect fill="#f38b7cff" x="19" y="13" height="1" width="2"/><rect fill="#000000ff" x="21" y="13" height="1" width="1"/></svg>