<svg xmlns="http://www.w3.org/2000/svg" shape-rendering="crispEdges" version="1.1" viewBox="0 0 36 36" width="360" height="360"><rect fill="#9675c2ff" x="11" y="9" height="1" width="1"/><rect fill="#000000ff" x="12" y="9" height="1" width="1"/><rect fill="#12c1fbff" x="13" y="9" height="1" width="2"/><rect fill="#000000ff" x="15" y="9" height="1" width="1"/><rect fill="#000000ff" x="8" y="10" height="1" width="1"/><rect fill="#9675c2ff" x="9" y="10" height="1" width="3"/><rect fill="#000000ff" x="12" y="10" height="1" width="1"/><rect fill="#12c1fbff" x="13" y="10" height="1" width="2"/><rect fill="#000000ff" x="15" y="10" height="1" width="1"/><rect fill="#43c58cff" x="16" y="10" height="1" width="1"/><rect fill="#000000ff" x="17" y="10" height="1" width="1"/><rect fill="#000000ff" x="9" y="11" height="1" width="1"/><rect fill="#9675c2ff" x="10" y="11" height="1" width="2"/><rect fill="#000000ff" x="12" y="11" height="1" width="1"/><rect fill="#12c1fbff" x="13" y="11" height="1" width="2"/><rect fill="#000000ff" x="15" y="11" height="1" width="1"/><rect fill="#43c58cff" x="16" y="11" height="1" width="1"/><rect fill="#000000ff" x="17" y="11" height="1" width="1"/><rect fill="#ffe330ff" x="18" y="11" height="1" width="1"/><rect fill="#000000ff" x="19" y="11" height="1" width="1"/><rect fill="#000000ff" x="10" y="12" height="1" width="1"/><rect fill="#9675c2ff" x="11" y="12" height="1" width="2"/><rect fill="#000000ff" x="13" y="12" height="1" width="1"/><rect fill="#12c1fbff" x="14" y="12" height="1" width="1"/><rect fill="#000000ff" x="15" y="12" height="1" width="1"/><rect fill="#43c58cff" x="16" y="12" height="1" width="1"/><rect fill="#000000ff" x="17" y="12" height="1" width="1"/><rect fill="#ffe330ff" x="18" y="12" height="1" width="1"/><rect fill="#000000ff" x="19" y="12" height="1" width="1"/><rect fill="#ff7216ff" x="20" y="12" height="1" width="1"/><rect fill="#000000ff" x="21" y="12" height="1" width="1"/><rect fill="#000000ff" x="11" y="13" height="1" width="1"/><rect fill="#9675c2ff" x="12" y="13" height="1" width="1"/><rect fill="#000000ff" x="13" y="13" height="1" width="1"/><rect fill="#12c1fbff" x="14" y="13" height="1" width="1"/><rect fill="#000000ff" x="15" y="13" height="1" width="1"/><rect fill="#43c58cff" x="16" y="13" height="1" width="1"/><rect fill="#000000ff" x="17" y="13" height="1" width="1"/><rect fill="#ffe330ff" x="18" y="13" height="1" width="1"/><rect fill="#000000ff" x="19" y="13" height="1" width="1"/><rect fill="#ff7216ff" x="20" y="13" height="1" width="1"/><rect fill="#000000ff" x="21" y="13" height="1" width="1"/><rect fill="#ff0e0eff" x="22" y="13" height="1" width="1"/></svg>