<svg xmlns="http://www.w3.org/2000/svg" shape-rendering="crispEdges" version="1.1" viewBox="0 0 36 36" width="360" height="360"><rect fill="#000000ff" x="13" y="9" height="1" width="3"/><rect fill="#000000ff" x="22" y="9" height="1" width="3"/><rect fill="#000000ff" x="12" y="10" height="1" width="1"/><rect fill="#4d381dff" x="13" y="10" height="1" width="3"/><rect fill="#000000ff" x="16" y="10" height="1" width="1"/><rect fill="#000000ff" x="21" y="10" height="1" width="1"/><rect fill="#4d381dff" x="22" y="10" height="1" width="3"/><rect fill="#000000ff" x="25" y="10" height="1" width="1"/><rect fill="#000000ff" x="12" y="11" height="1" width="1"/><rect fill="#4d381dff" x="13" y="11" height="1" width="1"/><rect fill="#000000ff" x="14" y="11" height="1" width="2"/><rect fill="#000000ff" x="21" y="11" height="1" width="1"/><rect fill="#4d381dff" x="22" y="11" height="1" width="1"/><rect fill="#000000ff" x="23" y="11" height="1" width="2"/><rect fill="#000000ff" x="13" y="12" height="1" width="1"/><rect fill="#000000ff" x="22" y="12" height="1" width="1"/><rect fill="#000000ff" x="12" y="13" height="1" width="1"/><rect fill="#ffe330ff" x="13" y="13" height="1" width="1"/><rect fill="#000000ff" x="14" y="13" height="1" width="1"/><rect fill="#000000ff" x="21" y="13" height="1" width="1"/><rect fill="#ffe330ff" x="22" y="13" height="1" width="1"/><rect fill="#000000ff" x="23" y="13" height="1" width="1"/></svg>