<svg xmlns="http://www.w3.org/2000/svg" shape-rendering="crispEdges" version="1.1" viewBox="0 0 36 36" width="360" height="360"><rect fill="#667af9ff" x="16" y="8" height="1" width="7"/><rect fill="#667af9ff" x="15" y="9" height="1" width="2"/><rect fill="#a7a0f3ff" x="17" y="9" height="1" width="2"/><rect fill="#667af9ff" x="19" y="9" height="1" width="5"/><rect fill="#667af9ff" x="14" y="10" height="1" width="3"/><rect fill="#a7a0f3ff" x="17" y="10" height="1" width="2"/><rect fill="#667af9ff" x="19" y="10" height="1" width="6"/><rect fill="#667af9ff" x="13" y="11" height="1" width="2"/><rect fill="#a7a0f3ff" x="15" y="11" height="1" width="2"/><rect fill="#667af9ff" x="17" y="11" height="1" width="8"/><rect fill="#667af9ff" x="13" y="12" height="1" width="2"/><rect fill="#a7a0f3ff" x="15" y="12" height="1" width="2"/><rect fill="#667af9ff" x="17" y="12" height="1" width="8"/><rect fill="#667af9ff" x="7" y="13" height="1" width="18"/><rect fill="#667af9ff" x="9" y="14" height="1" width="16"/></svg>