<svg xmlns="http://www.w3.org/2000/svg" shape-rendering="crispEdges" version="1.1" viewBox="0 0 36 36" width="360" height="360"><rect fill="#08030dff" x="16" y="2" height="1" width="4"/><rect fill="#08030dff" x="15" y="3" height="1" width="2"/><rect fill="#2f3635ff" x="17" y="3" height="1" width="1"/><rect fill="#08030dff" x="18" y="3" height="1" width="5"/><rect fill="#08030dff" x="15" y="4" height="1" width="1"/><rect fill="#2f3635ff" x="16" y="4" height="1" width="1"/><rect fill="#08030dff" x="17" y="4" height="1" width="8"/><rect fill="#08030dff" x="14" y="5" height="1" width="12"/><rect fill="#08030dff" x="14" y="6" height="1" width="12"/><rect fill="#2f3635ff" x="14" y="7" height="1" width="2"/><rect fill="#08030dff" x="16" y="7" height="1" width="10"/><rect fill="#08030dff" x="13" y="8" height="1" width="12"/><rect fill="#08030dff" x="12" y="9" height="1" width="13"/><rect fill="#2f3635ff" x="13" y="10" height="1" width="3"/><rect fill="#08030dff" x="16" y="10" height="1" width="8"/><rect fill="#08030dff" x="12" y="11" height="1" width="13"/><rect fill="#08030dff" x="13" y="12" height="1" width="9"/><rect fill="#2f3635ff" x="22" y="12" height="1" width="2"/><rect fill="#08030dff" x="12" y="13" height="1" width="13"/><rect fill="#08030dff" x="11" y="14" height="1" width="13"/><rect fill="#08030dff" x="8" y="15" height="1" width="20"/></svg>