<svg xmlns="http://www.w3.org/2000/svg" shape-rendering="crispEdges" version="1.1" viewBox="0 0 36 36" width="360" height="360"><rect fill="#000000ff" x="7" y="7" height="1" width="2"/><rect fill="#ff7216ff" x="7" y="8" height="1" width="2"/><rect fill="#000000ff" x="9" y="8" height="1" width="3"/><rect fill="#000000ff" x="6" y="9" height="1" width="2"/><rect fill="#ff7216ff" x="8" y="9" height="1" width="4"/><rect fill="#000000ff" x="12" y="9" height="1" width="2"/><rect fill="#ff7216ff" x="7" y="10" height="1" width="1"/><rect fill="#000000ff" x="8" y="10" height="1" width="2"/><rect fill="#ff7216ff" x="10" y="10" height="1" width="4"/><rect fill="#000000ff" x="14" y="10" height="1" width="2"/><rect fill="#ff7216ff" x="7" y="11" height="1" width="3"/><rect fill="#000000ff" x="10" y="11" height="1" width="2"/><rect fill="#ff7216ff" x="12" y="11" height="1" width="4"/><rect fill="#000000ff" x="16" y="11" height="1" width="1"/><rect fill="#000000ff" x="6" y="12" height="1" width="2"/><rect fill="#ff7216ff" x="8" y="12" height="1" width="4"/><rect fill="#000000ff" x="12" y="12" height="1" width="3"/><rect fill="#ff7216ff" x="15" y="12" height="1" width="2"/><rect fill="#000000ff" x="17" y="12" height="1" width="1"/><rect fill="#000000ff" x="19" y="12" height="1" width="1"/><rect fill="#000000ff" x="21" y="12" height="1" width="1"/><rect fill="#000000ff" x="23" y="12" height="1" width="1"/><rect fill="#ff7216ff" x="6" y="13" height="1" width="2"/><rect fill="#000000ff" x="8" y="13" height="1" width="2"/><rect fill="#ff7216ff" x="10" y="13" height="1" width="5"/><rect fill="#000000ff" x="15" y="13" height="1" width="1"/><rect fill="#ff7216ff" x="16" y="13" height="1" width="1"/><rect fill="#000000ff" x="17" y="13" height="1" width="1"/><rect fill="#000000ff" x="19" y="13" height="1" width="1"/><rect fill="#000000ff" x="21" y="13" height="1" width="1"/><rect fill="#000000ff" x="23" y="13" height="1" width="1"/><rect fill="#ff7216ff" x="6" y="14" height="1" width="4"/><rect fill="#000000ff" x="10" y="14" height="1" width="8"/><rect fill="#000000ff" x="19" y="14" height="1" width="1"/><rect fill="#000000ff" x="21" y="14" height="1" width="1"/><rect fill="#000000ff" x="23" y="14" height="1" width="1"/><rect fill="#000000ff" x="26" y="14" height="1" width="1"/><rect fill="#ff7216ff" x="5" y="15" height="1" width="6"/><rect fill="#000000ff" x="11" y="15" height="1" width="1"/><rect fill="#000000ff" x="24" y="15" height="1" width="2"/><rect fill="#000000ff" x="20" y="16" height="1" width="1"/><rect fill="#000000ff" x="22" y="16" height="1" width="1"/><rect fill="#000000ff" x="27" y="16" height="1" width="1"/><rect fill="#000000ff" x="24" y="17" height="1" width="3"/></svg>