<svg xmlns="http://www.w3.org/2000/svg" shape-rendering="crispEdges" version="1.1" viewBox="0 0 36 36" width="360" height="360"><rect fill="#000000ff" x="18" y="6" height="1" width="1"/><rect fill="#000000ff" x="20" y="6" height="1" width="1"/><rect fill="#000000ff" x="22" y="6" height="1" width="1"/><rect fill="#000000ff" x="12" y="7" height="1" width="1"/><rect fill="#000000ff" x="18" y="7" height="1" width="1"/><rect fill="#f4e299ff" x="19" y="7" height="1" width="1"/><rect fill="#000000ff" x="20" y="7" height="1" width="1"/><rect fill="#f4e299ff" x="21" y="7" height="1" width="1"/><rect fill="#000000ff" x="22" y="7" height="1" width="1"/><rect fill="#000000ff" x="9" y="8" height="1" width="1"/><rect fill="#000000ff" x="12" y="8" height="1" width="1"/><rect fill="#000000ff" x="18" y="8" height="1" width="1"/><rect fill="#f4e299ff" x="19" y="8" height="1" width="3"/><rect fill="#000000ff" x="22" y="8" height="1" width="1"/><rect fill="#000000ff" x="27" y="8" height="1" width="1"/><rect fill="#f4e299ff" x="28" y="8" height="1" width="1"/><rect fill="#000000ff" x="9" y="9" height="1" width="1"/><rect fill="#000000ff" x="12" y="9" height="1" width="1"/><rect fill="#000000ff" x="17" y="9" height="1" width="1"/><rect fill="#f4e299ff" x="18" y="9" height="1" width="3"/><rect fill="#000000ff" x="21" y="9" height="1" width="1"/><rect fill="#000000ff" x="26" y="9" height="1" width="1"/><rect fill="#f4e299ff" x="27" y="9" height="1" width="3"/><rect fill="#000000ff" x="10" y="10" height="1" width="1"/><rect fill="#000000ff" x="13" y="10" height="1" width="1"/><rect fill="#000000ff" x="17" y="10" height="1" width="1"/><rect fill="#f4e299ff" x="18" y="10" height="1" width="3"/><rect fill="#000000ff" x="21" y="10" height="1" width="1"/><rect fill="#000000ff" x="25" y="10" height="1" width="1"/><rect fill="#f4e299ff" x="26" y="10" height="1" width="3"/><rect fill="#000000ff" x="29" y="10" height="1" width="1"/><rect fill="#000000ff" x="7" y="11" height="1" width="1"/><rect fill="#000000ff" x="10" y="11" height="1" width="1"/><rect fill="#000000ff" x="13" y="11" height="1" width="1"/><rect fill="#000000ff" x="17" y="11" height="1" width="1"/><rect fill="#f4e299ff" x="18" y="11" height="1" width="2"/><rect fill="#000000ff" x="20" y="11" height="1" width="1"/><rect fill="#000000ff" x="24" y="11" height="1" width="1"/><rect fill="#f4e299ff" x="25" y="11" height="1" width="3"/><rect fill="#000000ff" x="28" y="11" height="1" width="1"/><rect fill="#f4e299ff" x="29" y="11" height="1" width="1"/><rect fill="#f4e299ff" x="7" y="12" height="1" width="1"/><rect fill="#000000ff" x="8" y="12" height="1" width="1"/><rect fill="#000000ff" x="11" y="12" height="1" width="1"/><rect fill="#000000ff" x="14" y="12" height="1" width="1"/><rect fill="#000000ff" x="16" y="12" height="1" width="1"/><rect fill="#f4e299ff" x="17" y="12" height="1" width="2"/><rect fill="#000000ff" x="19" y="12" height="1" width="1"/><rect fill="#000000ff" x="23" y="12" height="1" width="1"/><rect fill="#f4e299ff" x="24" y="12" height="1" width="3"/><rect fill="#000000ff" x="27" y="12" height="1" width="1"/><rect fill="#f4e299ff" x="28" y="12" height="1" width="3"/><rect fill="#000000ff" x="6" y="13" height="1" width="1"/><rect fill="#f4e299ff" x="7" y="13" height="1" width="2"/><rect fill="#000000ff" x="9" y="13" height="1" width="1"/><rect fill="#000000ff" x="12" y="13" height="1" width="1"/><rect fill="#000000ff" x="14" y="13" height="1" width="1"/><rect fill="#000000ff" x="16" y="13" height="1" width="1"/><rect fill="#f4e299ff" x="17" y="13" height="1" width="2"/><rect fill="#000000ff" x="19" y="13" height="1" width="1"/><rect fill="#000000ff" x="22" y="13" height="1" width="1"/><rect fill="#f4e299ff" x="23" y="13" height="1" width="3"/><rect fill="#000000ff" x="26" y="13" height="1" width="1"/><rect fill="#f4e299ff" x="27" y="13" height="1" width="4"/><rect fill="#000000ff" x="7" y="14" height="1" width="1"/><rect fill="#f4e299ff" x="8" y="14" height="1" width="2"/><rect fill="#000000ff" x="10" y="14" height="1" width="1"/><rect fill="#000000ff" x="17" y="14" height="1" width="2"/><rect fill="#000000ff" x="23" y="14" height="1" width="1"/><rect fill="#f4e299ff" x="24" y="14" height="1" width="1"/><rect fill="#000000ff" x="25" y="14" height="1" width="1"/><rect fill="#f4e299ff" x="26" y="14" height="1" width="3"/><rect fill="#000000ff" x="29" y="14" height="1" width="2"/><rect fill="#f4e299ff" x="8" y="15" height="1" width="3"/><rect fill="#000000ff" x="11" y="15" height="1" width="1"/><rect fill="#000000ff" x="24" y="15" height="1" width="1"/><rect fill="#f4e299ff" x="25" y="15" height="1" width="2"/><rect fill="#000000ff" x="27" y="15" height="1" width="2"/><rect fill="#000000ff" x="7" y="16" height="1" width="4"/><rect fill="#000000ff" x="25" y="16" height="1" width="2"/></svg>