<svg xmlns="http://www.w3.org/2000/svg" shape-rendering="crispEdges" version="1.1" viewBox="0 0 36 36" width="360" height="360"><rect fill="#1d2952ff" x="14" y="5" height="1" width="1"/><rect fill="#2b162aff" x="15" y="5" height="1" width="1"/><rect fill="#1d2952ff" x="16" y="5" height="1" width="1"/><rect fill="#2b162aff" x="17" y="5" height="1" width="1"/><rect fill="#1d2952ff" x="18" y="5" height="1" width="1"/><rect fill="#2b162aff" x="19" y="5" height="1" width="1"/><rect fill="#1d2952ff" x="20" y="5" height="1" width="1"/><rect fill="#2b162aff" x="21" y="5" height="1" width="1"/><rect fill="#1d2952ff" x="14" y="6" height="1" width="1"/><rect fill="#2b162aff" x="15" y="6" height="1" width="1"/><rect fill="#1d2952ff" x="16" y="6" height="1" width="1"/><rect fill="#2b162aff" x="17" y="6" height="1" width="1"/><rect fill="#1d2952ff" x="18" y="6" height="1" width="1"/><rect fill="#2b162aff" x="19" y="6" height="1" width="1"/><rect fill="#1d2952ff" x="20" y="6" height="1" width="1"/><rect fill="#2b162aff" x="21" y="6" height="1" width="1"/><rect fill="#2b162aff" x="14" y="7" height="1" width="8"/><rect fill="#2b162aff" x="13" y="8" height="1" width="6"/><rect fill="#1d2952ff" x="19" y="8" height="1" width="3"/><rect fill="#2b162aff" x="22" y="8" height="1" width="1"/><rect fill="#2b162aff" x="13" y="9" height="1" width="10"/><rect fill="#2b162aff" x="13" y="10" height="1" width="10"/><rect fill="#2b162aff" x="13" y="11" height="1" width="10"/><rect fill="#1d2952ff" x="12" y="12" height="1" width="12"/><rect fill="#2b162aff" x="11" y="13" height="1" width="14"/><rect fill="#2b162aff" x="11" y="14" height="1" width="14"/></svg>