<svg xmlns="http://www.w3.org/2000/svg" shape-rendering="crispEdges" version="1.1" viewBox="0 0 36 36" width="360" height="360"><rect fill="#5d9c9dff" x="18" y="7" height="1" width="1"/><rect fill="#5d9c9dff" x="20" y="7" height="1" width="1"/><rect fill="#5d9c9dff" x="22" y="7" height="1" width="1"/><rect fill="#5d9c9dff" x="25" y="7" height="1" width="1"/><rect fill="#5d9c9dff" x="15" y="8" height="1" width="10"/><rect fill="#5d9c9dff" x="14" y="9" height="1" width="15"/><rect fill="#5d9c9dff" x="13" y="10" height="1" width="15"/><rect fill="#5d9c9dff" x="12" y="11" height="1" width="3"/><rect fill="#496e80ff" x="15" y="11" height="1" width="1"/><rect fill="#5d9c9dff" x="16" y="11" height="1" width="2"/><rect fill="#496e80ff" x="18" y="11" height="1" width="1"/><rect fill="#5d9c9dff" x="19" y="11" height="1" width="2"/><rect fill="#496e80ff" x="21" y="11" height="1" width="1"/><rect fill="#5d9c9dff" x="22" y="11" height="1" width="9"/><rect fill="#5d9c9dff" x="11" y="12" height="1" width="3"/><rect fill="#496e80ff" x="14" y="12" height="1" width="1"/><rect fill="#5d9c9dff" x="15" y="12" height="1" width="2"/><rect fill="#496e80ff" x="17" y="12" height="1" width="1"/><rect fill="#5d9c9dff" x="18" y="12" height="1" width="2"/><rect fill="#496e80ff" x="20" y="12" height="1" width="1"/><rect fill="#5d9c9dff" x="21" y="12" height="1" width="9"/><rect fill="#5d9c9dff" x="10" y="13" height="1" width="3"/><rect fill="#496e80ff" x="13" y="13" height="1" width="1"/><rect fill="#5d9c9dff" x="14" y="13" height="1" width="2"/><rect fill="#496e80ff" x="16" y="13" height="1" width="1"/><rect fill="#5d9c9dff" x="17" y="13" height="1" width="2"/><rect fill="#496e80ff" x="19" y="13" height="1" width="1"/><rect fill="#5d9c9dff" x="20" y="13" height="1" width="12"/><rect fill="#5d9c9dff" x="10" y="14" height="1" width="2"/><rect fill="#5d9c9dff" x="23" y="14" height="1" width="7"/><rect fill="#5d9c9dff" x="10" y="15" height="1" width="1"/><rect fill="#5d9c9dff" x="24" y="15" height="1" width="8"/><rect fill="#5d9c9dff" x="25" y="16" height="1" width="5"/><rect fill="#5d9c9dff" x="26" y="17" height="1" width="5"/><rect fill="#5d9c9dff" x="27" y="18" height="1" width="3"/><rect fill="#5d9c9dff" x="27" y="19" height="1" width="4"/><rect fill="#5d9c9dff" x="28" y="20" height="1" width="2"/></svg>