<svg xmlns="http://www.w3.org/2000/svg" shape-rendering="crispEdges" version="1.1" viewBox="0 0 36 36" width="360" height="360"><rect fill="#ff0e0eff" x="9" y="15" height="1" width="6"/><rect fill="#ff0e0eff" x="16" y="15" height="1" width="6"/><rect fill="#ff0e0eff" x="9" y="16" height="1" width="1"/><rect fill="#fff0eeff" x="10" y="16" height="1" width="2"/><rect fill="#000000ff" x="12" y="16" height="1" width="2"/><rect fill="#ff0e0eff" x="14" y="16" height="1" width="1"/><rect fill="#ff0e0eff" x="16" y="16" height="1" width="1"/><rect fill="#fff0eeff" x="17" y="16" height="1" width="2"/><rect fill="#000000ff" x="19" y="16" height="1" width="2"/><rect fill="#ff0e0eff" x="21" y="16" height="1" width="1"/><rect fill="#ff0e0eff" x="9" y="17" height="1" width="1"/><rect fill="#fff0eeff" x="10" y="17" height="1" width="2"/><rect fill="#000000ff" x="12" y="17" height="1" width="2"/><rect fill="#ff0e0eff" x="14" y="17" height="1" width="3"/><rect fill="#fff0eeff" x="17" y="17" height="1" width="2"/><rect fill="#000000ff" x="19" y="17" height="1" width="2"/><rect fill="#ff0e0eff" x="21" y="17" height="1" width="3"/><rect fill="#ff0e0eff" x="9" y="18" height="1" width="1"/><rect fill="#fff0eeff" x="10" y="18" height="1" width="2"/><rect fill="#000000ff" x="12" y="18" height="1" width="2"/><rect fill="#ff0e0eff" x="14" y="18" height="1" width="1"/><rect fill="#ff0e0eff" x="16" y="18" height="1" width="1"/><rect fill="#fff0eeff" x="17" y="18" height="1" width="2"/><rect fill="#000000ff" x="19" y="18" height="1" width="2"/><rect fill="#ff0e0eff" x="21" y="18" height="1" width="1"/><rect fill="#ff0e0eff" x="23" y="18" height="1" width="1"/><rect fill="#ff0e0eff" x="9" y="19" height="1" width="6"/><rect fill="#ff0e0eff" x="16" y="19" height="1" width="6"/></svg>