<svg xmlns="http://www.w3.org/2000/svg" shape-rendering="crispEdges" version="1.1" viewBox="0 0 36 36" width="360" height="360"><rect fill="#003233ff" x="11" y="16" height="1" width="5"/><rect fill="#003233ff" x="17" y="16" height="1" width="5"/><rect fill="#003233ff" x="10" y="17" height="1" width="1"/><rect fill="#43c58cff" x="11" y="17" height="1" width="3"/><rect fill="#ffffffff" x="14" y="17" height="1" width="2"/><rect fill="#003233ff" x="16" y="17" height="1" width="1"/><rect fill="#43c58cff" x="17" y="17" height="1" width="3"/><rect fill="#ffffffff" x="20" y="17" height="1" width="2"/><rect fill="#003233ff" x="22" y="17" height="1" width="1"/><rect fill="#003233ff" x="10" y="18" height="1" width="1"/><rect fill="#43c58cff" x="11" y="18" height="1" width="3"/><rect fill="#ffffffff" x="14" y="18" height="1" width="2"/><rect fill="#003233ff" x="16" y="18" height="1" width="1"/><rect fill="#43c58cff" x="17" y="18" height="1" width="3"/><rect fill="#ffffffff" x="20" y="18" height="1" width="2"/><rect fill="#003233ff" x="22" y="18" height="1" width="1"/><rect fill="#003233ff" x="11" y="19" height="1" width="5"/><rect fill="#003233ff" x="17" y="19" height="1" width="5"/></svg>