<svg xmlns="http://www.w3.org/2000/svg" shape-rendering="crispEdges" version="1.1" viewBox="0 0 36 36" width="360" height="360"><rect fill="#000000ff" x="12" y="16" height="1" width="3"/><rect fill="#000000ff" x="18" y="16" height="1" width="3"/><rect fill="#000000ff" x="9" y="17" height="1" width="4"/><rect fill="#ffffffff" x="13" y="17" height="1" width="2"/><rect fill="#000000ff" x="15" y="17" height="1" width="4"/><rect fill="#ffffffff" x="19" y="17" height="1" width="2"/><rect fill="#000000ff" x="21" y="17" height="1" width="5"/><rect fill="#000000ff" x="11" y="18" height="1" width="1"/><rect fill="#ffffffff" x="12" y="18" height="1" width="2"/><rect fill="#000000ff" x="14" y="18" height="1" width="2"/><rect fill="#000000ff" x="17" y="18" height="1" width="1"/><rect fill="#ffffffff" x="18" y="18" height="1" width="2"/><rect fill="#000000ff" x="20" y="18" height="1" width="2"/><rect fill="#000000ff" x="12" y="19" height="1" width="3"/><rect fill="#000000ff" x="18" y="19" height="1" width="3"/></svg>