<svg xmlns="http://www.w3.org/2000/svg" shape-rendering="crispEdges" version="1.1" viewBox="0 0 36 36" width="360" height="360"><rect fill="#ff0e0eff" x="11" y="16" height="1" width="1"/><rect fill="#ffffffff" x="12" y="16" height="1" width="1"/><rect fill="#ff0e0eff" x="13" y="16" height="1" width="3"/><rect fill="#ff0e0eff" x="17" y="16" height="1" width="1"/><rect fill="#ffffffff" x="18" y="16" height="1" width="1"/><rect fill="#ff0e0eff" x="19" y="16" height="1" width="3"/><rect fill="#ff0e0eff" x="11" y="17" height="1" width="1"/><rect fill="#f38b7cff" x="12" y="17" height="1" width="1"/><rect fill="#000000ff" x="13" y="17" height="1" width="1"/><rect fill="#f38b7cff" x="14" y="17" height="1" width="1"/><rect fill="#ff0e0eff" x="15" y="17" height="1" width="1"/><rect fill="#ff0e0eff" x="17" y="17" height="1" width="1"/><rect fill="#f38b7cff" x="18" y="17" height="1" width="1"/><rect fill="#000000ff" x="19" y="17" height="1" width="1"/><rect fill="#f38b7cff" x="20" y="17" height="1" width="1"/><rect fill="#ff0e0eff" x="21" y="17" height="1" width="1"/><rect fill="#ff0e0eff" x="11" y="18" height="1" width="1"/><rect fill="#f38b7cff" x="12" y="18" height="1" width="1"/><rect fill="#000000ff" x="13" y="18" height="1" width="1"/><rect fill="#f38b7cff" x="14" y="18" height="1" width="1"/><rect fill="#ff0e0eff" x="15" y="18" height="1" width="1"/><rect fill="#ff0e0eff" x="17" y="18" height="1" width="1"/><rect fill="#f38b7cff" x="18" y="18" height="1" width="1"/><rect fill="#000000ff" x="19" y="18" height="1" width="1"/><rect fill="#f38b7cff" x="20" y="18" height="1" width="1"/><rect fill="#ff0e0eff" x="21" y="18" height="1" width="1"/><rect fill="#ff0e0eff" x="11" y="19" height="1" width="3"/><rect fill="#ffffffff" x="14" y="19" height="1" width="1"/><rect fill="#ff0e0eff" x="15" y="19" height="1" width="1"/><rect fill="#ff0e0eff" x="17" y="19" height="1" width="3"/><rect fill="#ffffffff" x="20" y="19" height="1" width="1"/><rect fill="#ff0e0eff" x="21" y="19" height="1" width="1"/></svg>