<svg xmlns="http://www.w3.org/2000/svg" shape-rendering="crispEdges" version="1.1" viewBox="0 0 36 36" width="360" height="360"><rect fill="#8ac163ff" x="16" y="12" height="1" width="1"/><rect fill="#61a84bff" x="15" y="13" height="1" width="3"/><rect fill="#8ac163ff" x="20" y="13" height="1" width="1"/><rect fill="#61a84bff" x="19" y="14" height="1" width="3"/><rect fill="#61a84bff" x="10" y="15" height="1" width="1"/><rect fill="#8ac163ff" x="12" y="15" height="1" width="1"/><rect fill="#61a84bff" x="13" y="15" height="1" width="1"/><rect fill="#61a84bff" x="12" y="16" height="1" width="2"/><rect fill="#61a84bff" x="17" y="16" height="1" width="1"/><rect fill="#8ac163ff" x="23" y="17" height="1" width="1"/><rect fill="#8ac163ff" x="12" y="19" height="1" width="1"/><rect fill="#8ac163ff" x="14" y="19" height="1" width="1"/><rect fill="#61a84bff" x="21" y="19" height="1" width="1"/><rect fill="#8ac163ff" x="24" y="19" height="1" width="1"/><rect fill="#8ac163ff" x="24" y="22" height="1" width="1"/><rect fill="#61a84bff" x="12" y="23" height="1" width="1"/><rect fill="#8ac163ff" x="21" y="23" height="1" width="1"/><rect fill="#8ac163ff" x="16" y="24" height="1" width="1"/><rect fill="#8ac163ff" x="8" y="25" height="1" width="1"/><rect fill="#61a84bff" x="7" y="26" height="1" width="3"/><rect fill="#8ac163ff" x="20" y="27" height="1" width="1"/><rect fill="#61a84bff" x="19" y="28" height="1" width="3"/></svg>