<svg xmlns="http://www.w3.org/2000/svg" shape-rendering="crispEdges" version="1.1" viewBox="0 0 36 36" width="360" height="360"><rect fill="#0c9cf3ff" x="8" y="19" height="1" width="17"/><rect fill="#0c9cf3ff" x="8" y="20" height="1" width="1"/><rect fill="#000000ff" x="9" y="20" height="1" width="2"/><rect fill="#f9f4f2ff" x="11" y="20" height="1" width="1"/><rect fill="#000000ff" x="12" y="20" height="1" width="1"/><rect fill="#f9f4f2ff" x="13" y="20" height="1" width="1"/><rect fill="#000000ff" x="14" y="20" height="1" width="1"/><rect fill="#f9f4f2ff" x="15" y="20" height="1" width="1"/><rect fill="#000000ff" x="16" y="20" height="1" width="1"/><rect fill="#f9f4f2ff" x="17" y="20" height="1" width="1"/><rect fill="#000000ff" x="18" y="20" height="1" width="1"/><rect fill="#f9f4f2ff" x="19" y="20" height="1" width="1"/><rect fill="#000000ff" x="20" y="20" height="1" width="1"/><rect fill="#f9f4f2ff" x="21" y="20" height="1" width="1"/><rect fill="#000000ff" x="22" y="20" height="1" width="1"/><rect fill="#f9f4f2ff" x="23" y="20" height="1" width="1"/><rect fill="#0c9cf3ff" x="24" y="20" height="1" width="1"/><rect fill="#0c9cf3ff" x="8" y="21" height="1" width="2"/><rect fill="#000000ff" x="10" y="21" height="1" width="13"/><rect fill="#0c9cf3ff" x="23" y="21" height="1" width="2"/><rect fill="#0c9cf3ff" x="9" y="22" height="1" width="2"/><rect fill="#000000ff" x="11" y="22" height="1" width="4"/><rect fill="#f38b7cff" x="15" y="22" height="1" width="6"/><rect fill="#000000ff" x="21" y="22" height="1" width="1"/><rect fill="#0c9cf3ff" x="22" y="22" height="1" width="2"/><rect fill="#0c9cf3ff" x="10" y="23" height="1" width="4"/><rect fill="#f38b7cff" x="14" y="23" height="1" width="5"/><rect fill="#0c9cf3ff" x="19" y="23" height="1" width="4"/><rect fill="#f38b7cff" x="13" y="24" height="1" width="5"/><rect fill="#f38b7cff" x="12" y="25" height="1" width="5"/><rect fill="#f38b7cff" x="11" y="26" height="1" width="5"/><rect fill="#f38b7cff" x="10" y="27" height="1" width="5"/><rect fill="#f9f4f2ff" x="8" y="28" height="1" width="1"/><rect fill="#f38b7cff" x="9" y="28" height="1" width="1"/><rect fill="#f9f4f2ff" x="10" y="28" height="1" width="1"/><rect fill="#f38b7cff" x="11" y="28" height="1" width="3"/><rect fill="#000000ff" x="8" y="29" height="1" width="2"/><rect fill="#f38b7cff" x="10" y="29" height="1" width="3"/><rect fill="#f38b7cff" x="7" y="30" height="1" width="1"/><rect fill="#000000ff" x="8" y="30" height="1" width="2"/><rect fill="#f38b7cff" x="10" y="30" height="1" width="2"/><rect fill="#f38b7cff" x="7" y="31" height="1" width="4"/></svg>