<svg xmlns="http://www.w3.org/2000/svg" shape-rendering="crispEdges" version="1.1" viewBox="0 0 36 36" width="360" height="360"><rect fill="#000000ff" x="10" y="9" height="1" width="15"/><rect fill="#000000ff" x="9" y="10" height="1" width="1"/><rect fill="#b8d9ceff" x="10" y="10" height="1" width="3"/><rect fill="#1f325aff" x="13" y="10" height="1" width="1"/><rect fill="#28a691ff" x="14" y="10" height="1" width="2"/><rect fill="#543e2eff" x="16" y="10" height="1" width="1"/><rect fill="#1f325aff" x="17" y="10" height="1" width="3"/><rect fill="#543e2eff" x="20" y="10" height="1" width="1"/><rect fill="#1f325aff" x="21" y="10" height="1" width="1"/><rect fill="#b8d8cdff" x="22" y="10" height="1" width="3"/><rect fill="#000000ff" x="25" y="10" height="1" width="1"/><rect fill="#000000ff" x="8" y="11" height="1" width="1"/><rect fill="#b8d9ceff" x="9" y="11" height="1" width="3"/><rect fill="#1f325aff" x="12" y="11" height="1" width="1"/><rect fill="#28a691ff" x="13" y="11" height="1" width="2"/><rect fill="#543e2eff" x="15" y="11" height="1" width="1"/><rect fill="#1f325aff" x="16" y="11" height="1" width="3"/><rect fill="#543e2eff" x="19" y="11" height="1" width="1"/><rect fill="#1f325aff" x="20" y="11" height="1" width="1"/><rect fill="#b8d8cdff" x="21" y="11" height="1" width="4"/><rect fill="#1f325aff" x="25" y="11" height="1" width="1"/><rect fill="#000000ff" x="26" y="11" height="1" width="1"/><rect fill="#000000ff" x="8" y="12" height="1" width="1"/><rect fill="#b8d9ceff" x="9" y="12" height="1" width="2"/><rect fill="#28a691ff" x="11" y="12" height="1" width="5"/><rect fill="#1f325aff" x="16" y="12" height="1" width="1"/><rect fill="#28a691ff" x="17" y="12" height="1" width="5"/><rect fill="#b8d8cdff" x="22" y="12" height="1" width="2"/><rect fill="#1f325aff" x="24" y="12" height="1" width="1"/><rect fill="#db4f54ff" x="25" y="12" height="1" width="1"/><rect fill="#000000ff" x="26" y="12" height="1" width="1"/><rect fill="#000000ff" x="7" y="13" height="1" width="1"/><rect fill="#b8d9ceff" x="8" y="13" height="1" width="3"/><rect fill="#d22930ff" x="11" y="13" height="1" width="3"/><rect fill="#e0d7c5ff" x="14" y="13" height="1" width="2"/><rect fill="#1f325aff" x="16" y="13" height="1" width="1"/><rect fill="#d22930ff" x="17" y="13" height="1" width="3"/><rect fill="#e0d7c5ff" x="20" y="13" height="1" width="2"/><rect fill="#b8d8cdff" x="22" y="13" height="1" width="1"/><rect fill="#1f325aff" x="23" y="13" height="1" width="1"/><rect fill="#db4f54ff" x="24" y="13" height="1" width="3"/><rect fill="#000000ff" x="27" y="13" height="1" width="1"/><rect fill="#000000ff" x="7" y="14" height="1" width="1"/><rect fill="#b8d9ceff" x="8" y="14" height="1" width="2"/><rect fill="#1f325aff" x="10" y="14" height="1" width="3"/><rect fill="#543e2eff" x="13" y="14" height="1" width="1"/><rect fill="#1f325aff" x="14" y="14" height="1" width="5"/><rect fill="#b8d8cdff" x="19" y="14" height="1" width="3"/><rect fill="#1f325aff" x="22" y="14" height="1" width="1"/><rect fill="#db4f54ff" x="23" y="14" height="1" width="4"/><rect fill="#000000ff" x="27" y="14" height="1" width="1"/><rect fill="#000000ff" x="7" y="15" height="1" width="1"/><rect fill="#e0d7c5ff" x="8" y="15" height="1" width="1"/><rect fill="#fcd265ff" x="9" y="15" height="1" width="3"/><rect fill="#543e2eff" x="12" y="15" height="1" width="1"/><rect fill="#e57e33ff" x="13" y="15" height="1" width="6"/><rect fill="#b8d8cdff" x="19" y="15" height="1" width="1"/><rect fill="#fff0eeff" x="20" y="15" height="1" width="2"/><rect fill="#1f325aff" x="22" y="15" height="1" width="1"/><rect fill="#543e2eff" x="23" y="15" height="1" width="1"/><rect fill="#db4f54ff" x="24" y="15" height="1" width="2"/><rect fill="#1f325aff" x="26" y="15" height="1" width="1"/><rect fill="#000000ff" x="27" y="15" height="1" width="1"/><rect fill="#000000ff" x="7" y="16" height="1" width="1"/><rect fill="#fcd265ff" x="8" y="16" height="1" width="3"/><rect fill="#543e2eff" x="11" y="16" height="1" width="1"/><rect fill="#1f325aff" x="12" y="16" height="1" width="1"/><rect fill="#e57e33ff" x="13" y="16" height="1" width="1"/><rect fill="#f9f8f4ff" x="14" y="16" height="1" width="4"/><rect fill="#e57e33ff" x="18" y="16" height="1" width="1"/><rect fill="#b8d8cdff" x="19" y="16" height="1" width="2"/><rect fill="#1f325aff" x="21" y="16" height="1" width="3"/><rect fill="#543e2eff" x="24" y="16" height="1" width="1"/><rect fill="#1f325aff" x="25" y="16" height="1" width="2"/><rect fill="#000000ff" x="27" y="16" height="1" width="1"/><rect fill="#000000ff" x="7" y="17" height="1" width="1"/><rect fill="#fcd265ff" x="8" y="17" height="1" width="2"/><rect fill="#e0d7c5ff" x="10" y="17" height="1" width="1"/><rect fill="#1f325aff" x="11" y="17" height="1" width="2"/><rect fill="#e57e33ff" x="13" y="17" height="1" width="6"/><rect fill="#b8d8cdff" x="19" y="17" height="1" width="1"/><rect fill="#1f325aff" x="20" y="17" height="1" width="6"/><rect fill="#e0d7c5ff" x="26" y="17" height="1" width="1"/><rect fill="#000000ff" x="27" y="17" height="1" width="1"/><rect fill="#000000ff" x="6" y="18" height="1" width="2"/><rect fill="#fcd265ff" x="8" y="18" height="1" width="1"/><rect fill="#1f325aff" x="9" y="18" height="1" width="8"/><rect fill="#b8d8cdff" x="17" y="18" height="1" width="3"/><rect fill="#1f325aff" x="20" y="18" height="1" width="5"/><rect fill="#e0d7c5ff" x="25" y="18" height="1" width="2"/><rect fill="#000000ff" x="27" y="18" height="1" width="3"/><rect fill="#000000ff" x="5" y="19" height="1" width="1"/><rect fill="#1f325aff" x="6" y="19" height="1" width="1"/><rect fill="#000000ff" x="7" y="19" height="1" width="1"/><rect fill="#1f325aff" x="8" y="19" height="1" width="3"/><rect fill="#db4f54ff" x="11" y="19" height="1" width="2"/><rect fill="#1f325aff" x="13" y="19" height="1" width="3"/><rect fill="#b8d8cdff" x="16" y="19" height="1" width="3"/><rect fill="#1f325aff" x="19" y="19" height="1" width="5"/><rect fill="#e0d7c5ff" x="24" y="19" height="1" width="3"/><rect fill="#000000ff" x="27" y="19" height="1" width="1"/><rect fill="#e0d7c5ff" x="28" y="19" height="1" width="2"/><rect fill="#000000ff" x="30" y="19" height="1" width="1"/><rect fill="#000000ff" x="5" y="20" height="1" width="1"/><rect fill="#e0d7c5ff" x="6" y="20" height="1" width="1"/><rect fill="#000000ff" x="7" y="20" height="1" width="1"/><rect fill="#1f325aff" x="8" y="20" height="1" width="2"/><rect fill="#db4f54ff" x="10" y="20" height="1" width="2"/><rect fill="#000000ff" x="12" y="20" height="1" width="1"/><rect fill="#1f325aff" x="13" y="20" height="1" width="2"/><rect fill="#b8d8cdff" x="15" y="20" height="1" width="3"/><rect fill="#1f325aff" x="18" y="20" height="1" width="3"/><rect fill="#000000ff" x="21" y="20" height="1" width="1"/><rect fill="#1f325aff" x="22" y="20" height="1" width="1"/><rect fill="#e0d7c5ff" x="23" y="20" height="1" width="4"/><rect fill="#000000ff" x="27" y="20" height="1" width="1"/><rect fill="#e0d7c5ff" x="28" y="20" height="1" width="1"/><rect fill="#1f325aff" x="29" y="20" height="1" width="2"/><rect fill="#000000ff" x="31" y="20" height="1" width="1"/><rect fill="#000000ff" x="4" y="21" height="1" width="1"/><rect fill="#1f325aff" x="5" y="21" height="1" width="1"/><rect fill="#28a691ff" x="6" y="21" height="1" width="1"/><rect fill="#000000ff" x="7" y="21" height="1" width="1"/><rect fill="#1f325aff" x="8" y="21" height="1" width="1"/><rect fill="#db4f54ff" x="9" y="21" height="1" width="3"/><rect fill="#1f325aff" x="12" y="21" height="1" width="1"/><rect fill="#000000ff" x="13" y="21" height="1" width="1"/><rect fill="#b8d8cdff" x="14" y="21" height="1" width="3"/><rect fill="#000000ff" x="17" y="21" height="1" width="1"/><rect fill="#1f325aff" x="18" y="21" height="1" width="3"/><rect fill="#000000ff" x="21" y="21" height="1" width="1"/><rect fill="#1f325aff" x="22" y="21" height="1" width="2"/><rect fill="#e0d7c5ff" x="24" y="21" height="1" width="3"/><rect fill="#000000ff" x="27" y="21" height="1" width="1"/><rect fill="#1f325aff" x="28" y="21" height="1" width="2"/><rect fill="#e0d7c5ff" x="30" y="21" height="1" width="1"/><rect fill="#000000ff" x="31" y="21" height="1" width="1"/><rect fill="#000000ff" x="4" y="22" height="1" width="1"/><rect fill="#28a691ff" x="5" y="22" height="1" width="2"/><rect fill="#000000ff" x="7" y="22" height="1" width="1"/><rect fill="#db4f54ff" x="8" y="22" height="1" width="3"/><rect fill="#1f325aff" x="11" y="22" height="1" width="2"/><rect fill="#000000ff" x="13" y="22" height="1" width="1"/><rect fill="#b8d8cdff" x="14" y="22" height="1" width="3"/><rect fill="#000000ff" x="17" y="22" height="1" width="1"/><rect fill="#1f325aff" x="18" y="22" height="1" width="2"/><rect fill="#b8d9ceff" x="20" y="22" height="1" width="1"/><rect fill="#000000ff" x="21" y="22" height="1" width="1"/><rect fill="#fcd265ff" x="22" y="22" height="1" width="1"/><rect fill="#1f325aff" x="23" y="22" height="1" width="2"/><rect fill="#e0d7c5ff" x="25" y="22" height="1" width="1"/><rect fill="#1f325aff" x="26" y="22" height="1" width="1"/><rect fill="#000000ff" x="27" y="22" height="1" width="1"/><rect fill="#1f325aff" x="28" y="22" height="1" width="2"/><rect fill="#db4f54ff" x="30" y="22" height="1" width="1"/><rect fill="#000000ff" x="31" y="22" height="1" width="1"/><rect fill="#000000ff" x="4" y="23" height="1" width="1"/><rect fill="#28a691ff" x="5" y="23" height="1" width="2"/><rect fill="#000000ff" x="7" y="23" height="1" width="1"/><rect fill="#db4f54ff" x="8" y="23" height="1" width="2"/><rect fill="#1f325aff" x="10" y="23" height="1" width="2"/><rect fill="#b8d8cdff" x="12" y="23" height="1" width="1"/><rect fill="#000000ff" x="13" y="23" height="1" width="1"/><rect fill="#b8d8cdff" x="14" y="23" height="1" width="2"/><rect fill="#1f325aff" x="16" y="23" height="1" width="1"/><rect fill="#000000ff" x="17" y="23" height="1" width="1"/><rect fill="#1f325aff" x="18" y="23" height="1" width="1"/><rect fill="#28a691ff" x="19" y="23" height="1" width="2"/><rect fill="#000000ff" x="21" y="23" height="1" width="1"/><rect fill="#db4f54ff" x="22" y="23" height="1" width="1"/><rect fill="#fcd265ff" x="23" y="23" height="1" width="1"/><rect fill="#1f325aff" x="24" y="23" height="1" width="3"/><rect fill="#000000ff" x="27" y="23" height="1" width="1"/><rect fill="#1f325aff" x="28" y="23" height="1" width="1"/><rect fill="#db4f54ff" x="29" y="23" height="1" width="2"/><rect fill="#000000ff" x="31" y="23" height="1" width="1"/><rect fill="#000000ff" x="4" y="24" height="1" width="1"/><rect fill="#28a691ff" x="5" y="24" height="1" width="1"/><rect fill="#db4f54ff" x="6" y="24" height="1" width="2"/><rect fill="#000000ff" x="8" y="24" height="1" width="1"/><rect fill="#1f325aff" x="9" y="24" height="1" width="2"/><rect fill="#b8d8cdff" x="11" y="24" height="1" width="1"/><rect fill="#000000ff" x="12" y="24" height="1" width="2"/><rect fill="#b8d8cdff" x="14" y="24" height="1" width="1"/><rect fill="#1f325aff" x="15" y="24" height="1" width="1"/><rect fill="#000000ff" x="16" y="24" height="1" width="2"/><rect fill="#28a691ff" x="18" y="24" height="1" width="3"/><rect fill="#000000ff" x="21" y="24" height="1" width="1"/><rect fill="#b8d9ceff" x="22" y="24" height="1" width="1"/><rect fill="#db4f54ff" x="23" y="24" height="1" width="1"/><rect fill="#fcd265ff" x="24" y="24" height="1" width="1"/><rect fill="#1f325aff" x="25" y="24" height="1" width="1"/><rect fill="#000000ff" x="26" y="24" height="1" width="1"/><rect fill="#1f325aff" x="27" y="24" height="1" width="1"/><rect fill="#e0d7c5ff" x="28" y="24" height="1" width="1"/><rect fill="#db4f54ff" x="29" y="24" height="1" width="2"/><rect fill="#000000ff" x="31" y="24" height="1" width="1"/><rect fill="#000000ff" x="5" y="25" height="1" width="1"/><rect fill="#db4f54ff" x="6" y="25" height="1" width="2"/><rect fill="#1f325aff" x="8" y="25" height="1" width="1"/><rect fill="#000000ff" x="9" y="25" height="1" width="1"/><rect fill="#b8d8cdff" x="10" y="25" height="1" width="3"/><rect fill="#000000ff" x="13" y="25" height="1" width="1"/><rect fill="#1f325aff" x="14" y="25" height="1" width="3"/><rect fill="#000000ff" x="17" y="25" height="1" width="1"/><rect fill="#28a691ff" x="18" y="25" height="1" width="3"/><rect fill="#000000ff" x="21" y="25" height="1" width="1"/><rect fill="#28a691ff" x="22" y="25" height="1" width="1"/><rect fill="#1f325aff" x="23" y="25" height="1" width="2"/><rect fill="#000000ff" x="25" y="25" height="1" width="1"/><rect fill="#1f325aff" x="26" y="25" height="1" width="2"/><rect fill="#db4f54ff" x="28" y="25" height="1" width="2"/><rect fill="#000000ff" x="30" y="25" height="1" width="1"/><rect fill="#000000ff" x="5" y="26" height="1" width="1"/><rect fill="#db4f54ff" x="6" y="26" height="1" width="1"/><rect fill="#1f325aff" x="7" y="26" height="1" width="1"/><rect fill="#000000ff" x="8" y="26" height="1" width="6"/><rect fill="#1f325aff" x="14" y="26" height="1" width="2"/><rect fill="#543e2eff" x="16" y="26" height="1" width="1"/><rect fill="#000000ff" x="17" y="26" height="1" width="1"/><rect fill="#28a691ff" x="18" y="26" height="1" width="3"/><rect fill="#000000ff" x="21" y="26" height="1" width="6"/><rect fill="#db4f54ff" x="27" y="26" height="1" width="3"/><rect fill="#000000ff" x="30" y="26" height="1" width="1"/><rect fill="#000000ff" x="6" y="27" height="1" width="1"/><rect fill="#1f325aff" x="7" y="27" height="1" width="1"/><rect fill="#000000ff" x="8" y="27" height="1" width="1"/><rect fill="#b8d8cdff" x="9" y="27" height="1" width="3"/><rect fill="#1f325aff" x="12" y="27" height="1" width="1"/><rect fill="#000000ff" x="13" y="27" height="1" width="1"/><rect fill="#1f325aff" x="14" y="27" height="1" width="1"/><rect fill="#543e2eff" x="15" y="27" height="1" width="2"/><rect fill="#000000ff" x="17" y="27" height="1" width="1"/><rect fill="#28a691ff" x="18" y="27" height="1" width="3"/><rect fill="#000000ff" x="21" y="27" height="1" width="1"/><rect fill="#1f325aff" x="22" y="27" height="1" width="3"/><rect fill="#db4f54ff" x="25" y="27" height="1" width="1"/><rect fill="#000000ff" x="26" y="27" height="1" width="1"/><rect fill="#db4f54ff" x="27" y="27" height="1" width="2"/><rect fill="#000000ff" x="29" y="27" height="1" width="1"/><rect fill="#000000ff" x="7" y="28" height="1" width="22"/></svg>