<svg xmlns="http://www.w3.org/2000/svg" shape-rendering="crispEdges" version="1.1" viewBox="0 0 36 36" width="360" height="360"><rect fill="#c4da53ff" x="9" y="13" height="1" width="1"/><rect fill="#c4da53ff" x="23" y="13" height="1" width="1"/><rect fill="#c4da53ff" x="8" y="14" height="1" width="1"/><rect fill="#000000ff" x="9" y="14" height="1" width="1"/><rect fill="#c4da53ff" x="10" y="14" height="1" width="1"/><rect fill="#c4da53ff" x="22" y="14" height="1" width="1"/><rect fill="#000000ff" x="23" y="14" height="1" width="1"/><rect fill="#c4da53ff" x="24" y="14" height="1" width="1"/><rect fill="#c4da53ff" x="8" y="15" height="1" width="1"/><rect fill="#000000ff" x="9" y="15" height="1" width="1"/><rect fill="#c4da53ff" x="10" y="15" height="1" width="13"/><rect fill="#000000ff" x="23" y="15" height="1" width="1"/><rect fill="#c4da53ff" x="24" y="15" height="1" width="1"/><rect fill="#c4da53ff" x="8" y="16" height="1" width="2"/><rect fill="#000000ff" x="10" y="16" height="1" width="5"/><rect fill="#f9f4f2ff" x="15" y="16" height="1" width="1"/><rect fill="#000000ff" x="16" y="16" height="1" width="1"/><rect fill="#f9f4f2ff" x="17" y="16" height="1" width="1"/><rect fill="#000000ff" x="18" y="16" height="1" width="5"/><rect fill="#c4da53ff" x="23" y="16" height="1" width="2"/><rect fill="#c4da53ff" x="9" y="17" height="1" width="15"/></svg>