<svg xmlns="http://www.w3.org/2000/svg" shape-rendering="crispEdges" version="1.1" viewBox="0 0 36 36" width="360" height="360"><rect fill="#000000ff" x="13" y="4" height="1" width="1"/><rect fill="#ffe330ff" x="14" y="4" height="1" width="1"/><rect fill="#000000ff" x="15" y="4" height="1" width="1"/><rect fill="#ffe330ff" x="16" y="4" height="1" width="1"/><rect fill="#000000ff" x="17" y="4" height="1" width="1"/><rect fill="#ffe330ff" x="18" y="4" height="1" width="1"/><rect fill="#000000ff" x="19" y="4" height="1" width="1"/><rect fill="#ffe330ff" x="20" y="4" height="1" width="1"/><rect fill="#000000ff" x="21" y="4" height="1" width="1"/><rect fill="#ffe330ff" x="22" y="4" height="1" width="1"/><rect fill="#000000ff" x="23" y="4" height="1" width="1"/><rect fill="#000000ff" x="13" y="5" height="1" width="1"/><rect fill="#ffe330ff" x="14" y="5" height="1" width="1"/><rect fill="#000000ff" x="15" y="5" height="1" width="1"/><rect fill="#ffe330ff" x="16" y="5" height="1" width="1"/><rect fill="#000000ff" x="17" y="5" height="1" width="1"/><rect fill="#ffe330ff" x="18" y="5" height="1" width="1"/><rect fill="#000000ff" x="19" y="5" height="1" width="1"/><rect fill="#ffe330ff" x="20" y="5" height="1" width="1"/><rect fill="#000000ff" x="21" y="5" height="1" width="1"/><rect fill="#ffe330ff" x="22" y="5" height="1" width="1"/><rect fill="#000000ff" x="23" y="5" height="1" width="1"/><rect fill="#000000ff" x="13" y="6" height="1" width="1"/><rect fill="#ffe330ff" x="14" y="6" height="1" width="1"/><rect fill="#000000ff" x="15" y="6" height="1" width="1"/><rect fill="#ffe330ff" x="16" y="6" height="1" width="1"/><rect fill="#000000ff" x="17" y="6" height="1" width="1"/><rect fill="#ffe330ff" x="18" y="6" height="1" width="1"/><rect fill="#000000ff" x="19" y="6" height="1" width="1"/><rect fill="#ffe330ff" x="20" y="6" height="1" width="1"/><rect fill="#000000ff" x="21" y="6" height="1" width="1"/><rect fill="#ffe330ff" x="22" y="6" height="1" width="1"/><rect fill="#000000ff" x="23" y="6" height="1" width="1"/><rect fill="#000000ff" x="13" y="7" height="1" width="1"/><rect fill="#ffe330ff" x="14" y="7" height="1" width="1"/><rect fill="#000000ff" x="15" y="7" height="1" width="1"/><rect fill="#ffe330ff" x="16" y="7" height="1" width="1"/><rect fill="#000000ff" x="17" y="7" height="1" width="1"/><rect fill="#ffe330ff" x="18" y="7" height="1" width="1"/><rect fill="#000000ff" x="19" y="7" height="1" width="1"/><rect fill="#ffe330ff" x="20" y="7" height="1" width="1"/><rect fill="#000000ff" x="21" y="7" height="1" width="1"/><rect fill="#ffe330ff" x="22" y="7" height="1" width="1"/><rect fill="#000000ff" x="23" y="7" height="1" width="1"/><rect fill="#554947ff" x="6" y="8" height="1" width="3"/><rect fill="#000000ff" x="13" y="8" height="1" width="1"/><rect fill="#ffe330ff" x="14" y="8" height="1" width="1"/><rect fill="#000000ff" x="15" y="8" height="1" width="1"/><rect fill="#ffe330ff" x="16" y="8" height="1" width="1"/><rect fill="#000000ff" x="17" y="8" height="1" width="1"/><rect fill="#ffe330ff" x="18" y="8" height="1" width="1"/><rect fill="#000000ff" x="19" y="8" height="1" width="1"/><rect fill="#ffe330ff" x="20" y="8" height="1" width="1"/><rect fill="#000000ff" x="21" y="8" height="1" width="1"/><rect fill="#ffe330ff" x="22" y="8" height="1" width="1"/><rect fill="#000000ff" x="23" y="8" height="1" width="1"/><rect fill="#554947ff" x="5" y="9" height="1" width="1"/><rect fill="#000000ff" x="10" y="9" height="1" width="15"/><rect fill="#554947ff" x="5" y="10" height="1" width="1"/><rect fill="#000000ff" x="9" y="10" height="1" width="1"/><rect fill="#c4da53ff" x="10" y="10" height="1" width="3"/><rect fill="#dddb3bff" x="13" y="10" height="1" width="1"/><rect fill="#c4da53ff" x="14" y="10" height="1" width="2"/><rect fill="#dddb3bff" x="16" y="10" height="1" width="1"/><rect fill="#c4da53ff" x="17" y="10" height="1" width="2"/><rect fill="#dddb3bff" x="19" y="10" height="1" width="1"/><rect fill="#c4da53ff" x="20" y="10" height="1" width="5"/><rect fill="#000000ff" x="25" y="10" height="1" width="1"/><rect fill="#554947ff" x="4" y="11" height="1" width="1"/><rect fill="#000000ff" x="8" y="11" height="1" width="1"/><rect fill="#dddb3bff" x="9" y="11" height="1" width="1"/><rect fill="#f5f48bff" x="10" y="11" height="1" width="1"/><rect fill="#c4da53ff" x="11" y="11" height="1" width="12"/><rect fill="#dddb3bff" x="23" y="11" height="1" width="1"/><rect fill="#c4da53ff" x="24" y="11" height="1" width="2"/><rect fill="#000000ff" x="26" y="11" height="1" width="1"/><rect fill="#554947ff" x="4" y="12" height="1" width="1"/><rect fill="#000000ff" x="8" y="12" height="1" width="1"/><rect fill="#c4da53ff" x="9" y="12" height="1" width="2"/><rect fill="#909b0eff" x="11" y="12" height="1" width="5"/><rect fill="#c4da53ff" x="16" y="12" height="1" width="1"/><rect fill="#909b0eff" x="17" y="12" height="1" width="5"/><rect fill="#c4da53ff" x="22" y="12" height="1" width="2"/><rect fill="#909b0eff" x="24" y="12" height="1" width="1"/><rect fill="#c4da53ff" x="25" y="12" height="1" width="1"/><rect fill="#000000ff" x="26" y="12" height="1" width="1"/><rect fill="#554947ff" x="4" y="13" height="1" width="1"/><rect fill="#000000ff" x="7" y="13" height="1" width="2"/><rect fill="#c4da53ff" x="9" y="13" height="1" width="2"/><rect fill="#f78a18ff" x="11" y="13" height="1" width="1"/><rect fill="#000000ff" x="12" y="13" height="1" width="3"/><rect fill="#f78a18ff" x="15" y="13" height="1" width="1"/><rect fill="#c4da53ff" x="16" y="13" height="1" width="1"/><rect fill="#f78a18ff" x="17" y="13" height="1" width="1"/><rect fill="#000000ff" x="18" y="13" height="1" width="3"/><rect fill="#f78a18ff" x="21" y="13" height="1" width="1"/><rect fill="#c4da53ff" x="22" y="13" height="1" width="2"/><rect fill="#dddb3bff" x="24" y="13" height="1" width="1"/><rect fill="#c4da53ff" x="25" y="13" height="1" width="1"/><rect fill="#000000ff" x="26" y="13" height="1" width="2"/><rect fill="#000000ff" x="7" y="14" height="1" width="1"/><rect fill="#c4da53ff" x="8" y="14" height="1" width="1"/><rect fill="#f5f48bff" x="9" y="14" height="1" width="3"/><rect fill="#c4da53ff" x="12" y="14" height="1" width="8"/><rect fill="#f5f48bff" x="20" y="14" height="1" width="3"/><rect fill="#c4da53ff" x="23" y="14" height="1" width="4"/><rect fill="#000000ff" x="27" y="14" height="1" width="1"/><rect fill="#000000ff" x="6" y="15" height="1" width="5"/><rect fill="#8f7fa0ff" x="11" y="15" height="1" width="17"/><rect fill="#000000ff" x="5" y="16" height="1" width="1"/><rect fill="#e95f2aff" x="6" y="16" height="1" width="1"/><rect fill="#f9f4f2ff" x="7" y="16" height="1" width="4"/><rect fill="#000000ff" x="11" y="16" height="1" width="16"/><rect fill="#8f7fa0ff" x="27" y="16" height="1" width="1"/><rect fill="#000000ff" x="6" y="17" height="1" width="5"/><rect fill="#8f7fa0ff" x="11" y="17" height="1" width="17"/><rect fill="#000000ff" x="6" y="18" height="1" width="2"/><rect fill="#dddb3bff" x="8" y="18" height="1" width="1"/><rect fill="#c4da53ff" x="9" y="18" height="1" width="16"/><rect fill="#f5f48bff" x="25" y="18" height="1" width="1"/><rect fill="#dddb3bff" x="26" y="18" height="1" width="1"/><rect fill="#000000ff" x="27" y="18" height="1" width="3"/><rect fill="#000000ff" x="5" y="19" height="1" width="1"/><rect fill="#c4da53ff" x="6" y="19" height="1" width="1"/><rect fill="#000000ff" x="7" y="19" height="1" width="1"/><rect fill="#c4da53ff" x="8" y="19" height="1" width="1"/><rect fill="#909b0eff" x="9" y="19" height="1" width="1"/><rect fill="#c4da53ff" x="10" y="19" height="1" width="12"/><rect fill="#dddb3bff" x="22" y="19" height="1" width="1"/><rect fill="#c4da53ff" x="23" y="19" height="1" width="1"/><rect fill="#909b0eff" x="24" y="19" height="1" width="1"/><rect fill="#f5f48bff" x="25" y="19" height="1" width="1"/><rect fill="#c4da53ff" x="26" y="19" height="1" width="1"/><rect fill="#000000ff" x="27" y="19" height="1" width="1"/><rect fill="#c4da53ff" x="28" y="19" height="1" width="2"/><rect fill="#000000ff" x="30" y="19" height="1" width="1"/><rect fill="#000000ff" x="5" y="20" height="1" width="1"/><rect fill="#dddb3bff" x="6" y="20" height="1" width="1"/><rect fill="#000000ff" x="7" y="20" height="1" width="1"/><rect fill="#c4da53ff" x="8" y="20" height="1" width="2"/><rect fill="#dddb3bff" x="10" y="20" height="1" width="1"/><rect fill="#c4da53ff" x="11" y="20" height="1" width="14"/><rect fill="#f5f48bff" x="25" y="20" height="1" width="1"/><rect fill="#c4da53ff" x="26" y="20" height="1" width="1"/><rect fill="#000000ff" x="27" y="20" height="1" width="1"/><rect fill="#dddb3bff" x="28" y="20" height="1" width="1"/><rect fill="#c4da53ff" x="29" y="20" height="1" width="2"/><rect fill="#000000ff" x="31" y="20" height="1" width="1"/><rect fill="#000000ff" x="4" y="21" height="1" width="1"/><rect fill="#f5f48bff" x="5" y="21" height="1" width="1"/><rect fill="#c4da53ff" x="6" y="21" height="1" width="1"/><rect fill="#000000ff" x="7" y="21" height="1" width="1"/><rect fill="#dddb3bff" x="8" y="21" height="1" width="1"/><rect fill="#c4da53ff" x="9" y="21" height="1" width="13"/><rect fill="#909b0eff" x="22" y="21" height="1" width="1"/><rect fill="#c4da53ff" x="23" y="21" height="1" width="1"/><rect fill="#dddb3bff" x="24" y="21" height="1" width="1"/><rect fill="#c4da53ff" x="25" y="21" height="1" width="2"/><rect fill="#000000ff" x="27" y="21" height="1" width="1"/><rect fill="#c4da53ff" x="28" y="21" height="1" width="2"/><rect fill="#dddb3bff" x="30" y="21" height="1" width="1"/><rect fill="#000000ff" x="31" y="21" height="1" width="1"/><rect fill="#000000ff" x="4" y="22" height="1" width="1"/><rect fill="#f5f48bff" x="5" y="22" height="1" width="1"/><rect fill="#909b0eff" x="6" y="22" height="1" width="1"/><rect fill="#000000ff" x="7" y="22" height="1" width="1"/><rect fill="#c4da53ff" x="8" y="22" height="1" width="8"/><rect fill="#000000ff" x="16" y="22" height="1" width="1"/><rect fill="#c4da53ff" x="17" y="22" height="1" width="8"/><rect fill="#f5f48bff" x="25" y="22" height="1" width="1"/><rect fill="#c4da53ff" x="26" y="22" height="1" width="1"/><rect fill="#000000ff" x="27" y="22" height="1" width="1"/><rect fill="#c4da53ff" x="28" y="22" height="1" width="1"/><rect fill="#909b0eff" x="29" y="22" height="1" width="1"/><rect fill="#c4da53ff" x="30" y="22" height="1" width="1"/><rect fill="#000000ff" x="31" y="22" height="1" width="1"/><rect fill="#000000ff" x="4" y="23" height="1" width="1"/><rect fill="#dddb3bff" x="5" y="23" height="1" width="1"/><rect fill="#c4da53ff" x="6" y="23" height="1" width="1"/><rect fill="#000000ff" x="7" y="23" height="1" width="1"/><rect fill="#c4da53ff" x="8" y="23" height="1" width="2"/><rect fill="#909b0eff" x="10" y="23" height="1" width="1"/><rect fill="#c4da53ff" x="11" y="23" height="1" width="1"/><rect fill="#000000ff" x="12" y="23" height="1" width="1"/><rect fill="#c4da53ff" x="13" y="23" height="1" width="4"/><rect fill="#000000ff" x="17" y="23" height="1" width="1"/><rect fill="#c4da53ff" x="18" y="23" height="1" width="3"/><rect fill="#000000ff" x="21" y="23" height="1" width="1"/><rect fill="#c4da53ff" x="22" y="23" height="1" width="5"/><rect fill="#000000ff" x="27" y="23" height="1" width="1"/><rect fill="#c4da53ff" x="28" y="23" height="1" width="3"/><rect fill="#000000ff" x="31" y="23" height="1" width="1"/><rect fill="#000000ff" x="4" y="24" height="1" width="1"/><rect fill="#c4da53ff" x="5" y="24" height="1" width="2"/><rect fill="#dddb3bff" x="7" y="24" height="1" width="1"/><rect fill="#000000ff" x="8" y="24" height="1" width="1"/><rect fill="#c4da53ff" x="9" y="24" height="1" width="4"/><rect fill="#000000ff" x="13" y="24" height="1" width="1"/><rect fill="#f5f48bff" x="14" y="24" height="1" width="1"/><rect fill="#c4da53ff" x="15" y="24" height="1" width="2"/><rect fill="#000000ff" x="17" y="24" height="1" width="1"/><rect fill="#f5f48bff" x="18" y="24" height="1" width="1"/><rect fill="#c4da53ff" x="19" y="24" height="1" width="2"/><rect fill="#000000ff" x="21" y="24" height="1" width="1"/><rect fill="#dddb3bff" x="22" y="24" height="1" width="1"/><rect fill="#c4da53ff" x="23" y="24" height="1" width="1"/><rect fill="#909b0eff" x="24" y="24" height="1" width="1"/><rect fill="#c4da53ff" x="25" y="24" height="1" width="1"/><rect fill="#000000ff" x="26" y="24" height="1" width="1"/><rect fill="#c4da53ff" x="27" y="24" height="1" width="1"/><rect fill="#dddb3bff" x="28" y="24" height="1" width="1"/><rect fill="#c4da53ff" x="29" y="24" height="1" width="2"/><rect fill="#000000ff" x="31" y="24" height="1" width="1"/><rect fill="#000000ff" x="5" y="25" height="1" width="1"/><rect fill="#909b0eff" x="6" y="25" height="1" width="1"/><rect fill="#c4da53ff" x="7" y="25" height="1" width="2"/><rect fill="#000000ff" x="9" y="25" height="1" width="1"/><rect fill="#c4da53ff" x="10" y="25" height="1" width="3"/><rect fill="#000000ff" x="13" y="25" height="1" width="1"/><rect fill="#f5f48bff" x="14" y="25" height="1" width="1"/><rect fill="#c4da53ff" x="15" y="25" height="1" width="2"/><rect fill="#000000ff" x="17" y="25" height="1" width="1"/><rect fill="#f5f48bff" x="18" y="25" height="1" width="1"/><rect fill="#c4da53ff" x="19" y="25" height="1" width="2"/><rect fill="#000000ff" x="21" y="25" height="1" width="1"/><rect fill="#c4da53ff" x="22" y="25" height="1" width="3"/><rect fill="#000000ff" x="25" y="25" height="1" width="1"/><rect fill="#c4da53ff" x="26" y="25" height="1" width="4"/><rect fill="#000000ff" x="30" y="25" height="1" width="1"/><rect fill="#000000ff" x="5" y="26" height="1" width="1"/><rect fill="#c4da53ff" x="6" y="26" height="1" width="2"/><rect fill="#000000ff" x="8" y="26" height="1" width="6"/><rect fill="#f5f48bff" x="14" y="26" height="1" width="1"/><rect fill="#c4da53ff" x="15" y="26" height="1" width="2"/><rect fill="#000000ff" x="17" y="26" height="1" width="1"/><rect fill="#f5f48bff" x="18" y="26" height="1" width="1"/><rect fill="#c4da53ff" x="19" y="26" height="1" width="2"/><rect fill="#000000ff" x="21" y="26" height="1" width="6"/><rect fill="#c4da53ff" x="27" y="26" height="1" width="1"/><rect fill="#909b0eff" x="28" y="26" height="1" width="1"/><rect fill="#c4da53ff" x="29" y="26" height="1" width="1"/><rect fill="#000000ff" x="30" y="26" height="1" width="1"/><rect fill="#000000ff" x="6" y="27" height="1" width="1"/><rect fill="#c4da53ff" x="7" y="27" height="1" width="1"/><rect fill="#000000ff" x="8" y="27" height="1" width="1"/><rect fill="#c4da53ff" x="9" y="27" height="1" width="4"/><rect fill="#000000ff" x="13" y="27" height="1" width="1"/><rect fill="#c4da53ff" x="14" y="27" height="1" width="3"/><rect fill="#000000ff" x="17" y="27" height="1" width="1"/><rect fill="#c4da53ff" x="18" y="27" height="1" width="3"/><rect fill="#000000ff" x="21" y="27" height="1" width="1"/><rect fill="#c4da53ff" x="22" y="27" height="1" width="4"/><rect fill="#000000ff" x="26" y="27" height="1" width="1"/><rect fill="#c4da53ff" x="27" y="27" height="1" width="2"/><rect fill="#000000ff" x="29" y="27" height="1" width="1"/><rect fill="#000000ff" x="7" y="28" height="1" width="22"/></svg>