<svg xmlns="http://www.w3.org/2000/svg" shape-rendering="crispEdges" version="1.1" viewBox="0 0 36 36" width="360" height="360"><rect fill="#1d2952ff" x="14" y="5" height="1" width="1"/><rect fill="#2b162aff" x="15" y="5" height="1" width="1"/><rect fill="#1d2952ff" x="16" y="5" height="1" width="1"/><rect fill="#2b162aff" x="17" y="5" height="1" width="1"/><rect fill="#1d2952ff" x="18" y="5" height="1" width="1"/><rect fill="#2b162aff" x="19" y="5" height="1" width="1"/><rect fill="#1d2952ff" x="20" y="5" height="1" width="1"/><rect fill="#2b162aff" x="21" y="5" height="1" width="1"/><rect fill="#1d2952ff" x="14" y="6" height="1" width="1"/><rect fill="#2b162aff" x="15" y="6" height="1" width="1"/><rect fill="#1d2952ff" x="16" y="6" height="1" width="1"/><rect fill="#2b162aff" x="17" y="6" height="1" width="1"/><rect fill="#1d2952ff" x="18" y="6" height="1" width="1"/><rect fill="#2b162aff" x="19" y="6" height="1" width="1"/><rect fill="#1d2952ff" x="20" y="6" height="1" width="1"/><rect fill="#2b162aff" x="21" y="6" height="1" width="1"/><rect fill="#2b162aff" x="14" y="7" height="1" width="8"/><rect fill="#2b162aff" x="13" y="8" height="1" width="6"/><rect fill="#1d2952ff" x="19" y="8" height="1" width="3"/><rect fill="#2b162aff" x="22" y="8" height="1" width="1"/><rect fill="#2b162aff" x="13" y="9" height="1" width="10"/><rect fill="#2b162aff" x="13" y="10" height="1" width="10"/><rect fill="#2b162aff" x="13" y="11" height="1" width="10"/><rect fill="#1d2952ff" x="12" y="12" height="1" width="12"/><rect fill="#2b162aff" x="11" y="13" height="1" width="14"/><rect fill="#2b162aff" x="11" y="14" height="1" width="14"/><rect fill="#000000ff" x="25" y="14" height="1" width="2"/><rect fill="#0827f5ff" x="9" y="15" height="1" width="6"/><rect fill="#7d7d7dff" x="15" y="15" height="1" width="1"/><rect fill="#0827f5ff" x="16" y="15" height="1" width="6"/><rect fill="#7d7d7dff" x="22" y="15" height="1" width="4"/><rect fill="#000000ff" x="26" y="15" height="1" width="1"/><rect fill="#0827f5ff" x="9" y="16" height="1" width="1"/><rect fill="#fff0eeff" x="10" y="16" height="1" width="2"/><rect fill="#000000ff" x="12" y="16" height="1" width="2"/><rect fill="#0827f5ff" x="14" y="16" height="1" width="1"/><rect fill="#7d7d7dff" x="15" y="16" height="1" width="1"/><rect fill="#0827f5ff" x="16" y="16" height="1" width="1"/><rect fill="#fff0eeff" x="17" y="16" height="1" width="2"/><rect fill="#000000ff" x="19" y="16" height="1" width="2"/><rect fill="#0827f5ff" x="21" y="16" height="1" width="1"/><rect fill="#7d7d7dff" x="22" y="16" height="1" width="2"/><rect fill="#a1a1a1ff" x="24" y="16" height="1" width="1"/><rect fill="#7d7d7dff" x="25" y="16" height="1" width="1"/><rect fill="#000000ff" x="26" y="16" height="1" width="1"/><rect fill="#0827f5ff" x="9" y="17" height="1" width="1"/><rect fill="#fff0eeff" x="10" y="17" height="1" width="2"/><rect fill="#000000ff" x="12" y="17" height="1" width="2"/><rect fill="#0827f5ff" x="14" y="17" height="1" width="3"/><rect fill="#fff0eeff" x="17" y="17" height="1" width="2"/><rect fill="#000000ff" x="19" y="17" height="1" width="2"/><rect fill="#0827f5ff" x="21" y="17" height="1" width="3"/><rect fill="#a1a1a1ff" x="24" y="17" height="1" width="1"/><rect fill="#7d7d7dff" x="25" y="17" height="1" width="1"/><rect fill="#000000ff" x="26" y="17" height="1" width="1"/><rect fill="#000000ff" x="7" y="18" height="1" width="2"/><rect fill="#0827f5ff" x="9" y="18" height="1" width="1"/><rect fill="#fff0eeff" x="10" y="18" height="1" width="2"/><rect fill="#000000ff" x="12" y="18" height="1" width="2"/><rect fill="#0827f5ff" x="14" y="18" height="1" width="1"/><rect fill="#000000ff" x="15" y="18" height="1" width="1"/><rect fill="#0827f5ff" x="16" y="18" height="1" width="1"/><rect fill="#fff0eeff" x="17" y="18" height="1" width="2"/><rect fill="#000000ff" x="19" y="18" height="1" width="2"/><rect fill="#0827f5ff" x="21" y="18" height="1" width="1"/><rect fill="#7d7d7dff" x="22" y="18" height="1" width="1"/><rect fill="#0827f5ff" x="23" y="18" height="1" width="1"/><rect fill="#a1a1a1ff" x="24" y="18" height="1" width="1"/><rect fill="#7d7d7dff" x="25" y="18" height="1" width="1"/><rect fill="#000000ff" x="26" y="18" height="1" width="3"/><rect fill="#000000ff" x="6" y="19" height="1" width="1"/><rect fill="#7d7d7dff" x="7" y="19" height="1" width="1"/><rect fill="#000000ff" x="8" y="19" height="1" width="1"/><rect fill="#0827f5ff" x="9" y="19" height="1" width="6"/><rect fill="#7d7d7dff" x="15" y="19" height="1" width="1"/><rect fill="#0827f5ff" x="16" y="19" height="1" width="6"/><rect fill="#7d7d7dff" x="22" y="19" height="1" width="2"/><rect fill="#a1a1a1ff" x="24" y="19" height="1" width="1"/><rect fill="#7d7d7dff" x="25" y="19" height="1" width="1"/><rect fill="#000000ff" x="26" y="19" height="1" width="1"/><rect fill="#7d7d7dff" x="27" y="19" height="1" width="2"/><rect fill="#000000ff" x="29" y="19" height="1" width="1"/><rect fill="#000000ff" x="5" y="20" height="1" width="1"/><rect fill="#7d7d7dff" x="6" y="20" height="1" width="2"/><rect fill="#000000ff" x="8" y="20" height="1" width="1"/><rect fill="#a1a1a1ff" x="9" y="20" height="1" width="1"/><rect fill="#000000ff" x="10" y="20" height="1" width="1"/><rect fill="#a1a1a1ff" x="11" y="20" height="1" width="1"/><rect fill="#000000ff" x="12" y="20" height="1" width="1"/><rect fill="#a1a1a1ff" x="13" y="20" height="1" width="1"/><rect fill="#000000ff" x="14" y="20" height="1" width="1"/><rect fill="#a1a1a1ff" x="15" y="20" height="1" width="1"/><rect fill="#000000ff" x="16" y="20" height="1" width="1"/><rect fill="#a1a1a1ff" x="17" y="20" height="1" width="1"/><rect fill="#000000ff" x="18" y="20" height="1" width="1"/><rect fill="#a1a1a1ff" x="19" y="20" height="1" width="1"/><rect fill="#000000ff" x="20" y="20" height="1" width="1"/><rect fill="#a1a1a1ff" x="21" y="20" height="1" width="1"/><rect fill="#000000ff" x="22" y="20" height="1" width="1"/><rect fill="#7d7d7dff" x="23" y="20" height="1" width="1"/><rect fill="#a1a1a1ff" x="24" y="20" height="1" width="1"/><rect fill="#7d7d7dff" x="25" y="20" height="1" width="1"/><rect fill="#000000ff" x="26" y="20" height="1" width="1"/><rect fill="#7d7d7dff" x="27" y="20" height="1" width="1"/><rect fill="#a1a1a1ff" x="28" y="20" height="1" width="1"/><rect fill="#7d7d7dff" x="29" y="20" height="1" width="1"/><rect fill="#000000ff" x="30" y="20" height="1" width="1"/><rect fill="#000000ff" x="5" y="21" height="1" width="1"/><rect fill="#7d7d7dff" x="6" y="21" height="1" width="2"/><rect fill="#000000ff" x="8" y="21" height="1" width="2"/><rect fill="#a1a1a1ff" x="10" y="21" height="1" width="1"/><rect fill="#000000ff" x="11" y="21" height="1" width="1"/><rect fill="#a1a1a1ff" x="12" y="21" height="1" width="1"/><rect fill="#000000ff" x="13" y="21" height="1" width="1"/><rect fill="#a1a1a1ff" x="14" y="21" height="1" width="1"/><rect fill="#000000ff" x="15" y="21" height="1" width="1"/><rect fill="#a1a1a1ff" x="16" y="21" height="1" width="1"/><rect fill="#000000ff" x="17" y="21" height="1" width="1"/><rect fill="#a1a1a1ff" x="18" y="21" height="1" width="1"/><rect fill="#000000ff" x="19" y="21" height="1" width="1"/><rect fill="#a1a1a1ff" x="20" y="21" height="1" width="1"/><rect fill="#000000ff" x="21" y="21" height="1" width="1"/><rect fill="#a1a1a1ff" x="22" y="21" height="1" width="1"/><rect fill="#7d7d7dff" x="23" y="21" height="1" width="1"/><rect fill="#a1a1a1ff" x="24" y="21" height="1" width="1"/><rect fill="#7d7d7dff" x="25" y="21" height="1" width="1"/><rect fill="#000000ff" x="26" y="21" height="1" width="1"/><rect fill="#7d7d7dff" x="27" y="21" height="1" width="1"/><rect fill="#a1a1a1ff" x="28" y="21" height="1" width="1"/><rect fill="#7d7d7dff" x="29" y="21" height="1" width="1"/><rect fill="#000000ff" x="30" y="21" height="1" width="1"/><rect fill="#000000ff" x="5" y="22" height="1" width="4"/><rect fill="#7d7d7dff" x="9" y="22" height="1" width="15"/><rect fill="#a1a1a1ff" x="24" y="22" height="1" width="1"/><rect fill="#7d7d7dff" x="25" y="22" height="1" width="1"/><rect fill="#000000ff" x="26" y="22" height="1" width="5"/><rect fill="#000000ff" x="5" y="23" height="1" width="1"/><rect fill="#7d7d7dff" x="6" y="23" height="1" width="2"/><rect fill="#000000ff" x="8" y="23" height="1" width="1"/><rect fill="#7d7d7dff" x="9" y="23" height="1" width="17"/><rect fill="#000000ff" x="26" y="23" height="1" width="1"/><rect fill="#7d7d7dff" x="27" y="23" height="1" width="1"/><rect fill="#a1a1a1ff" x="28" y="23" height="1" width="1"/><rect fill="#7d7d7dff" x="29" y="23" height="1" width="1"/><rect fill="#000000ff" x="30" y="23" height="1" width="1"/><rect fill="#000000ff" x="5" y="24" height="1" width="1"/><rect fill="#7d7d7dff" x="6" y="24" height="1" width="2"/><rect fill="#a1a1a1ff" x="8" y="24" height="1" width="1"/><rect fill="#000000ff" x="9" y="24" height="1" width="1"/><rect fill="#7d7d7dff" x="10" y="24" height="1" width="4"/><rect fill="#000000ff" x="14" y="24" height="1" width="1"/><rect fill="#7d7d7dff" x="15" y="24" height="1" width="4"/><rect fill="#a1a1a1ff" x="19" y="24" height="1" width="1"/><rect fill="#000000ff" x="20" y="24" height="1" width="1"/><rect fill="#7d7d7dff" x="21" y="24" height="1" width="3"/><rect fill="#a1a1a1ff" x="24" y="24" height="1" width="1"/><rect fill="#7d7d7dff" x="25" y="24" height="1" width="1"/><rect fill="#000000ff" x="26" y="24" height="1" width="1"/><rect fill="#7d7d7dff" x="27" y="24" height="1" width="3"/><rect fill="#000000ff" x="30" y="24" height="1" width="1"/><rect fill="#000000ff" x="6" y="25" height="1" width="1"/><rect fill="#7d7d7dff" x="7" y="25" height="1" width="3"/><rect fill="#000000ff" x="10" y="25" height="1" width="1"/><rect fill="#7d7d7dff" x="11" y="25" height="1" width="4"/><rect fill="#000000ff" x="15" y="25" height="1" width="1"/><rect fill="#a1a1a1ff" x="16" y="25" height="1" width="1"/><rect fill="#000000ff" x="17" y="25" height="1" width="1"/><rect fill="#7d7d7dff" x="18" y="25" height="1" width="1"/><rect fill="#000000ff" x="19" y="25" height="1" width="1"/><rect fill="#7d7d7dff" x="20" y="25" height="1" width="5"/><rect fill="#000000ff" x="25" y="25" height="1" width="1"/><rect fill="#7d7d7dff" x="26" y="25" height="1" width="3"/><rect fill="#000000ff" x="29" y="25" height="1" width="1"/><rect fill="#000000ff" x="6" y="26" height="1" width="1"/><rect fill="#7d7d7dff" x="7" y="26" height="1" width="1"/><rect fill="#000000ff" x="8" y="26" height="1" width="2"/><rect fill="#7d7d7dff" x="10" y="26" height="1" width="1"/><rect fill="#000000ff" x="11" y="26" height="1" width="4"/><rect fill="#7d7d7dff" x="15" y="26" height="1" width="1"/><rect fill="#a1a1a1ff" x="16" y="26" height="1" width="1"/><rect fill="#000000ff" x="17" y="26" height="1" width="1"/><rect fill="#7d7d7dff" x="18" y="26" height="1" width="1"/><rect fill="#a1a1a1ff" x="19" y="26" height="1" width="1"/><rect fill="#000000ff" x="20" y="26" height="1" width="5"/><rect fill="#7d7d7dff" x="25" y="26" height="1" width="1"/><rect fill="#000000ff" x="26" y="26" height="1" width="2"/><rect fill="#7d7d7dff" x="28" y="26" height="1" width="1"/><rect fill="#000000ff" x="29" y="26" height="1" width="1"/><rect fill="#000000ff" x="7" y="27" height="1" width="1"/><rect fill="#7d7d7dff" x="8" y="27" height="1" width="5"/><rect fill="#a1a1a1ff" x="13" y="27" height="1" width="1"/><rect fill="#000000ff" x="14" y="27" height="1" width="1"/><rect fill="#7d7d7dff" x="15" y="27" height="1" width="1"/><rect fill="#a1a1a1ff" x="16" y="27" height="1" width="1"/><rect fill="#000000ff" x="17" y="27" height="1" width="1"/><rect fill="#7d7d7dff" x="18" y="27" height="1" width="1"/><rect fill="#a1a1a1ff" x="19" y="27" height="1" width="1"/><rect fill="#000000ff" x="20" y="27" height="1" width="1"/><rect fill="#7d7d7dff" x="21" y="27" height="1" width="6"/><rect fill="#a1a1a1ff" x="27" y="27" height="1" width="1"/><rect fill="#000000ff" x="28" y="27" height="1" width="1"/><rect fill="#000000ff" x="7" y="28" height="1" width="21"/></svg>