<svg xmlns="http://www.w3.org/2000/svg" shape-rendering="crispEdges" version="1.1" viewBox="0 0 36 36" width="360" height="360"><rect fill="#000000ff" x="11" y="4" height="1" width="15"/><rect fill="#000000ff" x="9" y="5" height="1" width="2"/><rect fill="#291414ff" x="11" y="5" height="1" width="15"/><rect fill="#000000ff" x="26" y="5" height="1" width="2"/><rect fill="#000000ff" x="8" y="6" height="1" width="1"/><rect fill="#291414ff" x="9" y="6" height="1" width="19"/><rect fill="#000000ff" x="28" y="6" height="1" width="1"/><rect fill="#000000ff" x="7" y="7" height="1" width="1"/><rect fill="#291414ff" x="8" y="7" height="1" width="2"/><rect fill="#4e4242ff" x="10" y="7" height="1" width="2"/><rect fill="#291414ff" x="12" y="7" height="1" width="17"/><rect fill="#000000ff" x="29" y="7" height="1" width="1"/><rect fill="#000000ff" x="6" y="8" height="1" width="1"/><rect fill="#291414ff" x="7" y="8" height="1" width="2"/><rect fill="#4e4242ff" x="9" y="8" height="1" width="3"/><rect fill="#291414ff" x="12" y="8" height="1" width="18"/><rect fill="#000000ff" x="30" y="8" height="1" width="1"/><rect fill="#000000ff" x="5" y="9" height="1" width="1"/><rect fill="#291414ff" x="6" y="9" height="1" width="2"/><rect fill="#4e4242ff" x="8" y="9" height="1" width="3"/><rect fill="#291414ff" x="11" y="9" height="1" width="20"/><rect fill="#000000ff" x="31" y="9" height="1" width="1"/><rect fill="#000000ff" x="5" y="10" height="1" width="1"/><rect fill="#291414ff" x="6" y="10" height="1" width="2"/><rect fill="#4e4242ff" x="8" y="10" height="1" width="2"/><rect fill="#291414ff" x="10" y="10" height="1" width="6"/><rect fill="#2c1516ff" x="16" y="10" height="1" width="1"/><rect fill="#764a37ff" x="17" y="10" height="1" width="5"/><rect fill="#291414ff" x="22" y="10" height="1" width="9"/><rect fill="#000000ff" x="31" y="10" height="1" width="1"/><rect fill="#000000ff" x="5" y="11" height="1" width="1"/><rect fill="#291414ff" x="6" y="11" height="1" width="8"/><rect fill="#895a35ff" x="14" y="11" height="1" width="4"/><rect fill="#2c1516ff" x="18" y="11" height="1" width="2"/><rect fill="#764a37ff" x="20" y="11" height="1" width="3"/><rect fill="#291414ff" x="23" y="11" height="1" width="8"/><rect fill="#000000ff" x="31" y="11" height="1" width="1"/><rect fill="#000000ff" x="5" y="12" height="1" width="1"/><rect fill="#291414ff" x="6" y="12" height="1" width="7"/><rect fill="#895a35ff" x="13" y="12" height="1" width="6"/><rect fill="#764a37ff" x="19" y="12" height="1" width="5"/><rect fill="#291414ff" x="24" y="12" height="1" width="7"/><rect fill="#000000ff" x="31" y="12" height="1" width="1"/><rect fill="#000000ff" x="5" y="13" height="1" width="1"/><rect fill="#291414ff" x="6" y="13" height="1" width="6"/><rect fill="#895a35ff" x="12" y="13" height="1" width="5"/><rect fill="#2c1516ff" x="17" y="13" height="1" width="1"/><rect fill="#895a35ff" x="18" y="13" height="1" width="1"/><rect fill="#764a37ff" x="19" y="13" height="1" width="6"/><rect fill="#291414ff" x="25" y="13" height="1" width="6"/><rect fill="#000000ff" x="31" y="13" height="1" width="1"/><rect fill="#000000ff" x="5" y="14" height="1" width="1"/><rect fill="#291414ff" x="6" y="14" height="1" width="4"/><rect fill="#2c1516ff" x="10" y="14" height="1" width="15"/><rect fill="#291414ff" x="25" y="14" height="1" width="4"/><rect fill="#000000ff" x="29" y="14" height="1" width="1"/><rect fill="#291414ff" x="30" y="14" height="1" width="1"/><rect fill="#000000ff" x="31" y="14" height="1" width="1"/><rect fill="#000000ff" x="5" y="15" height="1" width="1"/><rect fill="#291414ff" x="6" y="15" height="1" width="1"/><rect fill="#764a37ff" x="7" y="15" height="1" width="21"/><rect fill="#291414ff" x="28" y="15" height="1" width="3"/><rect fill="#000000ff" x="31" y="15" height="1" width="1"/><rect fill="#000000ff" x="5" y="16" height="1" width="1"/><rect fill="#291414ff" x="6" y="16" height="1" width="5"/><rect fill="#29aba5ff" x="11" y="16" height="1" width="14"/><rect fill="#291414ff" x="25" y="16" height="1" width="4"/><rect fill="#000000ff" x="29" y="16" height="1" width="1"/><rect fill="#291414ff" x="30" y="16" height="1" width="1"/><rect fill="#000000ff" x="31" y="16" height="1" width="1"/><rect fill="#000000ff" x="5" y="17" height="1" width="1"/><rect fill="#291414ff" x="6" y="17" height="1" width="5"/><rect fill="#ff2020ff" x="11" y="17" height="1" width="3"/><rect fill="#ffd23cff" x="14" y="17" height="1" width="2"/><rect fill="#29aba5ff" x="16" y="17" height="1" width="1"/><rect fill="#ff2020ff" x="17" y="17" height="1" width="3"/><rect fill="#ffd23cff" x="20" y="17" height="1" width="2"/><rect fill="#29aba5ff" x="22" y="17" height="1" width="1"/><rect fill="#687fb7ff" x="23" y="17" height="1" width="1"/><rect fill="#29aba5ff" x="24" y="17" height="1" width="1"/><rect fill="#291414ff" x="25" y="17" height="1" width="6"/><rect fill="#000000ff" x="31" y="17" height="1" width="1"/><rect fill="#000000ff" x="4" y="18" height="1" width="2"/><rect fill="#291414ff" x="6" y="18" height="1" width="4"/><rect fill="#29aba5ff" x="10" y="18" height="1" width="1"/><rect fill="#ff2020ff" x="11" y="18" height="1" width="3"/><rect fill="#ffd23cff" x="14" y="18" height="1" width="2"/><rect fill="#29aba5ff" x="16" y="18" height="1" width="1"/><rect fill="#ff2020ff" x="17" y="18" height="1" width="3"/><rect fill="#ffd23cff" x="20" y="18" height="1" width="2"/><rect fill="#29aba5ff" x="22" y="18" height="1" width="4"/><rect fill="#291414ff" x="26" y="18" height="1" width="2"/><rect fill="#000000ff" x="28" y="18" height="1" width="4"/><rect fill="#000000ff" x="4" y="19" height="1" width="1"/><rect fill="#c04c31ff" x="5" y="19" height="1" width="1"/><rect fill="#000000ff" x="6" y="19" height="1" width="1"/><rect fill="#291414ff" x="7" y="19" height="1" width="1"/><rect fill="#ec7260ff" x="8" y="19" height="1" width="3"/><rect fill="#29aba5ff" x="11" y="19" height="1" width="11"/><rect fill="#ec7260ff" x="22" y="19" height="1" width="3"/><rect fill="#687fb7ff" x="25" y="19" height="1" width="1"/><rect fill="#291414ff" x="26" y="19" height="1" width="1"/><rect fill="#000000ff" x="27" y="19" height="1" width="1"/><rect fill="#c04c31ff" x="28" y="19" height="1" width="3"/><rect fill="#000000ff" x="31" y="19" height="1" width="1"/><rect fill="#000000ff" x="4" y="20" height="1" width="3"/><rect fill="#291414ff" x="7" y="20" height="1" width="1"/><rect fill="#ec7260ff" x="8" y="20" height="1" width="1"/><rect fill="#291414ff" x="9" y="20" height="1" width="1"/><rect fill="#ec7260ff" x="10" y="20" height="1" width="13"/><rect fill="#291414ff" x="23" y="20" height="1" width="1"/><rect fill="#ec7260ff" x="24" y="20" height="1" width="1"/><rect fill="#29aba5ff" x="25" y="20" height="1" width="1"/><rect fill="#291414ff" x="26" y="20" height="1" width="1"/><rect fill="#000000ff" x="27" y="20" height="1" width="5"/><rect fill="#000000ff" x="4" y="21" height="1" width="1"/><rect fill="#c04c31ff" x="5" y="21" height="1" width="1"/><rect fill="#000000ff" x="6" y="21" height="1" width="1"/><rect fill="#29aba5ff" x="7" y="21" height="1" width="1"/><rect fill="#ec7260ff" x="8" y="21" height="1" width="2"/><rect fill="#291414ff" x="10" y="21" height="1" width="13"/><rect fill="#ec7260ff" x="23" y="21" height="1" width="2"/><rect fill="#29aba5ff" x="25" y="21" height="1" width="1"/><rect fill="#291414ff" x="26" y="21" height="1" width="1"/><rect fill="#000000ff" x="27" y="21" height="1" width="1"/><rect fill="#c04c31ff" x="28" y="21" height="1" width="3"/><rect fill="#000000ff" x="31" y="21" height="1" width="1"/><rect fill="#000000ff" x="4" y="22" height="1" width="3"/><rect fill="#29aba5ff" x="7" y="22" height="1" width="1"/><rect fill="#291414ff" x="8" y="22" height="1" width="1"/><rect fill="#ec7260ff" x="9" y="22" height="1" width="15"/><rect fill="#29aba5ff" x="24" y="22" height="1" width="2"/><rect fill="#291414ff" x="26" y="22" height="1" width="1"/><rect fill="#000000ff" x="27" y="22" height="1" width="5"/><rect fill="#000000ff" x="4" y="23" height="1" width="1"/><rect fill="#c04c31ff" x="5" y="23" height="1" width="1"/><rect fill="#000000ff" x="6" y="23" height="1" width="22"/><rect fill="#c04c31ff" x="28" y="23" height="1" width="3"/><rect fill="#000000ff" x="31" y="23" height="1" width="1"/><rect fill="#000000ff" x="4" y="24" height="1" width="7"/><rect fill="#c04c31ff" x="11" y="24" height="1" width="1"/><rect fill="#ddd1bfff" x="12" y="24" height="1" width="1"/><rect fill="#6198b9ff" x="13" y="24" height="1" width="1"/><rect fill="#000000ff" x="14" y="24" height="1" width="1"/><rect fill="#b58b74ff" x="15" y="24" height="1" width="2"/><rect fill="#000000ff" x="17" y="24" height="1" width="1"/><rect fill="#b58b74ff" x="18" y="24" height="1" width="2"/><rect fill="#000000ff" x="20" y="24" height="1" width="1"/><rect fill="#ddd1bfff" x="21" y="24" height="1" width="4"/><rect fill="#000000ff" x="25" y="24" height="1" width="7"/><rect fill="#000000ff" x="5" y="25" height="1" width="1"/><rect fill="#b58b74ff" x="6" y="25" height="1" width="4"/><rect fill="#000000ff" x="10" y="25" height="1" width="11"/><rect fill="#ddd1bfff" x="21" y="25" height="1" width="3"/><rect fill="#000000ff" x="24" y="25" height="1" width="1"/><rect fill="#b58b74ff" x="25" y="25" height="1" width="5"/><rect fill="#000000ff" x="30" y="25" height="1" width="1"/><rect fill="#000000ff" x="5" y="26" height="1" width="1"/><rect fill="#b58b74ff" x="6" y="26" height="1" width="1"/><rect fill="#000000ff" x="7" y="26" height="1" width="8"/><rect fill="#ddd1bfff" x="15" y="26" height="1" width="2"/><rect fill="#000000ff" x="17" y="26" height="1" width="1"/><rect fill="#ddd1bfff" x="18" y="26" height="1" width="2"/><rect fill="#000000ff" x="20" y="26" height="1" width="9"/><rect fill="#b58b74ff" x="29" y="26" height="1" width="1"/><rect fill="#000000ff" x="30" y="26" height="1" width="1"/><rect fill="#000000ff" x="6" y="27" height="1" width="1"/><rect fill="#c04c31ff" x="7" y="27" height="1" width="7"/><rect fill="#000000ff" x="14" y="27" height="1" width="1"/><rect fill="#ddd1bfff" x="15" y="27" height="1" width="2"/><rect fill="#000000ff" x="17" y="27" height="1" width="1"/><rect fill="#ddd1bfff" x="18" y="27" height="1" width="2"/><rect fill="#000000ff" x="20" y="27" height="1" width="1"/><rect fill="#c04c31ff" x="21" y="27" height="1" width="8"/><rect fill="#000000ff" x="29" y="27" height="1" width="1"/><rect fill="#000000ff" x="7" y="28" height="1" width="22"/></svg>