<svg xmlns="http://www.w3.org/2000/svg" shape-rendering="crispEdges" version="1.1" viewBox="0 0 36 36" width="360" height="360"><rect fill="#000000ff" x="10" y="9" height="1" width="1"/><rect fill="#000000ff" x="11" y="10" height="1" width="1"/><rect fill="#000000ff" x="17" y="10" height="1" width="1"/><rect fill="#000000ff" x="26" y="10" height="1" width="1"/><rect fill="#000000ff" x="11" y="11" height="1" width="1"/><rect fill="#000000ff" x="15" y="11" height="1" width="1"/><rect fill="#000000ff" x="18" y="11" height="1" width="1"/><rect fill="#000000ff" x="21" y="11" height="1" width="1"/><rect fill="#000000ff" x="26" y="11" height="1" width="1"/><rect fill="#000000ff" x="7" y="12" height="1" width="3"/><rect fill="#000000ff" x="12" y="12" height="1" width="1"/><rect fill="#000000ff" x="14" y="12" height="1" width="1"/><rect fill="#000000ff" x="16" y="12" height="1" width="1"/><rect fill="#000000ff" x="18" y="12" height="1" width="1"/><rect fill="#000000ff" x="20" y="12" height="1" width="1"/><rect fill="#000000ff" x="22" y="12" height="1" width="1"/><rect fill="#000000ff" x="25" y="12" height="1" width="1"/><rect fill="#000000ff" x="10" y="13" height="1" width="1"/><rect fill="#000000ff" x="12" y="13" height="1" width="13"/><rect fill="#000000ff" x="27" y="13" height="1" width="1"/><rect fill="#000000ff" x="8" y="14" height="1" width="1"/><rect fill="#000000ff" x="11" y="14" height="1" width="2"/><rect fill="#4d381dff" x="13" y="14" height="1" width="3"/><rect fill="#000000ff" x="16" y="14" height="1" width="1"/><rect fill="#4d381dff" x="17" y="14" height="1" width="3"/><rect fill="#000000ff" x="20" y="14" height="1" width="1"/><rect fill="#4d381dff" x="21" y="14" height="1" width="1"/><rect fill="#000000ff" x="22" y="14" height="1" width="1"/><rect fill="#4d381dff" x="23" y="14" height="1" width="1"/><rect fill="#000000ff" x="24" y="14" height="1" width="1"/><rect fill="#000000ff" x="26" y="14" height="1" width="1"/><rect fill="#000000ff" x="7" y="15" height="1" width="1"/><rect fill="#000000ff" x="9" y="15" height="1" width="1"/><rect fill="#000000ff" x="11" y="15" height="1" width="1"/><rect fill="#4d381dff" x="12" y="15" height="1" width="2"/><rect fill="#000000ff" x="14" y="15" height="1" width="1"/><rect fill="#4d381dff" x="15" y="15" height="1" width="7"/><rect fill="#000000ff" x="22" y="15" height="1" width="1"/><rect fill="#4d381dff" x="23" y="15" height="1" width="1"/><rect fill="#000000ff" x="24" y="15" height="1" width="2"/><rect fill="#000000ff" x="10" y="16" height="1" width="1"/><rect fill="#998078ff" x="11" y="16" height="1" width="1"/><rect fill="#000000ff" x="12" y="16" height="1" width="3"/><rect fill="#998078ff" x="15" y="16" height="1" width="3"/><rect fill="#000000ff" x="18" y="16" height="1" width="3"/><rect fill="#998078ff" x="21" y="16" height="1" width="2"/><rect fill="#4d381dff" x="23" y="16" height="1" width="2"/><rect fill="#000000ff" x="25" y="16" height="1" width="2"/><rect fill="#000000ff" x="9" y="17" height="1" width="4"/><rect fill="#ffffffff" x="13" y="17" height="1" width="2"/><rect fill="#000000ff" x="15" y="17" height="1" width="4"/><rect fill="#ffffffff" x="19" y="17" height="1" width="2"/><rect fill="#000000ff" x="21" y="17" height="1" width="5"/><rect fill="#000000ff" x="9" y="18" height="1" width="1"/><rect fill="#998078ff" x="10" y="18" height="1" width="1"/><rect fill="#000000ff" x="11" y="18" height="1" width="1"/><rect fill="#ffffffff" x="12" y="18" height="1" width="2"/><rect fill="#000000ff" x="14" y="18" height="1" width="2"/><rect fill="#998078ff" x="16" y="18" height="1" width="1"/><rect fill="#000000ff" x="17" y="18" height="1" width="1"/><rect fill="#ffffffff" x="18" y="18" height="1" width="2"/><rect fill="#000000ff" x="20" y="18" height="1" width="2"/><rect fill="#998078ff" x="22" y="18" height="1" width="2"/><rect fill="#4d381dff" x="24" y="18" height="1" width="2"/><rect fill="#000000ff" x="26" y="18" height="1" width="1"/><rect fill="#000000ff" x="8" y="19" height="1" width="1"/><rect fill="#998078ff" x="9" y="19" height="1" width="3"/><rect fill="#000000ff" x="12" y="19" height="1" width="3"/><rect fill="#998078ff" x="15" y="19" height="1" width="3"/><rect fill="#000000ff" x="18" y="19" height="1" width="3"/><rect fill="#998078ff" x="21" y="19" height="1" width="4"/><rect fill="#4d381dff" x="25" y="19" height="1" width="1"/><rect fill="#000000ff" x="26" y="19" height="1" width="2"/><rect fill="#000000ff" x="7" y="20" height="1" width="2"/><rect fill="#bca199ff" x="9" y="20" height="1" width="15"/><rect fill="#4d381dff" x="24" y="20" height="1" width="2"/><rect fill="#000000ff" x="26" y="20" height="1" width="1"/><rect fill="#4d381dff" x="27" y="20" height="1" width="1"/><rect fill="#000000ff" x="28" y="20" height="1" width="1"/><rect fill="#000000ff" x="6" y="21" height="1" width="1"/><rect fill="#4d381dff" x="7" y="21" height="1" width="1"/><rect fill="#000000ff" x="8" y="21" height="1" width="1"/><rect fill="#bca199ff" x="9" y="21" height="1" width="1"/><rect fill="#000000ff" x="10" y="21" height="1" width="13"/><rect fill="#bca199ff" x="23" y="21" height="1" width="1"/><rect fill="#998078ff" x="24" y="21" height="1" width="1"/><rect fill="#4d381dff" x="25" y="21" height="1" width="1"/><rect fill="#000000ff" x="26" y="21" height="1" width="1"/><rect fill="#4d381dff" x="27" y="21" height="1" width="2"/><rect fill="#000000ff" x="29" y="21" height="1" width="1"/><rect fill="#000000ff" x="5" y="22" height="1" width="1"/><rect fill="#4d381dff" x="6" y="22" height="1" width="2"/><rect fill="#000000ff" x="8" y="22" height="1" width="1"/><rect fill="#bca199ff" x="9" y="22" height="1" width="15"/><rect fill="#998078ff" x="24" y="22" height="1" width="1"/><rect fill="#4d381dff" x="25" y="22" height="1" width="1"/><rect fill="#000000ff" x="26" y="22" height="1" width="1"/><rect fill="#4d381dff" x="27" y="22" height="1" width="2"/><rect fill="#000000ff" x="29" y="22" height="1" width="2"/><rect fill="#000000ff" x="5" y="23" height="1" width="1"/><rect fill="#4d381dff" x="6" y="23" height="1" width="3"/><rect fill="#000000ff" x="9" y="23" height="1" width="1"/><rect fill="#998078ff" x="10" y="23" height="1" width="14"/><rect fill="#4d381dff" x="24" y="23" height="1" width="2"/><rect fill="#000000ff" x="26" y="23" height="1" width="1"/><rect fill="#4d381dff" x="27" y="23" height="1" width="3"/><rect fill="#000000ff" x="30" y="23" height="1" width="1"/><rect fill="#000000ff" x="5" y="24" height="1" width="1"/><rect fill="#4d381dff" x="6" y="24" height="1" width="4"/><rect fill="#000000ff" x="10" y="24" height="1" width="1"/><rect fill="#4d381dff" x="11" y="24" height="1" width="3"/><rect fill="#000000ff" x="14" y="24" height="1" width="1"/><rect fill="#4d381dff" x="15" y="24" height="1" width="2"/><rect fill="#000000ff" x="17" y="24" height="1" width="1"/><rect fill="#4d381dff" x="18" y="24" height="1" width="2"/><rect fill="#000000ff" x="20" y="24" height="1" width="1"/><rect fill="#4d381dff" x="21" y="24" height="1" width="4"/><rect fill="#000000ff" x="25" y="24" height="1" width="1"/><rect fill="#4d381dff" x="26" y="24" height="1" width="4"/><rect fill="#000000ff" x="30" y="24" height="1" width="1"/><rect fill="#000000ff" x="6" y="25" height="1" width="1"/><rect fill="#4d381dff" x="7" y="25" height="1" width="4"/><rect fill="#000000ff" x="11" y="25" height="1" width="1"/><rect fill="#4d381dff" x="12" y="25" height="1" width="3"/><rect fill="#000000ff" x="15" y="25" height="1" width="1"/><rect fill="#4d381dff" x="16" y="25" height="1" width="1"/><rect fill="#000000ff" x="17" y="25" height="1" width="1"/><rect fill="#4d381dff" x="18" y="25" height="1" width="1"/><rect fill="#000000ff" x="19" y="25" height="1" width="1"/><rect fill="#4d381dff" x="20" y="25" height="1" width="4"/><rect fill="#000000ff" x="24" y="25" height="1" width="1"/><rect fill="#4d381dff" x="25" y="25" height="1" width="5"/><rect fill="#000000ff" x="30" y="25" height="1" width="1"/><rect fill="#000000ff" x="7" y="26" height="1" width="3"/><rect fill="#4d381dff" x="10" y="26" height="1" width="2"/><rect fill="#000000ff" x="12" y="26" height="1" width="4"/><rect fill="#4d381dff" x="16" y="26" height="1" width="1"/><rect fill="#000000ff" x="17" y="26" height="1" width="1"/><rect fill="#4d381dff" x="18" y="26" height="1" width="1"/><rect fill="#000000ff" x="19" y="26" height="1" width="5"/><rect fill="#4d381dff" x="24" y="26" height="1" width="1"/><rect fill="#000000ff" x="25" y="26" height="1" width="3"/><rect fill="#4d381dff" x="28" y="26" height="1" width="1"/><rect fill="#000000ff" x="29" y="26" height="1" width="1"/><rect fill="#000000ff" x="6" y="27" height="1" width="1"/><rect fill="#998078ff" x="7" y="27" height="1" width="7"/><rect fill="#000000ff" x="14" y="27" height="1" width="1"/><rect fill="#998078ff" x="15" y="27" height="1" width="2"/><rect fill="#000000ff" x="17" y="27" height="1" width="1"/><rect fill="#998078ff" x="18" y="27" height="1" width="2"/><rect fill="#000000ff" x="20" y="27" height="1" width="1"/><rect fill="#998078ff" x="21" y="27" height="1" width="7"/><rect fill="#000000ff" x="28" y="27" height="1" width="1"/><rect fill="#000000ff" x="7" y="28" height="1" width="21"/></svg>