<svg xmlns="http://www.w3.org/2000/svg" shape-rendering="crispEdges" version="1.1" viewBox="0 0 36 36" width="360" height="360"><rect fill="#fbf0dfff" x="11" y="2" height="1" width="1"/><rect fill="#fbf0dfff" x="10" y="3" height="1" width="1"/><rect fill="#fbf0dfff" x="17" y="3" height="1" width="1"/><rect fill="#fbf0dfff" x="22" y="3" height="1" width="1"/><rect fill="#fbf0dfff" x="11" y="4" height="1" width="2"/><rect fill="#fbf0dfff" x="16" y="4" height="1" width="1"/><rect fill="#fbf0dfff" x="22" y="4" height="1" width="1"/><rect fill="#fbf0dfff" x="7" y="5" height="1" width="1"/><rect fill="#fbf0dfff" x="11" y="5" height="1" width="6"/><rect fill="#fbf0dfff" x="23" y="5" height="1" width="2"/><rect fill="#fbf0dfff" x="7" y="6" height="1" width="2"/><rect fill="#fbf0dfff" x="13" y="6" height="1" width="5"/><rect fill="#fbf0dfff" x="19" y="6" height="1" width="1"/><rect fill="#fbf0dfff" x="21" y="6" height="1" width="4"/><rect fill="#fbf0dfff" x="8" y="7" height="1" width="19"/><rect fill="#fbf0dfff" x="7" y="8" height="1" width="21"/><rect fill="#fbf0dfff" x="6" y="9" height="1" width="24"/><rect fill="#fbf0dfff" x="8" y="10" height="1" width="20"/><rect fill="#fbf0dfff" x="5" y="11" height="1" width="1"/><rect fill="#fbf0dfff" x="8" y="11" height="1" width="3"/><rect fill="#f0c14dff" x="11" y="11" height="1" width="3"/><rect fill="#ffffd5ff" x="14" y="11" height="1" width="2"/><rect fill="#fbf0dfff" x="16" y="11" height="1" width="1"/><rect fill="#ffffd5ff" x="17" y="11" height="1" width="2"/><rect fill="#f0c14dff" x="19" y="11" height="1" width="5"/><rect fill="#fbf0dfff" x="24" y="11" height="1" width="5"/><rect fill="#fbf0dfff" x="31" y="11" height="1" width="1"/><rect fill="#fbf0dfff" x="6" y="12" height="1" width="1"/><rect fill="#fbf0dfff" x="8" y="12" height="1" width="1"/><rect fill="#000000ff" x="9" y="12" height="1" width="5"/><rect fill="#ff0e0eff" x="14" y="12" height="1" width="1"/><rect fill="#000000ff" x="15" y="12" height="1" width="5"/><rect fill="#ff0e0eff" x="20" y="12" height="1" width="1"/><rect fill="#000000ff" x="21" y="12" height="1" width="5"/><rect fill="#fbf0dfff" x="26" y="12" height="1" width="5"/><rect fill="#fbf0dfff" x="7" y="13" height="1" width="2"/><rect fill="#000000ff" x="9" y="13" height="1" width="1"/><rect fill="#f0c14dff" x="10" y="13" height="1" width="1"/><rect fill="#000000ff" x="11" y="13" height="1" width="2"/><rect fill="#ffe330ff" x="13" y="13" height="1" width="1"/><rect fill="#000000ff" x="14" y="13" height="1" width="2"/><rect fill="#f0c14dff" x="16" y="13" height="1" width="1"/><rect fill="#000000ff" x="17" y="13" height="1" width="2"/><rect fill="#ffe330ff" x="19" y="13" height="1" width="1"/><rect fill="#000000ff" x="20" y="13" height="1" width="2"/><rect fill="#f0c14dff" x="22" y="13" height="1" width="4"/><rect fill="#000000ff" x="26" y="13" height="1" width="1"/><rect fill="#fbf0dfff" x="27" y="13" height="1" width="3"/><rect fill="#0c9cf3ff" x="8" y="14" height="1" width="2"/><rect fill="#7a85a7ff" x="10" y="14" height="1" width="1"/><rect fill="#ec9854ff" x="11" y="14" height="1" width="1"/><rect fill="#ac9d9fff" x="12" y="14" height="1" width="1"/><rect fill="#000000ff" x="13" y="14" height="1" width="2"/><rect fill="#f0c14dff" x="15" y="14" height="1" width="3"/><rect fill="#70cce4ff" x="18" y="14" height="1" width="1"/><rect fill="#000000ff" x="19" y="14" height="1" width="1"/><rect fill="#74372dff" x="20" y="14" height="1" width="1"/><rect fill="#ec9854ff" x="21" y="14" height="1" width="1"/><rect fill="#7a85a7ff" x="22" y="14" height="1" width="1"/><rect fill="#0c9cf3ff" x="23" y="14" height="1" width="2"/><rect fill="#f0c14dff" x="25" y="14" height="1" width="1"/><rect fill="#000000ff" x="26" y="14" height="1" width="1"/><rect fill="#fbf0dfff" x="28" y="14" height="1" width="1"/><rect fill="#0c9cf3ff" x="8" y="15" height="1" width="1"/><rect fill="#000000ff" x="9" y="15" height="1" width="1"/><rect fill="#0c9cf3ff" x="10" y="15" height="1" width="13"/><rect fill="#000000ff" x="23" y="15" height="1" width="1"/><rect fill="#0c9cf3ff" x="24" y="15" height="1" width="1"/><rect fill="#f0c14dff" x="25" y="15" height="1" width="1"/><rect fill="#000000ff" x="26" y="15" height="1" width="1"/><rect fill="#fbf0dfff" x="29" y="15" height="1" width="1"/><rect fill="#0c9cf3ff" x="8" y="16" height="1" width="2"/><rect fill="#000000ff" x="10" y="16" height="1" width="13"/><rect fill="#0c9cf3ff" x="23" y="16" height="1" width="2"/><rect fill="#f0c14dff" x="25" y="16" height="1" width="1"/><rect fill="#000000ff" x="26" y="16" height="1" width="1"/><rect fill="#000000ff" x="8" y="17" height="1" width="1"/><rect fill="#0c9cf3ff" x="9" y="17" height="1" width="15"/><rect fill="#f0c14dff" x="24" y="17" height="1" width="2"/><rect fill="#000000ff" x="26" y="17" height="1" width="1"/><rect fill="#000000ff" x="8" y="18" height="1" width="1"/><rect fill="#f4e299ff" x="9" y="18" height="1" width="1"/><rect fill="#ffffd5ff" x="10" y="18" height="1" width="13"/><rect fill="#f4e299ff" x="23" y="18" height="1" width="1"/><rect fill="#f0c14dff" x="24" y="18" height="1" width="2"/><rect fill="#000000ff" x="26" y="18" height="1" width="1"/><rect fill="#000000ff" x="8" y="19" height="1" width="1"/><rect fill="#f4e299ff" x="9" y="19" height="1" width="2"/><rect fill="#ffffd5ff" x="11" y="19" height="1" width="11"/><rect fill="#f4e299ff" x="22" y="19" height="1" width="2"/><rect fill="#f0c14dff" x="24" y="19" height="1" width="2"/><rect fill="#000000ff" x="26" y="19" height="1" width="2"/><rect fill="#000000ff" x="7" y="20" height="1" width="2"/><rect fill="#f4e299ff" x="9" y="20" height="1" width="3"/><rect fill="#ffffd5ff" x="12" y="20" height="1" width="9"/><rect fill="#f4e299ff" x="21" y="20" height="1" width="3"/><rect fill="#f0c14dff" x="24" y="20" height="1" width="2"/><rect fill="#000000ff" x="26" y="20" height="1" width="1"/><rect fill="#f0c14dff" x="27" y="20" height="1" width="1"/><rect fill="#000000ff" x="28" y="20" height="1" width="1"/><rect fill="#000000ff" x="6" y="21" height="1" width="1"/><rect fill="#f0c14dff" x="7" y="21" height="1" width="1"/><rect fill="#000000ff" x="8" y="21" height="1" width="1"/><rect fill="#f4e299ff" x="9" y="21" height="1" width="15"/><rect fill="#f0c14dff" x="24" y="21" height="1" width="2"/><rect fill="#000000ff" x="26" y="21" height="1" width="1"/><rect fill="#f0c14dff" x="27" y="21" height="1" width="2"/><rect fill="#000000ff" x="29" y="21" height="1" width="1"/><rect fill="#000000ff" x="5" y="22" height="1" width="1"/><rect fill="#f0c14dff" x="6" y="22" height="1" width="2"/><rect fill="#000000ff" x="8" y="22" height="1" width="1"/><rect fill="#f4e299ff" x="9" y="22" height="1" width="15"/><rect fill="#f0c14dff" x="24" y="22" height="1" width="2"/><rect fill="#000000ff" x="26" y="22" height="1" width="1"/><rect fill="#d89537ff" x="27" y="22" height="1" width="1"/><rect fill="#f0c14dff" x="28" y="22" height="1" width="2"/><rect fill="#000000ff" x="30" y="22" height="1" width="1"/><rect fill="#000000ff" x="5" y="23" height="1" width="1"/><rect fill="#d89537ff" x="6" y="23" height="1" width="1"/><rect fill="#f0c14dff" x="7" y="23" height="1" width="1"/><rect fill="#d89537ff" x="8" y="23" height="1" width="1"/><rect fill="#000000ff" x="9" y="23" height="1" width="1"/><rect fill="#f4e299ff" x="10" y="23" height="1" width="14"/><rect fill="#f0c14dff" x="24" y="23" height="1" width="2"/><rect fill="#000000ff" x="26" y="23" height="1" width="1"/><rect fill="#f0c14dff" x="27" y="23" height="1" width="3"/><rect fill="#000000ff" x="30" y="23" height="1" width="1"/><rect fill="#000000ff" x="5" y="24" height="1" width="1"/><rect fill="#f0c14dff" x="6" y="24" height="1" width="4"/><rect fill="#000000ff" x="10" y="24" height="1" width="1"/><rect fill="#f4e299ff" x="11" y="24" height="1" width="3"/><rect fill="#000000ff" x="14" y="24" height="1" width="1"/><rect fill="#f0c14dff" x="15" y="24" height="1" width="2"/><rect fill="#000000ff" x="17" y="24" height="1" width="1"/><rect fill="#f0c14dff" x="18" y="24" height="1" width="2"/><rect fill="#000000ff" x="20" y="24" height="1" width="1"/><rect fill="#f4e299ff" x="21" y="24" height="1" width="2"/><rect fill="#f0c14dff" x="23" y="24" height="1" width="2"/><rect fill="#000000ff" x="25" y="24" height="1" width="1"/><rect fill="#f0c14dff" x="26" y="24" height="1" width="2"/><rect fill="#d89537ff" x="28" y="24" height="1" width="1"/><rect fill="#f0c14dff" x="29" y="24" height="1" width="1"/><rect fill="#000000ff" x="30" y="24" height="1" width="1"/><rect fill="#000000ff" x="6" y="25" height="1" width="1"/><rect fill="#f0c14dff" x="7" y="25" height="1" width="1"/><rect fill="#d89537ff" x="8" y="25" height="1" width="1"/><rect fill="#f0c14dff" x="9" y="25" height="1" width="2"/><rect fill="#000000ff" x="11" y="25" height="1" width="1"/><rect fill="#f4e299ff" x="12" y="25" height="1" width="3"/><rect fill="#000000ff" x="15" y="25" height="1" width="1"/><rect fill="#f0c14dff" x="16" y="25" height="1" width="1"/><rect fill="#000000ff" x="17" y="25" height="1" width="1"/><rect fill="#f0c14dff" x="18" y="25" height="1" width="1"/><rect fill="#000000ff" x="19" y="25" height="1" width="1"/><rect fill="#f4e299ff" x="20" y="25" height="1" width="2"/><rect fill="#f0c14dff" x="22" y="25" height="1" width="2"/><rect fill="#000000ff" x="24" y="25" height="1" width="1"/><rect fill="#f0c14dff" x="25" y="25" height="1" width="5"/><rect fill="#000000ff" x="30" y="25" height="1" width="1"/><rect fill="#000000ff" x="7" y="26" height="1" width="3"/><rect fill="#f0c14dff" x="10" y="26" height="1" width="2"/><rect fill="#000000ff" x="12" y="26" height="1" width="4"/><rect fill="#f0c14dff" x="16" y="26" height="1" width="1"/><rect fill="#000000ff" x="17" y="26" height="1" width="1"/><rect fill="#f0c14dff" x="18" y="26" height="1" width="1"/><rect fill="#000000ff" x="19" y="26" height="1" width="5"/><rect fill="#f0c14dff" x="24" y="26" height="1" width="1"/><rect fill="#000000ff" x="25" y="26" height="1" width="3"/><rect fill="#f0c14dff" x="28" y="26" height="1" width="1"/><rect fill="#000000ff" x="29" y="26" height="1" width="1"/><rect fill="#000000ff" x="6" y="27" height="1" width="1"/><rect fill="#f0c14dff" x="7" y="27" height="1" width="7"/><rect fill="#000000ff" x="14" y="27" height="1" width="1"/><rect fill="#f0c14dff" x="15" y="27" height="1" width="2"/><rect fill="#000000ff" x="17" y="27" height="1" width="1"/><rect fill="#f0c14dff" x="18" y="27" height="1" width="2"/><rect fill="#000000ff" x="20" y="27" height="1" width="1"/><rect fill="#f0c14dff" x="21" y="27" height="1" width="7"/><rect fill="#000000ff" x="28" y="27" height="1" width="1"/><rect fill="#000000ff" x="7" y="28" height="1" width="21"/></svg>