<svg xmlns="http://www.w3.org/2000/svg" shape-rendering="crispEdges" version="1.1" viewBox="0 0 36 36" width="360" height="360"><rect fill="#000000ff" x="10" y="7" height="1" width="1"/><rect fill="#000000ff" x="10" y="8" height="1" width="1"/><rect fill="#000000ff" x="17" y="8" height="1" width="1"/><rect fill="#000000ff" x="22" y="8" height="1" width="1"/><rect fill="#000000ff" x="11" y="9" height="1" width="2"/><rect fill="#000000ff" x="16" y="9" height="1" width="1"/><rect fill="#000000ff" x="22" y="9" height="1" width="1"/><rect fill="#000000ff" x="7" y="10" height="1" width="1"/><rect fill="#000000ff" x="11" y="10" height="1" width="6"/><rect fill="#000000ff" x="23" y="10" height="1" width="2"/><rect fill="#000000ff" x="7" y="11" height="1" width="2"/><rect fill="#000000ff" x="13" y="11" height="1" width="5"/><rect fill="#000000ff" x="19" y="11" height="1" width="1"/><rect fill="#000000ff" x="21" y="11" height="1" width="4"/><rect fill="#000000ff" x="8" y="12" height="1" width="8"/><rect fill="#8ac163ff" x="16" y="12" height="1" width="1"/><rect fill="#000000ff" x="17" y="12" height="1" width="10"/><rect fill="#000000ff" x="7" y="13" height="1" width="8"/><rect fill="#61a84bff" x="15" y="13" height="1" width="3"/><rect fill="#000000ff" x="18" y="13" height="1" width="2"/><rect fill="#8ac163ff" x="20" y="13" height="1" width="1"/><rect fill="#000000ff" x="21" y="13" height="1" width="7"/><rect fill="#000000ff" x="6" y="14" height="1" width="13"/><rect fill="#61a84bff" x="19" y="14" height="1" width="3"/><rect fill="#000000ff" x="22" y="14" height="1" width="8"/><rect fill="#000000ff" x="8" y="15" height="1" width="2"/><rect fill="#61a84bff" x="10" y="15" height="1" width="1"/><rect fill="#000000ff" x="11" y="15" height="1" width="1"/><rect fill="#8ac163ff" x="12" y="15" height="1" width="1"/><rect fill="#61a84bff" x="13" y="15" height="1" width="1"/><rect fill="#000000ff" x="14" y="15" height="1" width="14"/><rect fill="#000000ff" x="5" y="16" height="1" width="1"/><rect fill="#000000ff" x="8" y="16" height="1" width="3"/><rect fill="#ccf2f2ff" x="11" y="16" height="1" width="1"/><rect fill="#61a84bff" x="12" y="16" height="1" width="2"/><rect fill="#ccf2f2ff" x="14" y="16" height="1" width="2"/><rect fill="#000000ff" x="16" y="16" height="1" width="1"/><rect fill="#61a84bff" x="17" y="16" height="1" width="1"/><rect fill="#ccf2f2ff" x="18" y="16" height="1" width="1"/><rect fill="#b4cecfff" x="19" y="16" height="1" width="1"/><rect fill="#ccf2f2ff" x="20" y="16" height="1" width="2"/><rect fill="#fff0eeff" x="22" y="16" height="1" width="2"/><rect fill="#000000ff" x="24" y="16" height="1" width="5"/><rect fill="#000000ff" x="31" y="16" height="1" width="1"/><rect fill="#000000ff" x="6" y="17" height="1" width="1"/><rect fill="#000000ff" x="8" y="17" height="1" width="2"/><rect fill="#003233ff" x="10" y="17" height="1" width="1"/><rect fill="#43c58cff" x="11" y="17" height="1" width="3"/><rect fill="#ffffffff" x="14" y="17" height="1" width="2"/><rect fill="#003233ff" x="16" y="17" height="1" width="1"/><rect fill="#43c58cff" x="17" y="17" height="1" width="3"/><rect fill="#ffffffff" x="20" y="17" height="1" width="2"/><rect fill="#ccf2f2ff" x="22" y="17" height="1" width="1"/><rect fill="#8ac163ff" x="23" y="17" height="1" width="1"/><rect fill="#fff0eeff" x="24" y="17" height="1" width="1"/><rect fill="#000000ff" x="25" y="17" height="1" width="6"/><rect fill="#000000ff" x="7" y="18" height="1" width="3"/><rect fill="#ccf2f2ff" x="10" y="18" height="1" width="1"/><rect fill="#43c58cff" x="11" y="18" height="1" width="3"/><rect fill="#ffffffff" x="14" y="18" height="1" width="2"/><rect fill="#ccf2f2ff" x="16" y="18" height="1" width="1"/><rect fill="#43c58cff" x="17" y="18" height="1" width="3"/><rect fill="#ffffffff" x="20" y="18" height="1" width="2"/><rect fill="#ccf2f2ff" x="22" y="18" height="1" width="1"/><rect fill="#fff0eeff" x="23" y="18" height="1" width="1"/><rect fill="#e1c3c3ff" x="24" y="18" height="1" width="1"/><rect fill="#fff0eeff" x="25" y="18" height="1" width="1"/><rect fill="#000000ff" x="26" y="18" height="1" width="4"/><rect fill="#000000ff" x="8" y="19" height="1" width="1"/><rect fill="#fff0eeff" x="9" y="19" height="1" width="2"/><rect fill="#ccf2f2ff" x="11" y="19" height="1" width="1"/><rect fill="#8ac163ff" x="12" y="19" height="1" width="1"/><rect fill="#ccf2f2ff" x="13" y="19" height="1" width="1"/><rect fill="#8ac163ff" x="14" y="19" height="1" width="1"/><rect fill="#ccf2f2ff" x="15" y="19" height="1" width="1"/><rect fill="#fff0eeff" x="16" y="19" height="1" width="1"/><rect fill="#ccf2f2ff" x="17" y="19" height="1" width="4"/><rect fill="#61a84bff" x="21" y="19" height="1" width="1"/><rect fill="#fff0eeff" x="22" y="19" height="1" width="2"/><rect fill="#8ac163ff" x="24" y="19" height="1" width="1"/><rect fill="#fff0eeff" x="25" y="19" height="1" width="1"/><rect fill="#000000ff" x="26" y="19" height="1" width="3"/><rect fill="#000000ff" x="5" y="20" height="1" width="6"/><rect fill="#e1c3c3ff" x="11" y="20" height="1" width="13"/><rect fill="#fff0eeff" x="24" y="20" height="1" width="1"/><rect fill="#e1c3c3ff" x="25" y="20" height="1" width="1"/><rect fill="#000000ff" x="26" y="20" height="1" width="1"/><rect fill="#fff0eeff" x="27" y="20" height="1" width="1"/><rect fill="#000000ff" x="28" y="20" height="1" width="2"/><rect fill="#000000ff" x="4" y="21" height="1" width="1"/><rect fill="#b7b7b7ff" x="5" y="21" height="1" width="1"/><rect fill="#f9f4f2ff" x="6" y="21" height="1" width="5"/><rect fill="#000000ff" x="11" y="21" height="1" width="3"/><rect fill="#bca199ff" x="14" y="21" height="1" width="9"/><rect fill="#e1c3c3ff" x="23" y="21" height="1" width="1"/><rect fill="#fff0eeff" x="24" y="21" height="1" width="2"/><rect fill="#000000ff" x="26" y="21" height="1" width="1"/><rect fill="#fff0eeff" x="27" y="21" height="1" width="2"/><rect fill="#000000ff" x="29" y="21" height="1" width="1"/><rect fill="#000000ff" x="5" y="22" height="1" width="6"/><rect fill="#e1c3c3ff" x="11" y="22" height="1" width="13"/><rect fill="#8ac163ff" x="24" y="22" height="1" width="1"/><rect fill="#fff0eeff" x="25" y="22" height="1" width="1"/><rect fill="#000000ff" x="26" y="22" height="1" width="1"/><rect fill="#e1c3c3ff" x="27" y="22" height="1" width="1"/><rect fill="#fff0eeff" x="28" y="22" height="1" width="2"/><rect fill="#000000ff" x="30" y="22" height="1" width="1"/><rect fill="#000000ff" x="5" y="23" height="1" width="1"/><rect fill="#e1c3c3ff" x="6" y="23" height="1" width="1"/><rect fill="#fff0eeff" x="7" y="23" height="1" width="1"/><rect fill="#e1c3c3ff" x="8" y="23" height="1" width="1"/><rect fill="#000000ff" x="9" y="23" height="1" width="1"/><rect fill="#fff0eeff" x="10" y="23" height="1" width="2"/><rect fill="#61a84bff" x="12" y="23" height="1" width="1"/><rect fill="#fff0eeff" x="13" y="23" height="1" width="8"/><rect fill="#8ac163ff" x="21" y="23" height="1" width="1"/><rect fill="#fff0eeff" x="22" y="23" height="1" width="4"/><rect fill="#000000ff" x="26" y="23" height="1" width="1"/><rect fill="#fff0eeff" x="27" y="23" height="1" width="3"/><rect fill="#000000ff" x="30" y="23" height="1" width="1"/><rect fill="#000000ff" x="5" y="24" height="1" width="1"/><rect fill="#fff0eeff" x="6" y="24" height="1" width="4"/><rect fill="#000000ff" x="10" y="24" height="1" width="1"/><rect fill="#fff0eeff" x="11" y="24" height="1" width="3"/><rect fill="#000000ff" x="14" y="24" height="1" width="1"/><rect fill="#fff0eeff" x="15" y="24" height="1" width="1"/><rect fill="#8ac163ff" x="16" y="24" height="1" width="1"/><rect fill="#000000ff" x="17" y="24" height="1" width="1"/><rect fill="#fff0eeff" x="18" y="24" height="1" width="2"/><rect fill="#000000ff" x="20" y="24" height="1" width="1"/><rect fill="#fff0eeff" x="21" y="24" height="1" width="4"/><rect fill="#000000ff" x="25" y="24" height="1" width="1"/><rect fill="#fff0eeff" x="26" y="24" height="1" width="2"/><rect fill="#e1c3c3ff" x="28" y="24" height="1" width="1"/><rect fill="#fff0eeff" x="29" y="24" height="1" width="1"/><rect fill="#000000ff" x="30" y="24" height="1" width="1"/><rect fill="#000000ff" x="6" y="25" height="1" width="1"/><rect fill="#fff0eeff" x="7" y="25" height="1" width="1"/><rect fill="#8ac163ff" x="8" y="25" height="1" width="1"/><rect fill="#fff0eeff" x="9" y="25" height="1" width="2"/><rect fill="#000000ff" x="11" y="25" height="1" width="1"/><rect fill="#fff0eeff" x="12" y="25" height="1" width="3"/><rect fill="#000000ff" x="15" y="25" height="1" width="1"/><rect fill="#fff0eeff" x="16" y="25" height="1" width="1"/><rect fill="#000000ff" x="17" y="25" height="1" width="1"/><rect fill="#fff0eeff" x="18" y="25" height="1" width="1"/><rect fill="#000000ff" x="19" y="25" height="1" width="1"/><rect fill="#fff0eeff" x="20" y="25" height="1" width="4"/><rect fill="#000000ff" x="24" y="25" height="1" width="1"/><rect fill="#fff0eeff" x="25" y="25" height="1" width="5"/><rect fill="#000000ff" x="30" y="25" height="1" width="1"/><rect fill="#61a84bff" x="7" y="26" height="1" width="3"/><rect fill="#fff0eeff" x="10" y="26" height="1" width="2"/><rect fill="#000000ff" x="12" y="26" height="1" width="4"/><rect fill="#fff0eeff" x="16" y="26" height="1" width="1"/><rect fill="#000000ff" x="17" y="26" height="1" width="1"/><rect fill="#fff0eeff" x="18" y="26" height="1" width="1"/><rect fill="#000000ff" x="19" y="26" height="1" width="5"/><rect fill="#fff0eeff" x="24" y="26" height="1" width="1"/><rect fill="#000000ff" x="25" y="26" height="1" width="3"/><rect fill="#fff0eeff" x="28" y="26" height="1" width="1"/><rect fill="#000000ff" x="29" y="26" height="1" width="1"/><rect fill="#000000ff" x="6" y="27" height="1" width="1"/><rect fill="#fff0eeff" x="7" y="27" height="1" width="7"/><rect fill="#000000ff" x="14" y="27" height="1" width="1"/><rect fill="#fff0eeff" x="15" y="27" height="1" width="2"/><rect fill="#000000ff" x="17" y="27" height="1" width="1"/><rect fill="#fff0eeff" x="18" y="27" height="1" width="2"/><rect fill="#8ac163ff" x="20" y="27" height="1" width="1"/><rect fill="#fff0eeff" x="21" y="27" height="1" width="7"/><rect fill="#000000ff" x="28" y="27" height="1" width="1"/><rect fill="#000000ff" x="7" y="28" height="1" width="12"/><rect fill="#61a84bff" x="19" y="28" height="1" width="3"/><rect fill="#000000ff" x="22" y="28" height="1" width="6"/></svg>