<svg xmlns="http://www.w3.org/2000/svg" shape-rendering="crispEdges" version="1.1" viewBox="0 0 36 36" width="360" height="360"><rect fill="#000000ff" x="10" y="14" height="1" width="15"/><rect fill="#000000ff" x="9" y="15" height="1" width="1"/><rect fill="#b8d9ceff" x="10" y="15" height="1" width="3"/><rect fill="#e0d7c5ff" x="13" y="15" height="1" width="1"/><rect fill="#29a691ff" x="14" y="15" height="1" width="2"/><rect fill="#543e2eff" x="16" y="15" height="1" width="1"/><rect fill="#ebe4d8ff" x="17" y="15" height="1" width="3"/><rect fill="#db4f54ff" x="20" y="15" height="1" width="3"/><rect fill="#ebe4d8ff" x="23" y="15" height="1" width="2"/><rect fill="#000000ff" x="25" y="15" height="1" width="1"/><rect fill="#000000ff" x="8" y="16" height="1" width="1"/><rect fill="#b8d9ceff" x="9" y="16" height="1" width="2"/><rect fill="#d6b2a4ff" x="11" y="16" height="1" width="1"/><rect fill="#efb8a9ff" x="12" y="16" height="1" width="1"/><rect fill="#8e9986ff" x="13" y="16" height="1" width="2"/><rect fill="#a46554ff" x="15" y="16" height="1" width="1"/><rect fill="#ebe4d8ff" x="16" y="16" height="1" width="1"/><rect fill="#efb8a9ff" x="17" y="16" height="1" width="2"/><rect fill="#e76d67ff" x="19" y="16" height="1" width="3"/><rect fill="#ebe4d8ff" x="22" y="16" height="1" width="1"/><rect fill="#e0d7c5ff" x="23" y="16" height="1" width="1"/><rect fill="#ebe4d8ff" x="24" y="16" height="1" width="1"/><rect fill="#b8d9ceff" x="25" y="16" height="1" width="1"/><rect fill="#000000ff" x="26" y="16" height="1" width="1"/><rect fill="#000000ff" x="8" y="17" height="1" width="1"/><rect fill="#b8d9ceff" x="9" y="17" height="1" width="1"/><rect fill="#d6b2a4ff" x="10" y="17" height="1" width="1"/><rect fill="#ff0e0eff" x="11" y="17" height="1" width="3"/><rect fill="#ffffffff" x="14" y="17" height="1" width="2"/><rect fill="#efb8a9ff" x="16" y="17" height="1" width="1"/><rect fill="#ff0e0eff" x="17" y="17" height="1" width="3"/><rect fill="#ffffffff" x="20" y="17" height="1" width="2"/><rect fill="#efb8a9ff" x="22" y="17" height="1" width="1"/><rect fill="#ebe4d8ff" x="23" y="17" height="1" width="2"/><rect fill="#b8d9ceff" x="25" y="17" height="1" width="1"/><rect fill="#000000ff" x="26" y="17" height="1" width="1"/><rect fill="#000000ff" x="6" y="18" height="1" width="3"/><rect fill="#b8d9ceff" x="9" y="18" height="1" width="1"/><rect fill="#d6b2a4ff" x="10" y="18" height="1" width="1"/><rect fill="#ff0e0eff" x="11" y="18" height="1" width="3"/><rect fill="#ffffffff" x="14" y="18" height="1" width="2"/><rect fill="#efb8a9ff" x="16" y="18" height="1" width="1"/><rect fill="#ff0e0eff" x="17" y="18" height="1" width="3"/><rect fill="#ffffffff" x="20" y="18" height="1" width="2"/><rect fill="#efb8a9ff" x="22" y="18" height="1" width="1"/><rect fill="#ebe4d8ff" x="23" y="18" height="1" width="1"/><rect fill="#b8d9ceff" x="24" y="18" height="1" width="2"/><rect fill="#000000ff" x="26" y="18" height="1" width="4"/><rect fill="#000000ff" x="5" y="19" height="1" width="1"/><rect fill="#ebe4d8ff" x="6" y="19" height="1" width="1"/><rect fill="#000000ff" x="7" y="19" height="1" width="1"/><rect fill="#b8d9ceff" x="8" y="19" height="1" width="2"/><rect fill="#ebe4d8ff" x="10" y="19" height="1" width="1"/><rect fill="#efb8a9ff" x="11" y="19" height="1" width="2"/><rect fill="#a46554ff" x="13" y="19" height="1" width="1"/><rect fill="#efb8a9ff" x="14" y="19" height="1" width="2"/><rect fill="#ebe4d8ff" x="16" y="19" height="1" width="1"/><rect fill="#e76d67ff" x="17" y="19" height="1" width="3"/><rect fill="#efb8a9ff" x="20" y="19" height="1" width="2"/><rect fill="#d16821ff" x="22" y="19" height="1" width="3"/><rect fill="#b8d9ceff" x="25" y="19" height="1" width="2"/><rect fill="#000000ff" x="27" y="19" height="1" width="1"/><rect fill="#ebe4d8ff" x="28" y="19" height="1" width="2"/><rect fill="#000000ff" x="30" y="19" height="1" width="1"/><rect fill="#000000ff" x="5" y="20" height="1" width="1"/><rect fill="#e0d7c5ff" x="6" y="20" height="1" width="1"/><rect fill="#000000ff" x="7" y="20" height="1" width="2"/><rect fill="#d16821ff" x="9" y="20" height="1" width="14"/><rect fill="#000000ff" x="23" y="20" height="1" width="1"/><rect fill="#d16821ff" x="24" y="20" height="1" width="1"/><rect fill="#b8d9ceff" x="25" y="20" height="1" width="2"/><rect fill="#000000ff" x="27" y="20" height="1" width="1"/><rect fill="#e0d7c5ff" x="28" y="20" height="1" width="1"/><rect fill="#ebe4d8ff" x="29" y="20" height="1" width="2"/><rect fill="#000000ff" x="31" y="20" height="1" width="1"/><rect fill="#000000ff" x="4" y="21" height="1" width="1"/><rect fill="#ebe4d8ff" x="5" y="21" height="1" width="1"/><rect fill="#29a691ff" x="6" y="21" height="1" width="1"/><rect fill="#000000ff" x="7" y="21" height="1" width="2"/><rect fill="#d16821ff" x="9" y="21" height="1" width="1"/><rect fill="#000000ff" x="10" y="21" height="1" width="13"/><rect fill="#d16821ff" x="23" y="21" height="1" width="2"/><rect fill="#000000ff" x="25" y="21" height="1" width="1"/><rect fill="#ebe4d8ff" x="26" y="21" height="1" width="1"/><rect fill="#000000ff" x="27" y="21" height="1" width="1"/><rect fill="#ebe4d8ff" x="28" y="21" height="1" width="2"/><rect fill="#e0d7c5ff" x="30" y="21" height="1" width="1"/><rect fill="#000000ff" x="31" y="21" height="1" width="1"/><rect fill="#000000ff" x="4" y="22" height="1" width="1"/><rect fill="#29a691ff" x="5" y="22" height="1" width="2"/><rect fill="#000000ff" x="7" y="22" height="1" width="3"/><rect fill="#d16821ff" x="10" y="22" height="1" width="13"/><rect fill="#000000ff" x="23" y="22" height="1" width="3"/><rect fill="#ebe4d8ff" x="26" y="22" height="1" width="1"/><rect fill="#000000ff" x="27" y="22" height="1" width="1"/><rect fill="#ebe4d8ff" x="28" y="22" height="1" width="2"/><rect fill="#db4f54ff" x="30" y="22" height="1" width="1"/><rect fill="#000000ff" x="31" y="22" height="1" width="1"/><rect fill="#000000ff" x="4" y="23" height="1" width="1"/><rect fill="#29a691ff" x="5" y="23" height="1" width="2"/><rect fill="#000000ff" x="7" y="23" height="1" width="18"/><rect fill="#ebe4d8ff" x="25" y="23" height="1" width="1"/><rect fill="#000000ff" x="26" y="23" height="1" width="1"/><rect fill="#ebe4d8ff" x="27" y="23" height="1" width="2"/><rect fill="#db4f54ff" x="29" y="23" height="1" width="2"/><rect fill="#000000ff" x="31" y="23" height="1" width="1"/><rect fill="#000000ff" x="4" y="24" height="1" width="1"/><rect fill="#29a691ff" x="5" y="24" height="1" width="1"/><rect fill="#fcd265ff" x="6" y="24" height="1" width="1"/><rect fill="#000000ff" x="7" y="24" height="1" width="17"/><rect fill="#fcd265ff" x="24" y="24" height="1" width="1"/><rect fill="#ebe4d8ff" x="25" y="24" height="1" width="1"/><rect fill="#000000ff" x="26" y="24" height="1" width="1"/><rect fill="#ebe4d8ff" x="27" y="24" height="1" width="1"/><rect fill="#e0d7c5ff" x="28" y="24" height="1" width="1"/><rect fill="#db4f54ff" x="29" y="24" height="1" width="2"/><rect fill="#000000ff" x="31" y="24" height="1" width="1"/><rect fill="#000000ff" x="5" y="25" height="1" width="1"/><rect fill="#fcd265ff" x="6" y="25" height="1" width="2"/><rect fill="#ebe4d8ff" x="8" y="25" height="1" width="1"/><rect fill="#000000ff" x="9" y="25" height="1" width="1"/><rect fill="#ebe4d8ff" x="10" y="25" height="1" width="1"/><rect fill="#db4f54ff" x="11" y="25" height="1" width="2"/><rect fill="#000000ff" x="13" y="25" height="1" width="1"/><rect fill="#ebe4d8ff" x="14" y="25" height="1" width="3"/><rect fill="#000000ff" x="17" y="25" height="1" width="1"/><rect fill="#29a691ff" x="18" y="25" height="1" width="3"/><rect fill="#000000ff" x="21" y="25" height="1" width="1"/><rect fill="#29a691ff" x="22" y="25" height="1" width="1"/><rect fill="#ebe4d8ff" x="23" y="25" height="1" width="2"/><rect fill="#000000ff" x="25" y="25" height="1" width="1"/><rect fill="#ebe4d8ff" x="26" y="25" height="1" width="2"/><rect fill="#db4f54ff" x="28" y="25" height="1" width="2"/><rect fill="#000000ff" x="30" y="25" height="1" width="1"/><rect fill="#000000ff" x="5" y="26" height="1" width="1"/><rect fill="#fcd265ff" x="6" y="26" height="1" width="1"/><rect fill="#ebe4d8ff" x="7" y="26" height="1" width="1"/><rect fill="#000000ff" x="8" y="26" height="1" width="6"/><rect fill="#ebe4d8ff" x="14" y="26" height="1" width="3"/><rect fill="#000000ff" x="17" y="26" height="1" width="1"/><rect fill="#29a691ff" x="18" y="26" height="1" width="3"/><rect fill="#000000ff" x="21" y="26" height="1" width="6"/><rect fill="#ebe4d8ff" x="27" y="26" height="1" width="1"/><rect fill="#db4f54ff" x="28" y="26" height="1" width="2"/><rect fill="#000000ff" x="30" y="26" height="1" width="1"/><rect fill="#000000ff" x="6" y="27" height="1" width="1"/><rect fill="#ebe4d8ff" x="7" y="27" height="1" width="1"/><rect fill="#000000ff" x="8" y="27" height="1" width="1"/><rect fill="#db4f54ff" x="9" y="27" height="1" width="3"/><rect fill="#ebe4d8ff" x="12" y="27" height="1" width="1"/><rect fill="#000000ff" x="13" y="27" height="1" width="1"/><rect fill="#ebe4d8ff" x="14" y="27" height="1" width="3"/><rect fill="#000000ff" x="17" y="27" height="1" width="1"/><rect fill="#29a691ff" x="18" y="27" height="1" width="3"/><rect fill="#000000ff" x="21" y="27" height="1" width="1"/><rect fill="#ebe4d8ff" x="22" y="27" height="1" width="4"/><rect fill="#000000ff" x="26" y="27" height="1" width="1"/><rect fill="#db4f54ff" x="27" y="27" height="1" width="2"/><rect fill="#000000ff" x="29" y="27" height="1" width="1"/><rect fill="#000000ff" x="7" y="28" height="1" width="22"/></svg>