<svg xmlns="http://www.w3.org/2000/svg" shape-rendering="crispEdges" version="1.1" viewBox="0 0 36 36" width="360" height="360"><rect fill="#000000ff" x="12" y="14" height="1" width="12"/><rect fill="#000000ff" x="11" y="15" height="1" width="1"/><rect fill="#ff0e0eff" x="12" y="15" height="1" width="12"/><rect fill="#000000ff" x="24" y="15" height="1" width="1"/><rect fill="#000000ff" x="10" y="16" height="1" width="1"/><rect fill="#ff0e0eff" x="11" y="16" height="1" width="14"/><rect fill="#000000ff" x="25" y="16" height="1" width="1"/><rect fill="#000000ff" x="10" y="17" height="1" width="1"/><rect fill="#688679ff" x="11" y="17" height="1" width="5"/><rect fill="#ff0e0eff" x="16" y="17" height="1" width="1"/><rect fill="#688679ff" x="17" y="17" height="1" width="5"/><rect fill="#ff0e0eff" x="22" y="17" height="1" width="3"/><rect fill="#000000ff" x="25" y="17" height="1" width="1"/><rect fill="#000000ff" x="10" y="18" height="1" width="1"/><rect fill="#ff0e0eff" x="11" y="18" height="1" width="3"/><rect fill="#fff0eeff" x="14" y="18" height="1" width="2"/><rect fill="#ff0e0eff" x="16" y="18" height="1" width="4"/><rect fill="#fff0eeff" x="20" y="18" height="1" width="2"/><rect fill="#ff0e0eff" x="22" y="18" height="1" width="1"/><rect fill="#000000ff" x="23" y="18" height="1" width="1"/><rect fill="#ff0e0eff" x="24" y="18" height="1" width="1"/><rect fill="#000000ff" x="25" y="18" height="1" width="2"/><rect fill="#000000ff" x="9" y="19" height="1" width="1"/><rect fill="#ff0e0eff" x="10" y="19" height="1" width="1"/><rect fill="#d70c1dff" x="11" y="19" height="1" width="5"/><rect fill="#ff0e0eff" x="16" y="19" height="1" width="1"/><rect fill="#d70c1dff" x="17" y="19" height="1" width="5"/><rect fill="#ff0e0eff" x="22" y="19" height="1" width="1"/><rect fill="#000000ff" x="23" y="19" height="1" width="1"/><rect fill="#ff0e0eff" x="24" y="19" height="1" width="1"/><rect fill="#000000ff" x="25" y="19" height="1" width="1"/><rect fill="#ffe330ff" x="26" y="19" height="1" width="1"/><rect fill="#000000ff" x="27" y="19" height="1" width="1"/><rect fill="#000000ff" x="8" y="20" height="1" width="1"/><rect fill="#ff0e0eff" x="9" y="20" height="1" width="2"/><rect fill="#000000ff" x="11" y="20" height="1" width="1"/><rect fill="#ff0e0eff" x="12" y="20" height="1" width="1"/><rect fill="#000000ff" x="13" y="20" height="1" width="1"/><rect fill="#ff0e0eff" x="14" y="20" height="1" width="1"/><rect fill="#000000ff" x="15" y="20" height="1" width="1"/><rect fill="#ff0e0eff" x="16" y="20" height="1" width="1"/><rect fill="#000000ff" x="17" y="20" height="1" width="1"/><rect fill="#ff0e0eff" x="18" y="20" height="1" width="1"/><rect fill="#000000ff" x="19" y="20" height="1" width="1"/><rect fill="#ff0e0eff" x="20" y="20" height="1" width="1"/><rect fill="#000000ff" x="21" y="20" height="1" width="2"/><rect fill="#ff0e0eff" x="23" y="20" height="1" width="2"/><rect fill="#000000ff" x="25" y="20" height="1" width="2"/><rect fill="#000000ff" x="8" y="21" height="1" width="18"/><rect fill="#000000ff" x="8" y="22" height="1" width="1"/><rect fill="#ff0e0eff" x="9" y="22" height="1" width="2"/><rect fill="#000000ff" x="11" y="22" height="1" width="1"/><rect fill="#ff0e0eff" x="12" y="22" height="1" width="1"/><rect fill="#000000ff" x="13" y="22" height="1" width="1"/><rect fill="#ff0e0eff" x="14" y="22" height="1" width="1"/><rect fill="#000000ff" x="15" y="22" height="1" width="1"/><rect fill="#ff0e0eff" x="16" y="22" height="1" width="1"/><rect fill="#000000ff" x="17" y="22" height="1" width="1"/><rect fill="#ff0e0eff" x="18" y="22" height="1" width="1"/><rect fill="#000000ff" x="19" y="22" height="1" width="1"/><rect fill="#ff0e0eff" x="20" y="22" height="1" width="1"/><rect fill="#000000ff" x="21" y="22" height="1" width="2"/><rect fill="#ff0e0eff" x="23" y="22" height="1" width="1"/><rect fill="#000000ff" x="24" y="22" height="1" width="1"/><rect fill="#ff0e0eff" x="25" y="22" height="1" width="1"/><rect fill="#000000ff" x="26" y="22" height="1" width="1"/><rect fill="#000000ff" x="7" y="23" height="1" width="1"/><rect fill="#ff0e0eff" x="8" y="23" height="1" width="1"/><rect fill="#000000ff" x="9" y="23" height="1" width="1"/><rect fill="#ff0e0eff" x="10" y="23" height="1" width="14"/><rect fill="#000000ff" x="24" y="23" height="1" width="1"/><rect fill="#ff0e0eff" x="25" y="23" height="1" width="2"/><rect fill="#000000ff" x="27" y="23" height="1" width="1"/><rect fill="#000000ff" x="8" y="24" height="1" width="1"/><rect fill="#ff0e0eff" x="9" y="24" height="1" width="1"/><rect fill="#000000ff" x="10" y="24" height="1" width="14"/><rect fill="#ff0e0eff" x="24" y="24" height="1" width="2"/><rect fill="#000000ff" x="26" y="24" height="1" width="1"/><rect fill="#000000ff" x="9" y="25" height="1" width="1"/><rect fill="#ff0e0eff" x="10" y="25" height="1" width="2"/><rect fill="#000000ff" x="12" y="25" height="1" width="1"/><rect fill="#ff0e0eff" x="13" y="25" height="1" width="2"/><rect fill="#000000ff" x="15" y="25" height="1" width="1"/><rect fill="#ff0e0eff" x="16" y="25" height="1" width="1"/><rect fill="#000000ff" x="17" y="25" height="1" width="1"/><rect fill="#ff0e0eff" x="18" y="25" height="1" width="1"/><rect fill="#000000ff" x="19" y="25" height="1" width="1"/><rect fill="#ff0e0eff" x="20" y="25" height="1" width="3"/><rect fill="#000000ff" x="23" y="25" height="1" width="1"/><rect fill="#ff0e0eff" x="24" y="25" height="1" width="1"/><rect fill="#000000ff" x="25" y="25" height="1" width="1"/><rect fill="#000000ff" x="7" y="26" height="1" width="4"/><rect fill="#ff0e0eff" x="11" y="26" height="1" width="2"/><rect fill="#000000ff" x="13" y="26" height="1" width="3"/><rect fill="#ff0e0eff" x="16" y="26" height="1" width="1"/><rect fill="#000000ff" x="17" y="26" height="1" width="1"/><rect fill="#ff0e0eff" x="18" y="26" height="1" width="1"/><rect fill="#000000ff" x="19" y="26" height="1" width="4"/><rect fill="#ff0e0eff" x="23" y="26" height="1" width="1"/><rect fill="#000000ff" x="24" y="26" height="1" width="4"/><rect fill="#000000ff" x="6" y="27" height="1" width="1"/><rect fill="#ff0e0eff" x="7" y="27" height="1" width="7"/><rect fill="#000000ff" x="14" y="27" height="1" width="1"/><rect fill="#ff0e0eff" x="15" y="27" height="1" width="2"/><rect fill="#000000ff" x="17" y="27" height="1" width="1"/><rect fill="#ff0e0eff" x="18" y="27" height="1" width="2"/><rect fill="#000000ff" x="20" y="27" height="1" width="1"/><rect fill="#ff0e0eff" x="21" y="27" height="1" width="7"/><rect fill="#000000ff" x="28" y="27" height="1" width="1"/><rect fill="#000000ff" x="7" y="28" height="1" width="21"/></svg>