<svg xmlns="http://www.w3.org/2000/svg" shape-rendering="crispEdges" version="1.1" viewBox="0 0 36 36" width="360" height="360"><rect fill="#fff0eeff" x="13" y="6" height="1" width="4"/><rect fill="#c54e38ff" x="17" y="6" height="1" width="3"/><rect fill="#c54e38ff" x="11" y="7" height="1" width="1"/><rect fill="#fff0eeff" x="12" y="7" height="1" width="5"/><rect fill="#c54e38ff" x="17" y="7" height="1" width="6"/><rect fill="#c54e38ff" x="9" y="8" height="1" width="3"/><rect fill="#fff0eeff" x="12" y="8" height="1" width="5"/><rect fill="#c54e38ff" x="17" y="8" height="1" width="6"/><rect fill="#fff0eeff" x="23" y="8" height="1" width="2"/><rect fill="#fff0eeff" x="8" y="9" height="1" width="2"/><rect fill="#c54e38ff" x="10" y="9" height="1" width="3"/><rect fill="#fff0eeff" x="13" y="9" height="1" width="3"/><rect fill="#c54e38ff" x="16" y="9" height="1" width="3"/><rect fill="#fff0eeff" x="19" y="9" height="1" width="1"/><rect fill="#c54e38ff" x="20" y="9" height="1" width="4"/><rect fill="#fff0eeff" x="24" y="9" height="1" width="1"/><rect fill="#c54e38ff" x="25" y="9" height="1" width="2"/><rect fill="#fff0eeff" x="8" y="10" height="1" width="2"/><rect fill="#c54e38ff" x="10" y="10" height="1" width="18"/><rect fill="#c54e38ff" x="8" y="11" height="1" width="21"/><rect fill="#c54e38ff" x="8" y="12" height="1" width="12"/><rect fill="#fff0eeff" x="20" y="12" height="1" width="4"/><rect fill="#c54e38ff" x="24" y="12" height="1" width="4"/><rect fill="#fff0eeff" x="28" y="12" height="1" width="1"/><rect fill="#c54e38ff" x="9" y="13" height="1" width="3"/><rect fill="#fff0eeff" x="12" y="13" height="1" width="2"/><rect fill="#c54e38ff" x="14" y="13" height="1" width="5"/><rect fill="#fff0eeff" x="19" y="13" height="1" width="6"/><rect fill="#c54e38ff" x="25" y="13" height="1" width="3"/><rect fill="#fff0eeff" x="28" y="13" height="1" width="1"/><rect fill="#000000ff" x="10" y="14" height="1" width="14"/><rect fill="#fff0eeff" x="24" y="14" height="1" width="1"/><rect fill="#c54e38ff" x="25" y="14" height="1" width="3"/><rect fill="#fff0eeff" x="28" y="14" height="1" width="1"/><rect fill="#000000ff" x="11" y="15" height="1" width="1"/><rect fill="#7ad675ff" x="12" y="15" height="1" width="1"/><rect fill="#ffe330ff" x="13" y="15" height="1" width="1"/><rect fill="#7ad675ff" x="14" y="15" height="1" width="3"/><rect fill="#ffe330ff" x="17" y="15" height="1" width="1"/><rect fill="#7ad675ff" x="18" y="15" height="1" width="3"/><rect fill="#ffe330ff" x="21" y="15" height="1" width="1"/><rect fill="#7ad675ff" x="22" y="15" height="1" width="2"/><rect fill="#000000ff" x="24" y="15" height="1" width="1"/><rect fill="#c54e38ff" x="25" y="15" height="1" width="4"/><rect fill="#000000ff" x="10" y="16" height="1" width="1"/><rect fill="#9675c2ff" x="11" y="16" height="1" width="11"/><rect fill="#7ad675ff" x="22" y="16" height="1" width="3"/><rect fill="#000000ff" x="25" y="16" height="1" width="1"/><rect fill="#c54e38ff" x="26" y="16" height="1" width="2"/><rect fill="#9675c2ff" x="10" y="17" height="1" width="2"/><rect fill="#fff0eeff" x="12" y="17" height="1" width="3"/><rect fill="#9675c2ff" x="15" y="17" height="1" width="3"/><rect fill="#fff0eeff" x="18" y="17" height="1" width="3"/><rect fill="#9675c2ff" x="21" y="17" height="1" width="5"/><rect fill="#000000ff" x="9" y="18" height="1" width="1"/><rect fill="#9675c2ff" x="10" y="18" height="1" width="2"/><rect fill="#fff0eeff" x="12" y="18" height="1" width="3"/><rect fill="#9675c2ff" x="15" y="18" height="1" width="3"/><rect fill="#fff0eeff" x="18" y="18" height="1" width="3"/><rect fill="#9675c2ff" x="21" y="18" height="1" width="5"/><rect fill="#000000ff" x="26" y="18" height="1" width="1"/><rect fill="#000000ff" x="8" y="19" height="1" width="1"/><rect fill="#7ad675ff" x="9" y="19" height="1" width="2"/><rect fill="#9675c2ff" x="11" y="19" height="1" width="11"/><rect fill="#7ad675ff" x="22" y="19" height="1" width="3"/><rect fill="#ffe330ff" x="25" y="19" height="1" width="1"/><rect fill="#000000ff" x="26" y="19" height="1" width="2"/><rect fill="#000000ff" x="7" y="20" height="1" width="2"/><rect fill="#4b80c2ff" x="9" y="20" height="1" width="15"/><rect fill="#7ad675ff" x="24" y="20" height="1" width="2"/><rect fill="#000000ff" x="26" y="20" height="1" width="1"/><rect fill="#7ad675ff" x="27" y="20" height="1" width="1"/><rect fill="#000000ff" x="28" y="20" height="1" width="1"/><rect fill="#000000ff" x="6" y="21" height="1" width="1"/><rect fill="#7ad675ff" x="7" y="21" height="1" width="1"/><rect fill="#000000ff" x="8" y="21" height="1" width="1"/><rect fill="#4b80c2ff" x="9" y="21" height="1" width="1"/><rect fill="#ff0e0eff" x="10" y="21" height="1" width="4"/><rect fill="#ffe330ff" x="14" y="21" height="1" width="2"/><rect fill="#ff0e0eff" x="16" y="21" height="1" width="3"/><rect fill="#ffe330ff" x="19" y="21" height="1" width="2"/><rect fill="#ff0e0eff" x="21" y="21" height="1" width="2"/><rect fill="#4b80c2ff" x="23" y="21" height="1" width="1"/><rect fill="#7ad675ff" x="24" y="21" height="1" width="2"/><rect fill="#000000ff" x="26" y="21" height="1" width="1"/><rect fill="#7ad675ff" x="27" y="21" height="1" width="2"/><rect fill="#000000ff" x="29" y="21" height="1" width="1"/><rect fill="#000000ff" x="5" y="22" height="1" width="1"/><rect fill="#7ad675ff" x="6" y="22" height="1" width="2"/><rect fill="#000000ff" x="8" y="22" height="1" width="1"/><rect fill="#4b80c2ff" x="9" y="22" height="1" width="15"/><rect fill="#7ad675ff" x="24" y="22" height="1" width="2"/><rect fill="#000000ff" x="26" y="22" height="1" width="1"/><rect fill="#ffe330ff" x="27" y="22" height="1" width="1"/><rect fill="#7ad675ff" x="28" y="22" height="1" width="1"/><rect fill="#ffe330ff" x="29" y="22" height="1" width="1"/><rect fill="#000000ff" x="30" y="22" height="1" width="1"/><rect fill="#000000ff" x="5" y="23" height="1" width="1"/><rect fill="#ffe330ff" x="6" y="23" height="1" width="1"/><rect fill="#7ad675ff" x="7" y="23" height="1" width="1"/><rect fill="#ffe330ff" x="8" y="23" height="1" width="1"/><rect fill="#000000ff" x="9" y="23" height="1" width="1"/><rect fill="#7ad675ff" x="10" y="23" height="1" width="14"/><rect fill="#ffe330ff" x="24" y="23" height="1" width="1"/><rect fill="#7ad675ff" x="25" y="23" height="1" width="1"/><rect fill="#000000ff" x="26" y="23" height="1" width="1"/><rect fill="#7ad675ff" x="27" y="23" height="1" width="3"/><rect fill="#000000ff" x="30" y="23" height="1" width="1"/><rect fill="#000000ff" x="5" y="24" height="1" width="1"/><rect fill="#7ad675ff" x="6" y="24" height="1" width="4"/><rect fill="#000000ff" x="10" y="24" height="1" width="1"/><rect fill="#7ad675ff" x="11" y="24" height="1" width="3"/><rect fill="#000000ff" x="14" y="24" height="1" width="1"/><rect fill="#7ad675ff" x="15" y="24" height="1" width="2"/><rect fill="#000000ff" x="17" y="24" height="1" width="1"/><rect fill="#7ad675ff" x="18" y="24" height="1" width="2"/><rect fill="#000000ff" x="20" y="24" height="1" width="1"/><rect fill="#7ad675ff" x="21" y="24" height="1" width="4"/><rect fill="#000000ff" x="25" y="24" height="1" width="1"/><rect fill="#7ad675ff" x="26" y="24" height="1" width="2"/><rect fill="#ffe330ff" x="28" y="24" height="1" width="1"/><rect fill="#7ad675ff" x="29" y="24" height="1" width="1"/><rect fill="#000000ff" x="30" y="24" height="1" width="1"/><rect fill="#000000ff" x="6" y="25" height="1" width="1"/><rect fill="#7ad675ff" x="7" y="25" height="1" width="1"/><rect fill="#ffe330ff" x="8" y="25" height="1" width="1"/><rect fill="#7ad675ff" x="9" y="25" height="1" width="2"/><rect fill="#000000ff" x="11" y="25" height="1" width="1"/><rect fill="#7ad675ff" x="12" y="25" height="1" width="3"/><rect fill="#000000ff" x="15" y="25" height="1" width="1"/><rect fill="#7ad675ff" x="16" y="25" height="1" width="1"/><rect fill="#000000ff" x="17" y="25" height="1" width="1"/><rect fill="#7ad675ff" x="18" y="25" height="1" width="1"/><rect fill="#000000ff" x="19" y="25" height="1" width="1"/><rect fill="#7ad675ff" x="20" y="25" height="1" width="4"/><rect fill="#000000ff" x="24" y="25" height="1" width="1"/><rect fill="#7ad675ff" x="25" y="25" height="1" width="5"/><rect fill="#000000ff" x="30" y="25" height="1" width="1"/><rect fill="#000000ff" x="7" y="26" height="1" width="3"/><rect fill="#ffe330ff" x="10" y="26" height="1" width="2"/><rect fill="#000000ff" x="12" y="26" height="1" width="4"/><rect fill="#7ad675ff" x="16" y="26" height="1" width="1"/><rect fill="#000000ff" x="17" y="26" height="1" width="1"/><rect fill="#7ad675ff" x="18" y="26" height="1" width="1"/><rect fill="#000000ff" x="19" y="26" height="1" width="5"/><rect fill="#ffe330ff" x="24" y="26" height="1" width="1"/><rect fill="#000000ff" x="25" y="26" height="1" width="3"/><rect fill="#7ad675ff" x="28" y="26" height="1" width="1"/><rect fill="#000000ff" x="29" y="26" height="1" width="1"/><rect fill="#000000ff" x="6" y="27" height="1" width="1"/><rect fill="#4b80c2ff" x="7" y="27" height="1" width="7"/><rect fill="#000000ff" x="14" y="27" height="1" width="1"/><rect fill="#7ad675ff" x="15" y="27" height="1" width="2"/><rect fill="#000000ff" x="17" y="27" height="1" width="1"/><rect fill="#7ad675ff" x="18" y="27" height="1" width="2"/><rect fill="#000000ff" x="20" y="27" height="1" width="1"/><rect fill="#4b80c2ff" x="21" y="27" height="1" width="7"/><rect fill="#000000ff" x="28" y="27" height="1" width="1"/><rect fill="#000000ff" x="7" y="28" height="1" width="21"/></svg>