<svg xmlns="http://www.w3.org/2000/svg" shape-rendering="crispEdges" version="1.1" viewBox="0 0 36 36" width="360" height="360"><rect fill="#52665cff" x="10" y="11" height="1" width="1"/><rect fill="#52665cff" x="25" y="11" height="1" width="1"/><rect fill="#52665cff" x="11" y="12" height="1" width="1"/><rect fill="#52665cff" x="24" y="12" height="1" width="1"/><rect fill="#52665cff" x="12" y="13" height="1" width="12"/><rect fill="#52665cff" x="10" y="14" height="1" width="2"/><rect fill="#a6ebb5ff" x="12" y="14" height="1" width="12"/><rect fill="#52665cff" x="24" y="14" height="1" width="1"/><rect fill="#52665cff" x="9" y="15" height="1" width="1"/><rect fill="#a6ebb5ff" x="10" y="15" height="1" width="1"/><rect fill="#c54e38ff" x="11" y="15" height="1" width="4"/><rect fill="#a6ebb5ff" x="15" y="15" height="1" width="3"/><rect fill="#c54e38ff" x="18" y="15" height="1" width="4"/><rect fill="#a6ebb5ff" x="22" y="15" height="1" width="3"/><rect fill="#52665cff" x="25" y="15" height="1" width="1"/><rect fill="#52665cff" x="9" y="16" height="1" width="1"/><rect fill="#c54e38ff" x="10" y="16" height="1" width="1"/><rect fill="#fff0eeff" x="11" y="16" height="1" width="1"/><rect fill="#7d5799ff" x="12" y="16" height="1" width="1"/><rect fill="#322850ff" x="13" y="16" height="1" width="2"/><rect fill="#c54e38ff" x="15" y="16" height="1" width="1"/><rect fill="#a6ebb5ff" x="16" y="16" height="1" width="1"/><rect fill="#c54e38ff" x="17" y="16" height="1" width="1"/><rect fill="#fff0eeff" x="18" y="16" height="1" width="1"/><rect fill="#322850ff" x="19" y="16" height="1" width="2"/><rect fill="#a7a0f3ff" x="21" y="16" height="1" width="1"/><rect fill="#c54e38ff" x="22" y="16" height="1" width="1"/><rect fill="#a6ebb5ff" x="23" y="16" height="1" width="2"/><rect fill="#52665cff" x="25" y="16" height="1" width="1"/><rect fill="#c54e38ff" x="9" y="17" height="1" width="2"/><rect fill="#a7a0f3ff" x="11" y="17" height="1" width="1"/><rect fill="#7d5799ff" x="12" y="17" height="1" width="1"/><rect fill="#322850ff" x="13" y="17" height="1" width="2"/><rect fill="#c54e38ff" x="15" y="17" height="1" width="3"/><rect fill="#7d5799ff" x="18" y="17" height="1" width="1"/><rect fill="#322850ff" x="19" y="17" height="1" width="2"/><rect fill="#a7a0f3ff" x="21" y="17" height="1" width="1"/><rect fill="#c54e38ff" x="22" y="17" height="1" width="5"/><rect fill="#52665cff" x="9" y="18" height="1" width="1"/><rect fill="#c54e38ff" x="10" y="18" height="1" width="1"/><rect fill="#a7a0f3ff" x="11" y="18" height="1" width="1"/><rect fill="#9675c2ff" x="12" y="18" height="1" width="2"/><rect fill="#fff0eeff" x="14" y="18" height="1" width="1"/><rect fill="#c54e38ff" x="15" y="18" height="1" width="1"/><rect fill="#a6ebb5ff" x="16" y="18" height="1" width="1"/><rect fill="#c54e38ff" x="17" y="18" height="1" width="1"/><rect fill="#9675c2ff" x="18" y="18" height="1" width="3"/><rect fill="#fff0eeff" x="21" y="18" height="1" width="1"/><rect fill="#c54e38ff" x="22" y="18" height="1" width="1"/><rect fill="#a6ebb5ff" x="23" y="18" height="1" width="2"/><rect fill="#52665cff" x="25" y="18" height="1" width="1"/><rect fill="#52665cff" x="9" y="19" height="1" width="1"/><rect fill="#a6ebb5ff" x="10" y="19" height="1" width="1"/><rect fill="#c54e38ff" x="11" y="19" height="1" width="5"/><rect fill="#a6ebb5ff" x="16" y="19" height="1" width="2"/><rect fill="#c54e38ff" x="18" y="19" height="1" width="4"/><rect fill="#a6ebb5ff" x="22" y="19" height="1" width="3"/><rect fill="#52665cff" x="25" y="19" height="1" width="1"/><rect fill="#34ac80ff" x="7" y="20" height="1" width="21"/><rect fill="#34ac80ff" x="7" y="21" height="1" width="1"/><rect fill="#000000ff" x="8" y="21" height="1" width="19"/><rect fill="#34ac80ff" x="27" y="21" height="1" width="1"/><rect fill="#34ac80ff" x="7" y="22" height="1" width="21"/><rect fill="#52665cff" x="7" y="23" height="1" width="1"/><rect fill="#a6ebb5ff" x="8" y="23" height="1" width="3"/><rect fill="#52665cff" x="11" y="23" height="1" width="1"/><rect fill="#a6ebb5ff" x="12" y="23" height="1" width="12"/><rect fill="#52665cff" x="24" y="23" height="1" width="1"/><rect fill="#a6ebb5ff" x="25" y="23" height="1" width="3"/><rect fill="#52665cff" x="28" y="23" height="1" width="1"/><rect fill="#52665cff" x="7" y="24" height="1" width="1"/><rect fill="#a6ebb5ff" x="8" y="24" height="1" width="3"/><rect fill="#52665cff" x="11" y="24" height="1" width="1"/><rect fill="#a6ebb5ff" x="12" y="24" height="1" width="3"/><rect fill="#52665cff" x="15" y="24" height="1" width="1"/><rect fill="#a6ebb5ff" x="16" y="24" height="1" width="1"/><rect fill="#52665cff" x="17" y="24" height="1" width="1"/><rect fill="#a6ebb5ff" x="18" y="24" height="1" width="1"/><rect fill="#52665cff" x="19" y="24" height="1" width="1"/><rect fill="#a6ebb5ff" x="20" y="24" height="1" width="4"/><rect fill="#52665cff" x="24" y="24" height="1" width="1"/><rect fill="#a6ebb5ff" x="25" y="24" height="1" width="3"/><rect fill="#52665cff" x="28" y="24" height="1" width="1"/><rect fill="#52665cff" x="8" y="25" height="1" width="2"/><rect fill="#a6ebb5ff" x="10" y="25" height="1" width="2"/><rect fill="#52665cff" x="12" y="25" height="1" width="1"/><rect fill="#a6ebb5ff" x="13" y="25" height="1" width="2"/><rect fill="#52665cff" x="15" y="25" height="1" width="1"/><rect fill="#a6ebb5ff" x="16" y="25" height="1" width="1"/><rect fill="#52665cff" x="17" y="25" height="1" width="1"/><rect fill="#a6ebb5ff" x="18" y="25" height="1" width="1"/><rect fill="#52665cff" x="19" y="25" height="1" width="1"/><rect fill="#a6ebb5ff" x="20" y="25" height="1" width="2"/><rect fill="#52665cff" x="22" y="25" height="1" width="2"/><rect fill="#a6ebb5ff" x="24" y="25" height="1" width="2"/><rect fill="#52665cff" x="26" y="25" height="1" width="2"/><rect fill="#52665cff" x="10" y="26" height="1" width="2"/><rect fill="#a6ebb5ff" x="12" y="26" height="1" width="1"/><rect fill="#52665cff" x="13" y="26" height="1" width="3"/><rect fill="#a6ebb5ff" x="16" y="26" height="1" width="1"/><rect fill="#52665cff" x="17" y="26" height="1" width="1"/><rect fill="#a6ebb5ff" x="18" y="26" height="1" width="1"/><rect fill="#52665cff" x="19" y="26" height="1" width="4"/><rect fill="#a6ebb5ff" x="23" y="26" height="1" width="1"/><rect fill="#52665cff" x="24" y="26" height="1" width="2"/><rect fill="#52665cff" x="9" y="27" height="1" width="1"/><rect fill="#a6ebb5ff" x="10" y="27" height="1" width="5"/><rect fill="#52665cff" x="15" y="27" height="1" width="1"/><rect fill="#a6ebb5ff" x="16" y="27" height="1" width="1"/><rect fill="#52665cff" x="17" y="27" height="1" width="1"/><rect fill="#a6ebb5ff" x="18" y="27" height="1" width="1"/><rect fill="#52665cff" x="19" y="27" height="1" width="2"/><rect fill="#a6ebb5ff" x="21" y="27" height="1" width="5"/><rect fill="#52665cff" x="26" y="27" height="1" width="1"/><rect fill="#52665cff" x="10" y="28" height="1" width="16"/></svg>