<svg xmlns="http://www.w3.org/2000/svg" shape-rendering="crispEdges" version="1.1" viewBox="0 0 36 36" width="360" height="360"><rect fill="#4458dbff" x="12" y="14" height="1" width="12"/><rect fill="#4458dbff" x="11" y="15" height="1" width="1"/><rect fill="#7e8ffeff" x="12" y="15" height="1" width="12"/><rect fill="#4458dbff" x="24" y="15" height="1" width="1"/><rect fill="#4458dbff" x="10" y="16" height="1" width="1"/><rect fill="#7e8ffeff" x="11" y="16" height="1" width="14"/><rect fill="#4458dbff" x="25" y="16" height="1" width="1"/><rect fill="#f0f0f0ff" x="10" y="17" height="1" width="15"/><rect fill="#4458dbff" x="25" y="17" height="1" width="1"/><rect fill="#4458dbff" x="9" y="18" height="1" width="1"/><rect fill="#f0f0f0ff" x="10" y="18" height="1" width="1"/><rect fill="#001db3ff" x="11" y="18" height="1" width="3"/><rect fill="#328dfdff" x="14" y="18" height="1" width="2"/><rect fill="#f0f0f0ff" x="16" y="18" height="1" width="1"/><rect fill="#9e0000ff" x="17" y="18" height="1" width="3"/><rect fill="#fd3232ff" x="20" y="18" height="1" width="2"/><rect fill="#f0f0f0ff" x="22" y="18" height="1" width="2"/><rect fill="#7e8ffeff" x="24" y="18" height="1" width="2"/><rect fill="#4458dbff" x="26" y="18" height="1" width="1"/><rect fill="#0c9cf3ff" x="8" y="19" height="1" width="2"/><rect fill="#f0f0f0ff" x="10" y="19" height="1" width="13"/><rect fill="#0c9cf3ff" x="23" y="19" height="1" width="2"/><rect fill="#7e8ffeff" x="25" y="19" height="1" width="1"/><rect fill="#4458dbff" x="26" y="19" height="1" width="2"/><rect fill="#4458dbff" x="7" y="20" height="1" width="1"/><rect fill="#0c9cf3ff" x="8" y="20" height="1" width="1"/><rect fill="#000000ff" x="9" y="20" height="1" width="1"/><rect fill="#0c9cf3ff" x="10" y="20" height="1" width="13"/><rect fill="#000000ff" x="23" y="20" height="1" width="1"/><rect fill="#0c9cf3ff" x="24" y="20" height="1" width="1"/><rect fill="#7e8ffeff" x="25" y="20" height="1" width="1"/><rect fill="#4458dbff" x="26" y="20" height="1" width="1"/><rect fill="#7e8ffeff" x="27" y="20" height="1" width="1"/><rect fill="#4458dbff" x="28" y="20" height="1" width="1"/><rect fill="#4458dbff" x="6" y="21" height="1" width="1"/><rect fill="#7e8ffeff" x="7" y="21" height="1" width="1"/><rect fill="#0c9cf3ff" x="8" y="21" height="1" width="2"/><rect fill="#000000ff" x="10" y="21" height="1" width="13"/><rect fill="#0c9cf3ff" x="23" y="21" height="1" width="2"/><rect fill="#7e8ffeff" x="25" y="21" height="1" width="1"/><rect fill="#4458dbff" x="26" y="21" height="1" width="1"/><rect fill="#7e8ffeff" x="27" y="21" height="1" width="2"/><rect fill="#4458dbff" x="29" y="21" height="1" width="1"/><rect fill="#4458dbff" x="5" y="22" height="1" width="1"/><rect fill="#7e8ffeff" x="6" y="22" height="1" width="2"/><rect fill="#4458dbff" x="8" y="22" height="1" width="1"/><rect fill="#0c9cf3ff" x="9" y="22" height="1" width="15"/><rect fill="#7e8ffeff" x="24" y="22" height="1" width="2"/><rect fill="#4458dbff" x="26" y="22" height="1" width="1"/><rect fill="#7e8ffeff" x="27" y="22" height="1" width="3"/><rect fill="#4458dbff" x="30" y="22" height="1" width="1"/><rect fill="#4458dbff" x="5" y="23" height="1" width="1"/><rect fill="#7e8ffeff" x="6" y="23" height="1" width="3"/><rect fill="#4458dbff" x="9" y="23" height="1" width="1"/><rect fill="#7e8ffeff" x="10" y="23" height="1" width="16"/><rect fill="#4458dbff" x="26" y="23" height="1" width="1"/><rect fill="#7e8ffeff" x="27" y="23" height="1" width="3"/><rect fill="#4458dbff" x="30" y="23" height="1" width="1"/><rect fill="#4458dbff" x="5" y="24" height="1" width="1"/><rect fill="#7e8ffeff" x="6" y="24" height="1" width="4"/><rect fill="#4458dbff" x="10" y="24" height="1" width="1"/><rect fill="#7e8ffeff" x="11" y="24" height="1" width="3"/><rect fill="#4458dbff" x="14" y="24" height="1" width="1"/><rect fill="#7e8ffeff" x="15" y="24" height="1" width="2"/><rect fill="#4458dbff" x="17" y="24" height="1" width="1"/><rect fill="#7e8ffeff" x="18" y="24" height="1" width="2"/><rect fill="#4458dbff" x="20" y="24" height="1" width="1"/><rect fill="#7e8ffeff" x="21" y="24" height="1" width="4"/><rect fill="#4458dbff" x="25" y="24" height="1" width="1"/><rect fill="#7e8ffeff" x="26" y="24" height="1" width="4"/><rect fill="#4458dbff" x="30" y="24" height="1" width="1"/><rect fill="#4458dbff" x="6" y="25" height="1" width="1"/><rect fill="#7e8ffeff" x="7" y="25" height="1" width="4"/><rect fill="#4458dbff" x="11" y="25" height="1" width="1"/><rect fill="#7e8ffeff" x="12" y="25" height="1" width="3"/><rect fill="#4458dbff" x="15" y="25" height="1" width="1"/><rect fill="#7e8ffeff" x="16" y="25" height="1" width="1"/><rect fill="#4458dbff" x="17" y="25" height="1" width="1"/><rect fill="#7e8ffeff" x="18" y="25" height="1" width="1"/><rect fill="#4458dbff" x="19" y="25" height="1" width="1"/><rect fill="#7e8ffeff" x="20" y="25" height="1" width="4"/><rect fill="#4458dbff" x="24" y="25" height="1" width="1"/><rect fill="#7e8ffeff" x="25" y="25" height="1" width="5"/><rect fill="#4458dbff" x="30" y="25" height="1" width="1"/><rect fill="#4458dbff" x="7" y="26" height="1" width="3"/><rect fill="#7e8ffeff" x="10" y="26" height="1" width="2"/><rect fill="#4458dbff" x="12" y="26" height="1" width="4"/><rect fill="#7e8ffeff" x="16" y="26" height="1" width="1"/><rect fill="#4458dbff" x="17" y="26" height="1" width="1"/><rect fill="#7e8ffeff" x="18" y="26" height="1" width="1"/><rect fill="#4458dbff" x="19" y="26" height="1" width="5"/><rect fill="#7e8ffeff" x="24" y="26" height="1" width="1"/><rect fill="#4458dbff" x="25" y="26" height="1" width="3"/><rect fill="#7e8ffeff" x="28" y="26" height="1" width="1"/><rect fill="#4458dbff" x="29" y="26" height="1" width="1"/><rect fill="#4458dbff" x="6" y="27" height="1" width="1"/><rect fill="#7e8ffeff" x="7" y="27" height="1" width="7"/><rect fill="#4458dbff" x="14" y="27" height="1" width="1"/><rect fill="#7e8ffeff" x="15" y="27" height="1" width="2"/><rect fill="#4458dbff" x="17" y="27" height="1" width="1"/><rect fill="#7e8ffeff" x="18" y="27" height="1" width="2"/><rect fill="#4458dbff" x="20" y="27" height="1" width="1"/><rect fill="#7e8ffeff" x="21" y="27" height="1" width="7"/><rect fill="#4458dbff" x="28" y="27" height="1" width="1"/><rect fill="#4458dbff" x="7" y="28" height="1" width="21"/></svg>