<svg xmlns="http://www.w3.org/2000/svg" shape-rendering="crispEdges" version="1.1" viewBox="0 0 36 36" width="360" height="360"><rect fill="#000000ff" x="13" y="13" height="1" width="1"/><rect fill="#000000ff" x="19" y="13" height="1" width="1"/><rect fill="#000000ff" x="12" y="14" height="1" width="1"/><rect fill="#2f3635ff" x="13" y="14" height="1" width="1"/><rect fill="#000000ff" x="14" y="14" height="1" width="5"/><rect fill="#2f3635ff" x="19" y="14" height="1" width="1"/><rect fill="#000000ff" x="20" y="14" height="1" width="4"/><rect fill="#000000ff" x="11" y="15" height="1" width="1"/><rect fill="#2f3635ff" x="12" y="15" height="1" width="2"/><rect fill="#1a1e1dff" x="14" y="15" height="1" width="1"/><rect fill="#2f3635ff" x="15" y="15" height="1" width="5"/><rect fill="#1a1e1dff" x="20" y="15" height="1" width="1"/><rect fill="#2f3635ff" x="21" y="15" height="1" width="3"/><rect fill="#000000ff" x="24" y="15" height="1" width="1"/><rect fill="#08030dff" x="8" y="16" height="1" width="20"/><rect fill="#08030dff" x="8" y="17" height="1" width="3"/><rect fill="#fff0eeff" x="11" y="17" height="1" width="3"/><rect fill="#949ddaff" x="14" y="17" height="1" width="2"/><rect fill="#08030dff" x="16" y="17" height="1" width="1"/><rect fill="#fff0eeff" x="17" y="17" height="1" width="3"/><rect fill="#949ddaff" x="20" y="17" height="1" width="2"/><rect fill="#08030dff" x="22" y="17" height="1" width="6"/><rect fill="#08030dff" x="7" y="18" height="1" width="4"/><rect fill="#fff0eeff" x="11" y="18" height="1" width="3"/><rect fill="#949ddaff" x="14" y="18" height="1" width="2"/><rect fill="#08030dff" x="16" y="18" height="1" width="1"/><rect fill="#fff0eeff" x="17" y="18" height="1" width="3"/><rect fill="#949ddaff" x="20" y="18" height="1" width="2"/><rect fill="#08030dff" x="22" y="18" height="1" width="6"/><rect fill="#08030dff" x="7" y="19" height="1" width="21"/><rect fill="#000000ff" x="5" y="20" height="1" width="6"/><rect fill="#52665cff" x="11" y="20" height="1" width="13"/><rect fill="#2f3635ff" x="24" y="20" height="1" width="2"/><rect fill="#000000ff" x="26" y="20" height="1" width="1"/><rect fill="#2f3635ff" x="27" y="20" height="1" width="1"/><rect fill="#000000ff" x="28" y="20" height="1" width="1"/><rect fill="#000000ff" x="4" y="21" height="1" width="1"/><rect fill="#b7b7b7ff" x="5" y="21" height="1" width="1"/><rect fill="#f9f4f2ff" x="6" y="21" height="1" width="5"/><rect fill="#000000ff" x="11" y="21" height="1" width="3"/><rect fill="#688679ff" x="14" y="21" height="1" width="2"/><rect fill="#000000ff" x="16" y="21" height="1" width="1"/><rect fill="#688679ff" x="17" y="21" height="1" width="4"/><rect fill="#000000ff" x="21" y="21" height="1" width="2"/><rect fill="#52665cff" x="23" y="21" height="1" width="1"/><rect fill="#2f3635ff" x="24" y="21" height="1" width="2"/><rect fill="#000000ff" x="26" y="21" height="1" width="1"/><rect fill="#1a1e1dff" x="27" y="21" height="1" width="1"/><rect fill="#2f3635ff" x="28" y="21" height="1" width="1"/><rect fill="#000000ff" x="29" y="21" height="1" width="1"/><rect fill="#000000ff" x="5" y="22" height="1" width="6"/><rect fill="#52665cff" x="11" y="22" height="1" width="13"/><rect fill="#1a1e1dff" x="24" y="22" height="1" width="1"/><rect fill="#2f3635ff" x="25" y="22" height="1" width="1"/><rect fill="#000000ff" x="26" y="22" height="1" width="1"/><rect fill="#2f3635ff" x="27" y="22" height="1" width="2"/><rect fill="#1a1e1dff" x="29" y="22" height="1" width="1"/><rect fill="#000000ff" x="30" y="22" height="1" width="1"/><rect fill="#000000ff" x="5" y="23" height="1" width="1"/><rect fill="#2f3635ff" x="6" y="23" height="1" width="3"/><rect fill="#000000ff" x="9" y="23" height="1" width="1"/><rect fill="#2f3635ff" x="10" y="23" height="1" width="16"/><rect fill="#000000ff" x="26" y="23" height="1" width="1"/><rect fill="#2f3635ff" x="27" y="23" height="1" width="3"/><rect fill="#000000ff" x="30" y="23" height="1" width="1"/><rect fill="#000000ff" x="5" y="24" height="1" width="1"/><rect fill="#2f3635ff" x="6" y="24" height="1" width="1"/><rect fill="#1a1e1dff" x="7" y="24" height="1" width="1"/><rect fill="#2f3635ff" x="8" y="24" height="1" width="1"/><rect fill="#1a1e1dff" x="9" y="24" height="1" width="1"/><rect fill="#000000ff" x="10" y="24" height="1" width="1"/><rect fill="#2f3635ff" x="11" y="24" height="1" width="1"/><rect fill="#1a1e1dff" x="12" y="24" height="1" width="1"/><rect fill="#2f3635ff" x="13" y="24" height="1" width="1"/><rect fill="#000000ff" x="14" y="24" height="1" width="1"/><rect fill="#2f3635ff" x="15" y="24" height="1" width="1"/><rect fill="#1a1e1dff" x="16" y="24" height="1" width="1"/><rect fill="#000000ff" x="17" y="24" height="1" width="1"/><rect fill="#1a1e1dff" x="18" y="24" height="1" width="1"/><rect fill="#2f3635ff" x="19" y="24" height="1" width="1"/><rect fill="#000000ff" x="20" y="24" height="1" width="1"/><rect fill="#1a1e1dff" x="21" y="24" height="1" width="1"/><rect fill="#2f3635ff" x="22" y="24" height="1" width="1"/><rect fill="#1a1e1dff" x="23" y="24" height="1" width="1"/><rect fill="#2f3635ff" x="24" y="24" height="1" width="1"/><rect fill="#000000ff" x="25" y="24" height="1" width="1"/><rect fill="#1a1e1dff" x="26" y="24" height="1" width="1"/><rect fill="#2f3635ff" x="27" y="24" height="1" width="1"/><rect fill="#1a1e1dff" x="28" y="24" height="1" width="1"/><rect fill="#2f3635ff" x="29" y="24" height="1" width="1"/><rect fill="#000000ff" x="30" y="24" height="1" width="1"/><rect fill="#000000ff" x="6" y="25" height="1" width="1"/><rect fill="#1a1e1dff" x="7" y="25" height="1" width="4"/><rect fill="#000000ff" x="11" y="25" height="1" width="1"/><rect fill="#1a1e1dff" x="12" y="25" height="1" width="3"/><rect fill="#000000ff" x="15" y="25" height="1" width="1"/><rect fill="#1a1e1dff" x="16" y="25" height="1" width="1"/><rect fill="#000000ff" x="17" y="25" height="1" width="1"/><rect fill="#1a1e1dff" x="18" y="25" height="1" width="1"/><rect fill="#000000ff" x="19" y="25" height="1" width="1"/><rect fill="#1a1e1dff" x="20" y="25" height="1" width="4"/><rect fill="#000000ff" x="24" y="25" height="1" width="1"/><rect fill="#1a1e1dff" x="25" y="25" height="1" width="5"/><rect fill="#000000ff" x="30" y="25" height="1" width="1"/><rect fill="#000000ff" x="7" y="26" height="1" width="3"/><rect fill="#1a1e1dff" x="10" y="26" height="1" width="1"/><rect fill="#0e1213ff" x="11" y="26" height="1" width="1"/><rect fill="#000000ff" x="12" y="26" height="1" width="4"/><rect fill="#1a1e1dff" x="16" y="26" height="1" width="1"/><rect fill="#000000ff" x="17" y="26" height="1" width="1"/><rect fill="#1a1e1dff" x="18" y="26" height="1" width="1"/><rect fill="#000000ff" x="19" y="26" height="1" width="5"/><rect fill="#1a1e1dff" x="24" y="26" height="1" width="1"/><rect fill="#000000ff" x="25" y="26" height="1" width="3"/><rect fill="#1a1e1dff" x="28" y="26" height="1" width="1"/><rect fill="#000000ff" x="29" y="26" height="1" width="1"/><rect fill="#000000ff" x="6" y="27" height="1" width="1"/><rect fill="#2f3635ff" x="7" y="27" height="1" width="1"/><rect fill="#0e1213ff" x="8" y="27" height="1" width="1"/><rect fill="#2f3635ff" x="9" y="27" height="1" width="1"/><rect fill="#0e1213ff" x="10" y="27" height="1" width="1"/><rect fill="#2f3635ff" x="11" y="27" height="1" width="1"/><rect fill="#0e1213ff" x="12" y="27" height="1" width="2"/><rect fill="#000000ff" x="14" y="27" height="1" width="1"/><rect fill="#2f3635ff" x="15" y="27" height="1" width="2"/><rect fill="#000000ff" x="17" y="27" height="1" width="1"/><rect fill="#2f3635ff" x="18" y="27" height="1" width="2"/><rect fill="#000000ff" x="20" y="27" height="1" width="1"/><rect fill="#0e1213ff" x="21" y="27" height="1" width="2"/><rect fill="#2f3635ff" x="23" y="27" height="1" width="1"/><rect fill="#0e1213ff" x="24" y="27" height="1" width="1"/><rect fill="#2f3635ff" x="25" y="27" height="1" width="1"/><rect fill="#0e1213ff" x="26" y="27" height="1" width="1"/><rect fill="#2f3635ff" x="27" y="27" height="1" width="1"/><rect fill="#000000ff" x="28" y="27" height="1" width="1"/><rect fill="#000000ff" x="7" y="28" height="1" width="21"/></svg>