<svg xmlns="http://www.w3.org/2000/svg" shape-rendering="crispEdges" version="1.1" viewBox="0 0 36 36" width="360" height="360"><rect fill="#a65238ff" x="27" y="7" height="1" width="1"/><rect fill="#a65238ff" x="26" y="8" height="1" width="1"/><rect fill="#a65238ff" x="10" y="9" height="1" width="16"/><rect fill="#a65238ff" x="9" y="10" height="1" width="19"/><rect fill="#a65238ff" x="8" y="11" height="1" width="21"/><rect fill="#f58f79ff" x="8" y="12" height="1" width="1"/><rect fill="#a65238ff" x="9" y="12" height="1" width="3"/><rect fill="#f58f79ff" x="12" y="12" height="1" width="1"/><rect fill="#a65238ff" x="13" y="12" height="1" width="2"/><rect fill="#000000ff" x="15" y="12" height="1" width="1"/><rect fill="#a65238ff" x="16" y="12" height="1" width="2"/><rect fill="#000000ff" x="18" y="12" height="1" width="1"/><rect fill="#f58f79ff" x="19" y="12" height="1" width="1"/><rect fill="#a65238ff" x="20" y="12" height="1" width="2"/><rect fill="#000000ff" x="22" y="12" height="1" width="1"/><rect fill="#a65238ff" x="23" y="12" height="1" width="1"/><rect fill="#f58f79ff" x="24" y="12" height="1" width="1"/><rect fill="#a65238ff" x="25" y="12" height="1" width="4"/><rect fill="#f58f79ff" x="7" y="13" height="1" width="2"/><rect fill="#a65238ff" x="9" y="13" height="1" width="1"/><rect fill="#f58f79ff" x="10" y="13" height="1" width="3"/><rect fill="#a65238ff" x="13" y="13" height="1" width="1"/><rect fill="#000000ff" x="14" y="13" height="1" width="1"/><rect fill="#a65238ff" x="15" y="13" height="1" width="2"/><rect fill="#000000ff" x="17" y="13" height="1" width="1"/><rect fill="#f58f79ff" x="18" y="13" height="1" width="2"/><rect fill="#a65238ff" x="20" y="13" height="1" width="1"/><rect fill="#000000ff" x="21" y="13" height="1" width="1"/><rect fill="#f58f79ff" x="22" y="13" height="1" width="3"/><rect fill="#a65238ff" x="25" y="13" height="1" width="1"/><rect fill="#000000ff" x="26" y="13" height="1" width="1"/><rect fill="#a65238ff" x="27" y="13" height="1" width="1"/><rect fill="#f58f79ff" x="28" y="13" height="1" width="2"/><rect fill="#a65238ff" x="7" y="14" height="1" width="2"/><rect fill="#000000ff" x="9" y="14" height="1" width="1"/><rect fill="#a65238ff" x="10" y="14" height="1" width="4"/><rect fill="#000000ff" x="14" y="14" height="1" width="1"/><rect fill="#a65238ff" x="15" y="14" height="1" width="1"/><rect fill="#a6ebb5ff" x="16" y="14" height="1" width="1"/><rect fill="#000000ff" x="17" y="14" height="1" width="1"/><rect fill="#a65238ff" x="18" y="14" height="1" width="3"/><rect fill="#000000ff" x="21" y="14" height="1" width="1"/><rect fill="#a65238ff" x="22" y="14" height="1" width="4"/><rect fill="#000000ff" x="26" y="14" height="1" width="1"/><rect fill="#a65238ff" x="27" y="14" height="1" width="3"/><rect fill="#a65238ff" x="8" y="15" height="1" width="1"/><rect fill="#000000ff" x="9" y="15" height="1" width="1"/><rect fill="#a65238ff" x="10" y="15" height="1" width="4"/><rect fill="#000000ff" x="14" y="15" height="1" width="1"/><rect fill="#a65238ff" x="15" y="15" height="1" width="1"/><rect fill="#a6ebb5ff" x="16" y="15" height="1" width="1"/><rect fill="#000000ff" x="17" y="15" height="1" width="1"/><rect fill="#a65238ff" x="18" y="15" height="1" width="3"/><rect fill="#a6ebb5ff" x="21" y="15" height="1" width="1"/><rect fill="#a65238ff" x="22" y="15" height="1" width="2"/><rect fill="#a6ebb5ff" x="24" y="15" height="1" width="1"/><rect fill="#a65238ff" x="25" y="15" height="1" width="1"/><rect fill="#000000ff" x="26" y="15" height="1" width="1"/><rect fill="#a65238ff" x="27" y="15" height="1" width="3"/><rect fill="#52665cff" x="9" y="16" height="1" width="1"/><rect fill="#a6ebb5ff" x="10" y="16" height="1" width="15"/><rect fill="#52665cff" x="25" y="16" height="1" width="1"/><rect fill="#000000ff" x="26" y="16" height="1" width="1"/><rect fill="#a65238ff" x="27" y="16" height="1" width="2"/><rect fill="#52665cff" x="9" y="17" height="1" width="1"/><rect fill="#a6ebb5ff" x="10" y="17" height="1" width="1"/><rect fill="#008080ff" x="11" y="17" height="1" width="5"/><rect fill="#a6ebb5ff" x="16" y="17" height="1" width="1"/><rect fill="#008080ff" x="17" y="17" height="1" width="5"/><rect fill="#a6ebb5ff" x="22" y="17" height="1" width="3"/><rect fill="#52665cff" x="25" y="17" height="1" width="1"/><rect fill="#52665cff" x="9" y="18" height="1" width="1"/><rect fill="#a6ebb5ff" x="10" y="18" height="1" width="1"/><rect fill="#000000ff" x="11" y="18" height="1" width="3"/><rect fill="#ffe330ff" x="14" y="18" height="1" width="2"/><rect fill="#a6ebb5ff" x="16" y="18" height="1" width="1"/><rect fill="#000000ff" x="17" y="18" height="1" width="3"/><rect fill="#ffe330ff" x="20" y="18" height="1" width="2"/><rect fill="#a6ebb5ff" x="22" y="18" height="1" width="3"/><rect fill="#52665cff" x="25" y="18" height="1" width="1"/><rect fill="#52665cff" x="9" y="19" height="1" width="1"/><rect fill="#a6ebb5ff" x="10" y="19" height="1" width="15"/><rect fill="#52665cff" x="25" y="19" height="1" width="1"/><rect fill="#52665cff" x="10" y="20" height="1" width="1"/><rect fill="#a6ebb5ff" x="11" y="20" height="1" width="14"/><rect fill="#52665cff" x="25" y="20" height="1" width="1"/><rect fill="#52665cff" x="9" y="21" height="1" width="2"/><rect fill="#a6ebb5ff" x="11" y="21" height="1" width="3"/><rect fill="#52665cff" x="14" y="21" height="1" width="5"/><rect fill="#a6ebb5ff" x="19" y="21" height="1" width="6"/><rect fill="#52665cff" x="25" y="21" height="1" width="2"/><rect fill="#52665cff" x="8" y="22" height="1" width="1"/><rect fill="#a6ebb5ff" x="9" y="22" height="1" width="1"/><rect fill="#52665cff" x="10" y="22" height="1" width="1"/><rect fill="#a6ebb5ff" x="11" y="22" height="1" width="14"/><rect fill="#52665cff" x="25" y="22" height="1" width="1"/><rect fill="#a6ebb5ff" x="26" y="22" height="1" width="1"/><rect fill="#52665cff" x="27" y="22" height="1" width="1"/><rect fill="#52665cff" x="7" y="23" height="1" width="1"/><rect fill="#a6ebb5ff" x="8" y="23" height="1" width="3"/><rect fill="#52665cff" x="11" y="23" height="1" width="1"/><rect fill="#a6ebb5ff" x="12" y="23" height="1" width="12"/><rect fill="#52665cff" x="24" y="23" height="1" width="1"/><rect fill="#a6ebb5ff" x="25" y="23" height="1" width="3"/><rect fill="#52665cff" x="28" y="23" height="1" width="1"/><rect fill="#52665cff" x="7" y="24" height="1" width="1"/><rect fill="#a6ebb5ff" x="8" y="24" height="1" width="3"/><rect fill="#52665cff" x="11" y="24" height="1" width="1"/><rect fill="#a6ebb5ff" x="12" y="24" height="1" width="3"/><rect fill="#52665cff" x="15" y="24" height="1" width="1"/><rect fill="#a6ebb5ff" x="16" y="24" height="1" width="1"/><rect fill="#52665cff" x="17" y="24" height="1" width="1"/><rect fill="#a6ebb5ff" x="18" y="24" height="1" width="1"/><rect fill="#52665cff" x="19" y="24" height="1" width="1"/><rect fill="#a6ebb5ff" x="20" y="24" height="1" width="4"/><rect fill="#52665cff" x="24" y="24" height="1" width="1"/><rect fill="#a6ebb5ff" x="25" y="24" height="1" width="3"/><rect fill="#52665cff" x="28" y="24" height="1" width="1"/><rect fill="#52665cff" x="8" y="25" height="1" width="2"/><rect fill="#a6ebb5ff" x="10" y="25" height="1" width="2"/><rect fill="#52665cff" x="12" y="25" height="1" width="1"/><rect fill="#a6ebb5ff" x="13" y="25" height="1" width="2"/><rect fill="#52665cff" x="15" y="25" height="1" width="1"/><rect fill="#a6ebb5ff" x="16" y="25" height="1" width="1"/><rect fill="#52665cff" x="17" y="25" height="1" width="1"/><rect fill="#a6ebb5ff" x="18" y="25" height="1" width="1"/><rect fill="#52665cff" x="19" y="25" height="1" width="1"/><rect fill="#a6ebb5ff" x="20" y="25" height="1" width="2"/><rect fill="#52665cff" x="22" y="25" height="1" width="2"/><rect fill="#a6ebb5ff" x="24" y="25" height="1" width="2"/><rect fill="#52665cff" x="26" y="25" height="1" width="2"/><rect fill="#52665cff" x="10" y="26" height="1" width="2"/><rect fill="#a6ebb5ff" x="12" y="26" height="1" width="1"/><rect fill="#52665cff" x="13" y="26" height="1" width="3"/><rect fill="#a6ebb5ff" x="16" y="26" height="1" width="1"/><rect fill="#52665cff" x="17" y="26" height="1" width="1"/><rect fill="#a6ebb5ff" x="18" y="26" height="1" width="1"/><rect fill="#52665cff" x="19" y="26" height="1" width="4"/><rect fill="#a6ebb5ff" x="23" y="26" height="1" width="1"/><rect fill="#52665cff" x="24" y="26" height="1" width="2"/><rect fill="#52665cff" x="9" y="27" height="1" width="1"/><rect fill="#a6ebb5ff" x="10" y="27" height="1" width="5"/><rect fill="#52665cff" x="15" y="27" height="1" width="1"/><rect fill="#a6ebb5ff" x="16" y="27" height="1" width="1"/><rect fill="#52665cff" x="17" y="27" height="1" width="1"/><rect fill="#a6ebb5ff" x="18" y="27" height="1" width="1"/><rect fill="#52665cff" x="19" y="27" height="1" width="2"/><rect fill="#a6ebb5ff" x="21" y="27" height="1" width="5"/><rect fill="#52665cff" x="26" y="27" height="1" width="1"/><rect fill="#52665cff" x="10" y="28" height="1" width="16"/></svg>