<svg xmlns="http://www.w3.org/2000/svg" shape-rendering="crispEdges" version="1.1" viewBox="0 0 36 36" width="360" height="360"><rect fill="#000000ff" x="10" y="14" height="1" width="15"/><rect fill="#000000ff" x="9" y="15" height="1" width="1"/><rect fill="#c4da53ff" x="10" y="15" height="1" width="1"/><rect fill="#000000ff" x="11" y="15" height="1" width="4"/><rect fill="#fff0eeff" x="15" y="15" height="1" width="1"/><rect fill="#dddb3bff" x="16" y="15" height="1" width="1"/><rect fill="#000000ff" x="17" y="15" height="1" width="4"/><rect fill="#fff0eeff" x="21" y="15" height="1" width="1"/><rect fill="#c4da53ff" x="22" y="15" height="1" width="3"/><rect fill="#000000ff" x="25" y="15" height="1" width="1"/><rect fill="#000000ff" x="8" y="16" height="1" width="1"/><rect fill="#dddb3bff" x="9" y="16" height="1" width="1"/><rect fill="#f5f48bff" x="10" y="16" height="1" width="1"/><rect fill="#000000ff" x="11" y="16" height="1" width="1"/><rect fill="#fff0eeff" x="12" y="16" height="1" width="1"/><rect fill="#000000ff" x="13" y="16" height="1" width="2"/><rect fill="#fff0eeff" x="15" y="16" height="1" width="1"/><rect fill="#c4da53ff" x="16" y="16" height="1" width="1"/><rect fill="#000000ff" x="17" y="16" height="1" width="1"/><rect fill="#fff0eeff" x="18" y="16" height="1" width="1"/><rect fill="#000000ff" x="19" y="16" height="1" width="2"/><rect fill="#fff0eeff" x="21" y="16" height="1" width="1"/><rect fill="#c4da53ff" x="22" y="16" height="1" width="1"/><rect fill="#dddb3bff" x="23" y="16" height="1" width="1"/><rect fill="#c4da53ff" x="24" y="16" height="1" width="2"/><rect fill="#000000ff" x="26" y="16" height="1" width="1"/><rect fill="#000000ff" x="8" y="17" height="1" width="1"/><rect fill="#c4da53ff" x="9" y="17" height="1" width="2"/><rect fill="#000000ff" x="11" y="17" height="1" width="2"/><rect fill="#fff0eeff" x="13" y="17" height="1" width="1"/><rect fill="#000000ff" x="14" y="17" height="1" width="1"/><rect fill="#fff0eeff" x="15" y="17" height="1" width="1"/><rect fill="#c4da53ff" x="16" y="17" height="1" width="1"/><rect fill="#000000ff" x="17" y="17" height="1" width="2"/><rect fill="#fff0eeff" x="19" y="17" height="1" width="1"/><rect fill="#000000ff" x="20" y="17" height="1" width="1"/><rect fill="#fff0eeff" x="21" y="17" height="1" width="1"/><rect fill="#c4da53ff" x="22" y="17" height="1" width="2"/><rect fill="#909b0eff" x="24" y="17" height="1" width="1"/><rect fill="#c4da53ff" x="25" y="17" height="1" width="1"/><rect fill="#000000ff" x="26" y="17" height="1" width="1"/><rect fill="#000000ff" x="6" y="18" height="1" width="3"/><rect fill="#c4da53ff" x="9" y="18" height="1" width="2"/><rect fill="#000000ff" x="11" y="18" height="1" width="4"/><rect fill="#fff0eeff" x="15" y="18" height="1" width="1"/><rect fill="#c4da53ff" x="16" y="18" height="1" width="1"/><rect fill="#000000ff" x="17" y="18" height="1" width="4"/><rect fill="#fff0eeff" x="21" y="18" height="1" width="1"/><rect fill="#c4da53ff" x="22" y="18" height="1" width="2"/><rect fill="#dddb3bff" x="24" y="18" height="1" width="1"/><rect fill="#c4da53ff" x="25" y="18" height="1" width="1"/><rect fill="#000000ff" x="26" y="18" height="1" width="4"/><rect fill="#000000ff" x="5" y="19" height="1" width="1"/><rect fill="#c4da53ff" x="6" y="19" height="1" width="1"/><rect fill="#000000ff" x="7" y="19" height="1" width="1"/><rect fill="#c4da53ff" x="8" y="19" height="1" width="1"/><rect fill="#f5f48bff" x="9" y="19" height="1" width="3"/><rect fill="#c4da53ff" x="12" y="19" height="1" width="8"/><rect fill="#f5f48bff" x="20" y="19" height="1" width="2"/><rect fill="#d16821ff" x="22" y="19" height="1" width="3"/><rect fill="#c4da53ff" x="25" y="19" height="1" width="2"/><rect fill="#000000ff" x="27" y="19" height="1" width="1"/><rect fill="#c4da53ff" x="28" y="19" height="1" width="2"/><rect fill="#000000ff" x="30" y="19" height="1" width="1"/><rect fill="#000000ff" x="5" y="20" height="1" width="1"/><rect fill="#dddb3bff" x="6" y="20" height="1" width="1"/><rect fill="#000000ff" x="7" y="20" height="1" width="2"/><rect fill="#d16821ff" x="9" y="20" height="1" width="14"/><rect fill="#000000ff" x="23" y="20" height="1" width="1"/><rect fill="#d16821ff" x="24" y="20" height="1" width="1"/><rect fill="#dddb3bff" x="25" y="20" height="1" width="1"/><rect fill="#c4da53ff" x="26" y="20" height="1" width="1"/><rect fill="#000000ff" x="27" y="20" height="1" width="1"/><rect fill="#dddb3bff" x="28" y="20" height="1" width="1"/><rect fill="#c4da53ff" x="29" y="20" height="1" width="2"/><rect fill="#000000ff" x="31" y="20" height="1" width="1"/><rect fill="#000000ff" x="4" y="21" height="1" width="1"/><rect fill="#f5f48bff" x="5" y="21" height="1" width="1"/><rect fill="#c4da53ff" x="6" y="21" height="1" width="1"/><rect fill="#000000ff" x="7" y="21" height="1" width="2"/><rect fill="#d16821ff" x="9" y="21" height="1" width="1"/><rect fill="#000000ff" x="10" y="21" height="1" width="13"/><rect fill="#d16821ff" x="23" y="21" height="1" width="2"/><rect fill="#000000ff" x="25" y="21" height="1" width="1"/><rect fill="#c4da53ff" x="26" y="21" height="1" width="1"/><rect fill="#000000ff" x="27" y="21" height="1" width="1"/><rect fill="#c4da53ff" x="28" y="21" height="1" width="2"/><rect fill="#dddb3bff" x="30" y="21" height="1" width="1"/><rect fill="#000000ff" x="31" y="21" height="1" width="1"/><rect fill="#000000ff" x="4" y="22" height="1" width="1"/><rect fill="#f5f48bff" x="5" y="22" height="1" width="1"/><rect fill="#909b0eff" x="6" y="22" height="1" width="1"/><rect fill="#000000ff" x="7" y="22" height="1" width="3"/><rect fill="#d16821ff" x="10" y="22" height="1" width="13"/><rect fill="#000000ff" x="23" y="22" height="1" width="3"/><rect fill="#c4da53ff" x="26" y="22" height="1" width="1"/><rect fill="#000000ff" x="27" y="22" height="1" width="1"/><rect fill="#c4da53ff" x="28" y="22" height="1" width="1"/><rect fill="#909b0eff" x="29" y="22" height="1" width="1"/><rect fill="#c4da53ff" x="30" y="22" height="1" width="1"/><rect fill="#000000ff" x="31" y="22" height="1" width="1"/><rect fill="#000000ff" x="4" y="23" height="1" width="1"/><rect fill="#dddb3bff" x="5" y="23" height="1" width="1"/><rect fill="#c4da53ff" x="6" y="23" height="1" width="1"/><rect fill="#000000ff" x="7" y="23" height="1" width="18"/><rect fill="#c4da53ff" x="25" y="23" height="1" width="1"/><rect fill="#000000ff" x="26" y="23" height="1" width="1"/><rect fill="#c4da53ff" x="27" y="23" height="1" width="4"/><rect fill="#000000ff" x="31" y="23" height="1" width="1"/><rect fill="#000000ff" x="4" y="24" height="1" width="1"/><rect fill="#c4da53ff" x="5" y="24" height="1" width="2"/><rect fill="#000000ff" x="7" y="24" height="1" width="17"/><rect fill="#909b0eff" x="24" y="24" height="1" width="1"/><rect fill="#c4da53ff" x="25" y="24" height="1" width="1"/><rect fill="#000000ff" x="26" y="24" height="1" width="1"/><rect fill="#c4da53ff" x="27" y="24" height="1" width="1"/><rect fill="#dddb3bff" x="28" y="24" height="1" width="1"/><rect fill="#c4da53ff" x="29" y="24" height="1" width="2"/><rect fill="#000000ff" x="31" y="24" height="1" width="1"/><rect fill="#000000ff" x="5" y="25" height="1" width="1"/><rect fill="#909b0eff" x="6" y="25" height="1" width="1"/><rect fill="#c4da53ff" x="7" y="25" height="1" width="2"/><rect fill="#000000ff" x="9" y="25" height="1" width="1"/><rect fill="#c4da53ff" x="10" y="25" height="1" width="3"/><rect fill="#000000ff" x="13" y="25" height="1" width="1"/><rect fill="#f5f48bff" x="14" y="25" height="1" width="1"/><rect fill="#c4da53ff" x="15" y="25" height="1" width="2"/><rect fill="#000000ff" x="17" y="25" height="1" width="1"/><rect fill="#f5f48bff" x="18" y="25" height="1" width="1"/><rect fill="#c4da53ff" x="19" y="25" height="1" width="2"/><rect fill="#000000ff" x="21" y="25" height="1" width="1"/><rect fill="#c4da53ff" x="22" y="25" height="1" width="3"/><rect fill="#000000ff" x="25" y="25" height="1" width="1"/><rect fill="#c4da53ff" x="26" y="25" height="1" width="4"/><rect fill="#000000ff" x="30" y="25" height="1" width="1"/><rect fill="#000000ff" x="5" y="26" height="1" width="1"/><rect fill="#c4da53ff" x="6" y="26" height="1" width="2"/><rect fill="#000000ff" x="8" y="26" height="1" width="6"/><rect fill="#f5f48bff" x="14" y="26" height="1" width="1"/><rect fill="#c4da53ff" x="15" y="26" height="1" width="2"/><rect fill="#000000ff" x="17" y="26" height="1" width="1"/><rect fill="#f5f48bff" x="18" y="26" height="1" width="1"/><rect fill="#c4da53ff" x="19" y="26" height="1" width="2"/><rect fill="#000000ff" x="21" y="26" height="1" width="6"/><rect fill="#c4da53ff" x="27" y="26" height="1" width="1"/><rect fill="#909b0eff" x="28" y="26" height="1" width="1"/><rect fill="#c4da53ff" x="29" y="26" height="1" width="1"/><rect fill="#000000ff" x="30" y="26" height="1" width="1"/><rect fill="#000000ff" x="6" y="27" height="1" width="1"/><rect fill="#c4da53ff" x="7" y="27" height="1" width="1"/><rect fill="#000000ff" x="8" y="27" height="1" width="1"/><rect fill="#c4da53ff" x="9" y="27" height="1" width="4"/><rect fill="#000000ff" x="13" y="27" height="1" width="1"/><rect fill="#c4da53ff" x="14" y="27" height="1" width="3"/><rect fill="#000000ff" x="17" y="27" height="1" width="1"/><rect fill="#c4da53ff" x="18" y="27" height="1" width="3"/><rect fill="#000000ff" x="21" y="27" height="1" width="1"/><rect fill="#c4da53ff" x="22" y="27" height="1" width="4"/><rect fill="#000000ff" x="26" y="27" height="1" width="1"/><rect fill="#c4da53ff" x="27" y="27" height="1" width="2"/><rect fill="#000000ff" x="29" y="27" height="1" width="1"/><rect fill="#000000ff" x="7" y="28" height="1" width="22"/></svg>