<svg xmlns="http://www.w3.org/2000/svg" shape-rendering="crispEdges" version="1.1" viewBox="0 0 36 36" width="360" height="360"><rect fill="#000000ff" x="15" y="9" height="1" width="6"/><rect fill="#000000ff" x="12" y="10" height="1" width="6"/><rect fill="#8c242cff" x="18" y="10" height="1" width="1"/><rect fill="#ff0e0eff" x="19" y="10" height="1" width="1"/><rect fill="#8c242cff" x="20" y="10" height="1" width="1"/><rect fill="#000000ff" x="21" y="10" height="1" width="1"/><rect fill="#000000ff" x="11" y="11" height="1" width="1"/><rect fill="#b03937ff" x="12" y="11" height="1" width="6"/><rect fill="#000000ff" x="18" y="11" height="1" width="1"/><rect fill="#8c242cff" x="19" y="11" height="1" width="1"/><rect fill="#ff0e0eff" x="20" y="11" height="1" width="1"/><rect fill="#8c242cff" x="21" y="11" height="1" width="1"/><rect fill="#000000ff" x="22" y="11" height="1" width="1"/><rect fill="#000000ff" x="10" y="12" height="1" width="1"/><rect fill="#b03937ff" x="11" y="12" height="1" width="8"/><rect fill="#000000ff" x="19" y="12" height="1" width="1"/><rect fill="#8c242cff" x="20" y="12" height="1" width="1"/><rect fill="#ff0e0eff" x="21" y="12" height="1" width="1"/><rect fill="#8c242cff" x="22" y="12" height="1" width="1"/><rect fill="#000000ff" x="23" y="12" height="1" width="1"/><rect fill="#554947ff" x="6" y="13" height="1" width="3"/><rect fill="#000000ff" x="10" y="13" height="1" width="1"/><rect fill="#b03937ff" x="11" y="13" height="1" width="8"/><rect fill="#000000ff" x="19" y="13" height="1" width="1"/><rect fill="#ff0e0eff" x="20" y="13" height="1" width="1"/><rect fill="#8c242cff" x="21" y="13" height="1" width="1"/><rect fill="#ff0e0eff" x="22" y="13" height="1" width="1"/><rect fill="#000000ff" x="23" y="13" height="1" width="1"/><rect fill="#554947ff" x="5" y="14" height="1" width="1"/><rect fill="#000000ff" x="10" y="14" height="1" width="14"/><rect fill="#554947ff" x="5" y="15" height="1" width="1"/><rect fill="#000000ff" x="11" y="15" height="1" width="1"/><rect fill="#eebbaaff" x="12" y="15" height="1" width="11"/><rect fill="#ddaaaaff" x="23" y="15" height="1" width="1"/><rect fill="#000000ff" x="24" y="15" height="1" width="1"/><rect fill="#554947ff" x="4" y="16" height="1" width="1"/><rect fill="#000000ff" x="10" y="16" height="1" width="1"/><rect fill="#eebbaaff" x="11" y="16" height="1" width="10"/><rect fill="#ddaaaaff" x="21" y="16" height="1" width="1"/><rect fill="#eebbaaff" x="22" y="16" height="1" width="3"/><rect fill="#000000ff" x="25" y="16" height="1" width="1"/><rect fill="#554947ff" x="4" y="17" height="1" width="1"/><rect fill="#c09a43ff" x="10" y="17" height="1" width="16"/><rect fill="#554947ff" x="4" y="18" height="1" width="1"/><rect fill="#000000ff" x="9" y="18" height="1" width="1"/><rect fill="#eebbaaff" x="10" y="18" height="1" width="1"/><rect fill="#c09a43ff" x="11" y="18" height="1" width="1"/><rect fill="#857b6cff" x="12" y="18" height="1" width="1"/><rect fill="#e8e4baff" x="13" y="18" height="1" width="2"/><rect fill="#c09a43ff" x="15" y="18" height="1" width="1"/><rect fill="#eebbaaff" x="16" y="18" height="1" width="1"/><rect fill="#c09a43ff" x="17" y="18" height="1" width="1"/><rect fill="#857b6cff" x="18" y="18" height="1" width="1"/><rect fill="#e8e4baff" x="19" y="18" height="1" width="2"/><rect fill="#c09a43ff" x="21" y="18" height="1" width="1"/><rect fill="#eebbaaff" x="22" y="18" height="1" width="4"/><rect fill="#000000ff" x="26" y="18" height="1" width="1"/><rect fill="#34ac80ff" x="8" y="19" height="1" width="3"/><rect fill="#c09a43ff" x="11" y="19" height="1" width="5"/><rect fill="#eebbaaff" x="16" y="19" height="1" width="1"/><rect fill="#c09a43ff" x="17" y="19" height="1" width="5"/><rect fill="#34ac80ff" x="22" y="19" height="1" width="3"/><rect fill="#eebbaaff" x="25" y="19" height="1" width="1"/><rect fill="#000000ff" x="26" y="19" height="1" width="2"/><rect fill="#000000ff" x="6" y="20" height="1" width="5"/><rect fill="#34ac80ff" x="11" y="20" height="1" width="12"/><rect fill="#000000ff" x="23" y="20" height="1" width="1"/><rect fill="#34ac80ff" x="24" y="20" height="1" width="1"/><rect fill="#ddaaaaff" x="25" y="20" height="1" width="1"/><rect fill="#000000ff" x="26" y="20" height="1" width="1"/><rect fill="#ddaaaaff" x="27" y="20" height="1" width="1"/><rect fill="#000000ff" x="28" y="20" height="1" width="1"/><rect fill="#000000ff" x="5" y="21" height="1" width="1"/><rect fill="#e95f2aff" x="6" y="21" height="1" width="1"/><rect fill="#f9f4f2ff" x="7" y="21" height="1" width="4"/><rect fill="#000000ff" x="11" y="21" height="1" width="12"/><rect fill="#34ac80ff" x="23" y="21" height="1" width="2"/><rect fill="#eebbaaff" x="25" y="21" height="1" width="1"/><rect fill="#000000ff" x="26" y="21" height="1" width="1"/><rect fill="#eebbaaff" x="27" y="21" height="1" width="2"/><rect fill="#000000ff" x="29" y="21" height="1" width="1"/><rect fill="#000000ff" x="5" y="22" height="1" width="6"/><rect fill="#34ac80ff" x="11" y="22" height="1" width="13"/><rect fill="#eebbaaff" x="24" y="22" height="1" width="2"/><rect fill="#000000ff" x="26" y="22" height="1" width="1"/><rect fill="#ddaaaaff" x="27" y="22" height="1" width="1"/><rect fill="#eebbaaff" x="28" y="22" height="1" width="1"/><rect fill="#ddaaaaff" x="29" y="22" height="1" width="1"/><rect fill="#000000ff" x="30" y="22" height="1" width="1"/><rect fill="#000000ff" x="5" y="23" height="1" width="1"/><rect fill="#ddaaaaff" x="6" y="23" height="1" width="1"/><rect fill="#eebbaaff" x="7" y="23" height="1" width="1"/><rect fill="#ddaaaaff" x="8" y="23" height="1" width="1"/><rect fill="#000000ff" x="9" y="23" height="1" width="1"/><rect fill="#eebbaaff" x="10" y="23" height="1" width="16"/><rect fill="#000000ff" x="26" y="23" height="1" width="1"/><rect fill="#eebbaaff" x="27" y="23" height="1" width="3"/><rect fill="#000000ff" x="30" y="23" height="1" width="1"/><rect fill="#000000ff" x="5" y="24" height="1" width="1"/><rect fill="#eebbaaff" x="6" y="24" height="1" width="4"/><rect fill="#000000ff" x="10" y="24" height="1" width="1"/><rect fill="#eebbaaff" x="11" y="24" height="1" width="3"/><rect fill="#000000ff" x="14" y="24" height="1" width="1"/><rect fill="#eebbaaff" x="15" y="24" height="1" width="2"/><rect fill="#000000ff" x="17" y="24" height="1" width="1"/><rect fill="#eebbaaff" x="18" y="24" height="1" width="2"/><rect fill="#000000ff" x="20" y="24" height="1" width="1"/><rect fill="#eebbaaff" x="21" y="24" height="1" width="2"/><rect fill="#ddaaaaff" x="23" y="24" height="1" width="1"/><rect fill="#eebbaaff" x="24" y="24" height="1" width="1"/><rect fill="#000000ff" x="25" y="24" height="1" width="1"/><rect fill="#eebbaaff" x="26" y="24" height="1" width="2"/><rect fill="#ddaaaaff" x="28" y="24" height="1" width="1"/><rect fill="#eebbaaff" x="29" y="24" height="1" width="1"/><rect fill="#000000ff" x="30" y="24" height="1" width="1"/><rect fill="#000000ff" x="6" y="25" height="1" width="1"/><rect fill="#eebbaaff" x="7" y="25" height="1" width="1"/><rect fill="#ddaaaaff" x="8" y="25" height="1" width="1"/><rect fill="#eebbaaff" x="9" y="25" height="1" width="2"/><rect fill="#000000ff" x="11" y="25" height="1" width="1"/><rect fill="#eebbaaff" x="12" y="25" height="1" width="3"/><rect fill="#000000ff" x="15" y="25" height="1" width="1"/><rect fill="#ddaaaaff" x="16" y="25" height="1" width="1"/><rect fill="#000000ff" x="17" y="25" height="1" width="1"/><rect fill="#ddaaaaff" x="18" y="25" height="1" width="1"/><rect fill="#000000ff" x="19" y="25" height="1" width="1"/><rect fill="#eebbaaff" x="20" y="25" height="1" width="4"/><rect fill="#000000ff" x="24" y="25" height="1" width="1"/><rect fill="#eebbaaff" x="25" y="25" height="1" width="5"/><rect fill="#000000ff" x="30" y="25" height="1" width="1"/><rect fill="#000000ff" x="7" y="26" height="1" width="3"/><rect fill="#ddaaaaff" x="10" y="26" height="1" width="2"/><rect fill="#000000ff" x="12" y="26" height="1" width="4"/><rect fill="#fff0eeff" x="16" y="26" height="1" width="1"/><rect fill="#000000ff" x="17" y="26" height="1" width="1"/><rect fill="#fff0eeff" x="18" y="26" height="1" width="1"/><rect fill="#000000ff" x="19" y="26" height="1" width="5"/><rect fill="#ddaaaaff" x="24" y="26" height="1" width="1"/><rect fill="#000000ff" x="25" y="26" height="1" width="3"/><rect fill="#eebbaaff" x="28" y="26" height="1" width="1"/><rect fill="#000000ff" x="29" y="26" height="1" width="1"/><rect fill="#000000ff" x="6" y="27" height="1" width="1"/><rect fill="#fff0eeff" x="7" y="27" height="1" width="7"/><rect fill="#000000ff" x="14" y="27" height="1" width="1"/><rect fill="#fff0eeff" x="15" y="27" height="1" width="2"/><rect fill="#000000ff" x="17" y="27" height="1" width="1"/><rect fill="#fff0eeff" x="18" y="27" height="1" width="2"/><rect fill="#000000ff" x="20" y="27" height="1" width="1"/><rect fill="#fff0eeff" x="21" y="27" height="1" width="7"/><rect fill="#000000ff" x="28" y="27" height="1" width="1"/><rect fill="#000000ff" x="7" y="28" height="1" width="21"/></svg>