<svg xmlns="http://www.w3.org/2000/svg" shape-rendering="crispEdges" version="1.1" viewBox="0 0 36 36" width="360" height="360"><rect fill="#fbf0dfff" x="11" y="2" height="1" width="1"/><rect fill="#fbf0dfff" x="10" y="3" height="1" width="1"/><rect fill="#fbf0dfff" x="17" y="3" height="1" width="1"/><rect fill="#fbf0dfff" x="22" y="3" height="1" width="1"/><rect fill="#fbf0dfff" x="11" y="4" height="1" width="2"/><rect fill="#fbf0dfff" x="16" y="4" height="1" width="1"/><rect fill="#fbf0dfff" x="22" y="4" height="1" width="1"/><rect fill="#fbf0dfff" x="7" y="5" height="1" width="1"/><rect fill="#fbf0dfff" x="11" y="5" height="1" width="6"/><rect fill="#fbf0dfff" x="23" y="5" height="1" width="2"/><rect fill="#fbf0dfff" x="7" y="6" height="1" width="2"/><rect fill="#52665cff" x="10" y="6" height="1" width="1"/><rect fill="#fbf0dfff" x="13" y="6" height="1" width="5"/><rect fill="#fbf0dfff" x="19" y="6" height="1" width="1"/><rect fill="#fbf0dfff" x="21" y="6" height="1" width="4"/><rect fill="#52665cff" x="25" y="6" height="1" width="1"/><rect fill="#fbf0dfff" x="8" y="7" height="1" width="19"/><rect fill="#fbf0dfff" x="7" y="8" height="1" width="21"/><rect fill="#fbf0dfff" x="6" y="9" height="1" width="24"/><rect fill="#fbf0dfff" x="8" y="10" height="1" width="20"/><rect fill="#fbf0dfff" x="5" y="11" height="1" width="1"/><rect fill="#fbf0dfff" x="8" y="11" height="1" width="3"/><rect fill="#a6ebb5ff" x="11" y="11" height="1" width="5"/><rect fill="#fbf0dfff" x="16" y="11" height="1" width="1"/><rect fill="#a6ebb5ff" x="17" y="11" height="1" width="7"/><rect fill="#fbf0dfff" x="24" y="11" height="1" width="5"/><rect fill="#fbf0dfff" x="31" y="11" height="1" width="1"/><rect fill="#fbf0dfff" x="6" y="12" height="1" width="1"/><rect fill="#fbf0dfff" x="8" y="12" height="1" width="2"/><rect fill="#a6ebb5ff" x="10" y="12" height="1" width="1"/><rect fill="#52665cff" x="11" y="12" height="1" width="4"/><rect fill="#fbf0dfff" x="15" y="12" height="1" width="2"/><rect fill="#52665cff" x="17" y="12" height="1" width="5"/><rect fill="#a6ebb5ff" x="22" y="12" height="1" width="3"/><rect fill="#52665cff" x="25" y="12" height="1" width="1"/><rect fill="#fbf0dfff" x="26" y="12" height="1" width="5"/><rect fill="#fbf0dfff" x="7" y="13" height="1" width="2"/><rect fill="#52665cff" x="9" y="13" height="1" width="1"/><rect fill="#a6ebb5ff" x="10" y="13" height="1" width="1"/><rect fill="#52665cff" x="11" y="13" height="1" width="5"/><rect fill="#a6ebb5ff" x="16" y="13" height="1" width="1"/><rect fill="#52665cff" x="17" y="13" height="1" width="5"/><rect fill="#a6ebb5ff" x="22" y="13" height="1" width="3"/><rect fill="#52665cff" x="25" y="13" height="1" width="1"/><rect fill="#fbf0dfff" x="27" y="13" height="1" width="3"/><rect fill="#52665cff" x="9" y="14" height="1" width="1"/><rect fill="#a6ebb5ff" x="10" y="14" height="1" width="15"/><rect fill="#52665cff" x="25" y="14" height="1" width="1"/><rect fill="#fbf0dfff" x="28" y="14" height="1" width="1"/><rect fill="#52665cff" x="9" y="15" height="1" width="1"/><rect fill="#a6ebb5ff" x="10" y="15" height="1" width="15"/><rect fill="#52665cff" x="25" y="15" height="1" width="1"/><rect fill="#fbf0dfff" x="29" y="15" height="1" width="1"/><rect fill="#52665cff" x="9" y="16" height="1" width="1"/><rect fill="#a6ebb5ff" x="10" y="16" height="1" width="4"/><rect fill="#52665cff" x="14" y="16" height="1" width="5"/><rect fill="#a6ebb5ff" x="19" y="16" height="1" width="6"/><rect fill="#52665cff" x="25" y="16" height="1" width="1"/><rect fill="#52665cff" x="9" y="17" height="1" width="1"/><rect fill="#a6ebb5ff" x="10" y="17" height="1" width="15"/><rect fill="#52665cff" x="25" y="17" height="1" width="1"/><rect fill="#52665cff" x="9" y="18" height="1" width="1"/><rect fill="#a6ebb5ff" x="10" y="18" height="1" width="15"/><rect fill="#52665cff" x="25" y="18" height="1" width="1"/><rect fill="#52665cff" x="10" y="19" height="1" width="1"/><rect fill="#a6ebb5ff" x="11" y="19" height="1" width="4"/><rect fill="#52665cff" x="15" y="19" height="1" width="1"/><rect fill="#a6ebb5ff" x="16" y="19" height="1" width="1"/><rect fill="#52665cff" x="17" y="19" height="1" width="1"/><rect fill="#a6ebb5ff" x="18" y="19" height="1" width="1"/><rect fill="#52665cff" x="19" y="19" height="1" width="1"/><rect fill="#a6ebb5ff" x="20" y="19" height="1" width="5"/><rect fill="#52665cff" x="25" y="19" height="1" width="1"/><rect fill="#52665cff" x="10" y="20" height="1" width="1"/><rect fill="#a6ebb5ff" x="11" y="20" height="1" width="4"/><rect fill="#52665cff" x="15" y="20" height="1" width="1"/><rect fill="#a6ebb5ff" x="16" y="20" height="1" width="1"/><rect fill="#52665cff" x="17" y="20" height="1" width="1"/><rect fill="#a6ebb5ff" x="18" y="20" height="1" width="1"/><rect fill="#52665cff" x="19" y="20" height="1" width="1"/><rect fill="#a6ebb5ff" x="20" y="20" height="1" width="5"/><rect fill="#52665cff" x="25" y="20" height="1" width="1"/><rect fill="#52665cff" x="9" y="21" height="1" width="2"/><rect fill="#a6ebb5ff" x="11" y="21" height="1" width="4"/><rect fill="#52665cff" x="15" y="21" height="1" width="1"/><rect fill="#a6ebb5ff" x="16" y="21" height="1" width="1"/><rect fill="#52665cff" x="17" y="21" height="1" width="1"/><rect fill="#a6ebb5ff" x="18" y="21" height="1" width="1"/><rect fill="#52665cff" x="19" y="21" height="1" width="1"/><rect fill="#a6ebb5ff" x="20" y="21" height="1" width="5"/><rect fill="#52665cff" x="25" y="21" height="1" width="2"/><rect fill="#52665cff" x="8" y="22" height="1" width="1"/><rect fill="#a6ebb5ff" x="9" y="22" height="1" width="1"/><rect fill="#52665cff" x="10" y="22" height="1" width="1"/><rect fill="#a6ebb5ff" x="11" y="22" height="1" width="4"/><rect fill="#52665cff" x="15" y="22" height="1" width="1"/><rect fill="#a6ebb5ff" x="16" y="22" height="1" width="1"/><rect fill="#52665cff" x="17" y="22" height="1" width="1"/><rect fill="#a6ebb5ff" x="18" y="22" height="1" width="1"/><rect fill="#52665cff" x="19" y="22" height="1" width="1"/><rect fill="#a6ebb5ff" x="20" y="22" height="1" width="5"/><rect fill="#52665cff" x="25" y="22" height="1" width="1"/><rect fill="#a6ebb5ff" x="26" y="22" height="1" width="1"/><rect fill="#52665cff" x="27" y="22" height="1" width="1"/><rect fill="#52665cff" x="7" y="23" height="1" width="1"/><rect fill="#a6ebb5ff" x="8" y="23" height="1" width="3"/><rect fill="#52665cff" x="11" y="23" height="1" width="1"/><rect fill="#a6ebb5ff" x="12" y="23" height="1" width="3"/><rect fill="#52665cff" x="15" y="23" height="1" width="1"/><rect fill="#a6ebb5ff" x="16" y="23" height="1" width="1"/><rect fill="#52665cff" x="17" y="23" height="1" width="1"/><rect fill="#a6ebb5ff" x="18" y="23" height="1" width="1"/><rect fill="#52665cff" x="19" y="23" height="1" width="1"/><rect fill="#a6ebb5ff" x="20" y="23" height="1" width="4"/><rect fill="#52665cff" x="24" y="23" height="1" width="1"/><rect fill="#a6ebb5ff" x="25" y="23" height="1" width="3"/><rect fill="#52665cff" x="28" y="23" height="1" width="1"/><rect fill="#52665cff" x="7" y="24" height="1" width="1"/><rect fill="#a6ebb5ff" x="8" y="24" height="1" width="3"/><rect fill="#52665cff" x="11" y="24" height="1" width="1"/><rect fill="#a6ebb5ff" x="12" y="24" height="1" width="3"/><rect fill="#52665cff" x="15" y="24" height="1" width="1"/><rect fill="#a6ebb5ff" x="16" y="24" height="1" width="1"/><rect fill="#52665cff" x="17" y="24" height="1" width="1"/><rect fill="#a6ebb5ff" x="18" y="24" height="1" width="1"/><rect fill="#52665cff" x="19" y="24" height="1" width="1"/><rect fill="#a6ebb5ff" x="20" y="24" height="1" width="4"/><rect fill="#52665cff" x="24" y="24" height="1" width="1"/><rect fill="#a6ebb5ff" x="25" y="24" height="1" width="3"/><rect fill="#52665cff" x="28" y="24" height="1" width="1"/><rect fill="#52665cff" x="8" y="25" height="1" width="2"/><rect fill="#a6ebb5ff" x="10" y="25" height="1" width="2"/><rect fill="#52665cff" x="12" y="25" height="1" width="1"/><rect fill="#a6ebb5ff" x="13" y="25" height="1" width="2"/><rect fill="#52665cff" x="15" y="25" height="1" width="1"/><rect fill="#a6ebb5ff" x="16" y="25" height="1" width="1"/><rect fill="#52665cff" x="17" y="25" height="1" width="1"/><rect fill="#a6ebb5ff" x="18" y="25" height="1" width="1"/><rect fill="#52665cff" x="19" y="25" height="1" width="1"/><rect fill="#a6ebb5ff" x="20" y="25" height="1" width="2"/><rect fill="#52665cff" x="22" y="25" height="1" width="2"/><rect fill="#a6ebb5ff" x="24" y="25" height="1" width="2"/><rect fill="#52665cff" x="26" y="25" height="1" width="2"/><rect fill="#52665cff" x="10" y="26" height="1" width="2"/><rect fill="#a6ebb5ff" x="12" y="26" height="1" width="1"/><rect fill="#52665cff" x="13" y="26" height="1" width="3"/><rect fill="#a6ebb5ff" x="16" y="26" height="1" width="1"/><rect fill="#52665cff" x="17" y="26" height="1" width="1"/><rect fill="#a6ebb5ff" x="18" y="26" height="1" width="1"/><rect fill="#52665cff" x="19" y="26" height="1" width="4"/><rect fill="#a6ebb5ff" x="23" y="26" height="1" width="1"/><rect fill="#52665cff" x="24" y="26" height="1" width="2"/><rect fill="#52665cff" x="9" y="27" height="1" width="1"/><rect fill="#a6ebb5ff" x="10" y="27" height="1" width="5"/><rect fill="#52665cff" x="15" y="27" height="1" width="1"/><rect fill="#a6ebb5ff" x="16" y="27" height="1" width="1"/><rect fill="#52665cff" x="17" y="27" height="1" width="1"/><rect fill="#a6ebb5ff" x="18" y="27" height="1" width="1"/><rect fill="#52665cff" x="19" y="27" height="1" width="2"/><rect fill="#a6ebb5ff" x="21" y="27" height="1" width="5"/><rect fill="#52665cff" x="26" y="27" height="1" width="1"/><rect fill="#52665cff" x="10" y="28" height="1" width="16"/></svg>