<svg xmlns="http://www.w3.org/2000/svg" shape-rendering="crispEdges" version="1.1" viewBox="0 0 36 36" width="360" height="360"><rect fill="#000000ff" x="22" y="9" height="1" width="3"/><rect fill="#000000ff" x="17" y="10" height="1" width="5"/><rect fill="#555555ff" x="22" y="10" height="1" width="3"/><rect fill="#000000ff" x="25" y="10" height="1" width="1"/><rect fill="#000000ff" x="11" y="11" height="1" width="6"/><rect fill="#555555ff" x="17" y="11" height="1" width="8"/><rect fill="#000000ff" x="25" y="11" height="1" width="1"/><rect fill="#000000ff" x="9" y="12" height="1" width="2"/><rect fill="#555555ff" x="11" y="12" height="1" width="5"/><rect fill="#8ac163ff" x="16" y="12" height="1" width="1"/><rect fill="#555555ff" x="17" y="12" height="1" width="9"/><rect fill="#000000ff" x="26" y="12" height="1" width="1"/><rect fill="#000000ff" x="7" y="13" height="1" width="2"/><rect fill="#555555ff" x="9" y="13" height="1" width="6"/><rect fill="#61a84bff" x="15" y="13" height="1" width="3"/><rect fill="#555555ff" x="18" y="13" height="1" width="2"/><rect fill="#8ac163ff" x="20" y="13" height="1" width="1"/><rect fill="#555555ff" x="21" y="13" height="1" width="6"/><rect fill="#000000ff" x="27" y="13" height="1" width="1"/><rect fill="#000000ff" x="6" y="14" height="1" width="1"/><rect fill="#555555ff" x="7" y="14" height="1" width="3"/><rect fill="#000000ff" x="10" y="14" height="1" width="9"/><rect fill="#61a84bff" x="19" y="14" height="1" width="3"/><rect fill="#000000ff" x="22" y="14" height="1" width="2"/><rect fill="#555555ff" x="24" y="14" height="1" width="4"/><rect fill="#000000ff" x="28" y="14" height="1" width="1"/><rect fill="#000000ff" x="5" y="15" height="1" width="1"/><rect fill="#555555ff" x="6" y="15" height="1" width="1"/><rect fill="#000000ff" x="7" y="15" height="1" width="3"/><rect fill="#61a84bff" x="10" y="15" height="1" width="1"/><rect fill="#000000ff" x="11" y="15" height="1" width="1"/><rect fill="#8ac163ff" x="12" y="15" height="1" width="1"/><rect fill="#61a84bff" x="13" y="15" height="1" width="1"/><rect fill="#c4da53ff" x="14" y="15" height="1" width="2"/><rect fill="#dddb3bff" x="16" y="15" height="1" width="1"/><rect fill="#c4da53ff" x="17" y="15" height="1" width="2"/><rect fill="#dddb3bff" x="19" y="15" height="1" width="1"/><rect fill="#c4da53ff" x="20" y="15" height="1" width="4"/><rect fill="#000000ff" x="24" y="15" height="1" width="2"/><rect fill="#555555ff" x="26" y="15" height="1" width="3"/><rect fill="#000000ff" x="29" y="15" height="1" width="1"/><rect fill="#000000ff" x="4" y="16" height="1" width="1"/><rect fill="#555555ff" x="5" y="16" height="1" width="1"/><rect fill="#000000ff" x="6" y="16" height="1" width="1"/><rect fill="#555555ff" x="7" y="16" height="1" width="1"/><rect fill="#000000ff" x="8" y="16" height="1" width="3"/><rect fill="#dcb367ff" x="11" y="16" height="1" width="1"/><rect fill="#61a84bff" x="12" y="16" height="1" width="2"/><rect fill="#dcb367ff" x="14" y="16" height="1" width="2"/><rect fill="#c4da53ff" x="16" y="16" height="1" width="1"/><rect fill="#61a84bff" x="17" y="16" height="1" width="1"/><rect fill="#dcb367ff" x="18" y="16" height="1" width="4"/><rect fill="#c4da53ff" x="22" y="16" height="1" width="1"/><rect fill="#dddb3bff" x="23" y="16" height="1" width="1"/><rect fill="#c4da53ff" x="24" y="16" height="1" width="1"/><rect fill="#000000ff" x="25" y="16" height="1" width="1"/><rect fill="#555555ff" x="26" y="16" height="1" width="4"/><rect fill="#000000ff" x="30" y="16" height="1" width="1"/><rect fill="#000000ff" x="4" y="17" height="1" width="1"/><rect fill="#555555ff" x="5" y="17" height="1" width="3"/><rect fill="#000000ff" x="8" y="17" height="1" width="2"/><rect fill="#dcb367ff" x="10" y="17" height="1" width="1"/><rect fill="#ff0e0eff" x="11" y="17" height="1" width="3"/><rect fill="#ffffffff" x="14" y="17" height="1" width="2"/><rect fill="#dcb367ff" x="16" y="17" height="1" width="1"/><rect fill="#ff0e0eff" x="17" y="17" height="1" width="3"/><rect fill="#ffffffff" x="20" y="17" height="1" width="2"/><rect fill="#dcb367ff" x="22" y="17" height="1" width="1"/><rect fill="#8ac163ff" x="23" y="17" height="1" width="1"/><rect fill="#909b0eff" x="24" y="17" height="1" width="1"/><rect fill="#000000ff" x="25" y="17" height="1" width="2"/><rect fill="#555555ff" x="27" y="17" height="1" width="3"/><rect fill="#000000ff" x="30" y="17" height="1" width="1"/><rect fill="#000000ff" x="4" y="18" height="1" width="1"/><rect fill="#555555ff" x="5" y="18" height="1" width="2"/><rect fill="#000000ff" x="7" y="18" height="1" width="3"/><rect fill="#dcb367ff" x="10" y="18" height="1" width="1"/><rect fill="#ff0e0eff" x="11" y="18" height="1" width="3"/><rect fill="#ffffffff" x="14" y="18" height="1" width="2"/><rect fill="#dcb367ff" x="16" y="18" height="1" width="1"/><rect fill="#ff0e0eff" x="17" y="18" height="1" width="3"/><rect fill="#ffffffff" x="20" y="18" height="1" width="2"/><rect fill="#dcb367ff" x="22" y="18" height="1" width="1"/><rect fill="#c4da53ff" x="23" y="18" height="1" width="1"/><rect fill="#dddb3bff" x="24" y="18" height="1" width="1"/><rect fill="#c4da53ff" x="25" y="18" height="1" width="1"/><rect fill="#000000ff" x="26" y="18" height="1" width="2"/><rect fill="#555555ff" x="28" y="18" height="1" width="3"/><rect fill="#000000ff" x="31" y="18" height="1" width="1"/><rect fill="#000000ff" x="4" y="19" height="1" width="1"/><rect fill="#555555ff" x="5" y="19" height="1" width="2"/><rect fill="#000000ff" x="7" y="19" height="1" width="2"/><rect fill="#f5f48bff" x="9" y="19" height="1" width="2"/><rect fill="#f4c083ff" x="11" y="19" height="1" width="1"/><rect fill="#8ac163ff" x="12" y="19" height="1" width="1"/><rect fill="#dcb367ff" x="13" y="19" height="1" width="1"/><rect fill="#8ac163ff" x="14" y="19" height="1" width="1"/><rect fill="#dcb367ff" x="15" y="19" height="1" width="1"/><rect fill="#c4da53ff" x="16" y="19" height="1" width="1"/><rect fill="#dcb367ff" x="17" y="19" height="1" width="3"/><rect fill="#f4c083ff" x="20" y="19" height="1" width="1"/><rect fill="#61a84bff" x="21" y="19" height="1" width="1"/><rect fill="#f5f48bff" x="22" y="19" height="1" width="1"/><rect fill="#c4da53ff" x="23" y="19" height="1" width="1"/><rect fill="#8ac163ff" x="24" y="19" height="1" width="1"/><rect fill="#c4da53ff" x="25" y="19" height="1" width="1"/><rect fill="#000000ff" x="26" y="19" height="1" width="3"/><rect fill="#555555ff" x="29" y="19" height="1" width="2"/><rect fill="#000000ff" x="31" y="19" height="1" width="1"/><rect fill="#000000ff" x="4" y="20" height="1" width="1"/><rect fill="#555555ff" x="5" y="20" height="1" width="2"/><rect fill="#000000ff" x="7" y="20" height="1" width="2"/><rect fill="#8f7fa0ff" x="9" y="20" height="1" width="1"/><rect fill="#9d4911ff" x="10" y="20" height="1" width="2"/><rect fill="#8f7fa0ff" x="12" y="20" height="1" width="1"/><rect fill="#9d4911ff" x="13" y="20" height="1" width="1"/><rect fill="#8f7fa0ff" x="14" y="20" height="1" width="1"/><rect fill="#9d4911ff" x="15" y="20" height="1" width="3"/><rect fill="#8f7fa0ff" x="18" y="20" height="1" width="2"/><rect fill="#9d4911ff" x="20" y="20" height="1" width="3"/><rect fill="#8f7fa0ff" x="23" y="20" height="1" width="1"/><rect fill="#c4da53ff" x="24" y="20" height="1" width="1"/><rect fill="#dddb3bff" x="25" y="20" height="1" width="1"/><rect fill="#000000ff" x="26" y="20" height="1" width="3"/><rect fill="#555555ff" x="29" y="20" height="1" width="2"/><rect fill="#000000ff" x="31" y="20" height="1" width="1"/><rect fill="#000000ff" x="4" y="21" height="1" width="1"/><rect fill="#555555ff" x="5" y="21" height="1" width="2"/><rect fill="#000000ff" x="7" y="21" height="1" width="2"/><rect fill="#8f7fa0ff" x="9" y="21" height="1" width="1"/><rect fill="#000000ff" x="10" y="21" height="1" width="13"/><rect fill="#8f7fa0ff" x="23" y="21" height="1" width="2"/><rect fill="#000000ff" x="25" y="21" height="1" width="4"/><rect fill="#555555ff" x="29" y="21" height="1" width="1"/><rect fill="#000000ff" x="30" y="21" height="1" width="2"/><rect fill="#000000ff" x="4" y="22" height="1" width="1"/><rect fill="#555555ff" x="5" y="22" height="1" width="2"/><rect fill="#000000ff" x="7" y="22" height="1" width="2"/><rect fill="#8f7fa0ff" x="9" y="22" height="1" width="2"/><rect fill="#9d4911ff" x="11" y="22" height="1" width="12"/><rect fill="#000000ff" x="23" y="22" height="1" width="1"/><rect fill="#8ac163ff" x="24" y="22" height="1" width="1"/><rect fill="#555555ff" x="25" y="22" height="1" width="1"/><rect fill="#000000ff" x="26" y="22" height="1" width="2"/><rect fill="#555555ff" x="28" y="22" height="1" width="1"/><rect fill="#000000ff" x="29" y="22" height="1" width="1"/><rect fill="#555555ff" x="30" y="22" height="1" width="1"/><rect fill="#000000ff" x="31" y="22" height="1" width="1"/><rect fill="#000000ff" x="4" y="23" height="1" width="1"/><rect fill="#555555ff" x="5" y="23" height="1" width="3"/><rect fill="#000000ff" x="8" y="23" height="1" width="4"/><rect fill="#61a84bff" x="12" y="23" height="1" width="1"/><rect fill="#9d4911ff" x="13" y="23" height="1" width="6"/><rect fill="#000000ff" x="19" y="23" height="1" width="2"/><rect fill="#8ac163ff" x="21" y="23" height="1" width="1"/><rect fill="#000000ff" x="22" y="23" height="1" width="1"/><rect fill="#555555ff" x="23" y="23" height="1" width="3"/><rect fill="#000000ff" x="26" y="23" height="1" width="1"/><rect fill="#555555ff" x="27" y="23" height="1" width="1"/><rect fill="#000000ff" x="28" y="23" height="1" width="1"/><rect fill="#555555ff" x="29" y="23" height="1" width="2"/><rect fill="#000000ff" x="31" y="23" height="1" width="1"/><rect fill="#000000ff" x="4" y="24" height="1" width="1"/><rect fill="#555555ff" x="5" y="24" height="1" width="5"/><rect fill="#000000ff" x="10" y="24" height="1" width="1"/><rect fill="#555555ff" x="11" y="24" height="1" width="2"/><rect fill="#9d4911ff" x="13" y="24" height="1" width="1"/><rect fill="#000000ff" x="14" y="24" height="1" width="1"/><rect fill="#555555ff" x="15" y="24" height="1" width="1"/><rect fill="#8ac163ff" x="16" y="24" height="1" width="1"/><rect fill="#000000ff" x="17" y="24" height="1" width="1"/><rect fill="#555555ff" x="18" y="24" height="1" width="2"/><rect fill="#000000ff" x="20" y="24" height="1" width="1"/><rect fill="#555555ff" x="21" y="24" height="1" width="4"/><rect fill="#000000ff" x="25" y="24" height="1" width="1"/><rect fill="#555555ff" x="26" y="24" height="1" width="1"/><rect fill="#000000ff" x="27" y="24" height="1" width="1"/><rect fill="#555555ff" x="28" y="24" height="1" width="3"/><rect fill="#000000ff" x="31" y="24" height="1" width="1"/><rect fill="#000000ff" x="5" y="25" height="1" width="1"/><rect fill="#555555ff" x="6" y="25" height="1" width="2"/><rect fill="#8ac163ff" x="8" y="25" height="1" width="1"/><rect fill="#555555ff" x="9" y="25" height="1" width="2"/><rect fill="#000000ff" x="11" y="25" height="1" width="1"/><rect fill="#555555ff" x="12" y="25" height="1" width="1"/><rect fill="#9d4911ff" x="13" y="25" height="1" width="1"/><rect fill="#555555ff" x="14" y="25" height="1" width="1"/><rect fill="#000000ff" x="15" y="25" height="1" width="1"/><rect fill="#555555ff" x="16" y="25" height="1" width="1"/><rect fill="#000000ff" x="17" y="25" height="1" width="1"/><rect fill="#555555ff" x="18" y="25" height="1" width="1"/><rect fill="#000000ff" x="19" y="25" height="1" width="1"/><rect fill="#555555ff" x="20" y="25" height="1" width="4"/><rect fill="#000000ff" x="24" y="25" height="1" width="1"/><rect fill="#555555ff" x="25" y="25" height="1" width="5"/><rect fill="#000000ff" x="30" y="25" height="1" width="1"/><rect fill="#000000ff" x="5" y="26" height="1" width="1"/><rect fill="#555555ff" x="6" y="26" height="1" width="1"/><rect fill="#61a84bff" x="7" y="26" height="1" width="3"/><rect fill="#000000ff" x="10" y="26" height="1" width="3"/><rect fill="#9d4911ff" x="13" y="26" height="1" width="1"/><rect fill="#000000ff" x="14" y="26" height="1" width="15"/><rect fill="#555555ff" x="29" y="26" height="1" width="1"/><rect fill="#000000ff" x="30" y="26" height="1" width="1"/><rect fill="#000000ff" x="6" y="27" height="1" width="1"/><rect fill="#c4da53ff" x="7" y="27" height="1" width="1"/><rect fill="#000000ff" x="8" y="27" height="1" width="1"/><rect fill="#c4da53ff" x="9" y="27" height="1" width="4"/><rect fill="#9d4911ff" x="13" y="27" height="1" width="1"/><rect fill="#c4da53ff" x="14" y="27" height="1" width="3"/><rect fill="#000000ff" x="17" y="27" height="1" width="1"/><rect fill="#c4da53ff" x="18" y="27" height="1" width="2"/><rect fill="#8ac163ff" x="20" y="27" height="1" width="1"/><rect fill="#000000ff" x="21" y="27" height="1" width="1"/><rect fill="#c4da53ff" x="22" y="27" height="1" width="4"/><rect fill="#000000ff" x="26" y="27" height="1" width="1"/><rect fill="#c4da53ff" x="27" y="27" height="1" width="2"/><rect fill="#000000ff" x="29" y="27" height="1" width="1"/><rect fill="#000000ff" x="7" y="28" height="1" width="6"/><rect fill="#9d4911ff" x="13" y="28" height="1" width="1"/><rect fill="#000000ff" x="14" y="28" height="1" width="5"/><rect fill="#61a84bff" x="19" y="28" height="1" width="3"/><rect fill="#000000ff" x="22" y="28" height="1" width="7"/><rect fill="#9d4911ff" x="12" y="29" height="1" width="3"/><rect fill="#9d4911ff" x="17" y="30" height="1" width="1"/><rect fill="#e5e5deff" x="18" y="30" height="1" width="1"/><rect fill="#ff0e0eff" x="19" y="30" height="1" width="4"/><rect fill="#9d4911ff" x="16" y="31" height="1" width="2"/><rect fill="#e5e5deff" x="18" y="31" height="1" width="1"/><rect fill="#ff0e0eff" x="19" y="31" height="1" width="4"/></svg>