<svg xmlns="http://www.w3.org/2000/svg" shape-rendering="crispEdges" version="1.1" viewBox="0 0 36 36" width="360" height="360"><rect fill="#000000ff" x="7" y="7" height="1" width="2"/><rect fill="#43c58cff" x="7" y="8" height="1" width="2"/><rect fill="#000000ff" x="9" y="8" height="1" width="3"/><rect fill="#000000ff" x="6" y="9" height="1" width="2"/><rect fill="#43c58cff" x="8" y="9" height="1" width="4"/><rect fill="#000000ff" x="12" y="9" height="1" width="2"/><rect fill="#43c58cff" x="7" y="10" height="1" width="1"/><rect fill="#000000ff" x="8" y="10" height="1" width="2"/><rect fill="#43c58cff" x="10" y="10" height="1" width="4"/><rect fill="#000000ff" x="14" y="10" height="1" width="2"/><rect fill="#43c58cff" x="7" y="11" height="1" width="3"/><rect fill="#000000ff" x="10" y="11" height="1" width="2"/><rect fill="#43c58cff" x="12" y="11" height="1" width="4"/><rect fill="#000000ff" x="16" y="11" height="1" width="1"/><rect fill="#000000ff" x="6" y="12" height="1" width="2"/><rect fill="#43c58cff" x="8" y="12" height="1" width="4"/><rect fill="#000000ff" x="12" y="12" height="1" width="3"/><rect fill="#43c58cff" x="15" y="12" height="1" width="2"/><rect fill="#000000ff" x="17" y="12" height="1" width="1"/><rect fill="#000000ff" x="19" y="12" height="1" width="1"/><rect fill="#000000ff" x="21" y="12" height="1" width="1"/><rect fill="#000000ff" x="23" y="12" height="1" width="1"/><rect fill="#43c58cff" x="6" y="13" height="1" width="2"/><rect fill="#000000ff" x="8" y="13" height="1" width="2"/><rect fill="#43c58cff" x="10" y="13" height="1" width="5"/><rect fill="#000000ff" x="15" y="13" height="1" width="1"/><rect fill="#43c58cff" x="16" y="13" height="1" width="1"/><rect fill="#000000ff" x="17" y="13" height="1" width="7"/><rect fill="#43c58cff" x="6" y="14" height="1" width="4"/><rect fill="#000000ff" x="10" y="14" height="1" width="8"/><rect fill="#58554eff" x="18" y="14" height="1" width="1"/><rect fill="#000000ff" x="19" y="14" height="1" width="1"/><rect fill="#58554eff" x="20" y="14" height="1" width="1"/><rect fill="#000000ff" x="21" y="14" height="1" width="1"/><rect fill="#58554eff" x="22" y="14" height="1" width="1"/><rect fill="#000000ff" x="23" y="14" height="1" width="2"/><rect fill="#000000ff" x="26" y="14" height="1" width="1"/><rect fill="#43c58cff" x="5" y="15" height="1" width="6"/><rect fill="#000000ff" x="11" y="15" height="1" width="1"/><rect fill="#e8caa8ff" x="12" y="15" height="1" width="4"/><rect fill="#58554eff" x="16" y="15" height="1" width="1"/><rect fill="#e8caa8ff" x="17" y="15" height="1" width="4"/><rect fill="#58554eff" x="21" y="15" height="1" width="3"/><rect fill="#000000ff" x="24" y="15" height="1" width="2"/><rect fill="#000000ff" x="10" y="16" height="1" width="1"/><rect fill="#e8caa8ff" x="11" y="16" height="1" width="5"/><rect fill="#58554eff" x="16" y="16" height="1" width="1"/><rect fill="#e8caa8ff" x="17" y="16" height="1" width="3"/><rect fill="#000000ff" x="20" y="16" height="1" width="1"/><rect fill="#e8caa8ff" x="21" y="16" height="1" width="1"/><rect fill="#000000ff" x="22" y="16" height="1" width="1"/><rect fill="#58554eff" x="23" y="16" height="1" width="2"/><rect fill="#000000ff" x="25" y="16" height="1" width="1"/><rect fill="#000000ff" x="27" y="16" height="1" width="1"/><rect fill="#000000ff" x="10" y="17" height="1" width="1"/><rect fill="#ccb08bff" x="11" y="17" height="1" width="5"/><rect fill="#e8caa8ff" x="16" y="17" height="1" width="1"/><rect fill="#ccb08bff" x="17" y="17" height="1" width="5"/><rect fill="#58554eff" x="22" y="17" height="1" width="2"/><rect fill="#000000ff" x="24" y="17" height="1" width="3"/><rect fill="#000000ff" x="9" y="18" height="1" width="1"/><rect fill="#ccb08bff" x="10" y="18" height="1" width="1"/><rect fill="#000000ff" x="11" y="18" height="1" width="3"/><rect fill="#fff0eeff" x="14" y="18" height="1" width="2"/><rect fill="#e8caa8ff" x="16" y="18" height="1" width="1"/><rect fill="#000000ff" x="17" y="18" height="1" width="3"/><rect fill="#fff0eeff" x="20" y="18" height="1" width="2"/><rect fill="#ccb08bff" x="22" y="18" height="1" width="1"/><rect fill="#58554eff" x="23" y="18" height="1" width="3"/><rect fill="#000000ff" x="26" y="18" height="1" width="1"/><rect fill="#0c9cf3ff" x="8" y="19" height="1" width="3"/><rect fill="#ccb08bff" x="11" y="19" height="1" width="11"/><rect fill="#0c9cf3ff" x="22" y="19" height="1" width="3"/><rect fill="#58554eff" x="25" y="19" height="1" width="1"/><rect fill="#000000ff" x="26" y="19" height="1" width="2"/><rect fill="#000000ff" x="7" y="20" height="1" width="1"/><rect fill="#0c9cf3ff" x="8" y="20" height="1" width="1"/><rect fill="#000000ff" x="9" y="20" height="1" width="1"/><rect fill="#0c9cf3ff" x="10" y="20" height="1" width="13"/><rect fill="#000000ff" x="23" y="20" height="1" width="1"/><rect fill="#0c9cf3ff" x="24" y="20" height="1" width="1"/><rect fill="#58554eff" x="25" y="20" height="1" width="1"/><rect fill="#000000ff" x="26" y="20" height="1" width="1"/><rect fill="#58554eff" x="27" y="20" height="1" width="1"/><rect fill="#000000ff" x="28" y="20" height="1" width="1"/><rect fill="#000000ff" x="6" y="21" height="1" width="1"/><rect fill="#58554eff" x="7" y="21" height="1" width="1"/><rect fill="#0c9cf3ff" x="8" y="21" height="1" width="2"/><rect fill="#000000ff" x="10" y="21" height="1" width="13"/><rect fill="#0c9cf3ff" x="23" y="21" height="1" width="2"/><rect fill="#58554eff" x="25" y="21" height="1" width="1"/><rect fill="#000000ff" x="26" y="21" height="1" width="1"/><rect fill="#58554eff" x="27" y="21" height="1" width="2"/><rect fill="#000000ff" x="29" y="21" height="1" width="1"/><rect fill="#000000ff" x="5" y="22" height="1" width="1"/><rect fill="#58554eff" x="6" y="22" height="1" width="2"/><rect fill="#000000ff" x="8" y="22" height="1" width="1"/><rect fill="#0c9cf3ff" x="9" y="22" height="1" width="15"/><rect fill="#ccb08bff" x="24" y="22" height="1" width="1"/><rect fill="#58554eff" x="25" y="22" height="1" width="1"/><rect fill="#000000ff" x="26" y="22" height="1" width="1"/><rect fill="#58554eff" x="27" y="22" height="1" width="3"/><rect fill="#000000ff" x="30" y="22" height="1" width="1"/><rect fill="#000000ff" x="5" y="23" height="1" width="1"/><rect fill="#58554eff" x="6" y="23" height="1" width="3"/><rect fill="#000000ff" x="9" y="23" height="1" width="1"/><rect fill="#ccb08bff" x="10" y="23" height="1" width="15"/><rect fill="#58554eff" x="25" y="23" height="1" width="1"/><rect fill="#000000ff" x="26" y="23" height="1" width="1"/><rect fill="#58554eff" x="27" y="23" height="1" width="3"/><rect fill="#000000ff" x="30" y="23" height="1" width="1"/><rect fill="#000000ff" x="5" y="24" height="1" width="1"/><rect fill="#58554eff" x="6" y="24" height="1" width="4"/><rect fill="#000000ff" x="10" y="24" height="1" width="1"/><rect fill="#58554eff" x="11" y="24" height="1" width="3"/><rect fill="#000000ff" x="14" y="24" height="1" width="1"/><rect fill="#58554eff" x="15" y="24" height="1" width="2"/><rect fill="#000000ff" x="17" y="24" height="1" width="1"/><rect fill="#58554eff" x="18" y="24" height="1" width="2"/><rect fill="#000000ff" x="20" y="24" height="1" width="1"/><rect fill="#58554eff" x="21" y="24" height="1" width="4"/><rect fill="#000000ff" x="25" y="24" height="1" width="1"/><rect fill="#58554eff" x="26" y="24" height="1" width="4"/><rect fill="#000000ff" x="30" y="24" height="1" width="1"/><rect fill="#000000ff" x="6" y="25" height="1" width="1"/><rect fill="#58554eff" x="7" y="25" height="1" width="4"/><rect fill="#000000ff" x="11" y="25" height="1" width="1"/><rect fill="#58554eff" x="12" y="25" height="1" width="3"/><rect fill="#000000ff" x="15" y="25" height="1" width="1"/><rect fill="#58554eff" x="16" y="25" height="1" width="1"/><rect fill="#000000ff" x="17" y="25" height="1" width="1"/><rect fill="#58554eff" x="18" y="25" height="1" width="1"/><rect fill="#000000ff" x="19" y="25" height="1" width="1"/><rect fill="#58554eff" x="20" y="25" height="1" width="4"/><rect fill="#000000ff" x="24" y="25" height="1" width="1"/><rect fill="#58554eff" x="25" y="25" height="1" width="5"/><rect fill="#000000ff" x="30" y="25" height="1" width="1"/><rect fill="#000000ff" x="7" y="26" height="1" width="3"/><rect fill="#58554eff" x="10" y="26" height="1" width="2"/><rect fill="#000000ff" x="12" y="26" height="1" width="4"/><rect fill="#58554eff" x="16" y="26" height="1" width="1"/><rect fill="#000000ff" x="17" y="26" height="1" width="1"/><rect fill="#58554eff" x="18" y="26" height="1" width="1"/><rect fill="#000000ff" x="19" y="26" height="1" width="5"/><rect fill="#58554eff" x="24" y="26" height="1" width="1"/><rect fill="#000000ff" x="25" y="26" height="1" width="3"/><rect fill="#58554eff" x="28" y="26" height="1" width="1"/><rect fill="#000000ff" x="29" y="26" height="1" width="1"/><rect fill="#000000ff" x="6" y="27" height="1" width="1"/><rect fill="#e4c8a1ff" x="7" y="27" height="1" width="7"/><rect fill="#000000ff" x="14" y="27" height="1" width="1"/><rect fill="#e4c8a1ff" x="15" y="27" height="1" width="2"/><rect fill="#000000ff" x="17" y="27" height="1" width="1"/><rect fill="#e4c8a1ff" x="18" y="27" height="1" width="2"/><rect fill="#000000ff" x="20" y="27" height="1" width="1"/><rect fill="#e4c8a1ff" x="21" y="27" height="1" width="7"/><rect fill="#000000ff" x="28" y="27" height="1" width="1"/><rect fill="#000000ff" x="7" y="28" height="1" width="21"/></svg>