<svg xmlns="http://www.w3.org/2000/svg" shape-rendering="crispEdges" version="1.1" viewBox="0 0 36 36" width="360" height="360"><rect fill="#030103ff" x="16" y="5" height="1" width="1"/><rect fill="#5c412aff" x="17" y="5" height="1" width="5"/><rect fill="#725328ff" x="14" y="6" height="1" width="4"/><rect fill="#030103ff" x="18" y="6" height="1" width="2"/><rect fill="#5c412aff" x="20" y="6" height="1" width="3"/><rect fill="#725328ff" x="13" y="7" height="1" width="6"/><rect fill="#5c412aff" x="19" y="7" height="1" width="5"/><rect fill="#725328ff" x="12" y="8" height="1" width="5"/><rect fill="#030103ff" x="17" y="8" height="1" width="1"/><rect fill="#725328ff" x="18" y="8" height="1" width="1"/><rect fill="#5c412aff" x="19" y="8" height="1" width="6"/><rect fill="#030103ff" x="10" y="9" height="1" width="15"/><rect fill="#5c412aff" x="7" y="10" height="1" width="21"/><rect fill="#e66724ff" x="10" y="11" height="1" width="1"/><rect fill="#efac6dff" x="11" y="11" height="1" width="14"/><rect fill="#e66724ff" x="25" y="11" height="1" width="1"/><rect fill="#e66724ff" x="9" y="12" height="1" width="1"/><rect fill="#efac6dff" x="10" y="12" height="1" width="1"/><rect fill="#667af9ff" x="11" y="12" height="1" width="5"/><rect fill="#efac6dff" x="16" y="12" height="1" width="1"/><rect fill="#667af9ff" x="17" y="12" height="1" width="5"/><rect fill="#efac6dff" x="22" y="12" height="1" width="3"/><rect fill="#e66724ff" x="25" y="12" height="1" width="1"/><rect fill="#e66724ff" x="9" y="13" height="1" width="1"/><rect fill="#efac6dff" x="10" y="13" height="1" width="1"/><rect fill="#000000ff" x="11" y="13" height="1" width="3"/><rect fill="#fff449ff" x="14" y="13" height="1" width="2"/><rect fill="#efac6dff" x="16" y="13" height="1" width="1"/><rect fill="#000000ff" x="17" y="13" height="1" width="3"/><rect fill="#fff449ff" x="20" y="13" height="1" width="2"/><rect fill="#efac6dff" x="22" y="13" height="1" width="4"/><rect fill="#e66724ff" x="26" y="13" height="1" width="1"/><rect fill="#e66724ff" x="8" y="14" height="1" width="1"/><rect fill="#efac6dff" x="9" y="14" height="1" width="17"/><rect fill="#e66724ff" x="26" y="14" height="1" width="1"/><rect fill="#e66724ff" x="8" y="15" height="1" width="1"/><rect fill="#efac6dff" x="9" y="15" height="1" width="17"/><rect fill="#e66724ff" x="26" y="15" height="1" width="1"/><rect fill="#e66724ff" x="8" y="16" height="1" width="1"/><rect fill="#efac6dff" x="9" y="16" height="1" width="2"/><rect fill="#e66724ff" x="11" y="16" height="1" width="11"/><rect fill="#efac6dff" x="22" y="16" height="1" width="4"/><rect fill="#e66724ff" x="26" y="16" height="1" width="1"/><rect fill="#e66724ff" x="8" y="17" height="1" width="1"/><rect fill="#efac6dff" x="9" y="17" height="1" width="17"/><rect fill="#e66724ff" x="26" y="17" height="1" width="1"/><rect fill="#e66724ff" x="8" y="18" height="1" width="1"/><rect fill="#efac6dff" x="9" y="18" height="1" width="17"/><rect fill="#e66724ff" x="26" y="18" height="1" width="1"/><rect fill="#e66724ff" x="8" y="19" height="1" width="1"/><rect fill="#efac6dff" x="9" y="19" height="1" width="17"/><rect fill="#e66724ff" x="26" y="19" height="1" width="2"/><rect fill="#e66724ff" x="7" y="20" height="1" width="2"/><rect fill="#efac6dff" x="9" y="20" height="1" width="17"/><rect fill="#e66724ff" x="26" y="20" height="1" width="1"/><rect fill="#efac6dff" x="27" y="20" height="1" width="1"/><rect fill="#e66724ff" x="28" y="20" height="1" width="1"/><rect fill="#e66724ff" x="6" y="21" height="1" width="1"/><rect fill="#efac6dff" x="7" y="21" height="1" width="1"/><rect fill="#e66724ff" x="8" y="21" height="1" width="1"/><rect fill="#efac6dff" x="9" y="21" height="1" width="5"/><rect fill="#e66724ff" x="14" y="21" height="1" width="1"/><rect fill="#efac6dff" x="15" y="21" height="1" width="2"/><rect fill="#e66724ff" x="17" y="21" height="1" width="1"/><rect fill="#efac6dff" x="18" y="21" height="1" width="2"/><rect fill="#e66724ff" x="20" y="21" height="1" width="1"/><rect fill="#efac6dff" x="21" y="21" height="1" width="5"/><rect fill="#e66724ff" x="26" y="21" height="1" width="1"/><rect fill="#efac6dff" x="27" y="21" height="1" width="2"/><rect fill="#e66724ff" x="29" y="21" height="1" width="1"/><rect fill="#e66724ff" x="5" y="22" height="1" width="1"/><rect fill="#efac6dff" x="6" y="22" height="1" width="3"/><rect fill="#e66724ff" x="9" y="22" height="1" width="1"/><rect fill="#efac6dff" x="10" y="22" height="1" width="5"/><rect fill="#e66724ff" x="15" y="22" height="1" width="1"/><rect fill="#efac6dff" x="16" y="22" height="1" width="1"/><rect fill="#e66724ff" x="17" y="22" height="1" width="1"/><rect fill="#efac6dff" x="18" y="22" height="1" width="1"/><rect fill="#e66724ff" x="19" y="22" height="1" width="1"/><rect fill="#efac6dff" x="20" y="22" height="1" width="6"/><rect fill="#e66724ff" x="26" y="22" height="1" width="1"/><rect fill="#efac6dff" x="27" y="22" height="1" width="3"/><rect fill="#e66724ff" x="30" y="22" height="1" width="1"/><rect fill="#e66724ff" x="5" y="23" height="1" width="1"/><rect fill="#efac6dff" x="6" y="23" height="1" width="3"/><rect fill="#e66724ff" x="9" y="23" height="1" width="1"/><rect fill="#efac6dff" x="10" y="23" height="1" width="5"/><rect fill="#e66724ff" x="15" y="23" height="1" width="1"/><rect fill="#efac6dff" x="16" y="23" height="1" width="1"/><rect fill="#e66724ff" x="17" y="23" height="1" width="1"/><rect fill="#efac6dff" x="18" y="23" height="1" width="1"/><rect fill="#e66724ff" x="19" y="23" height="1" width="1"/><rect fill="#efac6dff" x="20" y="23" height="1" width="6"/><rect fill="#e66724ff" x="26" y="23" height="1" width="1"/><rect fill="#efac6dff" x="27" y="23" height="1" width="3"/><rect fill="#e66724ff" x="30" y="23" height="1" width="1"/><rect fill="#e66724ff" x="5" y="24" height="1" width="1"/><rect fill="#efac6dff" x="6" y="24" height="1" width="4"/><rect fill="#e66724ff" x="10" y="24" height="1" width="1"/><rect fill="#efac6dff" x="11" y="24" height="1" width="4"/><rect fill="#e66724ff" x="15" y="24" height="1" width="1"/><rect fill="#efac6dff" x="16" y="24" height="1" width="1"/><rect fill="#e66724ff" x="17" y="24" height="1" width="1"/><rect fill="#efac6dff" x="18" y="24" height="1" width="1"/><rect fill="#e66724ff" x="19" y="24" height="1" width="1"/><rect fill="#efac6dff" x="20" y="24" height="1" width="5"/><rect fill="#e66724ff" x="25" y="24" height="1" width="1"/><rect fill="#efac6dff" x="26" y="24" height="1" width="4"/><rect fill="#e66724ff" x="30" y="24" height="1" width="1"/><rect fill="#e66724ff" x="6" y="25" height="1" width="1"/><rect fill="#efac6dff" x="7" y="25" height="1" width="4"/><rect fill="#e66724ff" x="11" y="25" height="1" width="1"/><rect fill="#efac6dff" x="12" y="25" height="1" width="3"/><rect fill="#e66724ff" x="15" y="25" height="1" width="1"/><rect fill="#efac6dff" x="16" y="25" height="1" width="1"/><rect fill="#e66724ff" x="17" y="25" height="1" width="1"/><rect fill="#efac6dff" x="18" y="25" height="1" width="1"/><rect fill="#e66724ff" x="19" y="25" height="1" width="1"/><rect fill="#efac6dff" x="20" y="25" height="1" width="4"/><rect fill="#e66724ff" x="24" y="25" height="1" width="1"/><rect fill="#efac6dff" x="25" y="25" height="1" width="5"/><rect fill="#e66724ff" x="30" y="25" height="1" width="1"/><rect fill="#e66724ff" x="7" y="26" height="1" width="3"/><rect fill="#efac6dff" x="10" y="26" height="1" width="2"/><rect fill="#e66724ff" x="12" y="26" height="1" width="4"/><rect fill="#efac6dff" x="16" y="26" height="1" width="1"/><rect fill="#e66724ff" x="17" y="26" height="1" width="1"/><rect fill="#efac6dff" x="18" y="26" height="1" width="1"/><rect fill="#e66724ff" x="19" y="26" height="1" width="5"/><rect fill="#efac6dff" x="24" y="26" height="1" width="1"/><rect fill="#e66724ff" x="25" y="26" height="1" width="3"/><rect fill="#efac6dff" x="28" y="26" height="1" width="1"/><rect fill="#e66724ff" x="29" y="26" height="1" width="1"/><rect fill="#e66724ff" x="6" y="27" height="1" width="1"/><rect fill="#efac6dff" x="7" y="27" height="1" width="7"/><rect fill="#e66724ff" x="14" y="27" height="1" width="1"/><rect fill="#efac6dff" x="15" y="27" height="1" width="2"/><rect fill="#e66724ff" x="17" y="27" height="1" width="1"/><rect fill="#efac6dff" x="18" y="27" height="1" width="2"/><rect fill="#e66724ff" x="20" y="27" height="1" width="1"/><rect fill="#efac6dff" x="21" y="27" height="1" width="7"/><rect fill="#e66724ff" x="28" y="27" height="1" width="1"/><rect fill="#e66724ff" x="7" y="28" height="1" width="21"/></svg>