<svg xmlns="http://www.w3.org/2000/svg" shape-rendering="crispEdges" version="1.1" viewBox="0 0 36 36" width="360" height="360"><rect fill="#554947ff" x="6" y="13" height="1" width="3"/><rect fill="#554947ff" x="5" y="14" height="1" width="1"/><rect fill="#000000ff" x="10" y="14" height="1" width="15"/><rect fill="#554947ff" x="5" y="15" height="1" width="1"/><rect fill="#000000ff" x="9" y="15" height="1" width="1"/><rect fill="#a28ef4ff" x="10" y="15" height="1" width="3"/><rect fill="#8f83c0ff" x="13" y="15" height="1" width="1"/><rect fill="#a28ef4ff" x="14" y="15" height="1" width="2"/><rect fill="#8f83c0ff" x="16" y="15" height="1" width="1"/><rect fill="#a28ef4ff" x="17" y="15" height="1" width="2"/><rect fill="#8f83c0ff" x="19" y="15" height="1" width="1"/><rect fill="#a28ef4ff" x="20" y="15" height="1" width="5"/><rect fill="#000000ff" x="25" y="15" height="1" width="1"/><rect fill="#554947ff" x="4" y="16" height="1" width="1"/><rect fill="#000000ff" x="8" y="16" height="1" width="1"/><rect fill="#8f83c0ff" x="9" y="16" height="1" width="1"/><rect fill="#a28ef4ff" x="10" y="16" height="1" width="1"/><rect fill="#ffa8eeff" x="11" y="16" height="1" width="1"/><rect fill="#a28ef4ff" x="12" y="16" height="1" width="11"/><rect fill="#8f83c0ff" x="23" y="16" height="1" width="1"/><rect fill="#a28ef4ff" x="24" y="16" height="1" width="2"/><rect fill="#000000ff" x="26" y="16" height="1" width="1"/><rect fill="#554947ff" x="4" y="17" height="1" width="1"/><rect fill="#000000ff" x="8" y="17" height="1" width="3"/><rect fill="#12c1fbff" x="11" y="17" height="1" width="2"/><rect fill="#ffe330ff" x="13" y="17" height="1" width="1"/><rect fill="#ff7216ff" x="14" y="17" height="1" width="2"/><rect fill="#ff0e0eff" x="16" y="17" height="1" width="1"/><rect fill="#ff7216ff" x="17" y="17" height="1" width="2"/><rect fill="#ffe330ff" x="19" y="17" height="1" width="1"/><rect fill="#12c1fbff" x="20" y="17" height="1" width="2"/><rect fill="#000000ff" x="22" y="17" height="1" width="5"/><rect fill="#554947ff" x="4" y="18" height="1" width="1"/><rect fill="#000000ff" x="6" y="18" height="1" width="3"/><rect fill="#a28ef4ff" x="9" y="18" height="1" width="2"/><rect fill="#12c1fbff" x="11" y="18" height="1" width="2"/><rect fill="#ffe330ff" x="13" y="18" height="1" width="1"/><rect fill="#ff7216ff" x="14" y="18" height="1" width="2"/><rect fill="#ff0e0eff" x="16" y="18" height="1" width="1"/><rect fill="#ff7216ff" x="17" y="18" height="1" width="2"/><rect fill="#ffe330ff" x="19" y="18" height="1" width="1"/><rect fill="#12c1fbff" x="20" y="18" height="1" width="2"/><rect fill="#a28ef4ff" x="22" y="18" height="1" width="2"/><rect fill="#8f83c0ff" x="24" y="18" height="1" width="1"/><rect fill="#a28ef4ff" x="25" y="18" height="1" width="1"/><rect fill="#000000ff" x="26" y="18" height="1" width="4"/><rect fill="#000000ff" x="5" y="19" height="1" width="1"/><rect fill="#a28ef4ff" x="6" y="19" height="1" width="1"/><rect fill="#000000ff" x="7" y="19" height="1" width="1"/><rect fill="#a28ef4ff" x="8" y="19" height="1" width="4"/><rect fill="#12c1fbff" x="12" y="19" height="1" width="1"/><rect fill="#ffe330ff" x="13" y="19" height="1" width="1"/><rect fill="#ff7216ff" x="14" y="19" height="1" width="2"/><rect fill="#a28ef4ff" x="16" y="19" height="1" width="1"/><rect fill="#ff7216ff" x="17" y="19" height="1" width="2"/><rect fill="#ffe330ff" x="19" y="19" height="1" width="1"/><rect fill="#12c1fbff" x="20" y="19" height="1" width="1"/><rect fill="#a28ef4ff" x="21" y="19" height="1" width="1"/><rect fill="#d16821ff" x="22" y="19" height="1" width="3"/><rect fill="#a28ef4ff" x="25" y="19" height="1" width="2"/><rect fill="#000000ff" x="27" y="19" height="1" width="1"/><rect fill="#a28ef4ff" x="28" y="19" height="1" width="2"/><rect fill="#000000ff" x="30" y="19" height="1" width="1"/><rect fill="#000000ff" x="5" y="20" height="1" width="6"/><rect fill="#d16821ff" x="11" y="20" height="1" width="12"/><rect fill="#000000ff" x="23" y="20" height="1" width="1"/><rect fill="#d16821ff" x="24" y="20" height="1" width="1"/><rect fill="#8f83c0ff" x="25" y="20" height="1" width="1"/><rect fill="#a28ef4ff" x="26" y="20" height="1" width="1"/><rect fill="#000000ff" x="27" y="20" height="1" width="1"/><rect fill="#8f83c0ff" x="28" y="20" height="1" width="1"/><rect fill="#a28ef4ff" x="29" y="20" height="1" width="2"/><rect fill="#000000ff" x="31" y="20" height="1" width="1"/><rect fill="#000000ff" x="4" y="21" height="1" width="2"/><rect fill="#e95f2aff" x="6" y="21" height="1" width="1"/><rect fill="#f9f4f2ff" x="7" y="21" height="1" width="4"/><rect fill="#000000ff" x="11" y="21" height="1" width="12"/><rect fill="#d16821ff" x="23" y="21" height="1" width="2"/><rect fill="#000000ff" x="25" y="21" height="1" width="1"/><rect fill="#a28ef4ff" x="26" y="21" height="1" width="1"/><rect fill="#000000ff" x="27" y="21" height="1" width="1"/><rect fill="#a28ef4ff" x="28" y="21" height="1" width="1"/><rect fill="#ffa8eeff" x="29" y="21" height="1" width="1"/><rect fill="#8f83c0ff" x="30" y="21" height="1" width="1"/><rect fill="#000000ff" x="31" y="21" height="1" width="1"/><rect fill="#000000ff" x="4" y="22" height="1" width="1"/><rect fill="#ffa8eeff" x="5" y="22" height="1" width="1"/><rect fill="#000000ff" x="6" y="22" height="1" width="5"/><rect fill="#d16821ff" x="11" y="22" height="1" width="12"/><rect fill="#000000ff" x="23" y="22" height="1" width="3"/><rect fill="#a28ef4ff" x="26" y="22" height="1" width="1"/><rect fill="#000000ff" x="27" y="22" height="1" width="1"/><rect fill="#a28ef4ff" x="28" y="22" height="1" width="3"/><rect fill="#000000ff" x="31" y="22" height="1" width="1"/><rect fill="#000000ff" x="4" y="23" height="1" width="1"/><rect fill="#8f83c0ff" x="5" y="23" height="1" width="1"/><rect fill="#a28ef4ff" x="6" y="23" height="1" width="1"/><rect fill="#000000ff" x="7" y="23" height="1" width="18"/><rect fill="#a28ef4ff" x="25" y="23" height="1" width="1"/><rect fill="#000000ff" x="26" y="23" height="1" width="1"/><rect fill="#a28ef4ff" x="27" y="23" height="1" width="2"/><rect fill="#ffa8eeff" x="29" y="23" height="1" width="1"/><rect fill="#a28ef4ff" x="30" y="23" height="1" width="1"/><rect fill="#000000ff" x="31" y="23" height="1" width="1"/><rect fill="#000000ff" x="4" y="24" height="1" width="1"/><rect fill="#a28ef4ff" x="5" y="24" height="1" width="2"/><rect fill="#000000ff" x="7" y="24" height="1" width="17"/><rect fill="#a28ef4ff" x="24" y="24" height="1" width="2"/><rect fill="#000000ff" x="26" y="24" height="1" width="1"/><rect fill="#a28ef4ff" x="27" y="24" height="1" width="1"/><rect fill="#8f83c0ff" x="28" y="24" height="1" width="1"/><rect fill="#a28ef4ff" x="29" y="24" height="1" width="2"/><rect fill="#000000ff" x="31" y="24" height="1" width="1"/><rect fill="#000000ff" x="5" y="25" height="1" width="1"/><rect fill="#a28ef4ff" x="6" y="25" height="1" width="3"/><rect fill="#000000ff" x="9" y="25" height="1" width="1"/><rect fill="#a28ef4ff" x="10" y="25" height="1" width="3"/><rect fill="#000000ff" x="13" y="25" height="1" width="1"/><rect fill="#ffa8eeff" x="14" y="25" height="1" width="1"/><rect fill="#a28ef4ff" x="15" y="25" height="1" width="2"/><rect fill="#000000ff" x="17" y="25" height="1" width="1"/><rect fill="#ffa8eeff" x="18" y="25" height="1" width="1"/><rect fill="#a28ef4ff" x="19" y="25" height="1" width="2"/><rect fill="#000000ff" x="21" y="25" height="1" width="1"/><rect fill="#a28ef4ff" x="22" y="25" height="1" width="3"/><rect fill="#000000ff" x="25" y="25" height="1" width="1"/><rect fill="#a28ef4ff" x="26" y="25" height="1" width="4"/><rect fill="#000000ff" x="30" y="25" height="1" width="1"/><rect fill="#000000ff" x="5" y="26" height="1" width="1"/><rect fill="#a28ef4ff" x="6" y="26" height="1" width="2"/><rect fill="#000000ff" x="8" y="26" height="1" width="6"/><rect fill="#ffa8eeff" x="14" y="26" height="1" width="1"/><rect fill="#a28ef4ff" x="15" y="26" height="1" width="2"/><rect fill="#000000ff" x="17" y="26" height="1" width="1"/><rect fill="#ffa8eeff" x="18" y="26" height="1" width="1"/><rect fill="#a28ef4ff" x="19" y="26" height="1" width="2"/><rect fill="#000000ff" x="21" y="26" height="1" width="6"/><rect fill="#a28ef4ff" x="27" y="26" height="1" width="3"/><rect fill="#000000ff" x="30" y="26" height="1" width="1"/><rect fill="#000000ff" x="6" y="27" height="1" width="1"/><rect fill="#a28ef4ff" x="7" y="27" height="1" width="1"/><rect fill="#000000ff" x="8" y="27" height="1" width="1"/><rect fill="#a28ef4ff" x="9" y="27" height="1" width="4"/><rect fill="#000000ff" x="13" y="27" height="1" width="1"/><rect fill="#a28ef4ff" x="14" y="27" height="1" width="3"/><rect fill="#000000ff" x="17" y="27" height="1" width="1"/><rect fill="#a28ef4ff" x="18" y="27" height="1" width="3"/><rect fill="#000000ff" x="21" y="27" height="1" width="1"/><rect fill="#a28ef4ff" x="22" y="27" height="1" width="4"/><rect fill="#000000ff" x="26" y="27" height="1" width="1"/><rect fill="#a28ef4ff" x="27" y="27" height="1" width="2"/><rect fill="#000000ff" x="29" y="27" height="1" width="1"/><rect fill="#000000ff" x="7" y="28" height="1" width="22"/></svg>