<svg xmlns="http://www.w3.org/2000/svg" shape-rendering="crispEdges" version="1.1" viewBox="0 0 36 36" width="360" height="360"><rect fill="#9675c2ff" x="11" y="9" height="1" width="1"/><rect fill="#000000ff" x="12" y="9" height="1" width="1"/><rect fill="#12c1fbff" x="13" y="9" height="1" width="2"/><rect fill="#000000ff" x="15" y="9" height="1" width="1"/><rect fill="#000000ff" x="8" y="10" height="1" width="1"/><rect fill="#9675c2ff" x="9" y="10" height="1" width="3"/><rect fill="#000000ff" x="12" y="10" height="1" width="1"/><rect fill="#12c1fbff" x="13" y="10" height="1" width="2"/><rect fill="#000000ff" x="15" y="10" height="1" width="1"/><rect fill="#43c58cff" x="16" y="10" height="1" width="1"/><rect fill="#000000ff" x="17" y="10" height="1" width="1"/><rect fill="#000000ff" x="9" y="11" height="1" width="1"/><rect fill="#9675c2ff" x="10" y="11" height="1" width="2"/><rect fill="#000000ff" x="12" y="11" height="1" width="1"/><rect fill="#12c1fbff" x="13" y="11" height="1" width="2"/><rect fill="#000000ff" x="15" y="11" height="1" width="1"/><rect fill="#43c58cff" x="16" y="11" height="1" width="1"/><rect fill="#000000ff" x="17" y="11" height="1" width="1"/><rect fill="#ffe330ff" x="18" y="11" height="1" width="1"/><rect fill="#000000ff" x="19" y="11" height="1" width="1"/><rect fill="#000000ff" x="10" y="12" height="1" width="1"/><rect fill="#9675c2ff" x="11" y="12" height="1" width="2"/><rect fill="#000000ff" x="13" y="12" height="1" width="1"/><rect fill="#12c1fbff" x="14" y="12" height="1" width="1"/><rect fill="#000000ff" x="15" y="12" height="1" width="1"/><rect fill="#43c58cff" x="16" y="12" height="1" width="1"/><rect fill="#000000ff" x="17" y="12" height="1" width="1"/><rect fill="#ffe330ff" x="18" y="12" height="1" width="1"/><rect fill="#000000ff" x="19" y="12" height="1" width="1"/><rect fill="#ff7216ff" x="20" y="12" height="1" width="1"/><rect fill="#000000ff" x="21" y="12" height="1" width="1"/><rect fill="#000000ff" x="11" y="13" height="1" width="1"/><rect fill="#9675c2ff" x="12" y="13" height="1" width="1"/><rect fill="#000000ff" x="13" y="13" height="1" width="1"/><rect fill="#12c1fbff" x="14" y="13" height="1" width="1"/><rect fill="#000000ff" x="15" y="13" height="1" width="1"/><rect fill="#43c58cff" x="16" y="13" height="1" width="1"/><rect fill="#000000ff" x="17" y="13" height="1" width="1"/><rect fill="#ffe330ff" x="18" y="13" height="1" width="1"/><rect fill="#000000ff" x="19" y="13" height="1" width="1"/><rect fill="#ff7216ff" x="20" y="13" height="1" width="1"/><rect fill="#000000ff" x="21" y="13" height="1" width="1"/><rect fill="#ff0e0eff" x="22" y="13" height="1" width="1"/><rect fill="#000000ff" x="12" y="14" height="1" width="12"/><rect fill="#000000ff" x="11" y="15" height="1" width="1"/><rect fill="#ffffffff" x="12" y="15" height="1" width="6"/><rect fill="#fff0eeff" x="18" y="15" height="1" width="1"/><rect fill="#ffffffff" x="19" y="15" height="1" width="5"/><rect fill="#000000ff" x="24" y="15" height="1" width="1"/><rect fill="#000000ff" x="10" y="16" height="1" width="1"/><rect fill="#ffffffff" x="11" y="16" height="1" width="11"/><rect fill="#fff0eeff" x="22" y="16" height="1" width="1"/><rect fill="#ffffffff" x="23" y="16" height="1" width="2"/><rect fill="#000000ff" x="25" y="16" height="1" width="1"/><rect fill="#000000ff" x="10" y="17" height="1" width="1"/><rect fill="#fff0eeff" x="11" y="17" height="1" width="5"/><rect fill="#ffffffff" x="16" y="17" height="1" width="1"/><rect fill="#fff0eeff" x="17" y="17" height="1" width="5"/><rect fill="#ffffffff" x="22" y="17" height="1" width="1"/><rect fill="#fff0eeff" x="23" y="17" height="1" width="1"/><rect fill="#ffffffff" x="24" y="17" height="1" width="1"/><rect fill="#000000ff" x="25" y="17" height="1" width="1"/><rect fill="#000000ff" x="9" y="18" height="1" width="1"/><rect fill="#ffffffff" x="10" y="18" height="1" width="1"/><rect fill="#ff0e0eff" x="11" y="18" height="1" width="3"/><rect fill="#f7e3d8ff" x="14" y="18" height="1" width="2"/><rect fill="#ffffffff" x="16" y="18" height="1" width="1"/><rect fill="#ff0e0eff" x="17" y="18" height="1" width="3"/><rect fill="#f7e3d8ff" x="20" y="18" height="1" width="2"/><rect fill="#ffffffff" x="22" y="18" height="1" width="4"/><rect fill="#000000ff" x="26" y="18" height="1" width="1"/><rect fill="#000000ff" x="8" y="19" height="1" width="1"/><rect fill="#ffffffff" x="9" y="19" height="1" width="13"/><rect fill="#d16821ff" x="22" y="19" height="1" width="3"/><rect fill="#ffffffff" x="25" y="19" height="1" width="1"/><rect fill="#000000ff" x="26" y="19" height="1" width="2"/><rect fill="#000000ff" x="7" y="20" height="1" width="2"/><rect fill="#d16821ff" x="9" y="20" height="1" width="14"/><rect fill="#000000ff" x="23" y="20" height="1" width="1"/><rect fill="#d16821ff" x="24" y="20" height="1" width="1"/><rect fill="#fff0eeff" x="25" y="20" height="1" width="1"/><rect fill="#000000ff" x="26" y="20" height="1" width="1"/><rect fill="#ffffffff" x="27" y="20" height="1" width="1"/><rect fill="#000000ff" x="28" y="20" height="1" width="1"/><rect fill="#000000ff" x="6" y="21" height="1" width="1"/><rect fill="#fff0eeff" x="7" y="21" height="1" width="1"/><rect fill="#000000ff" x="8" y="21" height="1" width="1"/><rect fill="#d16821ff" x="9" y="21" height="1" width="1"/><rect fill="#000000ff" x="10" y="21" height="1" width="13"/><rect fill="#d16821ff" x="23" y="21" height="1" width="2"/><rect fill="#000000ff" x="25" y="21" height="1" width="2"/><rect fill="#ffffffff" x="27" y="21" height="1" width="2"/><rect fill="#000000ff" x="29" y="21" height="1" width="1"/><rect fill="#000000ff" x="5" y="22" height="1" width="1"/><rect fill="#ffffffff" x="6" y="22" height="1" width="1"/><rect fill="#000000ff" x="7" y="22" height="1" width="3"/><rect fill="#d16821ff" x="10" y="22" height="1" width="13"/><rect fill="#000000ff" x="23" y="22" height="1" width="4"/><rect fill="#fff0eeff" x="27" y="22" height="1" width="1"/><rect fill="#ffffffff" x="28" y="22" height="1" width="1"/><rect fill="#fff0eeff" x="29" y="22" height="1" width="1"/><rect fill="#000000ff" x="30" y="22" height="1" width="1"/><rect fill="#000000ff" x="5" y="23" height="1" width="1"/><rect fill="#fff0eeff" x="6" y="23" height="1" width="1"/><rect fill="#000000ff" x="7" y="23" height="1" width="18"/><rect fill="#ffffffff" x="25" y="23" height="1" width="1"/><rect fill="#000000ff" x="26" y="23" height="1" width="1"/><rect fill="#ffffffff" x="27" y="23" height="1" width="3"/><rect fill="#000000ff" x="30" y="23" height="1" width="1"/><rect fill="#000000ff" x="5" y="24" height="1" width="1"/><rect fill="#ffffffff" x="6" y="24" height="1" width="1"/><rect fill="#000000ff" x="7" y="24" height="1" width="17"/><rect fill="#ffffffff" x="24" y="24" height="1" width="1"/><rect fill="#000000ff" x="25" y="24" height="1" width="1"/><rect fill="#ffffffff" x="26" y="24" height="1" width="2"/><rect fill="#fff0eeff" x="28" y="24" height="1" width="1"/><rect fill="#ffffffff" x="29" y="24" height="1" width="1"/><rect fill="#000000ff" x="30" y="24" height="1" width="1"/><rect fill="#000000ff" x="6" y="25" height="1" width="1"/><rect fill="#ffffffff" x="7" y="25" height="1" width="1"/><rect fill="#fff0eeff" x="8" y="25" height="1" width="1"/><rect fill="#ffffffff" x="9" y="25" height="1" width="2"/><rect fill="#000000ff" x="11" y="25" height="1" width="1"/><rect fill="#ffffffff" x="12" y="25" height="1" width="3"/><rect fill="#000000ff" x="15" y="25" height="1" width="1"/><rect fill="#ffffffff" x="16" y="25" height="1" width="1"/><rect fill="#000000ff" x="17" y="25" height="1" width="1"/><rect fill="#ffffffff" x="18" y="25" height="1" width="1"/><rect fill="#000000ff" x="19" y="25" height="1" width="1"/><rect fill="#ffffffff" x="20" y="25" height="1" width="4"/><rect fill="#000000ff" x="24" y="25" height="1" width="1"/><rect fill="#ffffffff" x="25" y="25" height="1" width="5"/><rect fill="#000000ff" x="30" y="25" height="1" width="1"/><rect fill="#000000ff" x="7" y="26" height="1" width="3"/><rect fill="#ffffffff" x="10" y="26" height="1" width="2"/><rect fill="#000000ff" x="12" y="26" height="1" width="4"/><rect fill="#ffffffff" x="16" y="26" height="1" width="1"/><rect fill="#000000ff" x="17" y="26" height="1" width="1"/><rect fill="#ffffffff" x="18" y="26" height="1" width="1"/><rect fill="#000000ff" x="19" y="26" height="1" width="5"/><rect fill="#ffffffff" x="24" y="26" height="1" width="1"/><rect fill="#000000ff" x="25" y="26" height="1" width="3"/><rect fill="#ffffffff" x="28" y="26" height="1" width="1"/><rect fill="#000000ff" x="29" y="26" height="1" width="1"/><rect fill="#000000ff" x="6" y="27" height="1" width="1"/><rect fill="#ffffffff" x="7" y="27" height="1" width="7"/><rect fill="#000000ff" x="14" y="27" height="1" width="1"/><rect fill="#ffffffff" x="15" y="27" height="1" width="2"/><rect fill="#000000ff" x="17" y="27" height="1" width="1"/><rect fill="#ffffffff" x="18" y="27" height="1" width="2"/><rect fill="#000000ff" x="20" y="27" height="1" width="1"/><rect fill="#ffffffff" x="21" y="27" height="1" width="7"/><rect fill="#000000ff" x="28" y="27" height="1" width="1"/><rect fill="#000000ff" x="7" y="28" height="1" width="21"/></svg>