<svg xmlns="http://www.w3.org/2000/svg" shape-rendering="crispEdges" version="1.1" viewBox="0 0 36 36" width="360" height="360"><rect fill="#000000ff" x="10" y="3" height="1" width="2"/><rect fill="#43c58cff" x="9" y="4" height="1" width="3"/><rect fill="#000000ff" x="12" y="4" height="1" width="2"/><rect fill="#000000ff" x="8" y="5" height="1" width="2"/><rect fill="#43c58cff" x="10" y="5" height="1" width="4"/><rect fill="#000000ff" x="14" y="5" height="1" width="2"/><rect fill="#43c58cff" x="7" y="6" height="1" width="3"/><rect fill="#000000ff" x="10" y="6" height="1" width="2"/><rect fill="#43c58cff" x="12" y="6" height="1" width="4"/><rect fill="#000000ff" x="16" y="6" height="1" width="1"/><rect fill="#000000ff" x="6" y="7" height="1" width="2"/><rect fill="#43c58cff" x="8" y="7" height="1" width="4"/><rect fill="#000000ff" x="12" y="7" height="1" width="3"/><rect fill="#43c58cff" x="15" y="7" height="1" width="2"/><rect fill="#000000ff" x="17" y="7" height="1" width="1"/><rect fill="#000000ff" x="19" y="7" height="1" width="1"/><rect fill="#000000ff" x="21" y="7" height="1" width="1"/><rect fill="#000000ff" x="23" y="7" height="1" width="1"/><rect fill="#43c58cff" x="6" y="8" height="1" width="2"/><rect fill="#000000ff" x="8" y="8" height="1" width="2"/><rect fill="#43c58cff" x="10" y="8" height="1" width="5"/><rect fill="#000000ff" x="15" y="8" height="1" width="1"/><rect fill="#43c58cff" x="16" y="8" height="1" width="1"/><rect fill="#000000ff" x="17" y="8" height="1" width="1"/><rect fill="#000000ff" x="19" y="8" height="1" width="1"/><rect fill="#000000ff" x="21" y="8" height="1" width="1"/><rect fill="#000000ff" x="23" y="8" height="1" width="1"/><rect fill="#43c58cff" x="6" y="9" height="1" width="4"/><rect fill="#000000ff" x="10" y="9" height="1" width="8"/><rect fill="#1929f4ff" x="18" y="9" height="1" width="1"/><rect fill="#000000ff" x="19" y="9" height="1" width="1"/><rect fill="#1929f4ff" x="20" y="9" height="1" width="1"/><rect fill="#000000ff" x="21" y="9" height="1" width="1"/><rect fill="#1929f4ff" x="22" y="9" height="1" width="1"/><rect fill="#000000ff" x="23" y="9" height="1" width="1"/><rect fill="#000000ff" x="26" y="9" height="1" width="1"/><rect fill="#43c58cff" x="5" y="10" height="1" width="6"/><rect fill="#000000ff" x="11" y="10" height="1" width="1"/><rect fill="#666666ff" x="12" y="10" height="1" width="12"/><rect fill="#000000ff" x="24" y="10" height="1" width="2"/><rect fill="#1929f4ff" x="10" y="11" height="1" width="1"/><rect fill="#666666ff" x="11" y="11" height="1" width="9"/><rect fill="#000000ff" x="20" y="11" height="1" width="1"/><rect fill="#666666ff" x="21" y="11" height="1" width="1"/><rect fill="#000000ff" x="22" y="11" height="1" width="1"/><rect fill="#666666ff" x="23" y="11" height="1" width="2"/><rect fill="#1929f4ff" x="25" y="11" height="1" width="1"/><rect fill="#000000ff" x="27" y="11" height="1" width="1"/><rect fill="#1929f4ff" x="10" y="12" height="1" width="1"/><rect fill="#666666ff" x="11" y="12" height="1" width="1"/><rect fill="#1929f4ff" x="12" y="12" height="1" width="4"/><rect fill="#666666ff" x="16" y="12" height="1" width="2"/><rect fill="#1929f4ff" x="18" y="12" height="1" width="4"/><rect fill="#666666ff" x="22" y="12" height="1" width="2"/><rect fill="#000000ff" x="24" y="12" height="1" width="3"/><rect fill="#1929f4ff" x="10" y="13" height="1" width="6"/><rect fill="#666666ff" x="16" y="13" height="1" width="1"/><rect fill="#1929f4ff" x="17" y="13" height="1" width="5"/><rect fill="#666666ff" x="22" y="13" height="1" width="1"/><rect fill="#1929f4ff" x="23" y="13" height="1" width="1"/><rect fill="#666666ff" x="24" y="13" height="1" width="1"/><rect fill="#1929f4ff" x="25" y="13" height="1" width="1"/><rect fill="#1929f4ff" x="9" y="14" height="1" width="1"/><rect fill="#666666ff" x="10" y="14" height="1" width="13"/><rect fill="#1929f4ff" x="23" y="14" height="1" width="1"/><rect fill="#666666ff" x="24" y="14" height="1" width="1"/><rect fill="#1929f4ff" x="25" y="14" height="1" width="1"/><rect fill="#1929f4ff" x="8" y="15" height="1" width="1"/><rect fill="#666666ff" x="9" y="15" height="1" width="2"/><rect fill="#1929f4ff" x="11" y="15" height="1" width="1"/><rect fill="#666666ff" x="12" y="15" height="1" width="1"/><rect fill="#1929f4ff" x="13" y="15" height="1" width="1"/><rect fill="#666666ff" x="14" y="15" height="1" width="1"/><rect fill="#1929f4ff" x="15" y="15" height="1" width="1"/><rect fill="#666666ff" x="16" y="15" height="1" width="1"/><rect fill="#1929f4ff" x="17" y="15" height="1" width="1"/><rect fill="#666666ff" x="18" y="15" height="1" width="1"/><rect fill="#1929f4ff" x="19" y="15" height="1" width="1"/><rect fill="#666666ff" x="20" y="15" height="1" width="1"/><rect fill="#1929f4ff" x="21" y="15" height="1" width="2"/><rect fill="#666666ff" x="23" y="15" height="1" width="2"/><rect fill="#1929f4ff" x="25" y="15" height="1" width="1"/><rect fill="#1929f4ff" x="8" y="16" height="1" width="18"/><rect fill="#1929f4ff" x="8" y="17" height="1" width="1"/><rect fill="#666666ff" x="9" y="17" height="1" width="2"/><rect fill="#1929f4ff" x="11" y="17" height="1" width="1"/><rect fill="#666666ff" x="12" y="17" height="1" width="1"/><rect fill="#1929f4ff" x="13" y="17" height="1" width="1"/><rect fill="#666666ff" x="14" y="17" height="1" width="1"/><rect fill="#1929f4ff" x="15" y="17" height="1" width="1"/><rect fill="#666666ff" x="16" y="17" height="1" width="1"/><rect fill="#1929f4ff" x="17" y="17" height="1" width="1"/><rect fill="#666666ff" x="18" y="17" height="1" width="1"/><rect fill="#1929f4ff" x="19" y="17" height="1" width="1"/><rect fill="#666666ff" x="20" y="17" height="1" width="1"/><rect fill="#1929f4ff" x="21" y="17" height="1" width="2"/><rect fill="#666666ff" x="23" y="17" height="1" width="1"/><rect fill="#1929f4ff" x="24" y="17" height="1" width="1"/><rect fill="#1929f4ff" x="9" y="18" height="1" width="1"/><rect fill="#666666ff" x="10" y="18" height="1" width="14"/><rect fill="#1929f4ff" x="24" y="18" height="1" width="1"/><rect fill="#1929f4ff" x="10" y="19" height="1" width="14"/><rect fill="#1929f4ff" x="11" y="20" height="1" width="1"/><rect fill="#333333ff" x="12" y="20" height="1" width="3"/><rect fill="#1929f4ff" x="15" y="20" height="1" width="1"/><rect fill="#333333ff" x="16" y="20" height="1" width="1"/><rect fill="#1929f4ff" x="17" y="20" height="1" width="1"/><rect fill="#333333ff" x="18" y="20" height="1" width="1"/><rect fill="#1929f4ff" x="19" y="20" height="1" width="1"/><rect fill="#333333ff" x="20" y="20" height="1" width="3"/><rect fill="#1929f4ff" x="23" y="20" height="1" width="1"/><rect fill="#0d1892ff" x="9" y="21" height="1" width="2"/><rect fill="#1929f4ff" x="11" y="21" height="1" width="5"/><rect fill="#333333ff" x="16" y="21" height="1" width="1"/><rect fill="#1929f4ff" x="17" y="21" height="1" width="1"/><rect fill="#333333ff" x="18" y="21" height="1" width="1"/><rect fill="#1929f4ff" x="19" y="21" height="1" width="5"/><rect fill="#0d1892ff" x="24" y="21" height="1" width="2"/><rect fill="#0d1892ff" x="8" y="22" height="1" width="1"/><rect fill="#1a1a1aff" x="9" y="22" height="1" width="2"/><rect fill="#1929f4ff" x="11" y="22" height="1" width="1"/><rect fill="#333333ff" x="12" y="22" height="1" width="3"/><rect fill="#1929f4ff" x="15" y="22" height="1" width="1"/><rect fill="#333333ff" x="16" y="22" height="1" width="1"/><rect fill="#1929f4ff" x="17" y="22" height="1" width="1"/><rect fill="#333333ff" x="18" y="22" height="1" width="1"/><rect fill="#1929f4ff" x="19" y="22" height="1" width="1"/><rect fill="#333333ff" x="20" y="22" height="1" width="3"/><rect fill="#1929f4ff" x="23" y="22" height="1" width="1"/><rect fill="#1a1a1aff" x="24" y="22" height="1" width="2"/><rect fill="#0d1892ff" x="26" y="22" height="1" width="1"/><rect fill="#0d1892ff" x="7" y="23" height="1" width="1"/><rect fill="#1a1a1aff" x="8" y="23" height="1" width="3"/><rect fill="#1929f4ff" x="11" y="23" height="1" width="5"/><rect fill="#333333ff" x="16" y="23" height="1" width="1"/><rect fill="#1929f4ff" x="17" y="23" height="1" width="1"/><rect fill="#333333ff" x="18" y="23" height="1" width="1"/><rect fill="#1929f4ff" x="19" y="23" height="1" width="5"/><rect fill="#1a1a1aff" x="24" y="23" height="1" width="3"/><rect fill="#0d1892ff" x="27" y="23" height="1" width="1"/><rect fill="#0d1892ff" x="8" y="24" height="1" width="1"/><rect fill="#1a1a1aff" x="9" y="24" height="1" width="2"/><rect fill="#1929f4ff" x="11" y="24" height="1" width="1"/><rect fill="#333333ff" x="12" y="24" height="1" width="3"/><rect fill="#1929f4ff" x="15" y="24" height="1" width="1"/><rect fill="#333333ff" x="16" y="24" height="1" width="1"/><rect fill="#1929f4ff" x="17" y="24" height="1" width="1"/><rect fill="#333333ff" x="18" y="24" height="1" width="1"/><rect fill="#1929f4ff" x="19" y="24" height="1" width="1"/><rect fill="#333333ff" x="20" y="24" height="1" width="3"/><rect fill="#1929f4ff" x="23" y="24" height="1" width="1"/><rect fill="#1a1a1aff" x="24" y="24" height="1" width="2"/><rect fill="#0d1892ff" x="26" y="24" height="1" width="1"/><rect fill="#0d1892ff" x="9" y="25" height="1" width="1"/><rect fill="#1a1a1aff" x="10" y="25" height="1" width="2"/><rect fill="#1929f4ff" x="12" y="25" height="1" width="4"/><rect fill="#333333ff" x="16" y="25" height="1" width="1"/><rect fill="#1929f4ff" x="17" y="25" height="1" width="1"/><rect fill="#333333ff" x="18" y="25" height="1" width="1"/><rect fill="#1929f4ff" x="19" y="25" height="1" width="4"/><rect fill="#1a1a1aff" x="23" y="25" height="1" width="2"/><rect fill="#0d1892ff" x="25" y="25" height="1" width="1"/><rect fill="#0d1892ff" x="7" y="26" height="1" width="4"/><rect fill="#1a1a1aff" x="11" y="26" height="1" width="2"/><rect fill="#1929f4ff" x="13" y="26" height="1" width="3"/><rect fill="#333333ff" x="16" y="26" height="1" width="1"/><rect fill="#1929f4ff" x="17" y="26" height="1" width="1"/><rect fill="#aa940cff" x="18" y="26" height="1" width="1"/><rect fill="#ffe939ff" x="19" y="26" height="1" width="2"/><rect fill="#1929f4ff" x="21" y="26" height="1" width="1"/><rect fill="#1a1a1aff" x="22" y="26" height="1" width="2"/><rect fill="#0d1892ff" x="24" y="26" height="1" width="4"/><rect fill="#0d1892ff" x="6" y="27" height="1" width="1"/><rect fill="#1a1a1aff" x="7" y="27" height="1" width="7"/><rect fill="#1929f4ff" x="14" y="27" height="1" width="1"/><rect fill="#333333ff" x="15" y="27" height="1" width="2"/><rect fill="#1929f4ff" x="17" y="27" height="1" width="1"/><rect fill="#333333ff" x="18" y="27" height="1" width="2"/><rect fill="#1929f4ff" x="20" y="27" height="1" width="1"/><rect fill="#1a1a1aff" x="21" y="27" height="1" width="7"/><rect fill="#0d1892ff" x="28" y="27" height="1" width="1"/><rect fill="#0d1892ff" x="7" y="28" height="1" width="7"/><rect fill="#1929f4ff" x="14" y="28" height="1" width="7"/><rect fill="#0d1892ff" x="21" y="28" height="1" width="7"/></svg>